<svg width="242" height="277" viewBox="0 0 242 277" fill="none" xmlns="http://www.w3.org/2000/svg">
<g clip-path="url(#clip0_223_72)">
<path d="M16.6919 78.9999L85.5768 39.9766" stroke="white" stroke-linecap="round" stroke-linejoin="round"/>
<path d="M127.915 103.924L59.0303 142.941" stroke="white" stroke-linecap="round" stroke-linejoin="round"/>
<path d="M85.5767 39.9766L127.915 103.924" stroke="white" stroke-linecap="round" stroke-linejoin="round"/>
<path d="M127.915 103.924L196.807 64.9072" stroke="white" stroke-linecap="round" stroke-linejoin="round"/>
<path d="M193.867 67.2411L196.807 64.9072" stroke="white" stroke-linecap="round" stroke-linejoin="round"/>
<path d="M154.468 0.958984L85.5767 39.976" stroke="white" stroke-linecap="round" stroke-linejoin="round"/>
<path d="M196.807 64.9067L154.468 0.958984" stroke="white" stroke-linecap="round" stroke-linejoin="round"/>
<path d="M153.406 8.8877L188.686 62.1764L128.984 95.9949L93.6978 42.7062L153.406 8.8877Z" fill="white" stroke="white" stroke-width="0.5" stroke-linecap="round" stroke-linejoin="round"/>
<path d="M241.022 101.737V198.001" stroke="white" stroke-linecap="round" stroke-linejoin="round"/>
<path d="M241.022 101.737L230.607 88.0467L193.867 67.2402" stroke="white" stroke-linecap="round" stroke-linejoin="round"/>
<path d="M103.252 276.041L92.8306 270.133L0.977539 218.111V114.059L13.7521 106.827" stroke="white" stroke-linecap="round" stroke-linejoin="round"/>
<path d="M241.022 198.001L103.252 276.041" stroke="white" stroke-linecap="round" stroke-linejoin="round"/>
<path d="M92.8306 166.087L230.607 88.0469" stroke="white" stroke-linecap="round" stroke-linejoin="round"/>
<path d="M92.8306 166.088L103.252 179.777V276.041L0.977539 217.971V114.059L92.8306 166.088Z" stroke="white" stroke-linecap="round" stroke-linejoin="round"/>
<path d="M103.252 179.778L241.022 101.737" stroke="white" stroke-width="0.5" stroke-linecap="round" stroke-linejoin="round"/>
<path d="M24.8125 81.7233L60.0925 135.012L119.794 101.2L84.5141 47.9111L24.8125 81.7233Z" fill="white" stroke="white" stroke-width="0.5" stroke-linecap="round" stroke-linejoin="round"/>
<path d="M154.468 0.958984L196.807 64.9066L193.867 67.2405L230.607 88.047L241.022 101.737V198L103.252 276.041L0.977539 218.11V114.058L13.7521 106.827V81.3268L16.6916 78.9993L154.468 0.958984Z" stroke="white" stroke-width="3" stroke-linecap="round" stroke-linejoin="round"/>
<path d="M218.028 89.6957C218.028 89.6957 116.677 147.526 94.7453 159.721C84.7538 154.209 77.3407 151.009 67.3491 145.497L194.057 75.9512L218.028 89.6957Z" fill="white" stroke="white" stroke-width="0.5" stroke-linecap="round" stroke-linejoin="round"/>
</g>
<defs>
<clipPath id="clip0_223_72">
<rect width="242" height="277" fill="white"/>
</clipPath>
</defs>
</svg>
