<svg width="498" height="274" viewBox="0 0 498 274" fill="none" xmlns="http://www.w3.org/2000/svg">
<rect x="1.5" y="1.5" width="495" height="271" rx="23.5" fill="white"/>
<rect x="1.5" y="1.5" width="495" height="271" rx="23.5" stroke="black" stroke-width="3"/>
<path d="M24.5909 232.727L31.0682 251.682H31.3295L37.8068 232.727H41.6023L33.2273 256H29.1705L20.7955 232.727H24.5909ZM43.4103 256V238.545H46.8081V256H43.4103ZM45.1262 235.852C44.5353 235.852 44.0278 235.655 43.6035 235.261C43.1869 234.86 42.9785 234.383 42.9785 233.83C42.9785 233.269 43.1869 232.792 43.6035 232.398C44.0278 231.996 44.5353 231.795 45.1262 231.795C45.7172 231.795 46.2209 231.996 46.6376 232.398C47.0619 232.792 47.274 233.269 47.274 233.83C47.274 234.383 47.0619 234.86 46.6376 235.261C46.2209 235.655 45.7172 235.852 45.1262 235.852ZM57.6218 256.352C55.9021 256.352 54.4211 255.985 53.1786 255.25C51.9438 254.508 50.9892 253.466 50.315 252.125C49.6483 250.777 49.315 249.197 49.315 247.386C49.315 245.598 49.6483 244.023 50.315 242.659C50.9892 241.295 51.9286 240.231 53.1332 239.466C54.3453 238.701 55.762 238.318 57.3832 238.318C58.368 238.318 59.3226 238.481 60.2468 238.807C61.1711 239.133 62.0006 239.644 62.7355 240.341C63.4703 241.038 64.0498 241.943 64.4741 243.057C64.8983 244.163 65.1105 245.508 65.1105 247.091V248.295H51.2355V245.75H61.7809C61.7809 244.856 61.5991 244.064 61.2355 243.375C60.8718 242.678 60.3605 242.129 59.7014 241.727C59.0498 241.326 58.2847 241.125 57.4059 241.125C56.4514 241.125 55.618 241.36 54.9059 241.83C54.2014 242.292 53.6559 242.898 53.2695 243.648C52.8908 244.39 52.7014 245.197 52.7014 246.068V248.057C52.7014 249.223 52.9059 250.216 53.315 251.034C53.7317 251.852 54.3112 252.477 55.0536 252.909C55.7961 253.333 56.6635 253.545 57.6559 253.545C58.2998 253.545 58.887 253.455 59.4173 253.273C59.9476 253.083 60.4059 252.803 60.7923 252.432C61.1786 252.061 61.4741 251.602 61.6786 251.057L64.8945 251.636C64.637 252.583 64.1748 253.413 63.5082 254.125C62.8491 254.83 62.0195 255.379 61.0195 255.773C60.0271 256.159 58.8945 256.352 57.6218 256.352ZM71.3532 256L66.2168 238.545H69.7282L73.1486 251.364H73.3191L76.7509 238.545H80.2623L83.6714 251.307H83.8418L87.2395 238.545H90.7509L85.6259 256H82.16L78.6145 243.398H78.3532L74.8077 256H71.3532ZM100.157 232.727H104.418L111.827 250.818H112.1L119.509 232.727H123.77V256H120.43V239.159H120.214L113.35 255.966H110.577L103.714 239.148H103.498V256H100.157V232.727ZM134.675 256.352C133.039 256.352 131.611 255.977 130.391 255.227C129.171 254.477 128.224 253.428 127.55 252.08C126.876 250.731 126.539 249.155 126.539 247.352C126.539 245.542 126.876 243.958 127.55 242.602C128.224 241.246 129.171 240.193 130.391 239.443C131.611 238.693 133.039 238.318 134.675 238.318C136.311 238.318 137.74 238.693 138.959 239.443C140.179 240.193 141.126 241.246 141.8 242.602C142.474 243.958 142.811 245.542 142.811 247.352C142.811 249.155 142.474 250.731 141.8 252.08C141.126 253.428 140.179 254.477 138.959 255.227C137.74 255.977 136.311 256.352 134.675 256.352ZM134.686 253.5C135.747 253.5 136.626 253.22 137.323 252.659C138.02 252.098 138.535 251.352 138.868 250.42C139.209 249.489 139.38 248.462 139.38 247.341C139.38 246.227 139.209 245.205 138.868 244.273C138.535 243.333 138.02 242.58 137.323 242.011C136.626 241.443 135.747 241.159 134.686 241.159C133.618 241.159 132.732 241.443 132.027 242.011C131.33 242.58 130.811 243.333 130.471 244.273C130.137 245.205 129.971 246.227 129.971 247.341C129.971 248.462 130.137 249.489 130.471 250.42C130.811 251.352 131.33 252.098 132.027 252.659C132.732 253.22 133.618 253.5 134.686 253.5ZM145.324 256V238.545H148.608V241.318H148.79C149.108 240.379 149.669 239.64 150.472 239.102C151.282 238.557 152.199 238.284 153.222 238.284C153.434 238.284 153.684 238.292 153.972 238.307C154.267 238.322 154.498 238.341 154.665 238.364V241.614C154.529 241.576 154.286 241.534 153.938 241.489C153.589 241.436 153.241 241.409 152.892 241.409C152.089 241.409 151.373 241.58 150.745 241.92C150.123 242.254 149.631 242.72 149.267 243.318C148.904 243.909 148.722 244.583 148.722 245.341V256H145.324ZM163.223 256.352C161.503 256.352 160.022 255.985 158.78 255.25C157.545 254.508 156.59 253.466 155.916 252.125C155.25 250.777 154.916 249.197 154.916 247.386C154.916 245.598 155.25 244.023 155.916 242.659C156.59 241.295 157.53 240.231 158.734 239.466C159.947 238.701 161.363 238.318 162.984 238.318C163.969 238.318 164.924 238.481 165.848 238.807C166.772 239.133 167.602 239.644 168.337 240.341C169.072 241.038 169.651 241.943 170.075 243.057C170.5 244.163 170.712 245.508 170.712 247.091V248.295H156.837V245.75H167.382C167.382 244.856 167.2 244.064 166.837 243.375C166.473 242.678 165.962 242.129 165.303 241.727C164.651 241.326 163.886 241.125 163.007 241.125C162.053 241.125 161.219 241.36 160.507 241.83C159.803 242.292 159.257 242.898 158.871 243.648C158.492 244.39 158.303 245.197 158.303 246.068V248.057C158.303 249.223 158.507 250.216 158.916 251.034C159.333 251.852 159.912 252.477 160.655 252.909C161.397 253.333 162.265 253.545 163.257 253.545C163.901 253.545 164.488 253.455 165.019 253.273C165.549 253.083 166.007 252.803 166.394 252.432C166.78 252.061 167.075 251.602 167.28 251.057L170.496 251.636C170.238 252.583 169.776 253.413 169.109 254.125C168.45 254.83 167.621 255.379 166.621 255.773C165.628 256.159 164.496 256.352 163.223 256.352Z" fill="black"/>
<path d="M34.976 13.784C34.976 19.256 34.976 24.792 34.976 30.392C34.976 35.992 34.976 41.528 34.976 47C33.6 47 32.208 47 30.8 47C29.392 47 27.984 47 26.576 47C26.576 43.096 26.576 39.16 26.576 35.192C26.576 31.192 26.576 27.256 26.576 23.384C25.648 23.576 24.704 23.784 23.744 24.008C22.816 24.2 21.888 24.392 20.96 24.584C20.96 23.304 20.96 22.008 20.96 20.696C20.96 19.384 20.96 18.088 20.96 16.808C23.264 16.296 25.6 15.8 27.968 15.32C30.336 14.808 32.672 14.296 34.976 13.784Z" fill="black"/>
<circle cx="468" cy="21" r="9" fill="black"/>
<circle cx="467.5" cy="244.5" r="20.5" fill="black"/>
<path d="M478.207 245.707C478.598 245.317 478.598 244.683 478.207 244.293L471.843 237.929C471.453 237.538 470.819 237.538 470.429 237.929C470.038 238.319 470.038 238.953 470.429 239.343L476.086 245L470.429 250.657C470.038 251.047 470.038 251.681 470.429 252.071C470.819 252.462 471.453 252.462 471.843 252.071L478.207 245.707ZM456 245V246H477.5V245V244H456V245Z" fill="white"/>
<path d="M20 55H477" stroke="black"/>
<path d="M135.653 105C135.653 99.624 135.653 94.184 135.653 88.68C135.653 83.176 135.653 77.736 135.653 72.36C137.637 72.36 139.621 72.36 141.605 72.36C143.621 72.36 145.605 72.36 147.557 72.36C149.765 72.36 151.701 72.76 153.365 73.56C155.029 74.328 156.325 75.416 157.253 76.824C158.181 78.2 158.645 79.832 158.645 81.72C158.645 83.064 158.389 84.28 157.877 85.368C157.365 86.456 156.597 87.368 155.573 88.104C156.917 88.904 157.941 89.944 158.645 91.224C159.349 92.472 159.701 93.864 159.701 95.4C159.701 97.32 159.205 99 158.213 100.44C157.253 101.88 155.893 103 154.133 103.8C152.405 104.6 150.373 105 148.037 105C145.989 105 143.925 105 141.845 105C139.765 105 137.701 105 135.653 105ZM150.245 82.536C150.245 81.704 149.989 81.032 149.477 80.52C148.965 79.976 148.293 79.704 147.461 79.704C146.885 79.704 146.293 79.704 145.685 79.704C145.109 79.704 144.533 79.704 143.957 79.704C143.957 80.6 143.957 81.528 143.957 82.488C143.957 83.416 143.957 84.344 143.957 85.272C144.533 85.272 145.109 85.272 145.685 85.272C146.293 85.272 146.885 85.272 147.461 85.272C148.293 85.272 148.965 85.032 149.477 84.552C149.989 84.04 150.245 83.368 150.245 82.536ZM151.301 94.632C151.301 93.736 150.997 93.032 150.389 92.52C149.813 91.976 149.013 91.704 147.989 91.704C147.317 91.704 146.645 91.704 145.973 91.704C145.301 91.704 144.629 91.704 143.957 91.704C143.957 92.696 143.957 93.688 143.957 94.68C143.957 95.672 143.957 96.664 143.957 97.656C144.629 97.656 145.301 97.656 145.973 97.656C146.645 97.656 147.317 97.656 147.989 97.656C149.013 97.656 149.813 97.384 150.389 96.84C150.997 96.296 151.301 95.56 151.301 94.632ZM183.206 103.848C180.998 104.776 178.806 105.352 176.63 105.576C174.454 105.8 172.39 105.672 170.438 105.192C168.518 104.744 166.806 103.96 165.302 102.84C163.798 101.72 162.614 100.296 161.75 98.568C160.918 96.84 160.502 94.84 160.502 92.568C160.502 90.68 160.806 88.952 161.414 87.384C162.054 85.784 162.95 84.392 164.102 83.208C165.254 81.992 166.614 81.064 168.182 80.424C169.75 79.752 171.462 79.416 173.318 79.416C174.982 79.416 176.486 79.688 177.83 80.232C179.174 80.776 180.342 81.544 181.334 82.536C182.326 83.496 183.126 84.648 183.734 85.992C184.342 87.336 184.726 88.808 184.886 90.408C185.046 92.008 184.95 93.704 184.598 95.496C181.974 95.496 179.334 95.496 176.678 95.496C174.022 95.496 171.382 95.496 168.758 95.496C169.366 96.712 170.374 97.576 171.782 98.088C173.222 98.6 174.918 98.76 176.87 98.568C178.854 98.376 180.966 97.864 183.206 97.032C183.206 98.152 183.206 99.288 183.206 100.44C183.206 101.592 183.206 102.728 183.206 103.848ZM173.126 86.52C172.198 86.52 171.334 86.776 170.534 87.288C169.766 87.8 169.174 88.584 168.758 89.64C170.198 89.64 171.638 89.64 173.078 89.64C174.55 89.64 176.006 89.64 177.446 89.64C177.062 88.552 176.486 87.768 175.718 87.288C174.982 86.776 174.118 86.52 173.126 86.52ZM188.996 112.68C189.636 110.984 190.292 109.272 190.964 107.544C191.668 105.848 192.34 104.168 192.98 102.504C191.476 98.824 189.94 95.112 188.372 91.368C186.836 87.592 185.316 83.864 183.812 80.184C185.22 80.184 186.628 80.184 188.036 80.184C189.444 80.184 190.836 80.184 192.212 80.184C193.044 82.232 193.876 84.312 194.708 86.424C195.572 88.536 196.42 90.632 197.252 92.712C198.02 90.632 198.804 88.536 199.604 86.424C200.404 84.312 201.188 82.232 201.956 80.184C203.332 80.184 204.708 80.184 206.084 80.184C207.46 80.184 208.836 80.184 210.212 80.184C208.068 85.528 205.908 90.952 203.732 96.456C201.588 101.928 199.444 107.336 197.3 112.68C195.924 112.68 194.532 112.68 193.124 112.68C191.748 112.68 190.372 112.68 188.996 112.68ZM221.985 105.768C220.129 105.768 218.401 105.448 216.801 104.808C215.201 104.136 213.809 103.208 212.625 102.024C211.441 100.808 210.513 99.4 209.841 97.8C209.201 96.2 208.881 94.456 208.881 92.568C208.881 90.68 209.201 88.936 209.841 87.336C210.513 85.736 211.441 84.344 212.625 83.16C213.809 81.976 215.201 81.064 216.801 80.424C218.401 79.752 220.129 79.416 221.985 79.416C223.873 79.416 225.601 79.752 227.169 80.424C228.769 81.064 230.161 81.976 231.345 83.16C232.529 84.344 233.441 85.736 234.081 87.336C234.753 88.936 235.089 90.68 235.089 92.568C235.089 94.456 234.753 96.2 234.081 97.8C233.441 99.4 232.529 100.808 231.345 102.024C230.161 103.208 228.769 104.136 227.169 104.808C225.601 105.448 223.873 105.768 221.985 105.768ZM221.985 98.616C223.553 98.616 224.801 98.056 225.729 96.936C226.689 95.784 227.169 94.328 227.169 92.568C227.169 90.776 226.689 89.336 225.729 88.248C224.801 87.128 223.553 86.568 221.985 86.568C220.417 86.568 219.153 87.128 218.193 88.248C217.265 89.336 216.801 90.776 216.801 92.568C216.801 94.328 217.265 95.784 218.193 96.936C219.153 98.056 220.417 98.616 221.985 98.616ZM237.086 105C237.086 100.904 237.086 96.776 237.086 92.616C237.086 88.424 237.086 84.28 237.086 80.184C238.398 80.184 239.726 80.184 241.07 80.184C242.414 80.184 243.726 80.184 245.006 80.184C245.006 80.408 245.006 80.616 245.006 80.808C245.006 81 245.006 81.208 245.006 81.432C245.87 80.824 246.83 80.36 247.886 80.04C248.974 79.688 250.142 79.512 251.39 79.512C253.214 79.512 254.814 79.928 256.19 80.76C257.598 81.592 258.686 82.792 259.454 84.36C260.254 85.896 260.654 87.752 260.654 89.928C260.654 92.424 260.654 94.936 260.654 97.464C260.654 99.992 260.654 102.504 260.654 105C259.374 105 258.062 105 256.718 105C255.374 105 254.046 105 252.734 105C252.734 102.696 252.734 100.36 252.734 97.992C252.734 95.624 252.734 93.288 252.734 90.984C252.734 89.704 252.43 88.68 251.822 87.912C251.246 87.112 250.318 86.712 249.038 86.712C247.758 86.712 246.766 87.08 246.062 87.816C245.358 88.552 245.006 89.608 245.006 90.984C245.006 93.288 245.006 95.624 245.006 97.992C245.006 100.36 245.006 102.696 245.006 105C243.726 105 242.414 105 241.07 105C239.726 105 238.398 105 237.086 105ZM280.179 105C280.179 104.744 280.179 104.504 280.179 104.28C280.179 104.024 280.179 103.784 280.179 103.56C279.379 104.232 278.467 104.744 277.443 105.096C276.451 105.48 275.379 105.672 274.227 105.672C272.595 105.672 271.059 105.352 269.619 104.712C268.179 104.072 266.899 103.176 265.779 102.024C264.691 100.84 263.827 99.448 263.187 97.848C262.579 96.248 262.275 94.488 262.275 92.568C262.275 90.616 262.579 88.84 263.187 87.24C263.827 85.64 264.691 84.264 265.779 83.112C266.899 81.96 268.179 81.08 269.619 80.472C271.059 79.832 272.579 79.512 274.179 79.512C275.331 79.512 276.419 79.704 277.443 80.088C278.467 80.44 279.379 80.936 280.179 81.576C280.179 79.656 280.179 77.72 280.179 75.768C280.179 73.816 280.179 71.88 280.179 69.96C281.491 69.96 282.819 69.96 284.163 69.96C285.507 69.96 286.819 69.96 288.099 69.96C288.099 75.752 288.099 81.592 288.099 87.48C288.099 93.368 288.099 99.208 288.099 105C286.819 105 285.507 105 284.163 105C282.819 105 281.491 105 280.179 105ZM275.283 98.664C276.819 98.664 278.051 98.104 278.979 96.984C279.907 95.864 280.371 94.392 280.371 92.568C280.371 90.744 279.907 89.288 278.979 88.2C278.051 87.08 276.819 86.52 275.283 86.52C273.715 86.52 272.467 87.064 271.539 88.152C270.643 89.24 270.195 90.712 270.195 92.568C270.195 94.424 270.643 95.912 271.539 97.032C272.467 98.12 273.715 98.664 275.283 98.664ZM305.761 72.36C306.945 76.008 308.113 79.688 309.265 83.4C310.449 87.112 311.633 90.792 312.817 94.44C314.001 90.792 315.185 87.112 316.369 83.4C317.553 79.688 318.737 76.008 319.921 72.36C321.298 72.36 322.689 72.36 324.097 72.36C325.505 72.36 326.898 72.36 328.273 72.36C326.546 77.736 324.786 83.176 322.993 88.68C321.233 94.184 319.49 99.624 317.762 105C316.097 105 314.417 105 312.721 105C311.057 105 309.393 105 307.729 105C306.001 99.624 304.241 94.184 302.449 88.68C300.689 83.176 298.945 77.736 297.217 72.36C298.625 72.36 300.049 72.36 301.489 72.36C302.929 72.36 304.353 72.36 305.761 72.36ZM333.24 77.352C332.312 77.352 331.464 77.128 330.696 76.68C329.96 76.232 329.368 75.64 328.92 74.904C328.472 74.168 328.248 73.352 328.248 72.456C328.248 71.56 328.472 70.76 328.92 70.056C329.368 69.32 329.96 68.728 330.696 68.28C331.464 67.832 332.312 67.608 333.24 67.608C334.136 67.608 334.952 67.832 335.688 68.28C336.456 68.728 337.064 69.32 337.512 70.056C337.96 70.76 338.184 71.56 338.184 72.456C338.184 73.352 337.96 74.168 337.512 74.904C337.064 75.64 336.456 76.232 335.688 76.68C334.952 77.128 334.136 77.352 333.24 77.352ZM329.256 105C329.256 100.904 329.256 96.776 329.256 92.616C329.256 88.424 329.256 84.28 329.256 80.184C330.568 80.184 331.896 80.184 333.24 80.184C334.584 80.184 335.896 80.184 337.176 80.184C337.176 84.28 337.176 88.424 337.176 92.616C337.176 96.776 337.176 100.904 337.176 105C335.896 105 334.584 105 333.24 105C331.896 105 330.568 105 329.256 105ZM359.743 97.32C359.743 99.304 359.183 100.936 358.063 102.216C356.975 103.464 355.503 104.376 353.647 104.952C351.791 105.528 349.711 105.768 347.407 105.672C345.135 105.608 342.815 105.24 340.447 104.568C340.447 103.352 340.447 102.104 340.447 100.824C340.447 99.544 340.447 98.296 340.447 97.08C341.791 97.688 343.135 98.168 344.479 98.52C345.823 98.84 347.039 99.032 348.127 99.096C349.215 99.16 350.095 99.08 350.767 98.856C351.439 98.6 351.775 98.184 351.775 97.608C351.775 97.16 351.487 96.808 350.911 96.552C350.367 96.296 349.647 96.072 348.751 95.88C347.855 95.656 346.895 95.4 345.871 95.112C344.879 94.792 343.935 94.36 343.039 93.816C342.143 93.24 341.407 92.488 340.831 91.56C340.287 90.6 340.015 89.368 340.015 87.864C340.015 86.072 340.527 84.552 341.551 83.304C342.607 82.024 344.015 81.064 345.775 80.424C347.535 79.752 349.503 79.416 351.679 79.416C353.855 79.416 356.079 79.784 358.351 80.52C358.351 81.736 358.351 82.984 358.351 84.264C358.351 85.544 358.351 86.792 358.351 88.008C356.559 87.144 354.879 86.568 353.311 86.28C351.743 85.992 350.479 85.96 349.519 86.184C348.559 86.376 348.079 86.808 348.079 87.48C348.079 87.928 348.351 88.28 348.895 88.536C349.471 88.76 350.191 88.968 351.055 89.16C351.951 89.352 352.895 89.608 353.887 89.928C354.911 90.248 355.855 90.696 356.719 91.272C357.615 91.816 358.335 92.584 358.879 93.576C359.455 94.536 359.743 95.784 359.743 97.32ZM365.868 77.352C364.94 77.352 364.092 77.128 363.324 76.68C362.588 76.232 361.996 75.64 361.548 74.904C361.1 74.168 360.876 73.352 360.876 72.456C360.876 71.56 361.1 70.76 361.548 70.056C361.996 69.32 362.588 68.728 363.324 68.28C364.092 67.832 364.94 67.608 365.868 67.608C366.764 67.608 367.58 67.832 368.316 68.28C369.084 68.728 369.692 69.32 370.14 70.056C370.588 70.76 370.812 71.56 370.812 72.456C370.812 73.352 370.588 74.168 370.14 74.904C369.692 75.64 369.084 76.232 368.316 76.68C367.58 77.128 366.764 77.352 365.868 77.352ZM361.884 105C361.884 100.904 361.884 96.776 361.884 92.616C361.884 88.424 361.884 84.28 361.884 80.184C363.196 80.184 364.524 80.184 365.868 80.184C367.212 80.184 368.524 80.184 369.804 80.184C369.804 84.28 369.804 88.424 369.804 92.616C369.804 96.776 369.804 100.904 369.804 105C368.524 105 367.212 105 365.868 105C364.524 105 363.196 105 361.884 105ZM381.572 105C380.292 105 378.98 105 377.636 105C376.292 105 374.964 105 373.652 105C373.652 99.208 373.652 93.368 373.652 87.48C373.652 81.592 373.652 75.752 373.652 69.96C374.964 69.96 376.292 69.96 377.636 69.96C378.98 69.96 380.292 69.96 381.572 69.96C381.572 71.88 381.572 73.816 381.572 75.768C381.572 77.72 381.572 79.656 381.572 81.576C382.372 80.936 383.284 80.44 384.308 80.088C385.332 79.704 386.42 79.512 387.572 79.512C389.172 79.512 390.692 79.832 392.132 80.472C393.572 81.08 394.836 81.96 395.924 83.112C397.044 84.264 397.908 85.64 398.516 87.24C399.156 88.84 399.476 90.616 399.476 92.568C399.476 94.488 399.156 96.248 398.516 97.848C397.908 99.448 397.044 100.84 395.924 102.024C394.836 103.176 393.572 104.072 392.132 104.712C390.692 105.352 389.156 105.672 387.524 105.672C386.372 105.672 385.284 105.48 384.26 105.096C383.268 104.744 382.372 104.232 381.572 103.56C381.572 103.784 381.572 104.024 381.572 104.28C381.572 104.504 381.572 104.744 381.572 105ZM386.468 98.664C388.036 98.664 389.268 98.12 390.164 97.032C391.092 95.912 391.556 94.424 391.556 92.568C391.556 90.712 391.092 89.24 390.164 88.152C389.268 87.064 388.036 86.52 386.468 86.52C384.932 86.52 383.7 87.08 382.772 88.2C381.844 89.288 381.38 90.744 381.38 92.568C381.38 94.392 381.844 95.864 382.772 96.984C383.7 98.104 384.932 98.664 386.468 98.664ZM405.716 77.352C404.788 77.352 403.94 77.128 403.172 76.68C402.436 76.232 401.844 75.64 401.396 74.904C400.948 74.168 400.724 73.352 400.724 72.456C400.724 71.56 400.948 70.76 401.396 70.056C401.844 69.32 402.436 68.728 403.172 68.28C403.94 67.832 404.788 67.608 405.716 67.608C406.612 67.608 407.428 67.832 408.164 68.28C408.932 68.728 409.54 69.32 409.988 70.056C410.436 70.76 410.66 71.56 410.66 72.456C410.66 73.352 410.436 74.168 409.988 74.904C409.54 75.64 408.932 76.232 408.164 76.68C407.428 77.128 406.612 77.352 405.716 77.352ZM401.732 105C401.732 100.904 401.732 96.776 401.732 92.616C401.732 88.424 401.732 84.28 401.732 80.184C403.044 80.184 404.372 80.184 405.716 80.184C407.06 80.184 408.372 80.184 409.652 80.184C409.652 84.28 409.652 88.424 409.652 92.616C409.652 96.776 409.652 100.904 409.652 105C408.372 105 407.06 105 405.716 105C404.372 105 403.044 105 401.732 105ZM413.499 105C413.499 99.208 413.499 93.368 413.499 87.48C413.499 81.592 413.499 75.752 413.499 69.96C414.811 69.96 416.139 69.96 417.483 69.96C418.827 69.96 420.139 69.96 421.419 69.96C421.419 75.752 421.419 81.592 421.419 87.48C421.419 93.368 421.419 99.208 421.419 105C420.139 105 418.827 105 417.483 105C416.139 105 414.811 105 413.499 105ZM429.251 77.352C428.323 77.352 427.475 77.128 426.707 76.68C425.971 76.232 425.379 75.64 424.931 74.904C424.483 74.168 424.259 73.352 424.259 72.456C424.259 71.56 424.483 70.76 424.931 70.056C425.379 69.32 425.971 68.728 426.707 68.28C427.475 67.832 428.323 67.608 429.251 67.608C430.147 67.608 430.963 67.832 431.699 68.28C432.467 68.728 433.075 69.32 433.523 70.056C433.971 70.76 434.195 71.56 434.195 72.456C434.195 73.352 433.971 74.168 433.523 74.904C433.075 75.64 432.467 76.232 431.699 76.68C430.963 77.128 430.147 77.352 429.251 77.352ZM425.267 105C425.267 100.904 425.267 96.776 425.267 92.616C425.267 88.424 425.267 84.28 425.267 80.184C426.579 80.184 427.907 80.184 429.251 80.184C430.595 80.184 431.907 80.184 433.187 80.184C433.187 84.28 433.187 88.424 433.187 92.616C433.187 96.776 433.187 100.904 433.187 105C431.907 105 430.595 105 429.251 105C427.907 105 426.579 105 425.267 105ZM439.386 105C439.386 102.056 439.386 99.096 439.386 96.12C439.386 93.144 439.386 90.2 439.386 87.288C438.746 87.288 438.09 87.288 437.418 87.288C436.778 87.288 436.138 87.288 435.498 87.288C435.498 86.104 435.498 84.92 435.498 83.736C435.498 82.552 435.498 81.368 435.498 80.184C436.138 80.184 436.778 80.184 437.418 80.184C438.09 80.184 438.746 80.184 439.386 80.184C439.386 79.064 439.386 77.96 439.386 76.872C439.386 75.752 439.386 74.648 439.386 73.56C440.698 73.56 442.026 73.56 443.37 73.56C444.714 73.56 446.026 73.56 447.306 73.56C447.306 74.648 447.306 75.752 447.306 76.872C447.306 77.96 447.306 79.064 447.306 80.184C448.042 80.184 448.794 80.184 449.562 80.184C450.33 80.184 451.082 80.184 451.818 80.184C451.818 81.368 451.818 82.552 451.818 83.736C451.818 84.92 451.818 86.104 451.818 87.288C451.082 87.288 450.33 87.288 449.562 87.288C448.794 87.288 448.042 87.288 447.306 87.288C447.306 90.2 447.306 93.144 447.306 96.12C447.306 99.096 447.306 102.056 447.306 105C446.026 105 444.714 105 443.37 105C442.026 105 440.698 105 439.386 105ZM456.022 112.68C456.662 110.984 457.318 109.272 457.99 107.544C458.694 105.848 459.366 104.168 460.006 102.504C458.502 98.824 456.966 95.112 455.398 91.368C453.862 87.592 452.342 83.864 450.838 80.184C452.246 80.184 453.654 80.184 455.062 80.184C456.47 80.184 457.862 80.184 459.238 80.184C460.07 82.232 460.902 84.312 461.734 86.424C462.598 88.536 463.446 90.632 464.278 92.712C465.046 90.632 465.83 88.536 466.63 86.424C467.43 84.312 468.214 82.232 468.982 80.184C470.358 80.184 471.734 80.184 473.11 80.184C474.486 80.184 475.862 80.184 477.238 80.184C475.094 85.528 472.934 90.952 470.758 96.456C468.614 101.928 466.47 107.336 464.326 112.68C462.95 112.68 461.558 112.68 460.15 112.68C458.774 112.68 457.398 112.68 456.022 112.68Z" fill="black"/>
</svg>
