<svg width="498" height="274" viewBox="0 0 498 274" fill="none" xmlns="http://www.w3.org/2000/svg">
<rect x="1.5" y="1.5" width="495" height="271" rx="23.5" fill="white"/>
<rect x="1.5" y="1.5" width="495" height="271" rx="23.5" stroke="black" stroke-width="3"/>
<path d="M24.5909 232.727L31.0682 251.682H31.3295L37.8068 232.727H41.6023L33.2273 256H29.1705L20.7955 232.727H24.5909ZM43.4103 256V238.545H46.8081V256H43.4103ZM45.1262 235.852C44.5353 235.852 44.0278 235.655 43.6035 235.261C43.1869 234.86 42.9785 234.383 42.9785 233.83C42.9785 233.269 43.1869 232.792 43.6035 232.398C44.0278 231.996 44.5353 231.795 45.1262 231.795C45.7172 231.795 46.2209 231.996 46.6376 232.398C47.0619 232.792 47.274 233.269 47.274 233.83C47.274 234.383 47.0619 234.86 46.6376 235.261C46.2209 235.655 45.7172 235.852 45.1262 235.852ZM57.6218 256.352C55.9021 256.352 54.4211 255.985 53.1786 255.25C51.9438 254.508 50.9892 253.466 50.315 252.125C49.6483 250.777 49.315 249.197 49.315 247.386C49.315 245.598 49.6483 244.023 50.315 242.659C50.9892 241.295 51.9286 240.231 53.1332 239.466C54.3453 238.701 55.762 238.318 57.3832 238.318C58.368 238.318 59.3226 238.481 60.2468 238.807C61.1711 239.133 62.0006 239.644 62.7355 240.341C63.4703 241.038 64.0498 241.943 64.4741 243.057C64.8983 244.163 65.1105 245.508 65.1105 247.091V248.295H51.2355V245.75H61.7809C61.7809 244.856 61.5991 244.064 61.2355 243.375C60.8718 242.678 60.3605 242.129 59.7014 241.727C59.0498 241.326 58.2847 241.125 57.4059 241.125C56.4514 241.125 55.618 241.36 54.9059 241.83C54.2014 242.292 53.6559 242.898 53.2695 243.648C52.8908 244.39 52.7014 245.197 52.7014 246.068V248.057C52.7014 249.223 52.9059 250.216 53.315 251.034C53.7317 251.852 54.3112 252.477 55.0536 252.909C55.7961 253.333 56.6635 253.545 57.6559 253.545C58.2998 253.545 58.887 253.455 59.4173 253.273C59.9476 253.083 60.4059 252.803 60.7923 252.432C61.1786 252.061 61.4741 251.602 61.6786 251.057L64.8945 251.636C64.637 252.583 64.1748 253.413 63.5082 254.125C62.8491 254.83 62.0195 255.379 61.0195 255.773C60.0271 256.159 58.8945 256.352 57.6218 256.352ZM71.3532 256L66.2168 238.545H69.7282L73.1486 251.364H73.3191L76.7509 238.545H80.2623L83.6714 251.307H83.8418L87.2395 238.545H90.7509L85.6259 256H82.16L78.6145 243.398H78.3532L74.8077 256H71.3532ZM100.157 232.727H104.418L111.827 250.818H112.1L119.509 232.727H123.77V256H120.43V239.159H120.214L113.35 255.966H110.577L103.714 239.148H103.498V256H100.157V232.727ZM134.675 256.352C133.039 256.352 131.611 255.977 130.391 255.227C129.171 254.477 128.224 253.428 127.55 252.08C126.876 250.731 126.539 249.155 126.539 247.352C126.539 245.542 126.876 243.958 127.55 242.602C128.224 241.246 129.171 240.193 130.391 239.443C131.611 238.693 133.039 238.318 134.675 238.318C136.311 238.318 137.74 238.693 138.959 239.443C140.179 240.193 141.126 241.246 141.8 242.602C142.474 243.958 142.811 245.542 142.811 247.352C142.811 249.155 142.474 250.731 141.8 252.08C141.126 253.428 140.179 254.477 138.959 255.227C137.74 255.977 136.311 256.352 134.675 256.352ZM134.686 253.5C135.747 253.5 136.626 253.22 137.323 252.659C138.02 252.098 138.535 251.352 138.868 250.42C139.209 249.489 139.38 248.462 139.38 247.341C139.38 246.227 139.209 245.205 138.868 244.273C138.535 243.333 138.02 242.58 137.323 242.011C136.626 241.443 135.747 241.159 134.686 241.159C133.618 241.159 132.732 241.443 132.027 242.011C131.33 242.58 130.811 243.333 130.471 244.273C130.137 245.205 129.971 246.227 129.971 247.341C129.971 248.462 130.137 249.489 130.471 250.42C130.811 251.352 131.33 252.098 132.027 252.659C132.732 253.22 133.618 253.5 134.686 253.5ZM145.324 256V238.545H148.608V241.318H148.79C149.108 240.379 149.669 239.64 150.472 239.102C151.282 238.557 152.199 238.284 153.222 238.284C153.434 238.284 153.684 238.292 153.972 238.307C154.267 238.322 154.498 238.341 154.665 238.364V241.614C154.529 241.576 154.286 241.534 153.938 241.489C153.589 241.436 153.241 241.409 152.892 241.409C152.089 241.409 151.373 241.58 150.745 241.92C150.123 242.254 149.631 242.72 149.267 243.318C148.904 243.909 148.722 244.583 148.722 245.341V256H145.324ZM163.223 256.352C161.503 256.352 160.022 255.985 158.78 255.25C157.545 254.508 156.59 253.466 155.916 252.125C155.25 250.777 154.916 249.197 154.916 247.386C154.916 245.598 155.25 244.023 155.916 242.659C156.59 241.295 157.53 240.231 158.734 239.466C159.947 238.701 161.363 238.318 162.984 238.318C163.969 238.318 164.924 238.481 165.848 238.807C166.772 239.133 167.602 239.644 168.337 240.341C169.072 241.038 169.651 241.943 170.075 243.057C170.5 244.163 170.712 245.508 170.712 247.091V248.295H156.837V245.75H167.382C167.382 244.856 167.2 244.064 166.837 243.375C166.473 242.678 165.962 242.129 165.303 241.727C164.651 241.326 163.886 241.125 163.007 241.125C162.053 241.125 161.219 241.36 160.507 241.83C159.803 242.292 159.257 242.898 158.871 243.648C158.492 244.39 158.303 245.197 158.303 246.068V248.057C158.303 249.223 158.507 250.216 158.916 251.034C159.333 251.852 159.912 252.477 160.655 252.909C161.397 253.333 162.265 253.545 163.257 253.545C163.901 253.545 164.488 253.455 165.019 253.273C165.549 253.083 166.007 252.803 166.394 252.432C166.78 252.061 167.075 251.602 167.28 251.057L170.496 251.636C170.238 252.583 169.776 253.413 169.109 254.125C168.45 254.83 167.621 255.379 166.621 255.773C165.628 256.159 164.496 256.352 163.223 256.352Z" fill="black"/>
<path d="M22.256 47C22.256 45.752 22.256 44.488 22.256 43.208C22.256 41.896 22.256 40.616 22.256 39.368C23.536 38.152 24.816 36.92 26.096 35.672C27.376 34.392 28.656 33.144 29.936 31.928C31.408 30.488 32.528 29.336 33.296 28.472C34.064 27.576 34.592 26.824 34.88 26.216C35.2 25.608 35.36 25.048 35.36 24.536C35.36 23.48 34.752 22.728 33.536 22.28C32.32 21.8 30.752 21.656 28.832 21.848C26.912 22.04 24.864 22.568 22.688 23.432C22.688 22.12 22.688 20.792 22.688 19.448C22.688 18.072 22.688 16.728 22.688 15.416C25.888 14.36 28.784 13.832 31.376 13.832C34 13.832 36.24 14.264 38.096 15.128C39.984 15.96 41.424 17.128 42.416 18.632C43.44 20.136 43.952 21.88 43.952 23.864C43.952 25.848 43.424 27.72 42.368 29.48C41.312 31.208 39.696 33.128 37.52 35.24C36.816 35.912 36.112 36.6 35.408 37.304C34.704 38.008 34 38.696 33.296 39.368C35.024 39.368 36.752 39.368 38.48 39.368C40.24 39.368 41.984 39.368 43.712 39.368C43.712 40.616 43.712 41.896 43.712 43.208C43.712 44.488 43.712 45.752 43.712 47C40.16 47 36.576 47 32.96 47C29.376 47 25.808 47 22.256 47Z" fill="black"/>
<circle cx="468" cy="21" r="9" fill="black"/>
<circle cx="467.5" cy="244.5" r="20.5" fill="black"/>
<path d="M478.207 245.707C478.598 245.317 478.598 244.683 478.207 244.293L471.843 237.929C471.453 237.538 470.819 237.538 470.429 237.929C470.038 238.319 470.038 238.953 470.429 239.343L476.086 245L470.429 250.657C470.038 251.047 470.038 251.681 470.429 252.071C470.819 252.462 471.453 252.462 471.843 252.071L478.207 245.707ZM456 245V246H477.5V245V244H456V245Z" fill="white"/>
<path d="M20 55H477" stroke="black"/>
<path d="M277.793 105C277.793 99.624 277.793 94.184 277.793 88.68C277.793 83.176 277.793 77.736 277.793 72.36C281.025 72.36 284.289 72.36 287.585 72.36C290.881 72.36 294.145 72.36 297.377 72.36C297.377 73.608 297.377 74.872 297.377 76.152C297.377 77.432 297.377 78.696 297.377 79.944C295.521 79.944 293.649 79.944 291.761 79.944C289.905 79.944 288.049 79.944 286.193 79.944C286.193 80.872 286.193 81.832 286.193 82.824C286.193 83.784 286.193 84.728 286.193 85.656C287.889 85.656 289.601 85.656 291.329 85.656C293.057 85.656 294.753 85.656 296.417 85.656C296.417 86.84 296.417 88.04 296.417 89.256C296.417 90.472 296.417 91.688 296.417 92.904C294.753 92.904 293.057 92.904 291.329 92.904C289.601 92.904 287.889 92.904 286.193 92.904C286.193 94.888 286.193 96.904 286.193 98.952C286.193 101 286.193 103.016 286.193 105C284.817 105 283.425 105 282.017 105C280.609 105 279.201 105 277.793 105ZM300.476 105C300.476 99.208 300.476 93.368 300.476 87.48C300.476 81.592 300.476 75.752 300.476 69.96C301.788 69.96 303.116 69.96 304.46 69.96C305.804 69.96 307.116 69.96 308.396 69.96C308.396 75.752 308.396 81.592 308.396 87.48C308.396 93.368 308.396 99.208 308.396 105C307.116 105 305.804 105 304.46 105C303.116 105 301.788 105 300.476 105ZM323.764 105.768C321.908 105.768 320.18 105.448 318.58 104.808C316.98 104.136 315.588 103.208 314.404 102.024C313.22 100.808 312.292 99.4 311.62 97.8C310.98 96.2 310.66 94.456 310.66 92.568C310.66 90.68 310.98 88.936 311.62 87.336C312.292 85.736 313.22 84.344 314.404 83.16C315.588 81.976 316.98 81.064 318.58 80.424C320.18 79.752 321.908 79.416 323.764 79.416C325.652 79.416 327.38 79.752 328.948 80.424C330.548 81.064 331.94 81.976 333.124 83.16C334.308 84.344 335.22 85.736 335.86 87.336C336.532 88.936 336.868 90.68 336.868 92.568C336.868 94.456 336.532 96.2 335.86 97.8C335.22 99.4 334.308 100.808 333.124 102.024C331.94 103.208 330.548 104.136 328.948 104.808C327.38 105.448 325.652 105.768 323.764 105.768ZM323.764 98.616C325.332 98.616 326.58 98.056 327.508 96.936C328.468 95.784 328.948 94.328 328.948 92.568C328.948 90.776 328.468 89.336 327.508 88.248C326.58 87.128 325.332 86.568 323.764 86.568C322.196 86.568 320.932 87.128 319.972 88.248C319.044 89.336 318.58 90.776 318.58 92.568C318.58 94.328 319.044 95.784 319.972 96.936C320.932 98.056 322.196 98.616 323.764 98.616ZM355.425 105C355.425 104.744 355.425 104.504 355.425 104.28C355.425 104.024 355.425 103.784 355.425 103.56C354.625 104.232 353.713 104.744 352.689 105.096C351.697 105.48 350.625 105.672 349.473 105.672C347.841 105.672 346.305 105.368 344.865 104.76C343.425 104.12 342.145 103.224 341.025 102.072C339.937 100.888 339.073 99.496 338.433 97.896C337.825 96.296 337.521 94.52 337.521 92.568C337.521 90.584 337.825 88.792 338.433 87.192C339.073 85.592 339.937 84.232 341.025 83.112C342.145 81.96 343.425 81.08 344.865 80.472C346.305 79.832 347.825 79.512 349.425 79.512C350.577 79.512 351.665 79.704 352.689 80.088C353.713 80.44 354.625 80.936 355.425 81.576C355.425 81.32 355.425 81.08 355.425 80.856C355.425 80.632 355.425 80.408 355.425 80.184C356.737 80.184 358.065 80.184 359.409 80.184C360.753 80.184 362.065 80.184 363.345 80.184C363.345 84.28 363.345 88.424 363.345 92.616C363.345 96.776 363.345 100.904 363.345 105C362.065 105 360.753 105 359.409 105C358.065 105 356.737 105 355.425 105ZM350.529 98.664C352.065 98.664 353.297 98.104 354.225 96.984C355.153 95.864 355.617 94.392 355.617 92.568C355.617 90.744 355.153 89.288 354.225 88.2C353.297 87.08 352.065 86.52 350.529 86.52C348.961 86.52 347.713 87.064 346.785 88.152C345.889 89.24 345.441 90.712 345.441 92.568C345.441 94.424 345.889 95.912 346.785 97.032C347.713 98.12 348.961 98.664 350.529 98.664ZM369.303 105C369.303 102.056 369.303 99.096 369.303 96.12C369.303 93.144 369.303 90.2 369.303 87.288C368.663 87.288 368.007 87.288 367.335 87.288C366.695 87.288 366.055 87.288 365.415 87.288C365.415 86.104 365.415 84.92 365.415 83.736C365.415 82.552 365.415 81.368 365.415 80.184C366.055 80.184 366.695 80.184 367.335 80.184C368.007 80.184 368.663 80.184 369.303 80.184C369.303 79.064 369.303 77.96 369.303 76.872C369.303 75.752 369.303 74.648 369.303 73.56C370.615 73.56 371.943 73.56 373.287 73.56C374.631 73.56 375.943 73.56 377.223 73.56C377.223 74.648 377.223 75.752 377.223 76.872C377.223 77.96 377.223 79.064 377.223 80.184C377.959 80.184 378.711 80.184 379.479 80.184C380.247 80.184 380.999 80.184 381.735 80.184C381.735 81.368 381.735 82.552 381.735 83.736C381.735 84.92 381.735 86.104 381.735 87.288C380.999 87.288 380.247 87.288 379.479 87.288C378.711 87.288 377.959 87.288 377.223 87.288C377.223 90.2 377.223 93.144 377.223 96.12C377.223 99.096 377.223 102.056 377.223 105C375.943 105 374.631 105 373.287 105C371.943 105 370.615 105 369.303 105ZM395.16 105.768C393.304 105.768 391.576 105.448 389.976 104.808C388.376 104.136 386.984 103.208 385.8 102.024C384.616 100.808 383.688 99.4 383.016 97.8C382.376 96.2 382.056 94.456 382.056 92.568C382.056 90.68 382.376 88.936 383.016 87.336C383.688 85.736 384.616 84.344 385.8 83.16C386.984 81.976 388.376 81.064 389.976 80.424C391.576 79.752 393.304 79.416 395.16 79.416C397.048 79.416 398.776 79.752 400.344 80.424C401.944 81.064 403.336 81.976 404.52 83.16C405.704 84.344 406.616 85.736 407.256 87.336C407.928 88.936 408.264 90.68 408.264 92.568C408.264 94.456 407.928 96.2 407.256 97.8C406.616 99.4 405.704 100.808 404.52 102.024C403.336 103.208 401.944 104.136 400.344 104.808C398.776 105.448 397.048 105.768 395.16 105.768ZM395.16 98.616C396.728 98.616 397.976 98.056 398.904 96.936C399.864 95.784 400.344 94.328 400.344 92.568C400.344 90.776 399.864 89.336 398.904 88.248C397.976 87.128 396.728 86.568 395.16 86.568C393.592 86.568 392.328 87.128 391.368 88.248C390.44 89.336 389.976 90.776 389.976 92.568C389.976 94.328 390.44 95.784 391.368 96.936C392.328 98.056 393.592 98.616 395.16 98.616ZM418.181 112.68C416.901 112.68 415.589 112.68 414.245 112.68C412.901 112.68 411.573 112.68 410.261 112.68C410.261 107.336 410.261 101.928 410.261 96.456C410.261 90.952 410.261 85.528 410.261 80.184C411.573 80.184 412.901 80.184 414.245 80.184C415.589 80.184 416.901 80.184 418.181 80.184C418.181 80.408 418.181 80.632 418.181 80.856C418.181 81.08 418.181 81.32 418.181 81.576C418.981 80.936 419.893 80.44 420.917 80.088C421.941 79.704 423.029 79.512 424.181 79.512C425.781 79.512 427.301 79.832 428.741 80.472C430.181 81.08 431.445 81.96 432.533 83.112C433.653 84.264 434.517 85.64 435.125 87.24C435.765 88.84 436.085 90.616 436.085 92.568C436.085 94.488 435.765 96.248 435.125 97.848C434.517 99.448 433.653 100.84 432.533 102.024C431.445 103.176 430.181 104.072 428.741 104.712C427.301 105.352 425.765 105.672 424.133 105.672C422.981 105.672 421.893 105.48 420.869 105.096C419.877 104.744 418.981 104.232 418.181 103.56C418.181 105.064 418.181 106.584 418.181 108.12C418.181 109.656 418.181 111.176 418.181 112.68ZM423.077 98.664C424.645 98.664 425.877 98.12 426.773 97.032C427.701 95.912 428.165 94.424 428.165 92.568C428.165 90.712 427.701 89.24 426.773 88.152C425.877 87.064 424.645 86.52 423.077 86.52C421.541 86.52 420.309 87.08 419.381 88.2C418.453 89.288 417.989 90.744 417.989 92.568C417.989 94.392 418.453 95.864 419.381 96.984C420.309 98.104 421.541 98.664 423.077 98.664ZM442.331 77.352C441.403 77.352 440.555 77.128 439.787 76.68C439.051 76.232 438.459 75.64 438.011 74.904C437.563 74.168 437.339 73.352 437.339 72.456C437.339 71.56 437.563 70.76 438.011 70.056C438.459 69.32 439.051 68.728 439.787 68.28C440.555 67.832 441.403 67.608 442.331 67.608C443.227 67.608 444.043 67.832 444.779 68.28C445.547 68.728 446.155 69.32 446.603 70.056C447.051 70.76 447.275 71.56 447.275 72.456C447.275 73.352 447.051 74.168 446.603 74.904C446.155 75.64 445.547 76.232 444.779 76.68C444.043 77.128 443.227 77.352 442.331 77.352ZM438.347 105C438.347 100.904 438.347 96.776 438.347 92.616C438.347 88.424 438.347 84.28 438.347 80.184C439.659 80.184 440.987 80.184 442.331 80.184C443.675 80.184 444.987 80.184 446.267 80.184C446.267 84.28 446.267 88.424 446.267 92.616C446.267 96.776 446.267 100.904 446.267 105C444.987 105 443.675 105 442.331 105C440.987 105 439.659 105 438.347 105ZM466.434 105C466.434 104.744 466.434 104.504 466.434 104.28C466.434 104.024 466.434 103.784 466.434 103.56C465.634 104.232 464.722 104.744 463.698 105.096C462.706 105.48 461.634 105.672 460.482 105.672C458.85 105.672 457.314 105.368 455.874 104.76C454.434 104.12 453.154 103.224 452.034 102.072C450.946 100.888 450.082 99.496 449.442 97.896C448.834 96.296 448.53 94.52 448.53 92.568C448.53 90.584 448.834 88.792 449.442 87.192C450.082 85.592 450.946 84.232 452.034 83.112C453.154 81.96 454.434 81.08 455.874 80.472C457.314 79.832 458.834 79.512 460.434 79.512C461.586 79.512 462.674 79.704 463.698 80.088C464.722 80.44 465.634 80.936 466.434 81.576C466.434 81.32 466.434 81.08 466.434 80.856C466.434 80.632 466.434 80.408 466.434 80.184C467.746 80.184 469.074 80.184 470.418 80.184C471.762 80.184 473.074 80.184 474.354 80.184C474.354 84.28 474.354 88.424 474.354 92.616C474.354 96.776 474.354 100.904 474.354 105C473.074 105 471.762 105 470.418 105C469.074 105 467.746 105 466.434 105ZM461.538 98.664C463.074 98.664 464.306 98.104 465.234 96.984C466.162 95.864 466.626 94.392 466.626 92.568C466.626 90.744 466.162 89.288 465.234 88.2C464.306 87.08 463.074 86.52 461.538 86.52C459.97 86.52 458.722 87.064 457.794 88.152C456.898 89.24 456.45 90.712 456.45 92.568C456.45 94.424 456.898 95.912 457.794 97.032C458.722 98.12 459.97 98.664 461.538 98.664Z" fill="black"/>
</svg>
