<svg width="498" height="274" viewBox="0 0 498 274" fill="none" xmlns="http://www.w3.org/2000/svg">
<rect x="1.5" y="1.5" width="495" height="271" rx="23.5" fill="white"/>
<rect x="1.5" y="1.5" width="495" height="271" rx="23.5" stroke="black" stroke-width="3"/>
<path d="M24.5909 232.727L31.0682 251.682H31.3295L37.8068 232.727H41.6023L33.2273 256H29.1705L20.7955 232.727H24.5909ZM43.4103 256V238.545H46.8081V256H43.4103ZM45.1262 235.852C44.5353 235.852 44.0278 235.655 43.6035 235.261C43.1869 234.86 42.9785 234.383 42.9785 233.83C42.9785 233.269 43.1869 232.792 43.6035 232.398C44.0278 231.996 44.5353 231.795 45.1262 231.795C45.7172 231.795 46.2209 231.996 46.6376 232.398C47.0619 232.792 47.274 233.269 47.274 233.83C47.274 234.383 47.0619 234.86 46.6376 235.261C46.2209 235.655 45.7172 235.852 45.1262 235.852ZM57.6218 256.352C55.9021 256.352 54.4211 255.985 53.1786 255.25C51.9438 254.508 50.9892 253.466 50.315 252.125C49.6483 250.777 49.315 249.197 49.315 247.386C49.315 245.598 49.6483 244.023 50.315 242.659C50.9892 241.295 51.9286 240.231 53.1332 239.466C54.3453 238.701 55.762 238.318 57.3832 238.318C58.368 238.318 59.3226 238.481 60.2468 238.807C61.1711 239.133 62.0006 239.644 62.7355 240.341C63.4703 241.038 64.0498 241.943 64.4741 243.057C64.8983 244.163 65.1105 245.508 65.1105 247.091V248.295H51.2355V245.75H61.7809C61.7809 244.856 61.5991 244.064 61.2355 243.375C60.8718 242.678 60.3605 242.129 59.7014 241.727C59.0498 241.326 58.2847 241.125 57.4059 241.125C56.4514 241.125 55.618 241.36 54.9059 241.83C54.2014 242.292 53.6559 242.898 53.2695 243.648C52.8908 244.39 52.7014 245.197 52.7014 246.068V248.057C52.7014 249.223 52.9059 250.216 53.315 251.034C53.7317 251.852 54.3112 252.477 55.0536 252.909C55.7961 253.333 56.6635 253.545 57.6559 253.545C58.2998 253.545 58.887 253.455 59.4173 253.273C59.9476 253.083 60.4059 252.803 60.7923 252.432C61.1786 252.061 61.4741 251.602 61.6786 251.057L64.8945 251.636C64.637 252.583 64.1748 253.413 63.5082 254.125C62.8491 254.83 62.0195 255.379 61.0195 255.773C60.0271 256.159 58.8945 256.352 57.6218 256.352ZM71.3532 256L66.2168 238.545H69.7282L73.1486 251.364H73.3191L76.7509 238.545H80.2623L83.6714 251.307H83.8418L87.2395 238.545H90.7509L85.6259 256H82.16L78.6145 243.398H78.3532L74.8077 256H71.3532ZM100.157 232.727H104.418L111.827 250.818H112.1L119.509 232.727H123.77V256H120.43V239.159H120.214L113.35 255.966H110.577L103.714 239.148H103.498V256H100.157V232.727ZM134.675 256.352C133.039 256.352 131.611 255.977 130.391 255.227C129.171 254.477 128.224 253.428 127.55 252.08C126.876 250.731 126.539 249.155 126.539 247.352C126.539 245.542 126.876 243.958 127.55 242.602C128.224 241.246 129.171 240.193 130.391 239.443C131.611 238.693 133.039 238.318 134.675 238.318C136.311 238.318 137.74 238.693 138.959 239.443C140.179 240.193 141.126 241.246 141.8 242.602C142.474 243.958 142.811 245.542 142.811 247.352C142.811 249.155 142.474 250.731 141.8 252.08C141.126 253.428 140.179 254.477 138.959 255.227C137.74 255.977 136.311 256.352 134.675 256.352ZM134.686 253.5C135.747 253.5 136.626 253.22 137.323 252.659C138.02 252.098 138.535 251.352 138.868 250.42C139.209 249.489 139.38 248.462 139.38 247.341C139.38 246.227 139.209 245.205 138.868 244.273C138.535 243.333 138.02 242.58 137.323 242.011C136.626 241.443 135.747 241.159 134.686 241.159C133.618 241.159 132.732 241.443 132.027 242.011C131.33 242.58 130.811 243.333 130.471 244.273C130.137 245.205 129.971 246.227 129.971 247.341C129.971 248.462 130.137 249.489 130.471 250.42C130.811 251.352 131.33 252.098 132.027 252.659C132.732 253.22 133.618 253.5 134.686 253.5ZM145.324 256V238.545H148.608V241.318H148.79C149.108 240.379 149.669 239.64 150.472 239.102C151.282 238.557 152.199 238.284 153.222 238.284C153.434 238.284 153.684 238.292 153.972 238.307C154.267 238.322 154.498 238.341 154.665 238.364V241.614C154.529 241.576 154.286 241.534 153.938 241.489C153.589 241.436 153.241 241.409 152.892 241.409C152.089 241.409 151.373 241.58 150.745 241.92C150.123 242.254 149.631 242.72 149.267 243.318C148.904 243.909 148.722 244.583 148.722 245.341V256H145.324ZM163.223 256.352C161.503 256.352 160.022 255.985 158.78 255.25C157.545 254.508 156.59 253.466 155.916 252.125C155.25 250.777 154.916 249.197 154.916 247.386C154.916 245.598 155.25 244.023 155.916 242.659C156.59 241.295 157.53 240.231 158.734 239.466C159.947 238.701 161.363 238.318 162.984 238.318C163.969 238.318 164.924 238.481 165.848 238.807C166.772 239.133 167.602 239.644 168.337 240.341C169.072 241.038 169.651 241.943 170.075 243.057C170.5 244.163 170.712 245.508 170.712 247.091V248.295H156.837V245.75H167.382C167.382 244.856 167.2 244.064 166.837 243.375C166.473 242.678 165.962 242.129 165.303 241.727C164.651 241.326 163.886 241.125 163.007 241.125C162.053 241.125 161.219 241.36 160.507 241.83C159.803 242.292 159.257 242.898 158.871 243.648C158.492 244.39 158.303 245.197 158.303 246.068V248.057C158.303 249.223 158.507 250.216 158.916 251.034C159.333 251.852 159.912 252.477 160.655 252.909C161.397 253.333 162.265 253.545 163.257 253.545C163.901 253.545 164.488 253.455 165.019 253.273C165.549 253.083 166.007 252.803 166.394 252.432C166.78 252.061 167.075 251.602 167.28 251.057L170.496 251.636C170.238 252.583 169.776 253.413 169.109 254.125C168.45 254.83 167.621 255.379 166.621 255.773C165.628 256.159 164.496 256.352 163.223 256.352Z" fill="black"/>
<path d="M21.2 40.808C21.2 39.56 21.2 38.296 21.2 37.016C21.2 35.704 21.2 34.424 21.2 33.176C22.8 30.072 24.416 26.936 26.048 23.768C27.68 20.6 29.28 17.464 30.848 14.36C32.896 14.36 34.944 14.36 36.992 14.36C39.072 14.36 41.136 14.36 43.184 14.36C43.184 17.464 43.184 20.6 43.184 23.768C43.184 26.936 43.184 30.072 43.184 33.176C43.92 33.176 44.672 33.176 45.44 33.176C46.24 33.176 47.008 33.176 47.744 33.176C47.744 34.424 47.744 35.704 47.744 37.016C47.744 38.296 47.744 39.56 47.744 40.808C47.008 40.808 46.24 40.808 45.44 40.808C44.672 40.808 43.92 40.808 43.184 40.808C43.184 41.832 43.184 42.872 43.184 43.928C43.184 44.952 43.184 45.976 43.184 47C41.84 47 40.464 47 39.056 47C37.68 47 36.32 47 34.976 47C34.976 45.976 34.976 44.952 34.976 43.928C34.976 42.872 34.976 41.832 34.976 40.808C32.704 40.808 30.4 40.808 28.064 40.808C25.76 40.808 23.472 40.808 21.2 40.808ZM29.84 33.176C30.672 33.176 31.52 33.176 32.384 33.176C33.28 33.176 34.144 33.176 34.976 33.176C34.976 31.384 34.976 29.56 34.976 27.704C34.976 25.848 34.976 24.024 34.976 22.232C34.144 24.024 33.28 25.848 32.384 27.704C31.52 29.56 30.672 31.384 29.84 33.176Z" fill="black"/>
<circle cx="468" cy="21" r="9" fill="black"/>
<circle cx="467.5" cy="244.5" r="20.5" fill="black"/>
<path d="M478.207 245.707C478.598 245.317 478.598 244.683 478.207 244.293L471.843 237.929C471.453 237.538 470.819 237.538 470.429 237.929C470.038 238.319 470.038 238.953 470.429 239.343L476.086 245L470.429 250.657C470.038 251.047 470.038 251.681 470.429 252.071C470.819 252.462 471.453 252.462 471.843 252.071L478.207 245.707ZM456 245V246H477.5V245V244H456V245Z" fill="white"/>
<path d="M20 55H477" stroke="black"/>
<path d="M151.568 105C153.232 99.624 154.896 94.184 156.56 88.68C158.256 83.176 159.936 77.736 161.6 72.36C163.488 72.36 165.392 72.36 167.312 72.36C169.264 72.36 171.184 72.36 173.072 72.36C174.736 77.736 176.4 83.176 178.064 88.68C179.76 94.184 181.44 99.624 183.104 105C181.728 105 180.32 105 178.88 105C177.472 105 176.064 105 174.656 105C174.336 103.976 174.032 102.952 173.744 101.928C173.456 100.872 173.152 99.832 172.832 98.808C171.008 98.808 169.168 98.808 167.312 98.808C165.488 98.808 163.664 98.808 161.84 98.808C161.52 99.832 161.216 100.872 160.928 101.928C160.64 102.952 160.336 103.976 160.016 105C158.64 105 157.232 105 155.792 105C154.384 105 152.976 105 151.568 105ZM163.952 91.656C165.072 91.656 166.192 91.656 167.312 91.656C168.464 91.656 169.6 91.656 170.72 91.656C170.176 89.768 169.616 87.864 169.04 85.944C168.464 84.024 167.904 82.12 167.36 80.232C166.816 82.12 166.24 84.024 165.632 85.944C165.056 87.864 164.496 89.768 163.952 91.656ZM186.426 105C186.426 102.056 186.426 99.096 186.426 96.12C186.426 93.144 186.426 90.2 186.426 87.288C185.786 87.288 185.13 87.288 184.458 87.288C183.818 87.288 183.178 87.288 182.538 87.288C182.538 86.104 182.538 84.92 182.538 83.736C182.538 82.552 182.538 81.368 182.538 80.184C183.178 80.184 183.818 80.184 184.458 80.184C185.13 80.184 185.786 80.184 186.426 80.184C186.426 79.064 186.426 77.96 186.426 76.872C186.426 75.752 186.426 74.648 186.426 73.56C187.738 73.56 189.066 73.56 190.41 73.56C191.754 73.56 193.066 73.56 194.346 73.56C194.346 74.648 194.346 75.752 194.346 76.872C194.346 77.96 194.346 79.064 194.346 80.184C195.082 80.184 195.834 80.184 196.602 80.184C197.37 80.184 198.122 80.184 198.858 80.184C198.858 81.368 198.858 82.552 198.858 83.736C198.858 84.92 198.858 86.104 198.858 87.288C198.122 87.288 197.37 87.288 196.602 87.288C195.834 87.288 195.082 87.288 194.346 87.288C194.346 90.2 194.346 93.144 194.346 96.12C194.346 99.096 194.346 102.056 194.346 105C193.066 105 191.754 105 190.41 105C189.066 105 187.738 105 186.426 105ZM200.998 105C200.998 99.208 200.998 93.368 200.998 87.48C200.998 81.592 200.998 75.752 200.998 69.96C202.31 69.96 203.638 69.96 204.982 69.96C206.326 69.96 207.638 69.96 208.918 69.96C208.918 75.752 208.918 81.592 208.918 87.48C208.918 93.368 208.918 99.208 208.918 105C207.638 105 206.326 105 204.982 105C203.638 105 202.31 105 200.998 105ZM229.086 105C229.086 104.744 229.086 104.504 229.086 104.28C229.086 104.024 229.086 103.784 229.086 103.56C228.286 104.232 227.374 104.744 226.35 105.096C225.358 105.48 224.286 105.672 223.134 105.672C221.502 105.672 219.966 105.368 218.526 104.76C217.086 104.12 215.806 103.224 214.686 102.072C213.598 100.888 212.734 99.496 212.094 97.896C211.486 96.296 211.182 94.52 211.182 92.568C211.182 90.584 211.486 88.792 212.094 87.192C212.734 85.592 213.598 84.232 214.686 83.112C215.806 81.96 217.086 81.08 218.526 80.472C219.966 79.832 221.486 79.512 223.086 79.512C224.238 79.512 225.326 79.704 226.35 80.088C227.374 80.44 228.286 80.936 229.086 81.576C229.086 81.32 229.086 81.08 229.086 80.856C229.086 80.632 229.086 80.408 229.086 80.184C230.398 80.184 231.726 80.184 233.07 80.184C234.414 80.184 235.726 80.184 237.006 80.184C237.006 84.28 237.006 88.424 237.006 92.616C237.006 96.776 237.006 100.904 237.006 105C235.726 105 234.414 105 233.07 105C231.726 105 230.398 105 229.086 105ZM224.19 98.664C225.726 98.664 226.958 98.104 227.886 96.984C228.814 95.864 229.278 94.392 229.278 92.568C229.278 90.744 228.814 89.288 227.886 88.2C226.958 87.08 225.726 86.52 224.19 86.52C222.622 86.52 221.374 87.064 220.446 88.152C219.55 89.24 219.102 90.712 219.102 92.568C219.102 94.424 219.55 95.912 220.446 97.032C221.374 98.12 222.622 98.664 224.19 98.664ZM259.331 97.32C259.331 99.304 258.771 100.936 257.651 102.216C256.563 103.464 255.091 104.376 253.235 104.952C251.379 105.528 249.299 105.768 246.995 105.672C244.723 105.608 242.403 105.24 240.035 104.568C240.035 103.352 240.035 102.104 240.035 100.824C240.035 99.544 240.035 98.296 240.035 97.08C241.379 97.688 242.723 98.168 244.067 98.52C245.411 98.84 246.627 99.032 247.715 99.096C248.803 99.16 249.683 99.08 250.355 98.856C251.027 98.6 251.363 98.184 251.363 97.608C251.363 97.16 251.075 96.808 250.499 96.552C249.955 96.296 249.235 96.072 248.339 95.88C247.443 95.656 246.483 95.4 245.459 95.112C244.467 94.792 243.523 94.36 242.627 93.816C241.731 93.24 240.995 92.488 240.419 91.56C239.875 90.6 239.603 89.368 239.603 87.864C239.603 86.072 240.115 84.552 241.139 83.304C242.195 82.024 243.603 81.064 245.363 80.424C247.123 79.752 249.091 79.416 251.267 79.416C253.443 79.416 255.667 79.784 257.939 80.52C257.939 81.736 257.939 82.984 257.939 84.264C257.939 85.544 257.939 86.792 257.939 88.008C256.147 87.144 254.467 86.568 252.899 86.28C251.331 85.992 250.067 85.96 249.107 86.184C248.147 86.376 247.667 86.808 247.667 87.48C247.667 87.928 247.939 88.28 248.483 88.536C249.059 88.76 249.779 88.968 250.643 89.16C251.539 89.352 252.483 89.608 253.475 89.928C254.499 90.248 255.443 90.696 256.307 91.272C257.203 91.816 257.923 92.584 258.467 93.576C259.043 94.536 259.331 95.784 259.331 97.32ZM281.151 105.768C279.295 105.768 277.567 105.448 275.967 104.808C274.367 104.136 272.975 103.208 271.791 102.024C270.607 100.808 269.679 99.4 269.007 97.8C268.367 96.2 268.047 94.456 268.047 92.568C268.047 90.68 268.367 88.936 269.007 87.336C269.679 85.736 270.607 84.344 271.791 83.16C272.975 81.976 274.367 81.064 275.967 80.424C277.567 79.752 279.295 79.416 281.151 79.416C283.039 79.416 284.767 79.752 286.335 80.424C287.935 81.064 289.327 81.976 290.511 83.16C291.695 84.344 292.607 85.736 293.247 87.336C293.919 88.936 294.255 90.68 294.255 92.568C294.255 94.456 293.919 96.2 293.247 97.8C292.607 99.4 291.695 100.808 290.511 102.024C289.327 103.208 287.935 104.136 286.335 104.808C284.767 105.448 283.039 105.768 281.151 105.768ZM281.151 98.616C282.719 98.616 283.967 98.056 284.895 96.936C285.855 95.784 286.335 94.328 286.335 92.568C286.335 90.776 285.855 89.336 284.895 88.248C283.967 87.128 282.719 86.568 281.151 86.568C279.583 86.568 278.319 87.128 277.359 88.248C276.431 89.336 275.967 90.776 275.967 92.568C275.967 94.328 276.431 95.784 277.359 96.936C278.319 98.056 279.583 98.616 281.151 98.616ZM294.722 87.288C294.722 86.104 294.722 84.92 294.722 83.736C294.722 82.552 294.722 81.368 294.722 80.184C295.362 80.184 296.002 80.184 296.642 80.184C297.314 80.184 297.97 80.184 298.61 80.184C298.61 80.024 298.61 79.88 298.61 79.752C298.61 79.624 298.61 79.496 298.61 79.368C298.61 77.224 299.042 75.432 299.906 73.992C300.802 72.52 301.97 71.4 303.41 70.632C304.882 69.832 306.482 69.384 308.21 69.288C309.97 69.16 311.714 69.384 313.442 69.96C313.442 71.144 313.442 72.36 313.442 73.608C313.442 74.856 313.442 76.088 313.442 77.304C311.522 76.664 309.89 76.536 308.546 76.92C307.202 77.304 306.53 78.136 306.53 79.416C306.53 79.544 306.53 79.672 306.53 79.8C306.53 79.928 306.53 80.056 306.53 80.184C307.522 80.184 308.514 80.184 309.506 80.184C310.498 80.184 311.49 80.184 312.482 80.184C312.482 81.368 312.482 82.552 312.482 83.736C312.482 84.92 312.482 86.104 312.482 87.288C311.49 87.288 310.498 87.288 309.506 87.288C308.514 87.288 307.522 87.288 306.53 87.288C306.53 90.2 306.53 93.144 306.53 96.12C306.53 99.096 306.53 102.056 306.53 105C305.25 105 303.938 105 302.594 105C301.25 105 299.922 105 298.61 105C298.61 102.056 298.61 99.096 298.61 96.12C298.61 93.144 298.61 90.2 298.61 87.288C297.97 87.288 297.314 87.288 296.642 87.288C296.002 87.288 295.362 87.288 294.722 87.288ZM349.811 92.616C349.811 94.632 349.459 96.456 348.755 98.088C348.083 99.688 347.123 101.064 345.875 102.216C344.659 103.368 343.219 104.248 341.555 104.856C339.923 105.464 338.147 105.768 336.227 105.768C334.275 105.768 332.483 105.464 330.851 104.856C329.219 104.248 327.795 103.384 326.579 102.264C325.395 101.112 324.467 99.736 323.795 98.136C323.123 96.536 322.787 94.728 322.787 92.712C322.787 89.352 322.787 85.96 322.787 82.536C322.787 79.112 322.787 75.72 322.787 72.36C324.195 72.36 325.603 72.36 327.011 72.36C328.419 72.36 329.811 72.36 331.187 72.36C331.187 75.656 331.187 78.968 331.187 82.296C331.187 85.624 331.187 88.936 331.187 92.232C331.187 93.96 331.667 95.352 332.627 96.408C333.587 97.464 334.819 97.992 336.323 97.992C337.827 97.992 339.043 97.464 339.971 96.408C340.931 95.352 341.411 93.96 341.411 92.232C341.411 88.936 341.411 85.624 341.411 82.296C341.411 78.968 341.411 75.656 341.411 72.36C342.819 72.36 344.227 72.36 345.635 72.36C347.043 72.36 348.435 72.36 349.811 72.36C349.811 75.688 349.811 79.064 349.811 82.488C349.811 85.912 349.811 89.288 349.811 92.616ZM353.164 105C353.164 100.904 353.164 96.776 353.164 92.616C353.164 88.424 353.164 84.28 353.164 80.184C354.476 80.184 355.804 80.184 357.148 80.184C358.492 80.184 359.804 80.184 361.084 80.184C361.084 80.408 361.084 80.616 361.084 80.808C361.084 81 361.084 81.208 361.084 81.432C361.948 80.824 362.908 80.36 363.964 80.04C365.052 79.688 366.22 79.512 367.468 79.512C369.292 79.512 370.892 79.928 372.268 80.76C373.676 81.592 374.764 82.792 375.532 84.36C376.332 85.896 376.732 87.752 376.732 89.928C376.732 92.424 376.732 94.936 376.732 97.464C376.732 99.992 376.732 102.504 376.732 105C375.452 105 374.14 105 372.796 105C371.452 105 370.124 105 368.812 105C368.812 102.696 368.812 100.36 368.812 97.992C368.812 95.624 368.812 93.288 368.812 90.984C368.812 89.704 368.508 88.68 367.9 87.912C367.324 87.112 366.396 86.712 365.116 86.712C363.836 86.712 362.844 87.08 362.14 87.816C361.436 88.552 361.084 89.608 361.084 90.984C361.084 93.288 361.084 95.624 361.084 97.992C361.084 100.36 361.084 102.696 361.084 105C359.804 105 358.492 105 357.148 105C355.804 105 354.476 105 353.164 105ZM398.657 97.32C398.657 99.304 398.097 100.936 396.977 102.216C395.889 103.464 394.417 104.376 392.561 104.952C390.705 105.528 388.625 105.768 386.321 105.672C384.049 105.608 381.729 105.24 379.361 104.568C379.361 103.352 379.361 102.104 379.361 100.824C379.361 99.544 379.361 98.296 379.361 97.08C380.705 97.688 382.049 98.168 383.393 98.52C384.737 98.84 385.953 99.032 387.041 99.096C388.129 99.16 389.009 99.08 389.681 98.856C390.353 98.6 390.689 98.184 390.689 97.608C390.689 97.16 390.401 96.808 389.825 96.552C389.281 96.296 388.561 96.072 387.665 95.88C386.769 95.656 385.809 95.4 384.785 95.112C383.793 94.792 382.849 94.36 381.953 93.816C381.057 93.24 380.321 92.488 379.745 91.56C379.201 90.6 378.929 89.368 378.929 87.864C378.929 86.072 379.441 84.552 380.465 83.304C381.521 82.024 382.929 81.064 384.689 80.424C386.449 79.752 388.417 79.416 390.593 79.416C392.769 79.416 394.993 79.784 397.265 80.52C397.265 81.736 397.265 82.984 397.265 84.264C397.265 85.544 397.265 86.792 397.265 88.008C395.473 87.144 393.793 86.568 392.225 86.28C390.657 85.992 389.393 85.96 388.433 86.184C387.473 86.376 386.993 86.808 386.993 87.48C386.993 87.928 387.265 88.28 387.809 88.536C388.385 88.76 389.105 88.968 389.969 89.16C390.865 89.352 391.809 89.608 392.801 89.928C393.825 90.248 394.769 90.696 395.633 91.272C396.529 91.816 397.249 92.584 397.793 93.576C398.369 94.536 398.657 95.784 398.657 97.32ZM421.918 103.848C419.71 104.776 417.518 105.352 415.342 105.576C413.166 105.8 411.102 105.672 409.15 105.192C407.23 104.744 405.518 103.96 404.014 102.84C402.51 101.72 401.326 100.296 400.462 98.568C399.63 96.84 399.214 94.84 399.214 92.568C399.214 90.68 399.518 88.952 400.126 87.384C400.766 85.784 401.662 84.392 402.814 83.208C403.966 81.992 405.326 81.064 406.894 80.424C408.462 79.752 410.174 79.416 412.03 79.416C413.694 79.416 415.198 79.688 416.542 80.232C417.886 80.776 419.054 81.544 420.046 82.536C421.038 83.496 421.838 84.648 422.446 85.992C423.054 87.336 423.438 88.808 423.598 90.408C423.758 92.008 423.662 93.704 423.31 95.496C420.686 95.496 418.046 95.496 415.39 95.496C412.734 95.496 410.094 95.496 407.47 95.496C408.078 96.712 409.086 97.576 410.494 98.088C411.934 98.6 413.63 98.76 415.582 98.568C417.566 98.376 419.678 97.864 421.918 97.032C421.918 98.152 421.918 99.288 421.918 100.44C421.918 101.592 421.918 102.728 421.918 103.848ZM411.838 86.52C410.91 86.52 410.046 86.776 409.246 87.288C408.478 87.8 407.886 88.584 407.47 89.64C408.91 89.64 410.35 89.64 411.79 89.64C413.262 89.64 414.718 89.64 416.158 89.64C415.774 88.552 415.198 87.768 414.43 87.288C413.694 86.776 412.83 86.52 411.838 86.52ZM447.233 103.848C445.025 104.776 442.833 105.352 440.657 105.576C438.481 105.8 436.417 105.672 434.465 105.192C432.545 104.744 430.833 103.96 429.329 102.84C427.825 101.72 426.641 100.296 425.777 98.568C424.945 96.84 424.529 94.84 424.529 92.568C424.529 90.68 424.833 88.952 425.441 87.384C426.081 85.784 426.977 84.392 428.129 83.208C429.281 81.992 430.641 81.064 432.209 80.424C433.777 79.752 435.489 79.416 437.345 79.416C439.009 79.416 440.513 79.688 441.857 80.232C443.201 80.776 444.369 81.544 445.361 82.536C446.353 83.496 447.153 84.648 447.761 85.992C448.369 87.336 448.753 88.808 448.913 90.408C449.073 92.008 448.977 93.704 448.625 95.496C446.001 95.496 443.361 95.496 440.705 95.496C438.049 95.496 435.409 95.496 432.785 95.496C433.393 96.712 434.401 97.576 435.809 98.088C437.249 98.6 438.945 98.76 440.897 98.568C442.881 98.376 444.993 97.864 447.233 97.032C447.233 98.152 447.233 99.288 447.233 100.44C447.233 101.592 447.233 102.728 447.233 103.848ZM437.153 86.52C436.225 86.52 435.361 86.776 434.561 87.288C433.793 87.8 433.201 88.584 432.785 89.64C434.225 89.64 435.665 89.64 437.105 89.64C438.577 89.64 440.033 89.64 441.473 89.64C441.089 88.552 440.513 87.768 439.745 87.288C439.009 86.776 438.145 86.52 437.153 86.52ZM451.187 105C451.187 100.904 451.187 96.776 451.187 92.616C451.187 88.424 451.187 84.28 451.187 80.184C452.499 80.184 453.827 80.184 455.171 80.184C456.515 80.184 457.827 80.184 459.107 80.184C459.107 80.408 459.107 80.616 459.107 80.808C459.107 81 459.107 81.208 459.107 81.432C459.971 80.824 460.931 80.36 461.987 80.04C463.075 79.688 464.243 79.512 465.491 79.512C467.315 79.512 468.915 79.928 470.291 80.76C471.699 81.592 472.787 82.792 473.555 84.36C474.355 85.896 474.755 87.752 474.755 89.928C474.755 92.424 474.755 94.936 474.755 97.464C474.755 99.992 474.755 102.504 474.755 105C473.475 105 472.163 105 470.819 105C469.475 105 468.147 105 466.835 105C466.835 102.696 466.835 100.36 466.835 97.992C466.835 95.624 466.835 93.288 466.835 90.984C466.835 89.704 466.531 88.68 465.923 87.912C465.347 87.112 464.419 86.712 463.139 86.712C461.859 86.712 460.867 87.08 460.163 87.816C459.459 88.552 459.107 89.608 459.107 90.984C459.107 93.288 459.107 95.624 459.107 97.992C459.107 100.36 459.107 102.696 459.107 105C457.827 105 456.515 105 455.171 105C453.827 105 452.499 105 451.187 105Z" fill="black"/>
</svg>
