<svg width="350" height="238" viewBox="0 0 350 238" fill="none" xmlns="http://www.w3.org/2000/svg">
<g clip-path="url(#clip0_156_974)">
<rect width="350" height="238" rx="25" fill="white"/>
<path d="M140.46 108C139.084 108 137.692 108 136.284 108C134.876 108 133.468 108 132.06 108C132.06 102.624 132.06 97.184 132.06 91.68C132.06 86.176 132.06 80.736 132.06 75.36C133.468 75.36 134.876 75.36 136.284 75.36C137.692 75.36 139.084 75.36 140.46 75.36C140.46 77.312 140.46 79.28 140.46 81.264C140.46 83.216 140.46 85.168 140.46 87.12C142.156 87.12 143.868 87.12 145.596 87.12C147.324 87.12 149.02 87.12 150.684 87.12C150.684 85.168 150.684 83.216 150.684 81.264C150.684 79.28 150.684 77.312 150.684 75.36C152.092 75.36 153.5 75.36 154.908 75.36C156.316 75.36 157.708 75.36 159.084 75.36C159.084 80.736 159.084 86.176 159.084 91.68C159.084 97.184 159.084 102.624 159.084 108C157.708 108 156.316 108 154.908 108C153.5 108 152.092 108 150.684 108C150.684 105.824 150.684 103.632 150.684 101.424C150.684 99.184 150.684 96.992 150.684 94.848C149.02 94.848 147.324 94.848 145.596 94.848C143.868 94.848 142.156 94.848 140.46 94.848C140.46 96.992 140.46 99.184 140.46 101.424C140.46 103.632 140.46 105.824 140.46 108ZM165.245 115.68C165.885 113.984 166.541 112.272 167.213 110.544C167.917 108.848 168.589 107.168 169.229 105.504C167.725 101.824 166.189 98.112 164.621 94.368C163.085 90.592 161.565 86.864 160.061 83.184C161.469 83.184 162.877 83.184 164.285 83.184C165.693 83.184 167.085 83.184 168.461 83.184C169.293 85.232 170.125 87.312 170.957 89.424C171.821 91.536 172.669 93.632 173.501 95.712C174.269 93.632 175.053 91.536 175.853 89.424C176.653 87.312 177.437 85.232 178.205 83.184C179.581 83.184 180.957 83.184 182.333 83.184C183.709 83.184 185.085 83.184 186.461 83.184C184.317 88.528 182.157 93.952 179.981 99.456C177.837 104.928 175.693 110.336 173.549 115.68C172.173 115.68 170.781 115.68 169.373 115.68C167.997 115.68 166.621 115.68 165.245 115.68ZM203.034 108C203.034 107.744 203.034 107.504 203.034 107.28C203.034 107.024 203.034 106.784 203.034 106.56C202.234 107.232 201.322 107.744 200.298 108.096C199.306 108.48 198.234 108.672 197.082 108.672C195.45 108.672 193.914 108.352 192.474 107.712C191.034 107.072 189.754 106.176 188.634 105.024C187.546 103.84 186.682 102.448 186.042 100.848C185.434 99.248 185.13 97.488 185.13 95.568C185.13 93.616 185.434 91.84 186.042 90.24C186.682 88.64 187.546 87.264 188.634 86.112C189.754 84.96 191.034 84.08 192.474 83.472C193.914 82.832 195.434 82.512 197.034 82.512C198.186 82.512 199.274 82.704 200.298 83.088C201.322 83.44 202.234 83.936 203.034 84.576C203.034 82.656 203.034 80.72 203.034 78.768C203.034 76.816 203.034 74.88 203.034 72.96C204.346 72.96 205.674 72.96 207.018 72.96C208.362 72.96 209.674 72.96 210.954 72.96C210.954 78.752 210.954 84.592 210.954 90.48C210.954 96.368 210.954 102.208 210.954 108C209.674 108 208.362 108 207.018 108C205.674 108 204.346 108 203.034 108ZM198.138 101.664C199.674 101.664 200.906 101.104 201.834 99.984C202.762 98.864 203.226 97.392 203.226 95.568C203.226 93.744 202.762 92.288 201.834 91.2C200.906 90.08 199.674 89.52 198.138 89.52C196.57 89.52 195.322 90.064 194.394 91.152C193.498 92.24 193.05 93.712 193.05 95.568C193.05 97.424 193.498 98.912 194.394 100.032C195.322 101.12 196.57 101.664 198.138 101.664ZM214.554 108C214.554 103.904 214.554 99.776 214.554 95.616C214.554 91.424 214.554 87.28 214.554 83.184C215.866 83.184 217.194 83.184 218.538 83.184C219.882 83.184 221.194 83.184 222.474 83.184C222.474 83.408 222.474 83.632 222.474 83.856C222.474 84.08 222.474 84.304 222.474 84.528C223.466 83.824 224.586 83.296 225.834 82.944C227.082 82.592 228.442 82.496 229.914 82.656C229.914 83.936 229.914 85.232 229.914 86.544C229.914 87.856 229.914 89.152 229.914 90.432C227.386 90.08 225.514 90.304 224.298 91.104C223.082 91.872 222.474 93.136 222.474 94.896C222.474 97.04 222.474 99.216 222.474 101.424C222.474 103.632 222.474 105.824 222.474 108C221.194 108 219.882 108 218.538 108C217.194 108 215.866 108 214.554 108ZM243.098 108.768C241.242 108.768 239.514 108.448 237.914 107.808C236.314 107.136 234.922 106.208 233.738 105.024C232.554 103.808 231.626 102.4 230.954 100.8C230.314 99.2 229.994 97.456 229.994 95.568C229.994 93.68 230.314 91.936 230.954 90.336C231.626 88.736 232.554 87.344 233.738 86.16C234.922 84.976 236.314 84.064 237.914 83.424C239.514 82.752 241.242 82.416 243.098 82.416C244.986 82.416 246.714 82.752 248.282 83.424C249.882 84.064 251.274 84.976 252.458 86.16C253.642 87.344 254.554 88.736 255.194 90.336C255.866 91.936 256.202 93.68 256.202 95.568C256.202 97.456 255.866 99.2 255.194 100.8C254.554 102.4 253.642 103.808 252.458 105.024C251.274 106.208 249.882 107.136 248.282 107.808C246.714 108.448 244.986 108.768 243.098 108.768ZM243.098 101.616C244.666 101.616 245.914 101.056 246.842 99.936C247.802 98.784 248.282 97.328 248.282 95.568C248.282 93.776 247.802 92.336 246.842 91.248C245.914 90.128 244.666 89.568 243.098 89.568C241.53 89.568 240.266 90.128 239.306 91.248C238.378 92.336 237.914 93.776 237.914 95.568C237.914 97.328 238.378 98.784 239.306 99.936C240.266 101.056 241.53 101.616 243.098 101.616ZM281.527 103.968C281.527 106.688 280.935 108.96 279.751 110.784C278.599 112.608 277.015 113.968 274.999 114.864C272.983 115.792 270.679 116.272 268.087 116.304C265.527 116.336 262.823 115.952 259.975 115.152C259.975 113.904 259.975 112.64 259.975 111.36C259.975 110.112 259.975 108.864 259.975 107.616C262.503 108.608 264.791 109.104 266.839 109.104C268.887 109.136 270.503 108.752 271.687 107.952C272.903 107.12 273.511 105.984 273.511 104.544C273.511 104.384 273.511 104.24 273.511 104.112C273.511 103.952 273.511 103.808 273.511 103.68C272.711 104.288 271.783 104.768 270.727 105.12C269.671 105.472 268.535 105.648 267.319 105.648C265.303 105.648 263.495 105.184 261.895 104.256C260.327 103.296 259.095 101.984 258.199 100.32C257.303 98.624 256.855 96.656 256.855 94.416C256.855 92.688 257.143 91.104 257.719 89.664C258.295 88.224 259.095 86.976 260.119 85.92C261.143 84.864 262.311 84.064 263.623 83.52C264.935 82.944 266.311 82.656 267.751 82.656C268.903 82.656 269.975 82.816 270.967 83.136C271.959 83.456 272.839 83.888 273.607 84.432C273.607 84.208 273.607 84 273.607 83.808C273.607 83.616 273.607 83.408 273.607 83.184C274.919 83.184 276.247 83.184 277.591 83.184C278.935 83.184 280.247 83.184 281.527 83.184C281.527 86.608 281.527 90.08 281.527 93.6C281.527 97.088 281.527 100.544 281.527 103.968ZM269.287 98.784C270.631 98.784 271.703 98.368 272.503 97.536C273.335 96.672 273.751 95.568 273.751 94.224C273.751 92.848 273.335 91.728 272.503 90.864C271.703 90 270.631 89.568 269.287 89.568C267.879 89.568 266.759 90 265.927 90.864C265.095 91.696 264.679 92.816 264.679 94.224C264.679 95.6 265.095 96.704 265.927 97.536C266.759 98.368 267.879 98.784 269.287 98.784ZM306.232 106.848C304.024 107.776 301.832 108.352 299.656 108.576C297.48 108.8 295.416 108.672 293.464 108.192C291.544 107.744 289.832 106.96 288.328 105.84C286.824 104.72 285.64 103.296 284.776 101.568C283.944 99.84 283.528 97.84 283.528 95.568C283.528 93.68 283.832 91.952 284.44 90.384C285.08 88.784 285.976 87.392 287.128 86.208C288.28 84.992 289.64 84.064 291.208 83.424C292.776 82.752 294.488 82.416 296.344 82.416C298.008 82.416 299.512 82.688 300.856 83.232C302.2 83.776 303.368 84.544 304.36 85.536C305.352 86.496 306.152 87.648 306.76 88.992C307.368 90.336 307.752 91.808 307.912 93.408C308.072 95.008 307.976 96.704 307.625 98.496C305 98.496 302.36 98.496 299.704 98.496C297.048 98.496 294.408 98.496 291.784 98.496C292.392 99.712 293.4 100.576 294.808 101.088C296.248 101.6 297.944 101.76 299.896 101.568C301.88 101.376 303.992 100.864 306.232 100.032C306.232 101.152 306.232 102.288 306.232 103.44C306.232 104.592 306.232 105.728 306.232 106.848ZM296.152 89.52C295.224 89.52 294.36 89.776 293.56 90.288C292.792 90.8 292.2 91.584 291.784 92.64C293.224 92.64 294.664 92.64 296.104 92.64C297.576 92.64 299.032 92.64 300.472 92.64C300.088 91.552 299.512 90.768 298.744 90.288C298.008 89.776 297.144 89.52 296.152 89.52ZM310.187 108C310.187 103.904 310.187 99.776 310.187 95.616C310.187 91.424 310.187 87.28 310.187 83.184C311.499 83.184 312.827 83.184 314.171 83.184C315.515 83.184 316.827 83.184 318.107 83.184C318.107 83.408 318.107 83.616 318.107 83.808C318.107 84 318.107 84.208 318.107 84.432C318.971 83.824 319.931 83.36 320.987 83.04C322.075 82.688 323.243 82.512 324.491 82.512C326.315 82.512 327.915 82.928 329.291 83.76C330.699 84.592 331.787 85.792 332.555 87.36C333.355 88.896 333.755 90.752 333.755 92.928C333.755 95.424 333.755 97.936 333.755 100.464C333.755 102.992 333.755 105.504 333.755 108C332.475 108 331.163 108 329.819 108C328.475 108 327.147 108 325.835 108C325.835 105.696 325.835 103.36 325.835 100.992C325.835 98.624 325.835 96.288 325.835 93.984C325.835 92.704 325.531 91.68 324.923 90.912C324.347 90.112 323.419 89.712 322.139 89.712C320.859 89.712 319.867 90.08 319.163 90.816C318.459 91.552 318.107 92.608 318.107 93.984C318.107 96.288 318.107 98.624 318.107 100.992C318.107 103.36 318.107 105.696 318.107 108C316.827 108 315.515 108 314.171 108C312.827 108 311.499 108 310.187 108ZM228.309 139.68C228.309 137.216 228.693 134.976 229.461 132.96C230.261 130.912 231.381 129.136 232.821 127.632C234.261 126.128 235.989 124.96 238.005 124.128C240.021 123.296 242.245 122.848 244.677 122.784C247.141 122.72 249.765 123.104 252.549 123.936C252.549 125.28 252.549 126.64 252.549 128.016C252.549 129.36 252.549 130.704 252.549 132.048C250.661 131.152 248.789 130.64 246.933 130.512C245.077 130.384 243.397 130.64 241.893 131.28C240.389 131.92 239.189 132.944 238.293 134.352C237.397 135.728 236.949 137.504 236.949 139.68C236.949 141.856 237.397 143.648 238.293 145.056C239.189 146.432 240.389 147.44 241.893 148.08C243.397 148.72 245.077 148.976 246.933 148.848C248.789 148.72 250.661 148.208 252.549 147.312C252.549 148.656 252.549 150.016 252.549 151.392C252.549 152.736 252.549 154.08 252.549 155.424C249.765 156.256 247.141 156.64 244.677 156.576C242.245 156.512 240.021 156.064 238.005 155.232C235.989 154.4 234.261 153.232 232.821 151.728C231.381 150.224 230.261 148.464 229.461 146.448C228.693 144.4 228.309 142.144 228.309 139.68ZM257.501 163.68C258.141 161.984 258.797 160.272 259.469 158.544C260.173 156.848 260.845 155.168 261.485 153.504C259.981 149.824 258.445 146.112 256.877 142.368C255.341 138.592 253.821 134.864 252.317 131.184C253.725 131.184 255.133 131.184 256.541 131.184C257.949 131.184 259.341 131.184 260.717 131.184C261.549 133.232 262.381 135.312 263.213 137.424C264.077 139.536 264.925 141.632 265.757 143.712C266.525 141.632 267.309 139.536 268.109 137.424C268.909 135.312 269.693 133.232 270.461 131.184C271.837 131.184 273.213 131.184 274.589 131.184C275.965 131.184 277.341 131.184 278.717 131.184C276.573 136.528 274.413 141.952 272.237 147.456C270.093 152.928 267.949 158.336 265.805 163.68C264.429 163.68 263.037 163.68 261.629 163.68C260.253 163.68 258.877 163.68 257.501 163.68ZM277.386 143.568C277.386 141.136 277.882 139.008 278.874 137.184C279.866 135.328 281.242 133.84 283.002 132.72C284.762 131.6 286.81 130.928 289.146 130.704C291.482 130.448 293.978 130.72 296.634 131.52C296.634 132.736 296.634 133.968 296.634 135.216C296.634 136.464 296.634 137.696 296.634 138.912C294.778 138.016 293.002 137.6 291.306 137.664C289.61 137.728 288.218 138.256 287.13 139.248C286.042 140.208 285.498 141.648 285.498 143.568C285.498 145.488 286.042 146.944 287.13 147.936C288.218 148.896 289.61 149.408 291.306 149.472C293.002 149.504 294.778 149.088 296.634 148.224C296.634 149.44 296.634 150.672 296.634 151.92C296.634 153.168 296.634 154.4 296.634 155.616C293.978 156.416 291.482 156.688 289.146 156.432C286.81 156.208 284.762 155.536 283.002 154.416C281.242 153.296 279.866 151.824 278.874 150C277.882 148.144 277.386 146 277.386 143.568ZM299.878 156C299.878 150.208 299.878 144.368 299.878 138.48C299.878 132.592 299.878 126.752 299.878 120.96C301.19 120.96 302.518 120.96 303.862 120.96C305.206 120.96 306.518 120.96 307.798 120.96C307.798 126.752 307.798 132.592 307.798 138.48C307.798 144.368 307.798 150.208 307.798 156C306.518 156 305.206 156 303.862 156C302.518 156 301.19 156 299.878 156ZM332.766 154.848C330.558 155.776 328.366 156.352 326.19 156.576C324.014 156.8 321.95 156.672 319.998 156.192C318.078 155.744 316.366 154.96 314.862 153.84C313.358 152.72 312.174 151.296 311.31 149.568C310.478 147.84 310.062 145.84 310.062 143.568C310.062 141.68 310.366 139.952 310.974 138.384C311.614 136.784 312.51 135.392 313.662 134.208C314.814 132.992 316.174 132.064 317.742 131.424C319.31 130.752 321.022 130.416 322.878 130.416C324.542 130.416 326.046 130.688 327.39 131.232C328.734 131.776 329.902 132.544 330.894 133.536C331.886 134.496 332.686 135.648 333.294 136.992C333.902 138.336 334.286 139.808 334.446 141.408C334.606 143.008 334.51 144.704 334.158 146.496C331.534 146.496 328.894 146.496 326.238 146.496C323.582 146.496 320.942 146.496 318.318 146.496C318.926 147.712 319.934 148.576 321.342 149.088C322.782 149.6 324.478 149.76 326.43 149.568C328.414 149.376 330.526 148.864 332.766 148.032C332.766 149.152 332.766 150.288 332.766 151.44C332.766 152.592 332.766 153.728 332.766 154.848ZM322.686 137.52C321.758 137.52 320.894 137.776 320.094 138.288C319.326 138.8 318.734 139.584 318.318 140.64C319.758 140.64 321.198 140.64 322.638 140.64C324.11 140.64 325.566 140.64 327.006 140.64C326.622 139.552 326.046 138.768 325.278 138.288C324.542 137.776 323.678 137.52 322.686 137.52Z" fill="black"/>
<path d="M24.5909 193.727L31.0682 212.682H31.3295L37.8068 193.727H41.6023L33.2273 217H29.1705L20.7955 193.727H24.5909ZM43.4103 217V199.545H46.8081V217H43.4103ZM45.1262 196.852C44.5353 196.852 44.0278 196.655 43.6035 196.261C43.1869 195.86 42.9785 195.383 42.9785 194.83C42.9785 194.269 43.1869 193.792 43.6035 193.398C44.0278 192.996 44.5353 192.795 45.1262 192.795C45.7172 192.795 46.2209 192.996 46.6376 193.398C47.0619 193.792 47.274 194.269 47.274 194.83C47.274 195.383 47.0619 195.86 46.6376 196.261C46.2209 196.655 45.7172 196.852 45.1262 196.852ZM57.6218 217.352C55.9021 217.352 54.4211 216.985 53.1786 216.25C51.9438 215.508 50.9892 214.466 50.315 213.125C49.6483 211.777 49.315 210.197 49.315 208.386C49.315 206.598 49.6483 205.023 50.315 203.659C50.9892 202.295 51.9286 201.231 53.1332 200.466C54.3453 199.701 55.762 199.318 57.3832 199.318C58.368 199.318 59.3226 199.481 60.2468 199.807C61.1711 200.133 62.0006 200.644 62.7355 201.341C63.4703 202.038 64.0498 202.943 64.4741 204.057C64.8983 205.163 65.1105 206.508 65.1105 208.091V209.295H51.2355V206.75H61.7809C61.7809 205.856 61.5991 205.064 61.2355 204.375C60.8718 203.678 60.3605 203.129 59.7014 202.727C59.0498 202.326 58.2847 202.125 57.4059 202.125C56.4514 202.125 55.618 202.36 54.9059 202.83C54.2014 203.292 53.6559 203.898 53.2695 204.648C52.8908 205.39 52.7014 206.197 52.7014 207.068V209.057C52.7014 210.223 52.9059 211.216 53.315 212.034C53.7317 212.852 54.3112 213.477 55.0536 213.909C55.7961 214.333 56.6635 214.545 57.6559 214.545C58.2998 214.545 58.887 214.455 59.4173 214.273C59.9476 214.083 60.4059 213.803 60.7923 213.432C61.1786 213.061 61.4741 212.602 61.6786 212.057L64.8945 212.636C64.637 213.583 64.1748 214.413 63.5082 215.125C62.8491 215.83 62.0195 216.379 61.0195 216.773C60.0271 217.159 58.8945 217.352 57.6218 217.352ZM71.3532 217L66.2168 199.545H69.7282L73.1486 212.364H73.3191L76.7509 199.545H80.2623L83.6714 212.307H83.8418L87.2395 199.545H90.7509L85.6259 217H82.16L78.6145 204.398H78.3532L74.8077 217H71.3532ZM100.157 193.727H104.418L111.827 211.818H112.1L119.509 193.727H123.77V217H120.43V200.159H120.214L113.35 216.966H110.577L103.714 200.148H103.498V217H100.157V193.727ZM134.675 217.352C133.039 217.352 131.611 216.977 130.391 216.227C129.171 215.477 128.224 214.428 127.55 213.08C126.876 211.731 126.539 210.155 126.539 208.352C126.539 206.542 126.876 204.958 127.55 203.602C128.224 202.246 129.171 201.193 130.391 200.443C131.611 199.693 133.039 199.318 134.675 199.318C136.311 199.318 137.74 199.693 138.959 200.443C140.179 201.193 141.126 202.246 141.8 203.602C142.474 204.958 142.811 206.542 142.811 208.352C142.811 210.155 142.474 211.731 141.8 213.08C141.126 214.428 140.179 215.477 138.959 216.227C137.74 216.977 136.311 217.352 134.675 217.352ZM134.686 214.5C135.747 214.5 136.626 214.22 137.323 213.659C138.02 213.098 138.535 212.352 138.868 211.42C139.209 210.489 139.38 209.462 139.38 208.341C139.38 207.227 139.209 206.205 138.868 205.273C138.535 204.333 138.02 203.58 137.323 203.011C136.626 202.443 135.747 202.159 134.686 202.159C133.618 202.159 132.732 202.443 132.027 203.011C131.33 203.58 130.811 204.333 130.471 205.273C130.137 206.205 129.971 207.227 129.971 208.341C129.971 209.462 130.137 210.489 130.471 211.42C130.811 212.352 131.33 213.098 132.027 213.659C132.732 214.22 133.618 214.5 134.686 214.5ZM145.324 217V199.545H148.608V202.318H148.79C149.108 201.379 149.669 200.64 150.472 200.102C151.282 199.557 152.199 199.284 153.222 199.284C153.434 199.284 153.684 199.292 153.972 199.307C154.267 199.322 154.498 199.341 154.665 199.364V202.614C154.529 202.576 154.286 202.534 153.938 202.489C153.589 202.436 153.241 202.409 152.892 202.409C152.089 202.409 151.373 202.58 150.745 202.92C150.123 203.254 149.631 203.72 149.267 204.318C148.904 204.909 148.722 205.583 148.722 206.341V217H145.324ZM163.223 217.352C161.503 217.352 160.022 216.985 158.78 216.25C157.545 215.508 156.59 214.466 155.916 213.125C155.25 211.777 154.916 210.197 154.916 208.386C154.916 206.598 155.25 205.023 155.916 203.659C156.59 202.295 157.53 201.231 158.734 200.466C159.947 199.701 161.363 199.318 162.984 199.318C163.969 199.318 164.924 199.481 165.848 199.807C166.772 200.133 167.602 200.644 168.337 201.341C169.072 202.038 169.651 202.943 170.075 204.057C170.5 205.163 170.712 206.508 170.712 208.091V209.295H156.837V206.75H167.382C167.382 205.856 167.2 205.064 166.837 204.375C166.473 203.678 165.962 203.129 165.303 202.727C164.651 202.326 163.886 202.125 163.007 202.125C162.053 202.125 161.219 202.36 160.507 202.83C159.803 203.292 159.257 203.898 158.871 204.648C158.492 205.39 158.303 206.197 158.303 207.068V209.057C158.303 210.223 158.507 211.216 158.916 212.034C159.333 212.852 159.912 213.477 160.655 213.909C161.397 214.333 162.265 214.545 163.257 214.545C163.901 214.545 164.488 214.455 165.019 214.273C165.549 214.083 166.007 213.803 166.394 213.432C166.78 213.061 167.075 212.602 167.28 212.057L170.496 212.636C170.238 213.583 169.776 214.413 169.109 215.125C168.45 215.83 167.621 216.379 166.621 216.773C165.628 217.159 164.496 217.352 163.223 217.352Z" fill="black"/>
<path d="M22.544 33.32C22.832 30.184 23.12 27.016 23.408 23.816C23.696 20.616 23.984 17.464 24.272 14.36C27.216 14.36 30.208 14.36 33.248 14.36C36.288 14.36 39.28 14.36 42.224 14.36C42.224 15.608 42.224 16.888 42.224 18.2C42.224 19.48 42.224 20.744 42.224 21.992C40.464 21.992 38.672 21.992 36.848 21.992C35.024 21.992 33.216 21.992 31.424 21.992C31.36 22.6 31.28 23.24 31.184 23.912C31.088 24.552 31.008 25.192 30.944 25.832C33.664 25.8 35.984 26.184 37.904 26.984C39.856 27.784 41.344 28.968 42.368 30.536C43.424 32.104 43.952 34.056 43.952 36.392C43.952 38.888 43.36 40.952 42.176 42.584C40.992 44.184 39.376 45.384 37.328 46.184C35.312 46.952 32.992 47.32 30.368 47.288C27.776 47.256 25.04 46.824 22.16 45.992C22.16 44.68 22.16 43.352 22.16 42.008C22.16 40.632 22.16 39.288 22.16 37.976C24.816 38.808 27.152 39.352 29.168 39.608C31.216 39.832 32.816 39.704 33.968 39.224C35.12 38.744 35.696 37.88 35.696 36.632C35.696 35.384 35.104 34.456 33.92 33.848C32.768 33.24 31.2 32.904 29.216 32.84C27.232 32.744 25.008 32.904 22.544 33.32Z" fill="black"/>
<circle cx="327" cy="21" r="9" fill="black"/>
<circle cx="318.5" cy="205.5" r="20.5" fill="black"/>
<path d="M329.207 206.707C329.598 206.317 329.598 205.683 329.207 205.293L322.843 198.929C322.453 198.538 321.819 198.538 321.429 198.929C321.038 199.319 321.038 199.953 321.429 200.343L327.086 206L321.429 211.657C321.038 212.047 321.038 212.681 321.429 213.071C321.819 213.462 322.453 213.462 322.843 213.071L329.207 206.707ZM307 206V207H328.5V206V205H307V206Z" fill="white"/>
<path d="M20 55L336 55" stroke="black"/>
</g>
<rect x="1.5" y="1.5" width="347" height="235" rx="23.5" stroke="black" stroke-width="3"/>
<defs>
<clipPath id="clip0_156_974">
<rect width="350" height="238" rx="25" fill="white"/>
</clipPath>
</defs>
</svg>
