<svg width="350" height="238" viewBox="0 0 350 238" fill="none" xmlns="http://www.w3.org/2000/svg">
<rect x="1.5" y="1.5" width="347" height="235" rx="23.5" fill="white"/>
<rect x="1.5" y="1.5" width="347" height="235" rx="23.5" stroke="black" stroke-width="3"/>
<path d="M213.675 106C213.675 100.624 213.675 95.184 213.675 89.68C213.675 84.176 213.675 78.736 213.675 73.36C215.659 73.36 217.643 73.36 219.627 73.36C221.643 73.36 223.627 73.36 225.579 73.36C228.043 73.36 230.187 73.84 232.011 74.8C233.835 75.728 235.259 77.04 236.283 78.736C237.307 80.432 237.819 82.416 237.819 84.688C237.819 86.928 237.307 88.896 236.283 90.592C235.291 92.288 233.915 93.6 232.155 94.528C230.427 95.456 228.459 95.92 226.251 95.92C225.547 95.92 224.843 95.92 224.139 95.92C223.467 95.92 222.779 95.92 222.075 95.92C222.075 97.584 222.075 99.264 222.075 100.96C222.075 102.656 222.075 104.336 222.075 106C220.699 106 219.307 106 217.899 106C216.491 106 215.083 106 213.675 106ZM225.579 80.896C225.003 80.896 224.411 80.896 223.803 80.896C223.227 80.896 222.651 80.896 222.075 80.896C222.075 82.176 222.075 83.472 222.075 84.784C222.075 86.064 222.075 87.344 222.075 88.624C222.715 88.624 223.371 88.624 224.043 88.624C224.747 88.624 225.419 88.624 226.059 88.624C227.051 88.624 227.851 88.256 228.459 87.52C229.099 86.784 229.419 85.872 229.419 84.784C229.419 83.664 229.083 82.736 228.411 82C227.739 81.264 226.795 80.896 225.579 80.896ZM239.968 106C239.968 100.208 239.968 94.368 239.968 88.48C239.968 82.592 239.968 76.752 239.968 70.96C241.28 70.96 242.608 70.96 243.952 70.96C245.296 70.96 246.608 70.96 247.888 70.96C247.888 72.848 247.888 74.768 247.888 76.72C247.888 78.64 247.888 80.544 247.888 82.432C248.752 81.824 249.712 81.36 250.768 81.04C251.856 80.688 253.024 80.512 254.272 80.512C256.096 80.512 257.696 80.928 259.072 81.76C260.48 82.592 261.568 83.792 262.336 85.36C263.136 86.896 263.536 88.752 263.536 90.928C263.536 93.424 263.536 95.936 263.536 98.464C263.536 100.992 263.536 103.504 263.536 106C262.256 106 260.944 106 259.6 106C258.256 106 256.928 106 255.616 106C255.616 103.696 255.616 101.36 255.616 98.992C255.616 96.624 255.616 94.288 255.616 91.984C255.616 90.704 255.312 89.68 254.704 88.912C254.128 88.112 253.2 87.712 251.92 87.712C250.64 87.712 249.648 88.08 248.944 88.816C248.24 89.552 247.888 90.608 247.888 91.984C247.888 94.288 247.888 96.624 247.888 98.992C247.888 101.36 247.888 103.696 247.888 106C246.608 106 245.296 106 243.952 106C242.608 106 241.28 106 239.968 106ZM278.302 106.768C276.446 106.768 274.718 106.448 273.118 105.808C271.518 105.136 270.126 104.208 268.942 103.024C267.758 101.808 266.83 100.4 266.158 98.8C265.518 97.2 265.198 95.456 265.198 93.568C265.198 91.68 265.518 89.936 266.158 88.336C266.83 86.736 267.758 85.344 268.942 84.16C270.126 82.976 271.518 82.064 273.118 81.424C274.718 80.752 276.446 80.416 278.302 80.416C280.19 80.416 281.918 80.752 283.486 81.424C285.086 82.064 286.478 82.976 287.662 84.16C288.846 85.344 289.758 86.736 290.398 88.336C291.07 89.936 291.406 91.68 291.406 93.568C291.406 95.456 291.07 97.2 290.398 98.8C289.758 100.4 288.846 101.808 287.662 103.024C286.478 104.208 285.086 105.136 283.486 105.808C281.918 106.448 280.19 106.768 278.302 106.768ZM278.302 99.616C279.87 99.616 281.118 99.056 282.046 97.936C283.006 96.784 283.486 95.328 283.486 93.568C283.486 91.776 283.006 90.336 282.046 89.248C281.118 88.128 279.87 87.568 278.302 87.568C276.734 87.568 275.47 88.128 274.51 89.248C273.582 90.336 273.118 91.776 273.118 93.568C273.118 95.328 273.582 96.784 274.51 97.936C275.47 99.056 276.734 99.616 278.302 99.616ZM295.761 106C295.761 103.056 295.761 100.096 295.761 97.12C295.761 94.144 295.761 91.2 295.761 88.288C295.121 88.288 294.465 88.288 293.793 88.288C293.153 88.288 292.513 88.288 291.873 88.288C291.873 87.104 291.873 85.92 291.873 84.736C291.873 83.552 291.873 82.368 291.873 81.184C292.513 81.184 293.153 81.184 293.793 81.184C294.465 81.184 295.121 81.184 295.761 81.184C295.761 80.064 295.761 78.96 295.761 77.872C295.761 76.752 295.761 75.648 295.761 74.56C297.073 74.56 298.401 74.56 299.745 74.56C301.089 74.56 302.401 74.56 303.681 74.56C303.681 75.648 303.681 76.752 303.681 77.872C303.681 78.96 303.681 80.064 303.681 81.184C304.417 81.184 305.169 81.184 305.937 81.184C306.705 81.184 307.457 81.184 308.193 81.184C308.193 82.368 308.193 83.552 308.193 84.736C308.193 85.92 308.193 87.104 308.193 88.288C307.457 88.288 306.705 88.288 305.937 88.288C305.169 88.288 304.417 88.288 303.681 88.288C303.681 91.2 303.681 94.144 303.681 97.12C303.681 100.096 303.681 103.056 303.681 106C302.401 106 301.089 106 299.745 106C298.401 106 297.073 106 295.761 106ZM321.619 106.768C319.763 106.768 318.035 106.448 316.435 105.808C314.835 105.136 313.443 104.208 312.259 103.024C311.075 101.808 310.147 100.4 309.475 98.8C308.835 97.2 308.515 95.456 308.515 93.568C308.515 91.68 308.835 89.936 309.475 88.336C310.147 86.736 311.075 85.344 312.259 84.16C313.443 82.976 314.835 82.064 316.435 81.424C318.035 80.752 319.763 80.416 321.619 80.416C323.507 80.416 325.235 80.752 326.803 81.424C328.403 82.064 329.795 82.976 330.979 84.16C332.163 85.344 333.075 86.736 333.715 88.336C334.387 89.936 334.723 91.68 334.723 93.568C334.723 95.456 334.387 97.2 333.715 98.8C333.075 100.4 332.163 101.808 330.979 103.024C329.795 104.208 328.403 105.136 326.803 105.808C325.235 106.448 323.507 106.768 321.619 106.768ZM321.619 99.616C323.187 99.616 324.435 99.056 325.363 97.936C326.323 96.784 326.803 95.328 326.803 93.568C326.803 91.776 326.323 90.336 325.363 89.248C324.435 88.128 323.187 87.568 321.619 87.568C320.051 87.568 318.787 88.128 317.827 89.248C316.899 90.336 316.435 91.776 316.435 93.568C316.435 95.328 316.899 96.784 317.827 97.936C318.787 99.056 320.051 99.616 321.619 99.616ZM198.367 154C200.031 148.624 201.695 143.184 203.359 137.68C205.055 132.176 206.735 126.736 208.399 121.36C210.287 121.36 212.191 121.36 214.111 121.36C216.063 121.36 217.983 121.36 219.871 121.36C221.535 126.736 223.199 132.176 224.863 137.68C226.559 143.184 228.239 148.624 229.903 154C228.527 154 227.119 154 225.679 154C224.271 154 222.863 154 221.455 154C221.135 152.976 220.831 151.952 220.543 150.928C220.255 149.872 219.951 148.832 219.631 147.808C217.807 147.808 215.967 147.808 214.111 147.808C212.287 147.808 210.463 147.808 208.639 147.808C208.319 148.832 208.015 149.872 207.727 150.928C207.439 151.952 207.135 152.976 206.815 154C205.439 154 204.031 154 202.591 154C201.183 154 199.775 154 198.367 154ZM210.751 140.656C211.871 140.656 212.991 140.656 214.111 140.656C215.263 140.656 216.399 140.656 217.519 140.656C216.975 138.768 216.415 136.864 215.839 134.944C215.263 133.024 214.703 131.12 214.159 129.232C213.615 131.12 213.039 133.024 212.431 134.944C211.855 136.864 211.295 138.768 210.751 140.656ZM230.874 154C230.874 148.208 230.874 142.368 230.874 136.48C230.874 130.592 230.874 124.752 230.874 118.96C232.186 118.96 233.514 118.96 234.858 118.96C236.202 118.96 237.514 118.96 238.794 118.96C238.794 124.752 238.794 130.592 238.794 136.48C238.794 142.368 238.794 148.208 238.794 154C237.514 154 236.202 154 234.858 154C233.514 154 232.186 154 230.874 154ZM250.562 154C249.282 154 247.97 154 246.626 154C245.282 154 243.954 154 242.642 154C242.642 148.208 242.642 142.368 242.642 136.48C242.642 130.592 242.642 124.752 242.642 118.96C243.954 118.96 245.282 118.96 246.626 118.96C247.97 118.96 249.282 118.96 250.562 118.96C250.562 120.88 250.562 122.816 250.562 124.768C250.562 126.72 250.562 128.656 250.562 130.576C251.362 129.936 252.274 129.44 253.298 129.088C254.322 128.704 255.41 128.512 256.562 128.512C258.162 128.512 259.682 128.832 261.122 129.472C262.562 130.08 263.826 130.96 264.914 132.112C266.034 133.264 266.898 134.64 267.506 136.24C268.146 137.84 268.466 139.616 268.466 141.568C268.466 143.488 268.146 145.248 267.506 146.848C266.898 148.448 266.034 149.84 264.914 151.024C263.826 152.176 262.562 153.072 261.122 153.712C259.682 154.352 258.146 154.672 256.514 154.672C255.362 154.672 254.274 154.48 253.25 154.096C252.258 153.744 251.362 153.232 250.562 152.56C250.562 152.784 250.562 153.024 250.562 153.28C250.562 153.504 250.562 153.744 250.562 154ZM255.458 147.664C257.026 147.664 258.258 147.12 259.154 146.032C260.082 144.912 260.546 143.424 260.546 141.568C260.546 139.712 260.082 138.24 259.154 137.152C258.258 136.064 257.026 135.52 255.458 135.52C253.922 135.52 252.69 136.08 251.762 137.2C250.834 138.288 250.37 139.744 250.37 141.568C250.37 143.392 250.834 144.864 251.762 145.984C252.69 147.104 253.922 147.664 255.458 147.664ZM293.666 129.184C293.666 133.28 293.666 137.424 293.666 141.616C293.666 145.776 293.666 149.904 293.666 154C292.386 154 291.074 154 289.73 154C288.386 154 287.058 154 285.746 154C285.746 153.776 285.746 153.568 285.746 153.376C285.746 153.184 285.746 152.976 285.746 152.752C284.882 153.36 283.906 153.824 282.818 154.144C281.762 154.496 280.61 154.672 279.362 154.672C277.538 154.672 275.922 154.256 274.514 153.424C273.138 152.592 272.05 151.392 271.25 149.824C270.482 148.256 270.098 146.4 270.098 144.256C270.098 141.76 270.098 139.248 270.098 136.72C270.098 134.192 270.098 131.68 270.098 129.184C271.41 129.184 272.738 129.184 274.082 129.184C275.426 129.184 276.738 129.184 278.018 129.184C278.018 131.488 278.018 133.824 278.018 136.192C278.018 138.56 278.018 140.896 278.018 143.2C278.018 144.48 278.306 145.52 278.882 146.32C279.49 147.088 280.434 147.472 281.714 147.472C282.994 147.472 283.986 147.104 284.69 146.368C285.394 145.632 285.746 144.576 285.746 143.2C285.746 140.896 285.746 138.56 285.746 136.192C285.746 133.824 285.746 131.488 285.746 129.184C287.058 129.184 288.386 129.184 289.73 129.184C291.074 129.184 292.386 129.184 293.666 129.184ZM297.015 154C297.015 149.904 297.015 145.776 297.015 141.616C297.015 137.424 297.015 133.28 297.015 129.184C298.327 129.184 299.655 129.184 300.999 129.184C302.343 129.184 303.655 129.184 304.935 129.184C304.935 129.408 304.935 129.616 304.935 129.808C304.935 130 304.935 130.208 304.935 130.432C305.767 129.824 306.695 129.36 307.719 129.04C308.743 128.688 309.799 128.512 310.887 128.512C312.071 128.512 313.159 128.72 314.151 129.136C315.143 129.52 315.991 130.096 316.695 130.864C317.719 130.128 318.871 129.552 320.151 129.136C321.463 128.72 322.807 128.512 324.183 128.512C326.135 128.512 327.815 128.912 329.223 129.712C330.663 130.512 331.767 131.648 332.535 133.12C333.335 134.592 333.735 136.368 333.735 138.448C333.735 141.008 333.735 143.6 333.735 146.224C333.735 148.848 333.735 151.44 333.735 154C332.455 154 331.143 154 329.799 154C328.455 154 327.127 154 325.815 154C325.815 151.6 325.815 149.168 325.815 146.704C325.815 144.24 325.815 141.808 325.815 139.408C325.815 138.32 325.559 137.44 325.047 136.768C324.567 136.064 323.783 135.712 322.695 135.712C321.639 135.712 320.807 136.048 320.199 136.72C319.623 137.36 319.335 138.256 319.335 139.408C319.335 141.808 319.335 144.24 319.335 146.704C319.335 149.168 319.335 151.6 319.335 154C318.055 154 316.743 154 315.399 154C314.055 154 312.727 154 311.415 154C311.415 151.6 311.415 149.168 311.415 146.704C311.415 144.24 311.415 141.808 311.415 139.408C311.415 138.32 311.159 137.44 310.647 136.768C310.167 136.064 309.383 135.712 308.295 135.712C307.239 135.712 306.407 136.048 305.799 136.72C305.223 137.36 304.935 138.256 304.935 139.408C304.935 141.808 304.935 144.24 304.935 146.704C304.935 149.168 304.935 151.6 304.935 154C303.655 154 302.343 154 300.999 154C299.655 154 298.327 154 297.015 154Z" fill="black"/>
<path d="M24.5909 193.727L31.0682 212.682H31.3295L37.8068 193.727H41.6023L33.2273 217H29.1705L20.7955 193.727H24.5909ZM43.4103 217V199.545H46.8081V217H43.4103ZM45.1262 196.852C44.5353 196.852 44.0278 196.655 43.6035 196.261C43.1869 195.86 42.9785 195.383 42.9785 194.83C42.9785 194.269 43.1869 193.792 43.6035 193.398C44.0278 192.996 44.5353 192.795 45.1262 192.795C45.7172 192.795 46.2209 192.996 46.6376 193.398C47.0619 193.792 47.274 194.269 47.274 194.83C47.274 195.383 47.0619 195.86 46.6376 196.261C46.2209 196.655 45.7172 196.852 45.1262 196.852ZM57.6218 217.352C55.9021 217.352 54.4211 216.985 53.1786 216.25C51.9438 215.508 50.9892 214.466 50.315 213.125C49.6483 211.777 49.315 210.197 49.315 208.386C49.315 206.598 49.6483 205.023 50.315 203.659C50.9892 202.295 51.9286 201.231 53.1332 200.466C54.3453 199.701 55.762 199.318 57.3832 199.318C58.368 199.318 59.3226 199.481 60.2468 199.807C61.1711 200.133 62.0006 200.644 62.7355 201.341C63.4703 202.038 64.0498 202.943 64.4741 204.057C64.8983 205.163 65.1105 206.508 65.1105 208.091V209.295H51.2355V206.75H61.7809C61.7809 205.856 61.5991 205.064 61.2355 204.375C60.8718 203.678 60.3605 203.129 59.7014 202.727C59.0498 202.326 58.2847 202.125 57.4059 202.125C56.4514 202.125 55.618 202.36 54.9059 202.83C54.2014 203.292 53.6559 203.898 53.2695 204.648C52.8908 205.39 52.7014 206.197 52.7014 207.068V209.057C52.7014 210.223 52.9059 211.216 53.315 212.034C53.7317 212.852 54.3112 213.477 55.0536 213.909C55.7961 214.333 56.6635 214.545 57.6559 214.545C58.2998 214.545 58.887 214.455 59.4173 214.273C59.9476 214.083 60.4059 213.803 60.7923 213.432C61.1786 213.061 61.4741 212.602 61.6786 212.057L64.8945 212.636C64.637 213.583 64.1748 214.413 63.5082 215.125C62.8491 215.83 62.0195 216.379 61.0195 216.773C60.0271 217.159 58.8945 217.352 57.6218 217.352ZM71.3532 217L66.2168 199.545H69.7282L73.1486 212.364H73.3191L76.7509 199.545H80.2623L83.6714 212.307H83.8418L87.2395 199.545H90.7509L85.6259 217H82.16L78.6145 204.398H78.3532L74.8077 217H71.3532ZM100.157 193.727H104.418L111.827 211.818H112.1L119.509 193.727H123.77V217H120.43V200.159H120.214L113.35 216.966H110.577L103.714 200.148H103.498V217H100.157V193.727ZM134.675 217.352C133.039 217.352 131.611 216.977 130.391 216.227C129.171 215.477 128.224 214.428 127.55 213.08C126.876 211.731 126.539 210.155 126.539 208.352C126.539 206.542 126.876 204.958 127.55 203.602C128.224 202.246 129.171 201.193 130.391 200.443C131.611 199.693 133.039 199.318 134.675 199.318C136.311 199.318 137.74 199.693 138.959 200.443C140.179 201.193 141.126 202.246 141.8 203.602C142.474 204.958 142.811 206.542 142.811 208.352C142.811 210.155 142.474 211.731 141.8 213.08C141.126 214.428 140.179 215.477 138.959 216.227C137.74 216.977 136.311 217.352 134.675 217.352ZM134.686 214.5C135.747 214.5 136.626 214.22 137.323 213.659C138.02 213.098 138.535 212.352 138.868 211.42C139.209 210.489 139.38 209.462 139.38 208.341C139.38 207.227 139.209 206.205 138.868 205.273C138.535 204.333 138.02 203.58 137.323 203.011C136.626 202.443 135.747 202.159 134.686 202.159C133.618 202.159 132.732 202.443 132.027 203.011C131.33 203.58 130.811 204.333 130.471 205.273C130.137 206.205 129.971 207.227 129.971 208.341C129.971 209.462 130.137 210.489 130.471 211.42C130.811 212.352 131.33 213.098 132.027 213.659C132.732 214.22 133.618 214.5 134.686 214.5ZM145.324 217V199.545H148.608V202.318H148.79C149.108 201.379 149.669 200.64 150.472 200.102C151.282 199.557 152.199 199.284 153.222 199.284C153.434 199.284 153.684 199.292 153.972 199.307C154.267 199.322 154.498 199.341 154.665 199.364V202.614C154.529 202.576 154.286 202.534 153.938 202.489C153.589 202.436 153.241 202.409 152.892 202.409C152.089 202.409 151.373 202.58 150.745 202.92C150.123 203.254 149.631 203.72 149.267 204.318C148.904 204.909 148.722 205.583 148.722 206.341V217H145.324ZM163.223 217.352C161.503 217.352 160.022 216.985 158.78 216.25C157.545 215.508 156.59 214.466 155.916 213.125C155.25 211.777 154.916 210.197 154.916 208.386C154.916 206.598 155.25 205.023 155.916 203.659C156.59 202.295 157.53 201.231 158.734 200.466C159.947 199.701 161.363 199.318 162.984 199.318C163.969 199.318 164.924 199.481 165.848 199.807C166.772 200.133 167.602 200.644 168.337 201.341C169.072 202.038 169.651 202.943 170.075 204.057C170.5 205.163 170.712 206.508 170.712 208.091V209.295H156.837V206.75H167.382C167.382 205.856 167.2 205.064 166.837 204.375C166.473 203.678 165.962 203.129 165.303 202.727C164.651 202.326 163.886 202.125 163.007 202.125C162.053 202.125 161.219 202.36 160.507 202.83C159.803 203.292 159.257 203.898 158.871 204.648C158.492 205.39 158.303 206.197 158.303 207.068V209.057C158.303 210.223 158.507 211.216 158.916 212.034C159.333 212.852 159.912 213.477 160.655 213.909C161.397 214.333 162.265 214.545 163.257 214.545C163.901 214.545 164.488 214.455 165.019 214.273C165.549 214.083 166.007 213.803 166.394 213.432C166.78 213.061 167.075 212.602 167.28 212.057L170.496 212.636C170.238 213.583 169.776 214.413 169.109 215.125C168.45 215.83 167.621 216.379 166.621 216.773C165.628 217.159 164.496 217.352 163.223 217.352Z" fill="black"/>
<path d="M43.712 23.384C42.048 22.616 40.4 22.136 38.768 21.944C37.136 21.72 35.648 21.784 34.304 22.136C32.96 22.456 31.856 23.064 30.992 23.96C30.16 24.824 29.68 25.96 29.552 27.368C30.704 26.472 32 25.864 33.44 25.544C34.912 25.224 36.384 25.192 37.856 25.448C39.328 25.704 40.688 26.264 41.936 27.128C43.216 27.96 44.24 29.112 45.008 30.584C45.776 32.024 46.16 33.784 46.16 35.864C46.16 37.528 45.872 39.08 45.296 40.52C44.72 41.928 43.888 43.176 42.8 44.264C41.744 45.32 40.464 46.152 38.96 46.76C37.456 47.336 35.776 47.624 33.92 47.624C32.064 47.624 30.352 47.288 28.784 46.616C27.248 45.944 25.904 44.952 24.752 43.64C23.632 42.296 22.752 40.632 22.112 38.648C21.504 36.664 21.2 34.36 21.2 31.736C21.2 28.92 21.552 26.44 22.256 24.296C22.96 22.12 23.968 20.296 25.28 18.824C26.592 17.32 28.176 16.184 30.032 15.416C31.888 14.616 33.968 14.184 36.272 14.12C38.576 14.056 41.056 14.376 43.712 15.08C43.712 16.456 43.712 17.848 43.712 19.256C43.712 20.632 43.712 22.008 43.712 23.384ZM33.872 40.088C35.056 40.088 36.016 39.704 36.752 38.936C37.488 38.168 37.856 37.192 37.856 36.008C37.856 34.792 37.488 33.816 36.752 33.08C36.016 32.312 35.056 31.928 33.872 31.928C32.72 31.928 31.776 32.296 31.04 33.032C30.336 33.736 29.984 34.68 29.984 35.864C29.984 37.112 30.336 38.136 31.04 38.936C31.776 39.704 32.72 40.088 33.872 40.088Z" fill="black"/>
<circle cx="327" cy="21" r="9" fill="black"/>
<circle cx="318.5" cy="205.5" r="20.5" fill="black"/>
<path d="M329.207 206.707C329.598 206.317 329.598 205.683 329.207 205.293L322.843 198.929C322.453 198.538 321.819 198.538 321.429 198.929C321.038 199.319 321.038 199.953 321.429 200.343L327.086 206L321.429 211.657C321.038 212.047 321.038 212.681 321.429 213.071C321.819 213.462 322.453 213.462 322.843 213.071L329.207 206.707ZM307 206V207H328.5V206V205H307V206Z" fill="white"/>
<path d="M20 55L336 55" stroke="black"/>
</svg>
