<svg width="350" height="238" viewBox="0 0 350 238" fill="none" xmlns="http://www.w3.org/2000/svg">
<rect x="1.5" y="1.5" width="347" height="235" rx="23.5" fill="white"/>
<rect x="1.5" y="1.5" width="347" height="235" rx="23.5" stroke="black" stroke-width="3"/>
<path d="M79.7137 106C81.3777 100.624 83.0417 95.184 84.7057 89.68C86.4017 84.176 88.0817 78.736 89.7457 73.36C91.6337 73.36 93.5377 73.36 95.4577 73.36C97.4097 73.36 99.3297 73.36 101.218 73.36C102.882 78.736 104.546 84.176 106.21 89.68C107.906 95.184 109.586 100.624 111.25 106C109.874 106 108.466 106 107.026 106C105.618 106 104.21 106 102.802 106C102.482 104.976 102.178 103.952 101.89 102.928C101.602 101.872 101.298 100.832 100.978 99.808C99.1537 99.808 97.3137 99.808 95.4577 99.808C93.6337 99.808 91.8097 99.808 89.9857 99.808C89.6657 100.832 89.3617 101.872 89.0737 102.928C88.7857 103.952 88.4817 104.976 88.1617 106C86.7857 106 85.3777 106 83.9377 106C82.5297 106 81.1217 106 79.7137 106ZM92.0977 92.656C93.2177 92.656 94.3377 92.656 95.4577 92.656C96.6097 92.656 97.7457 92.656 98.8657 92.656C98.3217 90.768 97.7617 88.864 97.1857 86.944C96.6097 85.024 96.0497 83.12 95.5057 81.232C94.9617 83.12 94.3857 85.024 93.7777 86.944C93.2017 88.864 92.6417 90.768 92.0977 92.656ZM111.981 106C111.981 101.904 111.981 97.776 111.981 93.616C111.981 89.424 111.981 85.28 111.981 81.184C113.293 81.184 114.621 81.184 115.965 81.184C117.309 81.184 118.621 81.184 119.901 81.184C119.901 81.408 119.901 81.632 119.901 81.856C119.901 82.08 119.901 82.304 119.901 82.528C120.893 81.824 122.013 81.296 123.261 80.944C124.509 80.592 125.869 80.496 127.341 80.656C127.341 81.936 127.341 83.232 127.341 84.544C127.341 85.856 127.341 87.152 127.341 88.432C124.813 88.08 122.941 88.304 121.725 89.104C120.509 89.872 119.901 91.136 119.901 92.896C119.901 95.04 119.901 97.216 119.901 99.424C119.901 101.632 119.901 103.824 119.901 106C118.621 106 117.309 106 115.965 106C114.621 106 113.293 106 111.981 106ZM127.42 93.568C127.42 91.136 127.916 89.008 128.908 87.184C129.9 85.328 131.276 83.84 133.036 82.72C134.796 81.6 136.844 80.928 139.18 80.704C141.516 80.448 144.012 80.72 146.668 81.52C146.668 82.736 146.668 83.968 146.668 85.216C146.668 86.464 146.668 87.696 146.668 88.912C144.812 88.016 143.036 87.6 141.34 87.664C139.644 87.728 138.252 88.256 137.164 89.248C136.076 90.208 135.532 91.648 135.532 93.568C135.532 95.488 136.076 96.944 137.164 97.936C138.252 98.896 139.644 99.408 141.34 99.472C143.036 99.504 144.812 99.088 146.668 98.224C146.668 99.44 146.668 100.672 146.668 101.92C146.668 103.168 146.668 104.4 146.668 105.616C144.012 106.416 141.516 106.688 139.18 106.432C136.844 106.208 134.796 105.536 133.036 104.416C131.276 103.296 129.9 101.824 128.908 100C127.916 98.144 127.42 96 127.42 93.568ZM149.912 106C149.912 100.208 149.912 94.368 149.912 88.48C149.912 82.592 149.912 76.752 149.912 70.96C151.224 70.96 152.552 70.96 153.896 70.96C155.24 70.96 156.552 70.96 157.832 70.96C157.832 72.848 157.832 74.768 157.832 76.72C157.832 78.64 157.832 80.544 157.832 82.432C158.696 81.824 159.656 81.36 160.712 81.04C161.8 80.688 162.968 80.512 164.216 80.512C166.04 80.512 167.64 80.928 169.016 81.76C170.424 82.592 171.512 83.792 172.28 85.36C173.08 86.896 173.48 88.752 173.48 90.928C173.48 93.424 173.48 95.936 173.48 98.464C173.48 100.992 173.48 103.504 173.48 106C172.2 106 170.888 106 169.544 106C168.2 106 166.872 106 165.56 106C165.56 103.696 165.56 101.36 165.56 98.992C165.56 96.624 165.56 94.288 165.56 91.984C165.56 90.704 165.256 89.68 164.648 88.912C164.072 88.112 163.144 87.712 161.864 87.712C160.584 87.712 159.592 88.08 158.888 88.816C158.184 89.552 157.832 90.608 157.832 91.984C157.832 94.288 157.832 96.624 157.832 98.992C157.832 101.36 157.832 103.696 157.832 106C156.552 106 155.24 106 153.896 106C152.552 106 151.224 106 149.912 106ZM180.71 78.352C179.782 78.352 178.934 78.128 178.166 77.68C177.43 77.232 176.838 76.64 176.39 75.904C175.942 75.168 175.718 74.352 175.718 73.456C175.718 72.56 175.942 71.76 176.39 71.056C176.838 70.32 177.43 69.728 178.166 69.28C178.934 68.832 179.782 68.608 180.71 68.608C181.606 68.608 182.422 68.832 183.158 69.28C183.926 69.728 184.534 70.32 184.982 71.056C185.43 71.76 185.654 72.56 185.654 73.456C185.654 74.352 185.43 75.168 184.982 75.904C184.534 76.64 183.926 77.232 183.158 77.68C182.422 78.128 181.606 78.352 180.71 78.352ZM176.726 106C176.726 101.904 176.726 97.776 176.726 93.616C176.726 89.424 176.726 85.28 176.726 81.184C178.038 81.184 179.366 81.184 180.71 81.184C182.054 81.184 183.366 81.184 184.646 81.184C184.646 85.28 184.646 89.424 184.646 93.616C184.646 97.776 184.646 101.904 184.646 106C183.366 106 182.054 106 180.71 106C179.366 106 178.038 106 176.726 106ZM190.846 106C190.846 103.056 190.846 100.096 190.846 97.12C190.846 94.144 190.846 91.2 190.846 88.288C190.206 88.288 189.55 88.288 188.878 88.288C188.238 88.288 187.598 88.288 186.958 88.288C186.958 87.104 186.958 85.92 186.958 84.736C186.958 83.552 186.958 82.368 186.958 81.184C187.598 81.184 188.238 81.184 188.878 81.184C189.55 81.184 190.206 81.184 190.846 81.184C190.846 80.064 190.846 78.96 190.846 77.872C190.846 76.752 190.846 75.648 190.846 74.56C192.158 74.56 193.486 74.56 194.83 74.56C196.174 74.56 197.486 74.56 198.766 74.56C198.766 75.648 198.766 76.752 198.766 77.872C198.766 78.96 198.766 80.064 198.766 81.184C199.502 81.184 200.254 81.184 201.022 81.184C201.79 81.184 202.542 81.184 203.278 81.184C203.278 82.368 203.278 83.552 203.278 84.736C203.278 85.92 203.278 87.104 203.278 88.288C202.542 88.288 201.79 88.288 201.022 88.288C200.254 88.288 199.502 88.288 198.766 88.288C198.766 91.2 198.766 94.144 198.766 97.12C198.766 100.096 198.766 103.056 198.766 106C197.486 106 196.174 106 194.83 106C193.486 106 192.158 106 190.846 106ZM226.303 104.848C224.095 105.776 221.903 106.352 219.727 106.576C217.551 106.8 215.487 106.672 213.535 106.192C211.615 105.744 209.903 104.96 208.399 103.84C206.895 102.72 205.711 101.296 204.847 99.568C204.015 97.84 203.599 95.84 203.599 93.568C203.599 91.68 203.903 89.952 204.511 88.384C205.151 86.784 206.047 85.392 207.199 84.208C208.351 82.992 209.711 82.064 211.279 81.424C212.847 80.752 214.559 80.416 216.415 80.416C218.079 80.416 219.583 80.688 220.927 81.232C222.271 81.776 223.439 82.544 224.431 83.536C225.423 84.496 226.223 85.648 226.831 86.992C227.439 88.336 227.823 89.808 227.983 91.408C228.143 93.008 228.047 94.704 227.695 96.496C225.071 96.496 222.431 96.496 219.775 96.496C217.119 96.496 214.479 96.496 211.855 96.496C212.463 97.712 213.471 98.576 214.879 99.088C216.319 99.6 218.015 99.76 219.967 99.568C221.951 99.376 224.063 98.864 226.303 98.032C226.303 99.152 226.303 100.288 226.303 101.44C226.303 102.592 226.303 103.728 226.303 104.848ZM216.223 87.52C215.295 87.52 214.431 87.776 213.631 88.288C212.863 88.8 212.271 89.584 211.855 90.64C213.295 90.64 214.735 90.64 216.175 90.64C217.647 90.64 219.103 90.64 220.543 90.64C220.159 89.552 219.583 88.768 218.815 88.288C218.079 87.776 217.215 87.52 216.223 87.52ZM228.913 93.568C228.913 91.136 229.409 89.008 230.401 87.184C231.393 85.328 232.769 83.84 234.529 82.72C236.289 81.6 238.337 80.928 240.673 80.704C243.009 80.448 245.505 80.72 248.161 81.52C248.161 82.736 248.161 83.968 248.161 85.216C248.161 86.464 248.161 87.696 248.161 88.912C246.305 88.016 244.529 87.6 242.833 87.664C241.137 87.728 239.745 88.256 238.657 89.248C237.569 90.208 237.025 91.648 237.025 93.568C237.025 95.488 237.569 96.944 238.657 97.936C239.745 98.896 241.137 99.408 242.833 99.472C244.529 99.504 246.305 99.088 248.161 98.224C248.161 99.44 248.161 100.672 248.161 101.92C248.161 103.168 248.161 104.4 248.161 105.616C245.505 106.416 243.009 106.688 240.673 106.432C238.337 106.208 236.289 105.536 234.529 104.416C232.769 103.296 231.393 101.824 230.401 100C229.409 98.144 228.913 96 228.913 93.568ZM253.758 106C253.758 103.056 253.758 100.096 253.758 97.12C253.758 94.144 253.758 91.2 253.758 88.288C253.118 88.288 252.462 88.288 251.79 88.288C251.15 88.288 250.51 88.288 249.87 88.288C249.87 87.104 249.87 85.92 249.87 84.736C249.87 83.552 249.87 82.368 249.87 81.184C250.51 81.184 251.15 81.184 251.79 81.184C252.462 81.184 253.118 81.184 253.758 81.184C253.758 80.064 253.758 78.96 253.758 77.872C253.758 76.752 253.758 75.648 253.758 74.56C255.07 74.56 256.398 74.56 257.742 74.56C259.086 74.56 260.398 74.56 261.678 74.56C261.678 75.648 261.678 76.752 261.678 77.872C261.678 78.96 261.678 80.064 261.678 81.184C262.414 81.184 263.166 81.184 263.934 81.184C264.702 81.184 265.454 81.184 266.19 81.184C266.19 82.368 266.19 83.552 266.19 84.736C266.19 85.92 266.19 87.104 266.19 88.288C265.454 88.288 264.702 88.288 263.934 88.288C263.166 88.288 262.414 88.288 261.678 88.288C261.678 91.2 261.678 94.144 261.678 97.12C261.678 100.096 261.678 103.056 261.678 106C260.398 106 259.086 106 257.742 106C256.398 106 255.07 106 253.758 106ZM291.273 81.184C291.273 85.28 291.273 89.424 291.273 93.616C291.273 97.776 291.273 101.904 291.273 106C289.993 106 288.681 106 287.337 106C285.993 106 284.665 106 283.353 106C283.353 105.776 283.353 105.568 283.353 105.376C283.353 105.184 283.353 104.976 283.353 104.752C282.489 105.36 281.513 105.824 280.425 106.144C279.369 106.496 278.217 106.672 276.969 106.672C275.145 106.672 273.529 106.256 272.121 105.424C270.745 104.592 269.657 103.392 268.857 101.824C268.089 100.256 267.705 98.4 267.705 96.256C267.705 93.76 267.705 91.248 267.705 88.72C267.705 86.192 267.705 83.68 267.705 81.184C269.017 81.184 270.345 81.184 271.689 81.184C273.033 81.184 274.345 81.184 275.625 81.184C275.625 83.488 275.625 85.824 275.625 88.192C275.625 90.56 275.625 92.896 275.625 95.2C275.625 96.48 275.913 97.52 276.489 98.32C277.097 99.088 278.041 99.472 279.321 99.472C280.601 99.472 281.593 99.104 282.297 98.368C283.001 97.632 283.353 96.576 283.353 95.2C283.353 92.896 283.353 90.56 283.353 88.192C283.353 85.824 283.353 83.488 283.353 81.184C284.665 81.184 285.993 81.184 287.337 81.184C288.681 81.184 289.993 81.184 291.273 81.184ZM294.622 106C294.622 101.904 294.622 97.776 294.622 93.616C294.622 89.424 294.622 85.28 294.622 81.184C295.934 81.184 297.262 81.184 298.606 81.184C299.95 81.184 301.262 81.184 302.542 81.184C302.542 81.408 302.542 81.632 302.542 81.856C302.542 82.08 302.542 82.304 302.542 82.528C303.534 81.824 304.654 81.296 305.902 80.944C307.15 80.592 308.51 80.496 309.982 80.656C309.982 81.936 309.982 83.232 309.982 84.544C309.982 85.856 309.982 87.152 309.982 88.432C307.454 88.08 305.582 88.304 304.366 89.104C303.15 89.872 302.542 91.136 302.542 92.896C302.542 95.04 302.542 97.216 302.542 99.424C302.542 101.632 302.542 103.824 302.542 106C301.262 106 299.95 106 298.606 106C297.262 106 295.934 106 294.622 106ZM332.766 104.848C330.558 105.776 328.366 106.352 326.19 106.576C324.014 106.8 321.95 106.672 319.998 106.192C318.078 105.744 316.366 104.96 314.862 103.84C313.358 102.72 312.174 101.296 311.31 99.568C310.478 97.84 310.062 95.84 310.062 93.568C310.062 91.68 310.366 89.952 310.974 88.384C311.614 86.784 312.51 85.392 313.662 84.208C314.814 82.992 316.174 82.064 317.742 81.424C319.31 80.752 321.022 80.416 322.878 80.416C324.542 80.416 326.046 80.688 327.39 81.232C328.734 81.776 329.902 82.544 330.894 83.536C331.886 84.496 332.686 85.648 333.294 86.992C333.902 88.336 334.286 89.808 334.446 91.408C334.606 93.008 334.51 94.704 334.158 96.496C331.534 96.496 328.894 96.496 326.238 96.496C323.582 96.496 320.942 96.496 318.318 96.496C318.926 97.712 319.934 98.576 321.342 99.088C322.782 99.6 324.478 99.76 326.43 99.568C328.414 99.376 330.526 98.864 332.766 98.032C332.766 99.152 332.766 100.288 332.766 101.44C332.766 102.592 332.766 103.728 332.766 104.848ZM322.686 87.52C321.758 87.52 320.894 87.776 320.094 88.288C319.326 88.8 318.734 89.584 318.318 90.64C319.758 90.64 321.198 90.64 322.638 90.64C324.11 90.64 325.566 90.64 327.006 90.64C326.622 89.552 326.046 88.768 325.278 88.288C324.542 87.776 323.678 87.52 322.686 87.52ZM213.72 121.36C214.456 124.656 215.192 128 215.928 131.392C216.664 134.784 217.384 138.144 218.088 141.472C218.824 138.144 219.56 134.784 220.296 131.392C221.064 128 221.8 124.656 222.504 121.36C223.752 121.36 225.016 121.36 226.296 121.36C227.576 121.36 228.84 121.36 230.088 121.36C230.856 124.656 231.624 127.984 232.392 131.344C233.16 134.704 233.928 138.048 234.696 141.376C235.432 138.048 236.152 134.704 236.856 131.344C237.592 127.984 238.312 124.656 239.016 121.36C240.296 121.36 241.576 121.36 242.856 121.36C244.168 121.36 245.464 121.36 246.744 121.36C245.56 126.736 244.376 132.176 243.192 137.68C242.008 143.184 240.824 148.624 239.64 154C238.072 154 236.472 154 234.84 154C233.24 154 231.64 154 230.04 154C229.368 151.024 228.68 148.032 227.976 145.024C227.272 141.984 226.584 138.976 225.912 136C225.272 138.976 224.616 141.984 223.944 145.024C223.272 148.032 222.616 151.024 221.976 154C220.408 154 218.824 154 217.224 154C215.656 154 214.088 154 212.52 154C211.336 148.624 210.152 143.184 208.968 137.68C207.784 132.176 206.6 126.736 205.416 121.36C206.792 121.36 208.168 121.36 209.544 121.36C210.952 121.36 212.344 121.36 213.72 121.36ZM258.472 154.768C256.616 154.768 254.888 154.448 253.288 153.808C251.688 153.136 250.296 152.208 249.112 151.024C247.928 149.808 247 148.4 246.328 146.8C245.688 145.2 245.368 143.456 245.368 141.568C245.368 139.68 245.688 137.936 246.328 136.336C247 134.736 247.928 133.344 249.112 132.16C250.296 130.976 251.688 130.064 253.288 129.424C254.888 128.752 256.616 128.416 258.472 128.416C260.36 128.416 262.088 128.752 263.656 129.424C265.256 130.064 266.648 130.976 267.832 132.16C269.016 133.344 269.928 134.736 270.568 136.336C271.24 137.936 271.576 139.68 271.576 141.568C271.576 143.456 271.24 145.2 270.568 146.8C269.928 148.4 269.016 149.808 267.832 151.024C266.648 152.208 265.256 153.136 263.656 153.808C262.088 154.448 260.36 154.768 258.472 154.768ZM258.472 147.616C260.04 147.616 261.288 147.056 262.216 145.936C263.176 144.784 263.656 143.328 263.656 141.568C263.656 139.776 263.176 138.336 262.216 137.248C261.288 136.128 260.04 135.568 258.472 135.568C256.904 135.568 255.64 136.128 254.68 137.248C253.752 138.336 253.288 139.776 253.288 141.568C253.288 143.328 253.752 144.784 254.68 145.936C255.64 147.056 256.904 147.616 258.472 147.616ZM273.574 154C273.574 149.904 273.574 145.776 273.574 141.616C273.574 137.424 273.574 133.28 273.574 129.184C274.886 129.184 276.214 129.184 277.558 129.184C278.902 129.184 280.214 129.184 281.494 129.184C281.494 129.408 281.494 129.632 281.494 129.856C281.494 130.08 281.494 130.304 281.494 130.528C282.486 129.824 283.606 129.296 284.854 128.944C286.102 128.592 287.462 128.496 288.934 128.656C288.934 129.936 288.934 131.232 288.934 132.544C288.934 133.856 288.934 135.152 288.934 136.432C286.406 136.08 284.534 136.304 283.318 137.104C282.102 137.872 281.494 139.136 281.494 140.896C281.494 143.04 281.494 145.216 281.494 147.424C281.494 149.632 281.494 151.824 281.494 154C280.214 154 278.902 154 277.558 154C276.214 154 274.886 154 273.574 154ZM290.831 154C290.831 148.208 290.831 142.368 290.831 136.48C290.831 130.592 290.831 124.752 290.831 118.96C292.143 118.96 293.471 118.96 294.815 118.96C296.159 118.96 297.471 118.96 298.751 118.96C298.751 122.096 298.751 125.28 298.751 128.512C298.751 131.744 298.751 134.928 298.751 138.064C299.903 136.592 301.055 135.12 302.207 133.648C303.359 132.144 304.511 130.656 305.663 129.184C307.199 129.184 308.735 129.184 310.271 129.184C311.839 129.184 313.391 129.184 314.927 129.184C313.423 131.072 311.887 132.976 310.319 134.896C308.783 136.816 307.263 138.72 305.759 140.608C307.359 142.816 308.959 145.056 310.559 147.328C312.191 149.568 313.791 151.792 315.359 154C313.791 154 312.223 154 310.655 154C309.087 154 307.519 154 305.951 154C304.767 152.304 303.567 150.592 302.351 148.864C301.135 147.104 299.935 145.376 298.751 143.68C298.751 145.376 298.751 147.104 298.751 148.864C298.751 150.592 298.751 152.304 298.751 154C297.471 154 296.159 154 294.815 154C293.471 154 292.143 154 290.831 154ZM334.819 146.32C334.819 148.304 334.259 149.936 333.139 151.216C332.051 152.464 330.579 153.376 328.723 153.952C326.867 154.528 324.787 154.768 322.483 154.672C320.211 154.608 317.891 154.24 315.523 153.568C315.523 152.352 315.523 151.104 315.523 149.824C315.523 148.544 315.523 147.296 315.523 146.08C316.867 146.688 318.211 147.168 319.555 147.52C320.899 147.84 322.115 148.032 323.203 148.096C324.291 148.16 325.171 148.08 325.843 147.856C326.515 147.6 326.851 147.184 326.851 146.608C326.851 146.16 326.563 145.808 325.987 145.552C325.443 145.296 324.723 145.072 323.827 144.88C322.931 144.656 321.971 144.4 320.947 144.112C319.955 143.792 319.011 143.36 318.115 142.816C317.219 142.24 316.483 141.488 315.907 140.56C315.363 139.6 315.091 138.368 315.091 136.864C315.091 135.072 315.603 133.552 316.627 132.304C317.683 131.024 319.091 130.064 320.851 129.424C322.611 128.752 324.579 128.416 326.755 128.416C328.931 128.416 331.155 128.784 333.427 129.52C333.427 130.736 333.427 131.984 333.427 133.264C333.427 134.544 333.427 135.792 333.427 137.008C331.635 136.144 329.955 135.568 328.387 135.28C326.819 134.992 325.555 134.96 324.595 135.184C323.635 135.376 323.155 135.808 323.155 136.48C323.155 136.928 323.427 137.28 323.971 137.536C324.547 137.76 325.267 137.968 326.131 138.16C327.027 138.352 327.971 138.608 328.963 138.928C329.987 139.248 330.931 139.696 331.795 140.272C332.691 140.816 333.411 141.584 333.955 142.576C334.531 143.536 334.819 144.784 334.819 146.32Z" fill="black"/>
<path d="M24.5909 193.727L31.0682 212.682H31.3295L37.8068 193.727H41.6023L33.2273 217H29.1705L20.7955 193.727H24.5909ZM43.4103 217V199.545H46.8081V217H43.4103ZM45.1262 196.852C44.5353 196.852 44.0278 196.655 43.6035 196.261C43.1869 195.86 42.9785 195.383 42.9785 194.83C42.9785 194.269 43.1869 193.792 43.6035 193.398C44.0278 192.996 44.5353 192.795 45.1262 192.795C45.7172 192.795 46.2209 192.996 46.6376 193.398C47.0619 193.792 47.274 194.269 47.274 194.83C47.274 195.383 47.0619 195.86 46.6376 196.261C46.2209 196.655 45.7172 196.852 45.1262 196.852ZM57.6218 217.352C55.9021 217.352 54.4211 216.985 53.1786 216.25C51.9438 215.508 50.9892 214.466 50.315 213.125C49.6483 211.777 49.315 210.197 49.315 208.386C49.315 206.598 49.6483 205.023 50.315 203.659C50.9892 202.295 51.9286 201.231 53.1332 200.466C54.3453 199.701 55.762 199.318 57.3832 199.318C58.368 199.318 59.3226 199.481 60.2468 199.807C61.1711 200.133 62.0006 200.644 62.7355 201.341C63.4703 202.038 64.0498 202.943 64.4741 204.057C64.8983 205.163 65.1105 206.508 65.1105 208.091V209.295H51.2355V206.75H61.7809C61.7809 205.856 61.5991 205.064 61.2355 204.375C60.8718 203.678 60.3605 203.129 59.7014 202.727C59.0498 202.326 58.2847 202.125 57.4059 202.125C56.4514 202.125 55.618 202.36 54.9059 202.83C54.2014 203.292 53.6559 203.898 53.2695 204.648C52.8908 205.39 52.7014 206.197 52.7014 207.068V209.057C52.7014 210.223 52.9059 211.216 53.315 212.034C53.7317 212.852 54.3112 213.477 55.0536 213.909C55.7961 214.333 56.6635 214.545 57.6559 214.545C58.2998 214.545 58.887 214.455 59.4173 214.273C59.9476 214.083 60.4059 213.803 60.7923 213.432C61.1786 213.061 61.4741 212.602 61.6786 212.057L64.8945 212.636C64.637 213.583 64.1748 214.413 63.5082 215.125C62.8491 215.83 62.0195 216.379 61.0195 216.773C60.0271 217.159 58.8945 217.352 57.6218 217.352ZM71.3532 217L66.2168 199.545H69.7282L73.1486 212.364H73.3191L76.7509 199.545H80.2623L83.6714 212.307H83.8418L87.2395 199.545H90.7509L85.6259 217H82.16L78.6145 204.398H78.3532L74.8077 217H71.3532ZM100.157 193.727H104.418L111.827 211.818H112.1L119.509 193.727H123.77V217H120.43V200.159H120.214L113.35 216.966H110.577L103.714 200.148H103.498V217H100.157V193.727ZM134.675 217.352C133.039 217.352 131.611 216.977 130.391 216.227C129.171 215.477 128.224 214.428 127.55 213.08C126.876 211.731 126.539 210.155 126.539 208.352C126.539 206.542 126.876 204.958 127.55 203.602C128.224 202.246 129.171 201.193 130.391 200.443C131.611 199.693 133.039 199.318 134.675 199.318C136.311 199.318 137.74 199.693 138.959 200.443C140.179 201.193 141.126 202.246 141.8 203.602C142.474 204.958 142.811 206.542 142.811 208.352C142.811 210.155 142.474 211.731 141.8 213.08C141.126 214.428 140.179 215.477 138.959 216.227C137.74 216.977 136.311 217.352 134.675 217.352ZM134.686 214.5C135.747 214.5 136.626 214.22 137.323 213.659C138.02 213.098 138.535 212.352 138.868 211.42C139.209 210.489 139.38 209.462 139.38 208.341C139.38 207.227 139.209 206.205 138.868 205.273C138.535 204.333 138.02 203.58 137.323 203.011C136.626 202.443 135.747 202.159 134.686 202.159C133.618 202.159 132.732 202.443 132.027 203.011C131.33 203.58 130.811 204.333 130.471 205.273C130.137 206.205 129.971 207.227 129.971 208.341C129.971 209.462 130.137 210.489 130.471 211.42C130.811 212.352 131.33 213.098 132.027 213.659C132.732 214.22 133.618 214.5 134.686 214.5ZM145.324 217V199.545H148.608V202.318H148.79C149.108 201.379 149.669 200.64 150.472 200.102C151.282 199.557 152.199 199.284 153.222 199.284C153.434 199.284 153.684 199.292 153.972 199.307C154.267 199.322 154.498 199.341 154.665 199.364V202.614C154.529 202.576 154.286 202.534 153.938 202.489C153.589 202.436 153.241 202.409 152.892 202.409C152.089 202.409 151.373 202.58 150.745 202.92C150.123 203.254 149.631 203.72 149.267 204.318C148.904 204.909 148.722 205.583 148.722 206.341V217H145.324ZM163.223 217.352C161.503 217.352 160.022 216.985 158.78 216.25C157.545 215.508 156.59 214.466 155.916 213.125C155.25 211.777 154.916 210.197 154.916 208.386C154.916 206.598 155.25 205.023 155.916 203.659C156.59 202.295 157.53 201.231 158.734 200.466C159.947 199.701 161.363 199.318 162.984 199.318C163.969 199.318 164.924 199.481 165.848 199.807C166.772 200.133 167.602 200.644 168.337 201.341C169.072 202.038 169.651 202.943 170.075 204.057C170.5 205.163 170.712 206.508 170.712 208.091V209.295H156.837V206.75H167.382C167.382 205.856 167.2 205.064 166.837 204.375C166.473 203.678 165.962 203.129 165.303 202.727C164.651 202.326 163.886 202.125 163.007 202.125C162.053 202.125 161.219 202.36 160.507 202.83C159.803 203.292 159.257 203.898 158.871 204.648C158.492 205.39 158.303 206.197 158.303 207.068V209.057C158.303 210.223 158.507 211.216 158.916 212.034C159.333 212.852 159.912 213.477 160.655 213.909C161.397 214.333 162.265 214.545 163.257 214.545C163.901 214.545 164.488 214.455 165.019 214.273C165.549 214.083 166.007 213.803 166.394 213.432C166.78 213.061 167.075 212.602 167.28 212.057L170.496 212.636C170.238 213.583 169.776 214.413 169.109 215.125C168.45 215.83 167.621 216.379 166.621 216.773C165.628 217.159 164.496 217.352 163.223 217.352Z" fill="black"/>
<path d="M43.376 14.36C43.376 15.608 43.376 16.888 43.376 18.2C43.376 19.48 43.376 20.744 43.376 21.992C41.552 26.12 39.712 30.296 37.856 34.52C36.032 38.712 34.208 42.872 32.384 47C30.976 47 29.536 47 28.064 47C26.592 47 25.152 47 23.744 47C25.568 42.872 27.392 38.712 29.216 34.52C31.072 30.296 32.912 26.12 34.736 21.992C32.592 21.992 30.4 21.992 28.16 21.992C25.952 21.992 23.76 21.992 21.584 21.992C21.584 20.744 21.584 19.48 21.584 18.2C21.584 16.888 21.584 15.608 21.584 14.36C25.2 14.36 28.832 14.36 32.48 14.36C36.16 14.36 39.792 14.36 43.376 14.36Z" fill="black"/>
<circle cx="327" cy="21" r="9" fill="black"/>
<circle cx="318.5" cy="205.5" r="20.5" fill="black"/>
<path d="M329.207 206.707C329.598 206.317 329.598 205.683 329.207 205.293L322.843 198.929C322.453 198.538 321.819 198.538 321.429 198.929C321.038 199.319 321.038 199.953 321.429 200.343L327.086 206L321.429 211.657C321.038 212.047 321.038 212.681 321.429 213.071C321.819 213.462 322.453 213.462 322.843 213.071L329.207 206.707ZM307 206V207H328.5V206V205H307V206Z" fill="white"/>
<path d="M20 55L336 55" stroke="black"/>
</svg>
