<svg width="350" height="238" viewBox="0 0 350 238" fill="none" xmlns="http://www.w3.org/2000/svg">
<rect x="1.5" y="1.5" width="347" height="235" rx="23.5" fill="white"/>
<rect x="1.5" y="1.5" width="347" height="235" rx="23.5" stroke="black" stroke-width="3"/>
<path d="M232.25 106.768C229.914 106.768 227.754 106.352 225.77 105.52C223.786 104.656 222.074 103.456 220.634 101.92C219.194 100.384 218.074 98.576 217.274 96.496C216.474 94.384 216.074 92.096 216.074 89.632C216.074 87.168 216.474 84.896 217.274 82.816C218.074 80.736 219.194 78.944 220.634 77.44C222.074 75.904 223.786 74.72 225.77 73.888C227.754 73.024 229.914 72.592 232.25 72.592C234.586 72.592 236.73 73.024 238.682 73.888C240.666 74.72 242.378 75.904 243.818 77.44C245.29 78.944 246.426 80.736 247.226 82.816C248.026 84.896 248.426 87.168 248.426 89.632C248.426 92.096 248.026 94.384 247.226 96.496C246.426 98.576 245.29 100.384 243.818 101.92C242.378 103.456 240.666 104.656 238.682 105.52C236.73 106.352 234.586 106.768 232.25 106.768ZM232.25 98.992C233.818 98.992 235.162 98.608 236.282 97.84C237.402 97.04 238.266 95.936 238.874 94.528C239.514 93.12 239.834 91.488 239.834 89.632C239.834 87.776 239.514 86.16 238.874 84.784C238.266 83.408 237.402 82.336 236.282 81.568C235.162 80.768 233.818 80.368 232.25 80.368C230.714 80.368 229.37 80.752 228.218 81.52C227.098 82.288 226.218 83.376 225.578 84.784C224.97 86.16 224.666 87.776 224.666 89.632C224.666 91.488 224.97 93.12 225.578 94.528C226.218 95.936 227.098 97.04 228.218 97.84C229.37 98.608 230.714 98.992 232.25 98.992ZM253.242 106C253.242 103.056 253.242 100.096 253.242 97.12C253.242 94.144 253.242 91.2 253.242 88.288C252.602 88.288 251.946 88.288 251.274 88.288C250.634 88.288 249.994 88.288 249.354 88.288C249.354 87.104 249.354 85.92 249.354 84.736C249.354 83.552 249.354 82.368 249.354 81.184C249.994 81.184 250.634 81.184 251.274 81.184C251.946 81.184 252.602 81.184 253.242 81.184C253.242 80.064 253.242 78.96 253.242 77.872C253.242 76.752 253.242 75.648 253.242 74.56C254.554 74.56 255.882 74.56 257.226 74.56C258.57 74.56 259.882 74.56 261.162 74.56C261.162 75.648 261.162 76.752 261.162 77.872C261.162 78.96 261.162 80.064 261.162 81.184C261.898 81.184 262.65 81.184 263.418 81.184C264.186 81.184 264.938 81.184 265.674 81.184C265.674 82.368 265.674 83.552 265.674 84.736C265.674 85.92 265.674 87.104 265.674 88.288C264.938 88.288 264.186 88.288 263.418 88.288C262.65 88.288 261.898 88.288 261.162 88.288C261.162 91.2 261.162 94.144 261.162 97.12C261.162 100.096 261.162 103.056 261.162 106C259.882 106 258.57 106 257.226 106C255.882 106 254.554 106 253.242 106ZM267.814 106C267.814 100.208 267.814 94.368 267.814 88.48C267.814 82.592 267.814 76.752 267.814 70.96C269.126 70.96 270.454 70.96 271.798 70.96C273.142 70.96 274.454 70.96 275.734 70.96C275.734 72.848 275.734 74.768 275.734 76.72C275.734 78.64 275.734 80.544 275.734 82.432C276.598 81.824 277.558 81.36 278.614 81.04C279.702 80.688 280.87 80.512 282.118 80.512C283.942 80.512 285.542 80.928 286.918 81.76C288.326 82.592 289.414 83.792 290.182 85.36C290.982 86.896 291.382 88.752 291.382 90.928C291.382 93.424 291.382 95.936 291.382 98.464C291.382 100.992 291.382 103.504 291.382 106C290.102 106 288.79 106 287.446 106C286.102 106 284.774 106 283.462 106C283.462 103.696 283.462 101.36 283.462 98.992C283.462 96.624 283.462 94.288 283.462 91.984C283.462 90.704 283.158 89.68 282.55 88.912C281.974 88.112 281.046 87.712 279.766 87.712C278.486 87.712 277.494 88.08 276.79 88.816C276.086 89.552 275.734 90.608 275.734 91.984C275.734 94.288 275.734 96.624 275.734 98.992C275.734 101.36 275.734 103.696 275.734 106C274.454 106 273.142 106 271.798 106C270.454 106 269.126 106 267.814 106ZM315.748 104.848C313.54 105.776 311.348 106.352 309.172 106.576C306.996 106.8 304.932 106.672 302.98 106.192C301.06 105.744 299.348 104.96 297.844 103.84C296.34 102.72 295.156 101.296 294.292 99.568C293.46 97.84 293.044 95.84 293.044 93.568C293.044 91.68 293.348 89.952 293.956 88.384C294.596 86.784 295.492 85.392 296.644 84.208C297.796 82.992 299.156 82.064 300.724 81.424C302.292 80.752 304.004 80.416 305.86 80.416C307.524 80.416 309.028 80.688 310.372 81.232C311.716 81.776 312.884 82.544 313.876 83.536C314.868 84.496 315.668 85.648 316.276 86.992C316.884 88.336 317.268 89.808 317.428 91.408C317.588 93.008 317.492 94.704 317.14 96.496C314.516 96.496 311.876 96.496 309.22 96.496C306.564 96.496 303.924 96.496 301.3 96.496C301.908 97.712 302.916 98.576 304.324 99.088C305.764 99.6 307.46 99.76 309.412 99.568C311.396 99.376 313.508 98.864 315.748 98.032C315.748 99.152 315.748 100.288 315.748 101.44C315.748 102.592 315.748 103.728 315.748 104.848ZM305.668 87.52C304.74 87.52 303.876 87.776 303.076 88.288C302.308 88.8 301.716 89.584 301.3 90.64C302.74 90.64 304.18 90.64 305.62 90.64C307.092 90.64 308.548 90.64 309.988 90.64C309.604 89.552 309.028 88.768 308.26 88.288C307.524 87.776 306.66 87.52 305.668 87.52ZM319.703 106C319.703 101.904 319.703 97.776 319.703 93.616C319.703 89.424 319.703 85.28 319.703 81.184C321.015 81.184 322.343 81.184 323.687 81.184C325.031 81.184 326.343 81.184 327.623 81.184C327.623 81.408 327.623 81.632 327.623 81.856C327.623 82.08 327.623 82.304 327.623 82.528C328.615 81.824 329.735 81.296 330.983 80.944C332.231 80.592 333.591 80.496 335.063 80.656C335.063 81.936 335.063 83.232 335.063 84.544C335.063 85.856 335.063 87.152 335.063 88.432C332.535 88.08 330.663 88.304 329.447 89.104C328.231 89.872 327.623 91.136 327.623 92.896C327.623 95.04 327.623 97.216 327.623 99.424C327.623 101.632 327.623 103.824 327.623 106C326.343 106 325.031 106 323.687 106C322.343 106 321.015 106 319.703 106ZM213.72 121.36C214.456 124.656 215.192 128 215.928 131.392C216.664 134.784 217.384 138.144 218.088 141.472C218.824 138.144 219.56 134.784 220.296 131.392C221.064 128 221.8 124.656 222.504 121.36C223.752 121.36 225.016 121.36 226.296 121.36C227.576 121.36 228.84 121.36 230.088 121.36C230.856 124.656 231.624 127.984 232.392 131.344C233.16 134.704 233.928 138.048 234.696 141.376C235.432 138.048 236.152 134.704 236.856 131.344C237.592 127.984 238.312 124.656 239.016 121.36C240.296 121.36 241.576 121.36 242.856 121.36C244.168 121.36 245.464 121.36 246.744 121.36C245.56 126.736 244.376 132.176 243.192 137.68C242.008 143.184 240.824 148.624 239.64 154C238.072 154 236.472 154 234.84 154C233.24 154 231.64 154 230.04 154C229.368 151.024 228.68 148.032 227.976 145.024C227.272 141.984 226.584 138.976 225.912 136C225.272 138.976 224.616 141.984 223.944 145.024C223.272 148.032 222.616 151.024 221.976 154C220.408 154 218.824 154 217.224 154C215.656 154 214.088 154 212.52 154C211.336 148.624 210.152 143.184 208.968 137.68C207.784 132.176 206.6 126.736 205.416 121.36C206.792 121.36 208.168 121.36 209.544 121.36C210.952 121.36 212.344 121.36 213.72 121.36ZM258.472 154.768C256.616 154.768 254.888 154.448 253.288 153.808C251.688 153.136 250.296 152.208 249.112 151.024C247.928 149.808 247 148.4 246.328 146.8C245.688 145.2 245.368 143.456 245.368 141.568C245.368 139.68 245.688 137.936 246.328 136.336C247 134.736 247.928 133.344 249.112 132.16C250.296 130.976 251.688 130.064 253.288 129.424C254.888 128.752 256.616 128.416 258.472 128.416C260.36 128.416 262.088 128.752 263.656 129.424C265.256 130.064 266.648 130.976 267.832 132.16C269.016 133.344 269.928 134.736 270.568 136.336C271.24 137.936 271.576 139.68 271.576 141.568C271.576 143.456 271.24 145.2 270.568 146.8C269.928 148.4 269.016 149.808 267.832 151.024C266.648 152.208 265.256 153.136 263.656 153.808C262.088 154.448 260.36 154.768 258.472 154.768ZM258.472 147.616C260.04 147.616 261.288 147.056 262.216 145.936C263.176 144.784 263.656 143.328 263.656 141.568C263.656 139.776 263.176 138.336 262.216 137.248C261.288 136.128 260.04 135.568 258.472 135.568C256.904 135.568 255.64 136.128 254.68 137.248C253.752 138.336 253.288 139.776 253.288 141.568C253.288 143.328 253.752 144.784 254.68 145.936C255.64 147.056 256.904 147.616 258.472 147.616ZM273.574 154C273.574 149.904 273.574 145.776 273.574 141.616C273.574 137.424 273.574 133.28 273.574 129.184C274.886 129.184 276.214 129.184 277.558 129.184C278.902 129.184 280.214 129.184 281.494 129.184C281.494 129.408 281.494 129.632 281.494 129.856C281.494 130.08 281.494 130.304 281.494 130.528C282.486 129.824 283.606 129.296 284.854 128.944C286.102 128.592 287.462 128.496 288.934 128.656C288.934 129.936 288.934 131.232 288.934 132.544C288.934 133.856 288.934 135.152 288.934 136.432C286.406 136.08 284.534 136.304 283.318 137.104C282.102 137.872 281.494 139.136 281.494 140.896C281.494 143.04 281.494 145.216 281.494 147.424C281.494 149.632 281.494 151.824 281.494 154C280.214 154 278.902 154 277.558 154C276.214 154 274.886 154 273.574 154ZM290.831 154C290.831 148.208 290.831 142.368 290.831 136.48C290.831 130.592 290.831 124.752 290.831 118.96C292.143 118.96 293.471 118.96 294.815 118.96C296.159 118.96 297.471 118.96 298.751 118.96C298.751 122.096 298.751 125.28 298.751 128.512C298.751 131.744 298.751 134.928 298.751 138.064C299.903 136.592 301.055 135.12 302.207 133.648C303.359 132.144 304.511 130.656 305.663 129.184C307.199 129.184 308.735 129.184 310.271 129.184C311.839 129.184 313.391 129.184 314.927 129.184C313.423 131.072 311.887 132.976 310.319 134.896C308.783 136.816 307.263 138.72 305.759 140.608C307.359 142.816 308.959 145.056 310.559 147.328C312.191 149.568 313.791 151.792 315.359 154C313.791 154 312.223 154 310.655 154C309.087 154 307.519 154 305.951 154C304.767 152.304 303.567 150.592 302.351 148.864C301.135 147.104 299.935 145.376 298.751 143.68C298.751 145.376 298.751 147.104 298.751 148.864C298.751 150.592 298.751 152.304 298.751 154C297.471 154 296.159 154 294.815 154C293.471 154 292.143 154 290.831 154ZM334.819 146.32C334.819 148.304 334.259 149.936 333.139 151.216C332.051 152.464 330.579 153.376 328.723 153.952C326.867 154.528 324.787 154.768 322.483 154.672C320.211 154.608 317.891 154.24 315.523 153.568C315.523 152.352 315.523 151.104 315.523 149.824C315.523 148.544 315.523 147.296 315.523 146.08C316.867 146.688 318.211 147.168 319.555 147.52C320.899 147.84 322.115 148.032 323.203 148.096C324.291 148.16 325.171 148.08 325.843 147.856C326.515 147.6 326.851 147.184 326.851 146.608C326.851 146.16 326.563 145.808 325.987 145.552C325.443 145.296 324.723 145.072 323.827 144.88C322.931 144.656 321.971 144.4 320.947 144.112C319.955 143.792 319.011 143.36 318.115 142.816C317.219 142.24 316.483 141.488 315.907 140.56C315.363 139.6 315.091 138.368 315.091 136.864C315.091 135.072 315.603 133.552 316.627 132.304C317.683 131.024 319.091 130.064 320.851 129.424C322.611 128.752 324.579 128.416 326.755 128.416C328.931 128.416 331.155 128.784 333.427 129.52C333.427 130.736 333.427 131.984 333.427 133.264C333.427 134.544 333.427 135.792 333.427 137.008C331.635 136.144 329.955 135.568 328.387 135.28C326.819 134.992 325.555 134.96 324.595 135.184C323.635 135.376 323.155 135.808 323.155 136.48C323.155 136.928 323.427 137.28 323.971 137.536C324.547 137.76 325.267 137.968 326.131 138.16C327.027 138.352 327.971 138.608 328.963 138.928C329.987 139.248 330.931 139.696 331.795 140.272C332.691 140.816 333.411 141.584 333.955 142.576C334.531 143.536 334.819 144.784 334.819 146.32Z" fill="black"/>
<path d="M24.5909 193.727L31.0682 212.682H31.3295L37.8068 193.727H41.6023L33.2273 217H29.1705L20.7955 193.727H24.5909ZM43.4103 217V199.545H46.8081V217H43.4103ZM45.1262 196.852C44.5353 196.852 44.0278 196.655 43.6035 196.261C43.1869 195.86 42.9785 195.383 42.9785 194.83C42.9785 194.269 43.1869 193.792 43.6035 193.398C44.0278 192.996 44.5353 192.795 45.1262 192.795C45.7172 192.795 46.2209 192.996 46.6376 193.398C47.0619 193.792 47.274 194.269 47.274 194.83C47.274 195.383 47.0619 195.86 46.6376 196.261C46.2209 196.655 45.7172 196.852 45.1262 196.852ZM57.6218 217.352C55.9021 217.352 54.4211 216.985 53.1786 216.25C51.9438 215.508 50.9892 214.466 50.315 213.125C49.6483 211.777 49.315 210.197 49.315 208.386C49.315 206.598 49.6483 205.023 50.315 203.659C50.9892 202.295 51.9286 201.231 53.1332 200.466C54.3453 199.701 55.762 199.318 57.3832 199.318C58.368 199.318 59.3226 199.481 60.2468 199.807C61.1711 200.133 62.0006 200.644 62.7355 201.341C63.4703 202.038 64.0498 202.943 64.4741 204.057C64.8983 205.163 65.1105 206.508 65.1105 208.091V209.295H51.2355V206.75H61.7809C61.7809 205.856 61.5991 205.064 61.2355 204.375C60.8718 203.678 60.3605 203.129 59.7014 202.727C59.0498 202.326 58.2847 202.125 57.4059 202.125C56.4514 202.125 55.618 202.36 54.9059 202.83C54.2014 203.292 53.6559 203.898 53.2695 204.648C52.8908 205.39 52.7014 206.197 52.7014 207.068V209.057C52.7014 210.223 52.9059 211.216 53.315 212.034C53.7317 212.852 54.3112 213.477 55.0536 213.909C55.7961 214.333 56.6635 214.545 57.6559 214.545C58.2998 214.545 58.887 214.455 59.4173 214.273C59.9476 214.083 60.4059 213.803 60.7923 213.432C61.1786 213.061 61.4741 212.602 61.6786 212.057L64.8945 212.636C64.637 213.583 64.1748 214.413 63.5082 215.125C62.8491 215.83 62.0195 216.379 61.0195 216.773C60.0271 217.159 58.8945 217.352 57.6218 217.352ZM71.3532 217L66.2168 199.545H69.7282L73.1486 212.364H73.3191L76.7509 199.545H80.2623L83.6714 212.307H83.8418L87.2395 199.545H90.7509L85.6259 217H82.16L78.6145 204.398H78.3532L74.8077 217H71.3532ZM100.157 193.727H104.418L111.827 211.818H112.1L119.509 193.727H123.77V217H120.43V200.159H120.214L113.35 216.966H110.577L103.714 200.148H103.498V217H100.157V193.727ZM134.675 217.352C133.039 217.352 131.611 216.977 130.391 216.227C129.171 215.477 128.224 214.428 127.55 213.08C126.876 211.731 126.539 210.155 126.539 208.352C126.539 206.542 126.876 204.958 127.55 203.602C128.224 202.246 129.171 201.193 130.391 200.443C131.611 199.693 133.039 199.318 134.675 199.318C136.311 199.318 137.74 199.693 138.959 200.443C140.179 201.193 141.126 202.246 141.8 203.602C142.474 204.958 142.811 206.542 142.811 208.352C142.811 210.155 142.474 211.731 141.8 213.08C141.126 214.428 140.179 215.477 138.959 216.227C137.74 216.977 136.311 217.352 134.675 217.352ZM134.686 214.5C135.747 214.5 136.626 214.22 137.323 213.659C138.02 213.098 138.535 212.352 138.868 211.42C139.209 210.489 139.38 209.462 139.38 208.341C139.38 207.227 139.209 206.205 138.868 205.273C138.535 204.333 138.02 203.58 137.323 203.011C136.626 202.443 135.747 202.159 134.686 202.159C133.618 202.159 132.732 202.443 132.027 203.011C131.33 203.58 130.811 204.333 130.471 205.273C130.137 206.205 129.971 207.227 129.971 208.341C129.971 209.462 130.137 210.489 130.471 211.42C130.811 212.352 131.33 213.098 132.027 213.659C132.732 214.22 133.618 214.5 134.686 214.5ZM145.324 217V199.545H148.608V202.318H148.79C149.108 201.379 149.669 200.64 150.472 200.102C151.282 199.557 152.199 199.284 153.222 199.284C153.434 199.284 153.684 199.292 153.972 199.307C154.267 199.322 154.498 199.341 154.665 199.364V202.614C154.529 202.576 154.286 202.534 153.938 202.489C153.589 202.436 153.241 202.409 152.892 202.409C152.089 202.409 151.373 202.58 150.745 202.92C150.123 203.254 149.631 203.72 149.267 204.318C148.904 204.909 148.722 205.583 148.722 206.341V217H145.324ZM163.223 217.352C161.503 217.352 160.022 216.985 158.78 216.25C157.545 215.508 156.59 214.466 155.916 213.125C155.25 211.777 154.916 210.197 154.916 208.386C154.916 206.598 155.25 205.023 155.916 203.659C156.59 202.295 157.53 201.231 158.734 200.466C159.947 199.701 161.363 199.318 162.984 199.318C163.969 199.318 164.924 199.481 165.848 199.807C166.772 200.133 167.602 200.644 168.337 201.341C169.072 202.038 169.651 202.943 170.075 204.057C170.5 205.163 170.712 206.508 170.712 208.091V209.295H156.837V206.75H167.382C167.382 205.856 167.2 205.064 166.837 204.375C166.473 203.678 165.962 203.129 165.303 202.727C164.651 202.326 163.886 202.125 163.007 202.125C162.053 202.125 161.219 202.36 160.507 202.83C159.803 203.292 159.257 203.898 158.871 204.648C158.492 205.39 158.303 206.197 158.303 207.068V209.057C158.303 210.223 158.507 211.216 158.916 212.034C159.333 212.852 159.912 213.477 160.655 213.909C161.397 214.333 162.265 214.545 163.257 214.545C163.901 214.545 164.488 214.455 165.019 214.273C165.549 214.083 166.007 213.803 166.394 213.432C166.78 213.061 167.075 212.602 167.28 212.057L170.496 212.636C170.238 213.583 169.776 214.413 169.109 215.125C168.45 215.83 167.621 216.379 166.621 216.773C165.628 217.159 164.496 217.352 163.223 217.352Z" fill="black"/>
<path d="M33.488 47.72C31.152 47.72 29.056 47.304 27.2 46.472C25.344 45.608 23.872 44.408 22.784 42.872C21.728 41.336 21.2 39.544 21.2 37.496C21.2 35.8 21.552 34.328 22.256 33.08C22.992 31.832 23.984 30.824 25.232 30.056C24.176 29.32 23.344 28.408 22.736 27.32C22.16 26.232 21.872 24.952 21.872 23.48C21.872 21.56 22.368 19.864 23.36 18.392C24.384 16.92 25.776 15.768 27.536 14.936C29.296 14.072 31.28 13.64 33.488 13.64C35.696 13.64 37.664 14.072 39.392 14.936C41.152 15.768 42.528 16.92 43.52 18.392C44.512 19.864 45.008 21.56 45.008 23.48C45.008 24.952 44.704 26.232 44.096 27.32C43.52 28.408 42.72 29.32 41.696 30.056C42.912 30.824 43.872 31.832 44.576 33.08C45.312 34.328 45.68 35.8 45.68 37.496C45.68 39.544 45.136 41.336 44.048 42.872C42.992 44.408 41.552 45.608 39.728 46.472C37.904 47.304 35.824 47.72 33.488 47.72ZM33.488 26.984C34.512 26.984 35.328 26.696 35.936 26.12C36.544 25.544 36.848 24.808 36.848 23.912C36.848 23.048 36.544 22.344 35.936 21.8C35.328 21.256 34.512 20.984 33.488 20.984C32.464 20.984 31.632 21.256 30.992 21.8C30.352 22.344 30.032 23.048 30.032 23.912C30.032 24.808 30.352 25.544 30.992 26.12C31.664 26.696 32.496 26.984 33.488 26.984ZM33.488 40.376C34.608 40.376 35.536 40.04 36.272 39.368C37.008 38.696 37.376 37.848 37.376 36.824C37.376 35.736 37.008 34.872 36.272 34.232C35.536 33.56 34.608 33.224 33.488 33.224C32.368 33.224 31.424 33.56 30.656 34.232C29.888 34.872 29.504 35.736 29.504 36.824C29.504 37.848 29.888 38.696 30.656 39.368C31.424 40.04 32.368 40.376 33.488 40.376Z" fill="black"/>
<circle cx="327" cy="21" r="9" fill="black"/>
<circle cx="318.5" cy="205.5" r="20.5" fill="black"/>
<path d="M329.207 206.707C329.598 206.317 329.598 205.683 329.207 205.293L322.843 198.929C322.453 198.538 321.819 198.538 321.429 198.929C321.038 199.319 321.038 199.953 321.429 200.343L327.086 206L321.429 211.657C321.038 212.047 321.038 212.681 321.429 213.071C321.819 213.462 322.453 213.462 322.843 213.071L329.207 206.707ZM307 206V207H328.5V206V205H307V206Z" fill="white"/>
<path d="M20 55L336 55" stroke="black"/>
</svg>
