<svg width="3053" height="2107" viewBox="0 0 3053 2107" fill="none" xmlns="http://www.w3.org/2000/svg">
<rect x="4" y="4" width="3045" height="2099" rx="56" stroke="black" stroke-width="8"/>
<rect x="73.3638" y="448.568" width="35.432" height="87.241" rx="14.5" stroke="black"/>
<rect x="206.948" y="448.568" width="35.432" height="87.241" rx="14.5" stroke="black"/>
<rect x="340.532" y="448.568" width="35.432" height="87.241" rx="14.5" stroke="black"/>
<rect x="474.115" y="448.568" width="35.432" height="87.241" rx="14.5" stroke="black"/>
<rect x="607.7" y="448.568" width="35.432" height="87.241" rx="14.5" stroke="black"/>
<rect x="741.284" y="448.568" width="35.432" height="87.241" rx="14.5" stroke="black"/>
<rect x="874.868" y="448.568" width="35.432" height="87.241" rx="14.5" stroke="black"/>
<rect x="1008.45" y="448.568" width="35.432" height="87.241" rx="14.5" stroke="black"/>
<rect x="1142.04" y="448.568" width="35.432" height="87.241" rx="14.5" stroke="black"/>
<rect x="1275.62" y="448.568" width="35.432" height="87.241" rx="14.5" stroke="black"/>
<rect x="1409.2" y="448.568" width="35.432" height="87.241" rx="14.5" stroke="black"/>
<rect x="1542.79" y="448.568" width="35.432" height="87.241" rx="14.5" stroke="black"/>
<rect x="1676.37" y="448.568" width="35.432" height="87.241" rx="14.5" stroke="black"/>
<rect x="1809.96" y="448.568" width="35.432" height="87.241" rx="14.5" stroke="black"/>
<rect x="1943.54" y="448.568" width="35.432" height="87.241" rx="14.5" stroke="black"/>
<rect x="2077.12" y="448.568" width="35.432" height="87.241" rx="14.5" stroke="black"/>
<rect x="2210.71" y="819.181" width="35.432" height="87.241" rx="14.5" stroke="black"/>
<rect x="2210.71" y="448.568" width="35.432" height="87.241" rx="14.5" stroke="black"/>
<rect x="2210.71" y="1193.71" width="35.432" height="87.241" rx="14.5" stroke="black"/>
<rect x="2344.29" y="819.181" width="35.432" height="87.241" rx="14.5" stroke="black"/>
<rect x="2344.29" y="448.568" width="35.432" height="87.241" rx="14.5" stroke="black"/>
<rect x="2344.29" y="1193.71" width="35.432" height="87.241" rx="14.5" stroke="black"/>
<rect x="2477.88" y="819.181" width="35.432" height="87.241" rx="14.5" stroke="black"/>
<rect x="2477.88" y="448.568" width="35.432" height="87.241" rx="14.5" stroke="black"/>
<rect x="2477.88" y="1193.71" width="35.432" height="87.241" rx="14.5" stroke="black"/>
<rect x="2611.46" y="819.181" width="35.432" height="87.241" rx="14.5" stroke="black"/>
<rect x="2611.46" y="448.568" width="35.432" height="87.241" rx="14.5" stroke="black"/>
<rect x="2611.46" y="1193.71" width="35.432" height="87.241" rx="14.5" stroke="black"/>
<rect x="2745.04" y="819.181" width="35.432" height="87.241" rx="14.5" stroke="black"/>
<rect x="2745.04" y="448.568" width="35.432" height="87.241" rx="14.5" stroke="black"/>
<rect x="2745.04" y="1193.71" width="35.432" height="87.241" rx="14.5" stroke="black"/>
<rect x="2878.63" y="819.181" width="35.432" height="87.241" rx="14.5" stroke="black"/>
<rect x="2878.63" y="448.568" width="35.432" height="87.241" rx="14.5" stroke="black"/>
<rect x="2878.63" y="1193.71" width="35.432" height="87.241" rx="14.5" stroke="black"/>
<rect x="140.156" y="634.855" width="35.432" height="87.241" rx="14.5" stroke="black"/>
<rect x="273.74" y="634.855" width="35.432" height="87.241" rx="14.5" stroke="black"/>
<rect x="407.324" y="634.855" width="35.432" height="87.241" rx="14.5" stroke="black"/>
<rect x="540.908" y="634.855" width="35.432" height="87.241" rx="14.5" stroke="black"/>
<rect x="674.492" y="634.855" width="35.432" height="87.241" rx="14.5" stroke="black"/>
<rect x="808.076" y="634.855" width="35.432" height="87.241" rx="14.5" stroke="black"/>
<rect x="941.659" y="634.855" width="35.432" height="87.241" rx="14.5" stroke="black"/>
<rect x="1075.24" y="634.855" width="35.432" height="87.241" rx="14.5" stroke="black"/>
<rect x="1208.83" y="634.855" width="35.432" height="87.241" rx="14.5" stroke="black"/>
<rect x="1342.41" y="634.855" width="35.432" height="87.241" rx="14.5" stroke="black"/>
<rect x="1476" y="634.855" width="35.432" height="87.241" rx="14.5" stroke="black"/>
<rect x="1609.58" y="634.855" width="35.432" height="87.241" rx="14.5" stroke="black"/>
<rect x="1743.16" y="634.855" width="35.432" height="87.241" rx="14.5" stroke="black"/>
<rect x="1876.75" y="634.855" width="35.432" height="87.241" rx="14.5" stroke="black"/>
<rect x="2010.33" y="634.855" width="35.432" height="87.241" rx="14.5" stroke="black"/>
<path d="M5 385H3053" stroke="black" stroke-width="4"/>
<rect x="2143.92" y="1005.47" width="35.432" height="87.241" rx="14.5" stroke="black"/>
<rect x="2143.92" y="634.855" width="35.432" height="87.241" rx="14.5" stroke="black"/>
<rect x="2143.92" y="1387.85" width="35.432" height="87.241" rx="14.5" stroke="black"/>
<rect x="2143.92" y="1753.56" width="35.432" height="87.241" rx="14.5" stroke="black"/>
<rect x="2277.5" y="1005.47" width="35.432" height="87.241" rx="14.5" stroke="black"/>
<rect x="2277.5" y="634.855" width="35.432" height="87.241" rx="14.5" stroke="black"/>
<rect x="2277.5" y="1387.85" width="35.432" height="87.241" rx="14.5" stroke="black"/>
<rect x="2277.5" y="1753.56" width="35.432" height="87.241" rx="14.5" stroke="black"/>
<rect x="2210.71" y="1575.11" width="35.432" height="87.241" rx="14.5" stroke="black"/>
<rect x="2210.71" y="1939.84" width="35.432" height="87.241" rx="14.5" stroke="black"/>
<rect x="2411.08" y="1005.47" width="35.432" height="87.241" rx="14.5" stroke="black"/>
<rect x="2411.08" y="634.855" width="35.432" height="87.241" rx="14.5" stroke="black"/>
<rect x="2411.08" y="1387.85" width="35.432" height="87.241" rx="14.5" stroke="black"/>
<rect x="2411.08" y="1753.56" width="35.432" height="87.241" rx="14.5" stroke="black"/>
<rect x="2344.29" y="1575.11" width="35.432" height="87.241" rx="14.5" stroke="black"/>
<rect x="2344.29" y="1939.84" width="35.432" height="87.241" rx="14.5" stroke="black"/>
<rect x="2544.67" y="1005.47" width="35.432" height="87.241" rx="14.5" stroke="black"/>
<rect x="2544.67" y="634.855" width="35.432" height="87.241" rx="14.5" stroke="black"/>
<rect x="2544.67" y="1387.85" width="35.432" height="87.241" rx="14.5" stroke="black"/>
<rect x="2544.67" y="1753.56" width="35.432" height="87.241" rx="14.5" stroke="black"/>
<rect x="2477.88" y="1575.11" width="35.432" height="87.241" rx="14.5" stroke="black"/>
<rect x="2477.88" y="1939.84" width="35.432" height="87.241" rx="14.5" stroke="black"/>
<rect x="2678.25" y="1005.47" width="35.432" height="87.241" rx="14.5" stroke="black"/>
<rect x="2678.25" y="634.855" width="35.432" height="87.241" rx="14.5" stroke="black"/>
<rect x="2678.25" y="1387.85" width="35.432" height="87.241" rx="14.5" stroke="black"/>
<rect x="2678.25" y="1753.56" width="35.432" height="87.241" rx="14.5" stroke="black"/>
<rect x="2611.46" y="1575.11" width="35.432" height="87.241" rx="14.5" stroke="black"/>
<rect x="2611.46" y="1939.84" width="35.432" height="87.241" rx="14.5" stroke="black"/>
<rect x="2811.83" y="1005.47" width="35.432" height="87.241" rx="14.5" stroke="black"/>
<rect x="2811.83" y="634.855" width="35.432" height="87.241" rx="14.5" stroke="black"/>
<rect x="2811.83" y="1387.85" width="35.432" height="87.241" rx="14.5" stroke="black"/>
<rect x="2811.83" y="1753.56" width="35.432" height="87.241" rx="14.5" stroke="black"/>
<rect x="2745.04" y="1575.11" width="35.432" height="87.241" rx="14.5" stroke="black"/>
<rect x="2745.04" y="1939.84" width="35.432" height="87.241" rx="14.5" stroke="black"/>
<rect x="2945.42" y="1005.47" width="35.432" height="87.241" rx="14.5" stroke="black"/>
<rect x="2945.42" y="634.855" width="35.432" height="87.241" rx="14.5" stroke="black"/>
<rect x="2945.42" y="1387.85" width="35.432" height="87.241" rx="14.5" stroke="black"/>
<rect x="2945.42" y="1753.56" width="35.432" height="87.241" rx="14.5" stroke="black"/>
<rect x="2878.63" y="1575.11" width="35.432" height="87.241" rx="14.5" stroke="black"/>
<rect x="2878.63" y="1939.84" width="35.432" height="87.241" rx="14.5" stroke="black"/>
<rect x="140.156" y="1007.43" width="35.432" height="87.241" rx="14.5" stroke="black"/>
<rect x="273.74" y="1007.43" width="35.432" height="87.241" rx="14.5" stroke="black"/>
<rect x="407.324" y="1007.43" width="35.432" height="87.241" rx="14.5" stroke="black"/>
<rect x="540.908" y="1007.43" width="35.432" height="87.241" rx="14.5" stroke="black"/>
<rect x="674.492" y="1007.43" width="35.432" height="87.241" rx="14.5" stroke="black"/>
<rect x="808.076" y="1007.43" width="35.432" height="87.241" rx="14.5" stroke="black"/>
<rect x="941.659" y="1007.43" width="35.432" height="87.241" rx="14.5" stroke="black"/>
<rect x="1075.24" y="1007.43" width="35.432" height="87.241" rx="14.5" stroke="black"/>
<rect x="1208.83" y="1007.43" width="35.432" height="87.241" rx="14.5" stroke="black"/>
<rect x="1342.41" y="1007.43" width="35.432" height="87.241" rx="14.5" stroke="black"/>
<rect x="1476" y="1007.43" width="35.432" height="87.241" rx="14.5" stroke="black"/>
<rect x="1609.58" y="1007.43" width="35.432" height="87.241" rx="14.5" stroke="black"/>
<rect x="1743.16" y="1007.43" width="35.432" height="87.241" rx="14.5" stroke="black"/>
<rect x="1876.75" y="1007.43" width="35.432" height="87.241" rx="14.5" stroke="black"/>
<rect x="2010.33" y="1007.43" width="35.432" height="87.241" rx="14.5" stroke="black"/>
<rect x="140.156" y="1387.85" width="35.432" height="87.241" rx="14.5" stroke="black"/>
<rect x="273.74" y="1387.85" width="35.432" height="87.241" rx="14.5" stroke="black"/>
<rect x="407.324" y="1387.85" width="35.432" height="87.241" rx="14.5" stroke="black"/>
<rect x="540.908" y="1387.85" width="35.432" height="87.241" rx="14.5" stroke="black"/>
<rect x="674.492" y="1387.85" width="35.432" height="87.241" rx="14.5" stroke="black"/>
<rect x="808.076" y="1387.85" width="35.432" height="87.241" rx="14.5" stroke="black"/>
<rect x="941.659" y="1387.85" width="35.432" height="87.241" rx="14.5" stroke="black"/>
<rect x="1075.24" y="1387.85" width="35.432" height="87.241" rx="14.5" stroke="black"/>
<rect x="1208.83" y="1387.85" width="35.432" height="87.241" rx="14.5" stroke="black"/>
<rect x="1342.41" y="1387.85" width="35.432" height="87.241" rx="14.5" stroke="black"/>
<rect x="1476" y="1387.85" width="35.432" height="87.241" rx="14.5" stroke="black"/>
<rect x="1609.58" y="1387.85" width="35.432" height="87.241" rx="14.5" stroke="black"/>
<rect x="1743.16" y="1387.85" width="35.432" height="87.241" rx="14.5" stroke="black"/>
<rect x="1876.75" y="1387.85" width="35.432" height="87.241" rx="14.5" stroke="black"/>
<rect x="2010.33" y="1387.85" width="35.432" height="87.241" rx="14.5" stroke="black"/>
<rect x="140.156" y="1753.56" width="35.432" height="87.241" rx="14.5" stroke="black"/>
<rect x="273.74" y="1753.56" width="35.432" height="87.241" rx="14.5" stroke="black"/>
<rect x="407.324" y="1753.56" width="35.432" height="87.241" rx="14.5" stroke="black"/>
<rect x="540.908" y="1753.56" width="35.432" height="87.241" rx="14.5" stroke="black"/>
<rect x="674.492" y="1753.56" width="35.432" height="87.241" rx="14.5" stroke="black"/>
<rect x="808.076" y="1753.56" width="35.432" height="87.241" rx="14.5" stroke="black"/>
<rect x="941.659" y="1753.56" width="35.432" height="87.241" rx="14.5" stroke="black"/>
<rect x="1075.24" y="1753.56" width="35.432" height="87.241" rx="14.5" stroke="black"/>
<rect x="1208.83" y="1753.56" width="35.432" height="87.241" rx="14.5" stroke="black"/>
<rect x="1342.41" y="1753.56" width="35.432" height="87.241" rx="14.5" stroke="black"/>
<rect x="1476" y="1753.56" width="35.432" height="87.241" rx="14.5" stroke="black"/>
<rect x="1609.58" y="1753.56" width="35.432" height="87.241" rx="14.5" stroke="black"/>
<rect x="1743.16" y="1753.56" width="35.432" height="87.241" rx="14.5" stroke="black"/>
<rect x="1876.75" y="1753.56" width="35.432" height="87.241" rx="14.5" stroke="black"/>
<rect x="2010.33" y="1753.56" width="35.432" height="87.241" rx="14.5" stroke="black"/>
<rect x="73.3638" y="821.142" width="35.432" height="87.241" rx="14.5" stroke="black"/>
<rect x="206.948" y="821.142" width="35.432" height="87.241" rx="14.5" stroke="black"/>
<rect x="340.532" y="821.142" width="35.432" height="87.241" rx="14.5" stroke="black"/>
<rect x="474.115" y="821.142" width="35.432" height="87.241" rx="14.5" stroke="black"/>
<rect x="607.7" y="821.142" width="35.432" height="87.241" rx="14.5" stroke="black"/>
<rect x="741.284" y="821.142" width="35.432" height="87.241" rx="14.5" stroke="black"/>
<rect x="874.868" y="821.142" width="35.432" height="87.241" rx="14.5" stroke="black"/>
<rect x="1008.45" y="821.142" width="35.432" height="87.241" rx="14.5" stroke="black"/>
<rect x="1142.04" y="821.142" width="35.432" height="87.241" rx="14.5" stroke="black"/>
<rect x="1275.62" y="821.142" width="35.432" height="87.241" rx="14.5" stroke="black"/>
<rect x="1409.2" y="821.142" width="35.432" height="87.241" rx="14.5" stroke="black"/>
<rect x="1542.79" y="821.142" width="35.432" height="87.241" rx="14.5" stroke="black"/>
<rect x="1676.37" y="821.142" width="35.432" height="87.241" rx="14.5" stroke="black"/>
<rect x="1809.96" y="821.142" width="35.432" height="87.241" rx="14.5" stroke="black"/>
<rect x="1943.54" y="821.142" width="35.432" height="87.241" rx="14.5" stroke="black"/>
<rect x="2077.12" y="821.142" width="35.432" height="87.241" rx="14.5" stroke="black"/>
<rect x="73.3638" y="1193.71" width="35.432" height="87.241" rx="14.5" stroke="black"/>
<rect x="206.948" y="1193.71" width="35.432" height="87.241" rx="14.5" stroke="black"/>
<rect x="340.532" y="1193.71" width="35.432" height="87.241" rx="14.5" stroke="black"/>
<rect x="474.115" y="1193.71" width="35.432" height="87.241" rx="14.5" stroke="black"/>
<rect x="607.7" y="1193.71" width="35.432" height="87.241" rx="14.5" stroke="black"/>
<rect x="741.284" y="1193.71" width="35.432" height="87.241" rx="14.5" stroke="black"/>
<rect x="874.868" y="1193.71" width="35.432" height="87.241" rx="14.5" stroke="black"/>
<rect x="1008.45" y="1193.71" width="35.432" height="87.241" rx="14.5" stroke="black"/>
<rect x="1142.04" y="1193.71" width="35.432" height="87.241" rx="14.5" stroke="black"/>
<rect x="1275.62" y="1193.71" width="35.432" height="87.241" rx="14.5" stroke="black"/>
<rect x="1409.2" y="1193.71" width="35.432" height="87.241" rx="14.5" stroke="black"/>
<rect x="1542.79" y="1193.71" width="35.432" height="87.241" rx="14.5" stroke="black"/>
<rect x="1676.37" y="1193.71" width="35.432" height="87.241" rx="14.5" stroke="black"/>
<rect x="1809.96" y="1193.71" width="35.432" height="87.241" rx="14.5" stroke="black"/>
<rect x="1943.54" y="1193.71" width="35.432" height="87.241" rx="14.5" stroke="black"/>
<rect x="2077.12" y="1193.71" width="35.432" height="87.241" rx="14.5" stroke="black"/>
<rect x="73.3638" y="1574.13" width="35.432" height="87.241" rx="14.5" stroke="black"/>
<rect x="206.948" y="1574.13" width="35.432" height="87.241" rx="14.5" stroke="black"/>
<rect x="340.532" y="1574.13" width="35.432" height="87.241" rx="14.5" stroke="black"/>
<rect x="474.115" y="1574.13" width="35.432" height="87.241" rx="14.5" stroke="black"/>
<rect x="607.7" y="1574.13" width="35.432" height="87.241" rx="14.5" stroke="black"/>
<rect x="741.284" y="1574.13" width="35.432" height="87.241" rx="14.5" stroke="black"/>
<rect x="874.868" y="1574.13" width="35.432" height="87.241" rx="14.5" stroke="black"/>
<rect x="1008.45" y="1574.13" width="35.432" height="87.241" rx="14.5" stroke="black"/>
<rect x="1142.04" y="1574.13" width="35.432" height="87.241" rx="14.5" stroke="black"/>
<rect x="1275.62" y="1574.13" width="35.432" height="87.241" rx="14.5" stroke="black"/>
<rect x="1409.2" y="1574.13" width="35.432" height="87.241" rx="14.5" stroke="black"/>
<rect x="1542.79" y="1574.13" width="35.432" height="87.241" rx="14.5" stroke="black"/>
<rect x="1676.37" y="1574.13" width="35.432" height="87.241" rx="14.5" stroke="black"/>
<rect x="1809.96" y="1574.13" width="35.432" height="87.241" rx="14.5" stroke="black"/>
<rect x="1943.54" y="1574.13" width="35.432" height="87.241" rx="14.5" stroke="black"/>
<rect x="2077.12" y="1574.13" width="35.432" height="87.241" rx="14.5" stroke="black"/>
<rect x="73.3638" y="1939.84" width="35.432" height="87.241" rx="14.5" stroke="black"/>
<rect x="206.948" y="1939.84" width="35.432" height="87.241" rx="14.5" stroke="black"/>
<rect x="340.532" y="1939.84" width="35.432" height="87.241" rx="14.5" stroke="black"/>
<rect x="474.115" y="1939.84" width="35.432" height="87.241" rx="14.5" stroke="black"/>
<rect x="607.7" y="1939.84" width="35.432" height="87.241" rx="14.5" stroke="black"/>
<rect x="741.284" y="1939.84" width="35.432" height="87.241" rx="14.5" stroke="black"/>
<rect x="874.868" y="1939.84" width="35.432" height="87.241" rx="14.5" stroke="black"/>
<rect x="1008.45" y="1939.84" width="35.432" height="87.241" rx="14.5" stroke="black"/>
<rect x="1142.04" y="1939.84" width="35.432" height="87.241" rx="14.5" stroke="black"/>
<rect x="1275.62" y="1939.84" width="35.432" height="87.241" rx="14.5" stroke="black"/>
<rect x="1409.2" y="1939.84" width="35.432" height="87.241" rx="14.5" stroke="black"/>
<rect x="1542.79" y="1939.84" width="35.432" height="87.241" rx="14.5" stroke="black"/>
<rect x="1676.37" y="1939.84" width="35.432" height="87.241" rx="14.5" stroke="black"/>
<rect x="1809.96" y="1939.84" width="35.432" height="87.241" rx="14.5" stroke="black"/>
<rect x="1943.54" y="1939.84" width="35.432" height="87.241" rx="14.5" stroke="black"/>
<rect x="2077.12" y="1939.84" width="35.432" height="87.241" rx="14.5" stroke="black"/>
<circle cx="101" cy="86" r="36" fill="black"/>
</svg>
