<svg width="180" height="483" viewBox="0 0 180 483" fill="none" xmlns="http://www.w3.org/2000/svg">
<rect x="51.5" y="211.5" width="14" height="68" rx="7" transform="rotate(-90 51.5 211.5)" fill="black"/>
<path d="M42.0337 14.2241C48.2475 12.7288 50.349 8.5029 56.3397 6.27628C65.145 3.00354 70.7903 1.37145 80.1831 1.5079C88.6539 1.63097 93.6759 3.39366 101.642 6.27628C111.518 9.84992 123.896 21.3771 123.896 21.3771L177.146 73.8325L167.609 80.9855L127.075 43.6309C127.075 43.6309 118.068 46.2033 115.153 50.7839C113.092 54.0229 112.769 60.3212 112.769 60.3212L112.769 479.964C112.769 479.964 93.2459 483.254 82.5674 479.964C74.3258 477.425 70.4109 475.618 65.0823 468.838C60.7726 463.353 58.7241 452.147 58.7241 452.147L58.7241 60.3212C58.7241 60.3212 58.506 53.5183 56.3397 49.9891C52.9963 44.5423 48.2475 43.5366 42.0337 42.0413C36.6019 40.7342 32.9554 40.0707 27.7277 42.0413C25.3862 42.924 23.5828 43.159 22.1642 45.2204C21.0713 46.8087 20.8865 49.9891 20.8865 49.9891H1.5L1.5 6.27628L20.8865 6.27628C20.8865 6.27628 21.0713 9.45671 22.1642 11.0449C23.5828 13.1064 25.3862 13.3414 27.7277 14.2241C32.9554 16.1947 36.6019 15.5312 42.0337 14.2241Z" stroke="black" stroke-width="3"/>
<path d="M53.9556 46.8104L62.6981 51.5791L77.7989 53.9634H94.4893L110.385 51.5791L121.512 46.0156" stroke="black"/>
<path d="M58.7241 280.5L112.769 294.981" stroke="black" stroke-width="2"/>
<path d="M20.5747 6.27637L20.5747 49.1944" stroke="black"/>
</svg>
