<svg width="221" height="496" viewBox="0 0 221 496" fill="none" xmlns="http://www.w3.org/2000/svg">
<path d="M50.2174 15.694C61.833 2.55951 92.6994 1.16113 92.6994 1.16113C92.6994 1.16113 80.0357 9.62844 75.9302 17.9298C72.0161 25.844 68.4475 32.4838 72.5763 40.2881C77.1641 48.9602 96.0532 49.2314 96.0532 49.2314H109.469H110.587H124.002C124.002 49.2314 142.891 48.9602 147.479 40.2881C151.608 32.4838 148.039 25.844 144.125 17.9298C140.019 9.62844 127.356 1.16113 127.356 1.16113C127.356 1.16113 158.222 2.55951 169.838 15.694C180.318 27.5441 185.706 39.9462 180.322 54.821C176.33 65.8515 159.081 76.0614 159.081 76.0614L147.479 83.8868L169.838 90.5942L219.028 481.864L213.438 494.161L201.14 481.864L140.771 123.014C140.771 123.014 134.7 113.43 128.474 110.717C122.538 108.129 112.493 108.355 110.028 108.454C107.562 108.355 97.5174 108.129 91.5815 110.717C85.3555 113.43 79.284 123.014 79.284 123.014L18.9148 481.864L6.61733 494.161L1.02759 481.864L50.2174 90.5942L72.5763 83.8868L60.974 76.0614C60.974 76.0614 43.7255 65.8515 39.733 54.821C34.3491 39.9462 39.7376 27.5441 50.2174 15.694Z" fill="white"/>
<path d="M72.5763 83.8868L60.974 76.0614C60.974 76.0614 43.7255 65.8515 39.733 54.821C34.3491 39.9462 39.7376 27.5441 50.2174 15.694C61.833 2.55951 92.6994 1.16113 92.6994 1.16113C92.6994 1.16113 80.0357 9.62844 75.9302 17.9298C72.0161 25.844 68.4476 32.4838 72.5763 40.2881C77.1641 48.9602 96.0532 49.2314 96.0532 49.2314H110.587M72.5763 83.8868L50.2174 90.5942L1.02759 481.864L6.61733 494.161L18.9148 481.864L79.284 123.014C79.284 123.014 85.3555 113.43 91.5815 110.717C98.3852 107.751 110.587 108.481 110.587 108.481M72.5763 83.8868H147.479M147.479 83.8868L159.081 76.0614C159.081 76.0614 176.33 65.8515 180.322 54.821C185.706 39.9462 180.318 27.5441 169.838 15.694C158.222 2.55951 127.356 1.16113 127.356 1.16113C127.356 1.16113 140.019 9.62844 144.125 17.9298C148.039 25.844 151.608 32.4838 147.479 40.2881C142.891 48.9602 124.002 49.2314 124.002 49.2314H109.469M147.479 83.8868L169.838 90.5942L219.028 481.864L213.438 494.161L201.14 481.864L140.771 123.014C140.771 123.014 134.7 113.43 128.474 110.717C121.67 107.751 109.469 108.481 109.469 108.481" stroke="black" stroke-width="2"/>
<rect x="191.627" y="190.161" width="10.8412" height="50.8081" rx="5.4206" transform="rotate(77.4771 191.627 190.161)" fill="black"/>
<rect width="10.8412" height="50.8081" rx="5.4206" transform="matrix(-0.21683 0.976209 0.976209 0.21683 27.3782 190.161)" fill="black"/>
</svg>
