<svg width="676" height="263" viewBox="0 0 676 263" fill="none" xmlns="http://www.w3.org/2000/svg">
<rect x="674.328" y="87.1923" width="673" height="89" transform="rotate(165 674.328 87.1923)" fill="white" stroke="black" stroke-width="2"/>
<rect x="666.626" y="83.5625" width="661" height="78" transform="rotate(165 666.626 83.5625)" stroke="black"/>
<path d="M650.076 87.4785L643.605 63.3304" stroke="black"/>
<path d="M634.138 91.75L627.667 67.6019" stroke="black"/>
<path d="M618.2 96.0205L611.729 71.8724" stroke="black"/>
<path d="M602.262 100.291L595.792 76.1429" stroke="black"/>
<path d="M586.324 104.562L575.195 63.0267" stroke="black" stroke-width="2"/>
<path d="M426.464 147.396L415.335 105.861" stroke="black" stroke-width="2"/>
<path d="M267.086 190.101L255.957 148.566" stroke="black" stroke-width="2"/>
<path d="M107.708 232.806L96.579 191.271" stroke="black" stroke-width="2"/>
<path d="M570.387 108.832L563.916 84.6839" stroke="black"/>
<path d="M554.449 113.103L547.978 88.9544" stroke="black"/>
<path d="M538.511 117.373L532.041 93.2249" stroke="black"/>
<path d="M522.573 121.644L516.103 97.4954" stroke="black"/>
<path d="M506.635 125.914L495.506 84.3793" stroke="black" stroke-width="2"/>
<path d="M346.775 168.748L335.646 127.213" stroke="black" stroke-width="2"/>
<path d="M187.397 211.453L176.268 169.918" stroke="black" stroke-width="2"/>
<path d="M490.698 130.185L484.227 106.036" stroke="black"/>
<path d="M474.76 134.455L468.29 110.307" stroke="black"/>
<path d="M458.822 138.726L452.352 114.577" stroke="black"/>
<path d="M442.885 142.996L436.414 118.848" stroke="black"/>
<path d="M426.947 147.267L420.476 123.118" stroke="black"/>
<path d="M411.009 151.537L404.539 127.389" stroke="black"/>
<path d="M395.071 155.808L388.601 131.659" stroke="black"/>
<path d="M379.133 160.078L372.663 135.93" stroke="black"/>
<path d="M363.196 164.349L356.725 140.2" stroke="black"/>
<path d="M347.258 168.619L340.787 144.471" stroke="black"/>
<path d="M331.32 172.89L324.85 148.742" stroke="black"/>
<path d="M315.382 177.16L308.912 153.012" stroke="black"/>
<path d="M299.445 181.431L292.974 157.283" stroke="black"/>
<path d="M283.507 185.701L277.036 161.553" stroke="black"/>
<path d="M267.569 189.972L261.098 165.824" stroke="black"/>
<path d="M251.631 194.242L245.161 170.094" stroke="black"/>
<path d="M235.693 198.513L229.223 174.365" stroke="black"/>
<path d="M219.756 202.783L213.285 178.635" stroke="black"/>
<path d="M203.818 207.054L197.347 182.906" stroke="black"/>
<path d="M187.88 211.324L181.41 187.176" stroke="black"/>
<path d="M171.942 215.595L165.472 191.447" stroke="black"/>
<path d="M156.005 219.865L149.534 195.717" stroke="black"/>
<path d="M140.067 224.136L133.596 199.988" stroke="black"/>
<path d="M124.129 228.406L117.658 204.258" stroke="black"/>
<path d="M108.191 232.677L101.721 208.529" stroke="black"/>
<path d="M92.2534 236.947L85.7829 212.799" stroke="black"/>
<path d="M76.3157 241.218L69.8452 217.07" stroke="black"/>
<path d="M60.3779 245.488L53.9075 221.34" stroke="black"/>
<path d="M44.4402 249.759L37.9697 225.611" stroke="black"/>
<circle cx="633.798" cy="24.7982" r="7.5" transform="rotate(165 633.798 24.7982)" fill="black" stroke="black"/>
</svg>
