<svg width="436" height="73" viewBox="0 0 436 73" fill="none" xmlns="http://www.w3.org/2000/svg">
<path d="M248.453 13.569L324.773 13.569C327.268 13.569 329.734 13.2213 332.133 12.5361L368.903 2.03293C373.237 0.794891 377.813 0.667582 382.21 1.66274L418.44 9.86381C428.013 12.0306 434.809 20.5353 434.809 30.3478L434.809 42.6522C434.809 55.1948 426.122 61.3974 413.886 64.1671L382.21 71.3373C377.813 72.3324 373.237 72.2051 368.903 70.9671L332.133 60.4639C329.734 59.7787 327.268 59.431 324.773 59.431L246.806 59.431C244.632 59.431 242.498 58.8401 240.633 57.7216L237.889 56.0752L237.889 47.0463L15.2349 47.0462L1.80856 38.1779L15.2349 29.2292L237.889 29.2292L237.889 19.1619L239.968 17.0827C242.219 14.8329 245.271 13.569 248.453 13.569Z" fill="white"/>
<path d="M237.889 29.2292L237.889 19.1619L239.968 17.0827C242.219 14.8329 245.271 13.569 248.453 13.569L324.773 13.569C327.268 13.569 329.734 13.2213 332.133 12.5361L368.903 2.03293C373.237 0.794891 377.813 0.667582 382.21 1.66274L418.44 9.86381C428.013 12.0306 434.809 20.5353 434.809 30.3478L434.809 42.6522C434.809 55.1948 426.122 61.3974 413.886 64.1671L382.21 71.3373C377.813 72.3324 373.237 72.2051 368.903 70.9671L332.133 60.4639C329.734 59.7787 327.268 59.431 324.773 59.431L246.806 59.431C244.632 59.431 242.498 58.8401 240.633 57.7216L237.889 56.0752L237.889 47.0463M237.889 29.2292L15.2349 29.2292L1.80857 38.1779L15.2349 47.0462L237.889 47.0463M237.889 29.2292L237.889 47.0463" stroke="black" stroke-width="2"/>
<path d="M327.059 22L327.059 51.5" stroke="black"/>
<rect x="275.809" y="7" width="14" height="57" rx="7" fill="black"/>
</svg>
