<svg width="166" height="150" viewBox="0 0 166 150" fill="none" xmlns="http://www.w3.org/2000/svg">
<path d="M14.074 122.773V149H165V114.428H155.493C155.493 114.428 161.547 94.0177 160.246 81.0475C158.229 60.9359 154.203 47.3744 142.421 30.9772C127.973 10.8718 111.231 2.60133 86.566 1.1735C64.0005 -0.132765 49.4093 5.90889 31.8999 20.2479C11.3195 37.1018 0.849344 54.3967 1.00164 81.0475C1.09924 98.1277 14.074 122.773 14.074 122.773Z" fill="white" stroke="black" stroke-width="2"/>
<path d="M15.5002 74.5C15.5002 88.037 14.7666 94.2343 23 108C26.5652 113.961 36.4651 120.277 36.4651 120.277H120.841C120.841 120.277 129.568 116.292 131.537 114.317C136.29 109.548 143.096 100.106 143.5 85.3892C143.94 69.3417 142.01 57.1566 133 43.8892C121.695 27.2417 108.71 17.6087 88.7544 15.3683C70.8143 13.3541 55.4717 19.7529 41.2187 30.8663C23.8453 44.4127 15.5002 61.5 15.5002 74.5Z" stroke="black"/>
<path d="M14 140H165" stroke="black"/>
</svg>
