<svg width="1041" height="285" viewBox="0 0 1041 285" fill="none" xmlns="http://www.w3.org/2000/svg">
<path d="M13.5938 153C13.5938 147.933 13.5938 142.8 13.5938 137.6C13.5938 132.4 13.5938 127.267 13.5938 122.2C22.7938 109.933 32.1271 97.5333 41.5938 85C51.0604 72.4667 60.3938 60.0667 69.5938 47.8C60.3938 47.8 51.0604 47.8 41.5938 47.8C32.1271 47.8 22.7938 47.8 13.5938 47.8C13.5938 42.7333 13.5938 37.6 13.5938 32.4C13.5938 27.2 13.5938 22.0667 13.5938 17C29.5938 17 45.7271 17 61.9938 17C78.3938 17 94.5938 17 110.594 17C110.594 22.0667 110.594 27.2 110.594 32.4C110.594 37.6 110.594 42.7333 110.594 47.8C101.394 60.0667 92.0604 72.4667 82.5938 85C73.1271 97.5333 63.7938 109.933 54.5938 122.2C63.7938 122.2 73.1271 122.2 82.5938 122.2C92.0604 122.2 101.394 122.2 110.594 122.2C110.594 127.267 110.594 132.4 110.594 137.6C110.594 142.8 110.594 147.933 110.594 153C94.5938 153 78.3938 153 61.9938 153C45.7271 153 29.5938 153 13.5938 153ZM125.586 153C125.586 130.6 125.586 107.933 125.586 85C125.586 62.0667 125.586 39.4 125.586 17C139.053 17 152.653 17 166.386 17C180.119 17 193.719 17 207.186 17C207.186 22.0667 207.186 27.2667 207.186 32.6C207.186 37.9333 207.186 43.1333 207.186 48.2C199.453 48.2 191.653 48.2 183.786 48.2C176.053 48.2 168.319 48.2 160.586 48.2C160.586 51.5333 160.586 54.8667 160.586 58.2C160.586 61.4 160.586 64.6667 160.586 68C167.653 68 174.786 68 181.986 68C189.186 68 196.253 68 203.186 68C203.186 72.9333 203.186 77.9333 203.186 83C203.186 88.0667 203.186 93.1333 203.186 98.2C196.253 98.2 189.186 98.2 181.986 98.2C174.786 98.2 167.653 98.2 160.586 98.2C160.586 102.067 160.586 106 160.586 110C160.586 114 160.586 117.933 160.586 121.8C168.319 121.8 176.053 121.8 183.786 121.8C191.653 121.8 199.453 121.8 207.186 121.8C207.186 126.867 207.186 132.067 207.186 137.4C207.186 142.733 207.186 147.933 207.186 153C193.719 153 180.119 153 166.386 153C152.653 153 139.053 153 125.586 153ZM252.65 153C252.65 144.867 252.65 136.667 252.65 128.4C252.65 120.133 252.65 111.933 252.65 103.8C245.583 89.5333 238.383 75.0667 231.05 60.4C223.717 45.7333 216.517 31.2667 209.45 17C215.583 17 221.783 17 228.05 17C234.317 17 240.517 17 246.65 17C250.517 25.1333 254.45 33.3333 258.45 41.6C262.583 49.7333 266.583 57.8667 270.45 66C274.317 57.8667 278.25 49.7333 282.25 41.6C286.25 33.3333 290.183 25.1333 294.05 17C300.183 17 306.317 17 312.45 17C318.583 17 324.717 17 330.85 17C323.783 31.2667 316.583 45.7333 309.25 60.4C301.917 75.0667 294.717 89.5333 287.65 103.8C287.65 111.933 287.65 120.133 287.65 128.4C287.65 136.667 287.65 144.867 287.65 153C281.917 153 276.117 153 270.25 153C264.383 153 258.517 153 252.65 153ZM335.977 153C335.977 130.6 335.977 107.933 335.977 85C335.977 62.0667 335.977 39.4 335.977 17C341.843 17 347.71 17 353.577 17C359.443 17 365.243 17 370.977 17C370.977 39.4 370.977 62.0667 370.977 85C370.977 107.933 370.977 130.6 370.977 153C365.243 153 359.443 153 353.577 153C347.71 153 341.843 153 335.977 153ZM417.255 85C417.255 74.7333 418.855 65.4 422.055 57C425.388 48.4667 430.055 41.0667 436.055 34.8C442.055 28.5333 449.255 23.6667 457.655 20.2C466.055 16.7333 475.321 14.8667 485.455 14.6C495.721 14.3333 506.655 15.9333 518.255 19.4C518.255 25 518.255 30.6667 518.255 36.4C518.255 42 518.255 47.6 518.255 53.2C510.388 49.4667 502.588 47.3333 494.855 46.8C487.121 46.2667 480.121 47.3333 473.855 50C467.588 52.6667 462.588 56.9333 458.855 62.8C455.121 68.5333 453.255 75.9333 453.255 85C453.255 94.0667 455.121 101.533 458.855 107.4C462.588 113.133 467.588 117.333 473.855 120C480.121 122.667 487.121 123.733 494.855 123.2C502.588 122.667 510.388 120.533 518.255 116.8C518.255 122.4 518.255 128.067 518.255 133.8C518.255 139.4 518.255 145 518.255 150.6C506.655 154.067 495.721 155.667 485.455 155.4C475.321 155.133 466.055 153.267 457.655 149.8C449.255 146.333 442.055 141.467 436.055 135.2C430.055 128.933 425.388 121.6 422.055 113.2C418.855 104.667 417.255 95.2667 417.255 85ZM568.242 153C562.509 153 556.709 153 550.842 153C544.976 153 539.109 153 533.242 153C533.242 130.6 533.242 107.933 533.242 85C533.242 62.0667 533.242 39.4 533.242 17C539.109 17 544.976 17 550.842 17C556.709 17 562.509 17 568.242 17C568.242 25.1333 568.242 33.3333 568.242 41.6C568.242 49.7333 568.242 57.8667 568.242 66C575.309 66 582.442 66 589.642 66C596.842 66 603.909 66 610.842 66C610.842 57.8667 610.842 49.7333 610.842 41.6C610.842 33.3333 610.842 25.1333 610.842 17C616.709 17 622.576 17 628.442 17C634.309 17 640.109 17 645.842 17C645.842 39.4 645.842 62.0667 645.842 85C645.842 107.933 645.842 130.6 645.842 153C640.109 153 634.309 153 628.442 153C622.576 153 616.709 153 610.842 153C610.842 143.933 610.842 134.8 610.842 125.6C610.842 116.267 610.842 107.133 610.842 98.2C603.909 98.2 596.842 98.2 589.642 98.2C582.442 98.2 575.309 98.2 568.242 98.2C568.242 107.133 568.242 116.267 568.242 125.6C568.242 134.8 568.242 143.933 568.242 153ZM663.914 153C663.914 130.6 663.914 107.933 663.914 85C663.914 62.0667 663.914 39.4 663.914 17C677.381 17 690.981 17 704.714 17C718.447 17 732.047 17 745.514 17C745.514 22.0667 745.514 27.2667 745.514 32.6C745.514 37.9333 745.514 43.1333 745.514 48.2C737.781 48.2 729.981 48.2 722.114 48.2C714.381 48.2 706.647 48.2 698.914 48.2C698.914 51.5333 698.914 54.8667 698.914 58.2C698.914 61.4 698.914 64.6667 698.914 68C705.981 68 713.114 68 720.314 68C727.514 68 734.581 68 741.514 68C741.514 72.9333 741.514 77.9333 741.514 83C741.514 88.0667 741.514 93.1333 741.514 98.2C734.581 98.2 727.514 98.2 720.314 98.2C713.114 98.2 705.981 98.2 698.914 98.2C698.914 102.067 698.914 106 698.914 110C698.914 114 698.914 117.933 698.914 121.8C706.647 121.8 714.381 121.8 722.114 121.8C729.981 121.8 737.781 121.8 745.514 121.8C745.514 126.867 745.514 132.067 745.514 137.4C745.514 142.733 745.514 147.933 745.514 153C732.047 153 718.447 153 704.714 153C690.981 153 677.381 153 663.914 153ZM761.578 153C761.578 130.6 761.578 107.933 761.578 85C761.578 62.0667 761.578 39.4 761.578 17C767.445 17 773.311 17 779.178 17C785.178 17 791.045 17 796.778 17C803.845 29.6667 810.978 42.4667 818.178 55.4C825.511 68.3333 832.711 81.1333 839.778 93.8C839.778 81.1333 839.778 68.3333 839.778 55.4C839.778 42.4667 839.778 29.6667 839.778 17C845.511 17 851.245 17 856.978 17C862.711 17 868.445 17 874.178 17C874.178 39.4 874.178 62.0667 874.178 85C874.178 107.933 874.178 130.6 874.178 153C868.445 153 862.578 153 856.578 153C850.711 153 844.845 153 838.978 153C831.911 140.333 824.711 127.533 817.378 114.6C810.178 101.667 803.045 88.8667 795.978 76.2C795.978 88.8667 795.978 101.667 795.978 114.6C795.978 127.533 795.978 140.333 795.978 153C790.245 153 784.511 153 778.778 153C773.045 153 767.311 153 761.578 153ZM1002.05 145.8C988.183 151.4 975.25 154.6 963.25 155.4C951.383 156.333 940.65 155.267 931.05 152.2C921.45 149 913.25 144.2 906.45 137.8C899.65 131.4 894.45 123.8 890.85 115C887.25 106.2 885.45 96.6 885.45 86.2C885.45 75.9333 887.117 66.4667 890.45 57.8C893.783 49 898.65 41.4 905.05 35C911.583 28.6 919.45 23.6 928.65 20C937.85 16.4 948.317 14.6667 960.05 14.8C971.783 14.8 984.65 16.9333 998.65 21.2C998.65 26.8 998.65 32.4667 998.65 38.2C998.65 43.8 998.65 49.4 998.65 55C987.583 50.6 977.317 48.0667 967.85 47.4C958.517 46.7333 950.317 47.7333 943.25 50.4C936.317 53.0667 930.85 57.3333 926.85 63.2C922.983 68.9333 921.05 76.1333 921.05 84.8C921.05 92.4 922.45 99.1333 925.25 105C928.183 110.867 932.25 115.467 937.45 118.8C942.65 122.133 948.583 123.8 955.25 123.8C957.517 123.8 959.783 123.733 962.05 123.6C964.317 123.333 966.517 122.933 968.65 122.4C968.65 118.933 968.65 115.4 968.65 111.8C968.65 108.2 968.65 104.667 968.65 101.2C964.917 101.2 961.183 101.2 957.45 101.2C953.717 101.2 949.983 101.2 946.25 101.2C946.25 96.2667 946.25 91.3333 946.25 86.4C946.25 81.3333 946.25 76.3333 946.25 71.4C955.45 71.4 964.717 71.4 974.05 71.4C983.517 71.4 992.85 71.4 1002.05 71.4C1002.05 83.6667 1002.05 96.0667 1002.05 108.6C1002.05 121.133 1002.05 133.533 1002.05 145.8Z" fill="black"/>
<path opacity="0.5" d="M22 195L1040 195" stroke="black" stroke-width="8"/>
<path d="M37.9287 281L23.6105 228.636H30.0537L40.9969 271.284H41.5082L52.656 228.636H59.815L70.9628 271.284H71.4741L82.4173 228.636H88.8605L74.5423 281H67.9969L56.44 239.273H56.031L44.4741 281H37.9287ZM135.602 254.818C135.602 260.341 134.605 265.114 132.61 269.136C130.616 273.159 127.88 276.261 124.403 278.443C120.926 280.625 116.954 281.716 112.488 281.716C108.022 281.716 104.051 280.625 100.574 278.443C97.0963 276.261 94.3605 273.159 92.3662 269.136C90.3718 265.114 89.3747 260.341 89.3747 254.818C89.3747 249.295 90.3718 244.523 92.3662 240.5C94.3605 236.477 97.0963 233.375 100.574 231.193C104.051 229.011 108.022 227.92 112.488 227.92C116.954 227.92 120.926 229.011 124.403 231.193C127.88 233.375 130.616 236.477 132.61 240.5C134.605 244.523 135.602 249.295 135.602 254.818ZM129.466 254.818C129.466 250.284 128.707 246.457 127.19 243.338C125.69 240.219 123.653 237.858 121.079 236.256C118.522 234.653 115.659 233.852 112.488 233.852C109.318 233.852 106.446 234.653 103.872 236.256C101.315 237.858 99.2781 240.219 97.761 243.338C96.261 246.457 95.511 250.284 95.511 254.818C95.511 259.352 96.261 263.179 97.761 266.298C99.2781 269.418 101.315 271.778 103.872 273.381C106.446 274.983 109.318 275.784 112.488 275.784C115.659 275.784 118.522 274.983 121.079 273.381C123.653 271.778 125.69 269.418 127.19 266.298C128.707 263.179 129.466 259.352 129.466 254.818ZM143.384 281V228.636H161.077C165.168 228.636 168.526 229.335 171.151 230.733C173.776 232.114 175.719 234.014 176.98 236.435C178.242 238.855 178.873 241.608 178.873 244.693C178.873 247.778 178.242 250.514 176.98 252.901C175.719 255.287 173.784 257.162 171.176 258.526C168.569 259.872 165.236 260.545 161.179 260.545H146.861V254.818H160.975C163.77 254.818 166.02 254.409 167.725 253.591C169.446 252.773 170.691 251.614 171.458 250.114C172.242 248.597 172.634 246.79 172.634 244.693C172.634 242.597 172.242 240.764 171.458 239.196C170.674 237.628 169.421 236.418 167.699 235.565C165.978 234.696 163.702 234.261 160.873 234.261H149.725V281H143.384ZM168.032 257.477L180.918 281H173.554L160.873 257.477H168.032ZM186.559 281V228.636H192.899V254.614H193.513L217.036 228.636H225.32L203.331 252.261L225.32 281H217.649L199.445 256.659L192.899 264.023V281H186.559ZM257.647 250.523L252.227 252.057C251.886 251.153 251.383 250.276 250.718 249.423C250.071 248.554 249.184 247.838 248.059 247.276C246.934 246.713 245.494 246.432 243.738 246.432C241.335 246.432 239.332 246.986 237.73 248.094C236.144 249.185 235.352 250.574 235.352 252.261C235.352 253.761 235.897 254.946 236.988 255.815C238.079 256.685 239.784 257.409 242.102 257.989L247.931 259.42C251.443 260.273 254.059 261.577 255.781 263.332C257.502 265.071 258.363 267.312 258.363 270.057C258.363 272.307 257.715 274.318 256.42 276.091C255.142 277.864 253.352 279.261 251.051 280.284C248.75 281.307 246.073 281.818 243.022 281.818C239.017 281.818 235.701 280.949 233.076 279.21C230.451 277.472 228.789 274.932 228.09 271.591L233.818 270.159C234.363 272.273 235.394 273.858 236.912 274.915C238.446 275.972 240.448 276.5 242.92 276.5C245.733 276.5 247.965 275.903 249.619 274.71C251.289 273.5 252.125 272.051 252.125 270.364C252.125 269 251.647 267.858 250.693 266.938C249.738 266 248.272 265.301 246.295 264.841L239.75 263.307C236.153 262.455 233.511 261.134 231.823 259.344C230.153 257.537 229.318 255.278 229.318 252.568C229.318 250.352 229.94 248.392 231.184 246.688C232.446 244.983 234.159 243.645 236.323 242.673C238.505 241.702 240.977 241.216 243.738 241.216C247.625 241.216 250.676 242.068 252.892 243.773C255.125 245.477 256.71 247.727 257.647 250.523Z" fill="black"/>
<path opacity="0.5" d="M512.013 228.636V281H507.232V228.636H512.013ZM563.836 228.636V281H559.183L528.245 237.151H527.836V281H523.055V228.636H527.683L558.722 272.537H559.131V228.636H563.836ZM574.878 281V228.636H605.176V232.932H579.659V252.645H602.798V256.94H579.659V281H574.878ZM657.114 254.818C657.114 260.273 656.143 265.02 654.2 269.06C652.256 273.082 649.58 276.202 646.171 278.418C642.779 280.616 638.876 281.716 634.461 281.716C630.046 281.716 626.134 280.616 622.725 278.418C619.333 276.202 616.665 273.082 614.722 269.06C612.796 265.02 611.833 260.273 611.833 254.818C611.833 249.364 612.796 244.625 614.722 240.602C616.665 236.562 619.342 233.443 622.751 231.244C626.16 229.028 630.063 227.92 634.461 227.92C638.876 227.92 642.779 229.028 646.171 231.244C649.58 233.443 652.256 236.562 654.2 240.602C656.143 244.625 657.114 249.364 657.114 254.818ZM652.461 254.818C652.461 250.131 651.677 246.116 650.109 242.776C648.54 239.418 646.401 236.852 643.691 235.08C640.981 233.307 637.904 232.42 634.461 232.42C631.035 232.42 627.967 233.307 625.256 235.08C622.546 236.852 620.398 239.409 618.813 242.75C617.245 246.091 616.461 250.114 616.461 254.818C616.461 259.506 617.245 263.52 618.813 266.861C620.381 270.202 622.521 272.767 625.231 274.557C627.941 276.33 631.018 277.216 634.461 277.216C637.904 277.216 640.981 276.33 643.691 274.557C646.418 272.784 648.566 270.227 650.134 266.886C651.702 263.528 652.478 259.506 652.461 254.818Z" fill="black"/>
<path opacity="0.5" d="M907.032 281V228.636H937.407V232.932H911.814V252.645H935.797V256.94H911.814V276.705H937.919V281H907.032ZM947.721 228.636L962.218 251.366H962.55L977.047 228.636H982.698L965.848 254.818L982.698 281H977.047L962.55 258.526H962.218L947.721 281H942.07L959.175 254.818L942.07 228.636H947.721ZM988.882 281V228.636H1005.78C1009.5 228.636 1012.6 229.352 1015.09 230.784C1017.59 232.199 1019.48 234.125 1020.74 236.562C1022.02 239 1022.66 241.744 1022.66 244.795C1022.66 247.847 1022.03 250.599 1020.77 253.054C1019.5 255.491 1017.63 257.426 1015.14 258.858C1012.65 260.273 1009.56 260.98 1005.86 260.98H992.564V256.685H1005.73C1008.48 256.685 1010.75 256.173 1012.56 255.151C1014.36 254.111 1015.71 252.696 1016.6 250.906C1017.5 249.116 1017.95 247.08 1017.95 244.795C1017.95 242.511 1017.5 240.474 1016.6 238.685C1015.71 236.895 1014.36 235.489 1012.53 234.466C1010.73 233.443 1008.43 232.932 1005.65 232.932H993.663V281H988.882ZM1031.23 281.384C1030.22 281.384 1029.35 281.026 1028.62 280.31C1027.9 279.577 1027.54 278.707 1027.54 277.702C1027.54 276.679 1027.9 275.81 1028.62 275.094C1029.35 274.378 1030.22 274.02 1031.23 274.02C1032.25 274.02 1033.12 274.378 1033.83 275.094C1034.55 275.81 1034.91 276.679 1034.91 277.702C1034.91 278.366 1034.74 278.98 1034.4 279.543C1034.07 280.105 1033.63 280.557 1033.07 280.898C1032.52 281.222 1031.91 281.384 1031.23 281.384Z" fill="black"/>
</svg>
