<svg width="346" height="394" viewBox="0 0 346 394" fill="none" xmlns="http://www.w3.org/2000/svg">
<path d="M43.5048 239.735L245.677 122.011C245.677 122.011 245.166 120.575 244.639 109.999C244.005 97.2844 251.121 86.8321 259.304 81.7249C273.551 72.832 283.156 71.4247 298.437 76.0079C313.455 80.5122 322.53 99.5391 322.53 99.5391C322.53 99.5391 310.744 97.884 298.437 99.5397C288.946 100.817 279.529 108.04 279.529 108.04L293.53 134.539L323.991 128.424C323.991 128.424 322.807 141.974 318.74 149.358C311.493 162.512 301.805 169.075 286.92 170.93C273.868 172.557 260.436 155.639 260.436 155.639L34.6397 306.021C34.6397 306.021 26.9356 309.243 22.0862 303.181C18.411 298.587 16.4074 296.415 13.1956 292.271C9.52943 287.54 3.04004 282.634 15.6203 264.79C28.2006 246.946 43.5048 239.735 43.5048 239.735Z" fill="white" stroke="black" stroke-width="2"/>
<path d="M50.0292 245.539L247.529 127.539C247.529 127.539 249.876 135.416 252.029 140.539C253.89 144.967 257.029 151.039 257.029 151.039L45.5293 290.539C45.5293 290.539 37.0293 297.039 32.5293 297.039C29.4879 297.039 27.083 293.577 24.5293 291.039C21.2843 287.814 18.8007 286.741 18.0294 282.039C17.4255 278.358 18.0598 277.468 19.5293 274.039C24.0293 263.539 50.0292 245.539 50.0292 245.539Z" stroke="black"/>
<rect x="161.029" y="153.039" width="16" height="75" rx="8" fill="black"/>
</svg>
