<svg width="498" height="274" viewBox="0 0 498 274" fill="none" xmlns="http://www.w3.org/2000/svg">
<rect width="498" height="274" rx="25" fill="#1661AB"/>
<path d="M24.5909 232.727L31.0682 251.682H31.3295L37.8068 232.727H41.6023L33.2273 256H29.1705L20.7955 232.727H24.5909ZM43.4103 256V238.545H46.8081V256H43.4103ZM45.1262 235.852C44.5353 235.852 44.0278 235.655 43.6035 235.261C43.1869 234.86 42.9785 234.383 42.9785 233.83C42.9785 233.269 43.1869 232.792 43.6035 232.398C44.0278 231.996 44.5353 231.795 45.1262 231.795C45.7172 231.795 46.2209 231.996 46.6376 232.398C47.0619 232.792 47.274 233.269 47.274 233.83C47.274 234.383 47.0619 234.86 46.6376 235.261C46.2209 235.655 45.7172 235.852 45.1262 235.852ZM57.6218 256.352C55.9021 256.352 54.4211 255.985 53.1786 255.25C51.9438 254.508 50.9892 253.466 50.315 252.125C49.6483 250.777 49.315 249.197 49.315 247.386C49.315 245.598 49.6483 244.023 50.315 242.659C50.9892 241.295 51.9286 240.231 53.1332 239.466C54.3453 238.701 55.762 238.318 57.3832 238.318C58.368 238.318 59.3226 238.481 60.2468 238.807C61.1711 239.133 62.0006 239.644 62.7355 240.341C63.4703 241.038 64.0498 241.943 64.4741 243.057C64.8983 244.163 65.1105 245.508 65.1105 247.091V248.295H51.2355V245.75H61.7809C61.7809 244.856 61.5991 244.064 61.2355 243.375C60.8718 242.678 60.3605 242.129 59.7014 241.727C59.0498 241.326 58.2847 241.125 57.4059 241.125C56.4514 241.125 55.618 241.36 54.9059 241.83C54.2014 242.292 53.6559 242.898 53.2695 243.648C52.8908 244.39 52.7014 245.197 52.7014 246.068V248.057C52.7014 249.223 52.9059 250.216 53.315 251.034C53.7317 251.852 54.3112 252.477 55.0536 252.909C55.7961 253.333 56.6635 253.545 57.6559 253.545C58.2998 253.545 58.887 253.455 59.4173 253.273C59.9476 253.083 60.4059 252.803 60.7923 252.432C61.1786 252.061 61.4741 251.602 61.6786 251.057L64.8945 251.636C64.637 252.583 64.1748 253.413 63.5082 254.125C62.8491 254.83 62.0195 255.379 61.0195 255.773C60.0271 256.159 58.8945 256.352 57.6218 256.352ZM71.3532 256L66.2168 238.545H69.7282L73.1486 251.364H73.3191L76.7509 238.545H80.2623L83.6714 251.307H83.8418L87.2395 238.545H90.7509L85.6259 256H82.16L78.6145 243.398H78.3532L74.8077 256H71.3532ZM100.157 232.727H104.418L111.827 250.818H112.1L119.509 232.727H123.77V256H120.43V239.159H120.214L113.35 255.966H110.577L103.714 239.148H103.498V256H100.157V232.727ZM134.675 256.352C133.039 256.352 131.611 255.977 130.391 255.227C129.171 254.477 128.224 253.428 127.55 252.08C126.876 250.731 126.539 249.155 126.539 247.352C126.539 245.542 126.876 243.958 127.55 242.602C128.224 241.246 129.171 240.193 130.391 239.443C131.611 238.693 133.039 238.318 134.675 238.318C136.311 238.318 137.74 238.693 138.959 239.443C140.179 240.193 141.126 241.246 141.8 242.602C142.474 243.958 142.811 245.542 142.811 247.352C142.811 249.155 142.474 250.731 141.8 252.08C141.126 253.428 140.179 254.477 138.959 255.227C137.74 255.977 136.311 256.352 134.675 256.352ZM134.686 253.5C135.747 253.5 136.626 253.22 137.323 252.659C138.02 252.098 138.535 251.352 138.868 250.42C139.209 249.489 139.38 248.462 139.38 247.341C139.38 246.227 139.209 245.205 138.868 244.273C138.535 243.333 138.02 242.58 137.323 242.011C136.626 241.443 135.747 241.159 134.686 241.159C133.618 241.159 132.732 241.443 132.027 242.011C131.33 242.58 130.811 243.333 130.471 244.273C130.137 245.205 129.971 246.227 129.971 247.341C129.971 248.462 130.137 249.489 130.471 250.42C130.811 251.352 131.33 252.098 132.027 252.659C132.732 253.22 133.618 253.5 134.686 253.5ZM145.324 256V238.545H148.608V241.318H148.79C149.108 240.379 149.669 239.64 150.472 239.102C151.282 238.557 152.199 238.284 153.222 238.284C153.434 238.284 153.684 238.292 153.972 238.307C154.267 238.322 154.498 238.341 154.665 238.364V241.614C154.529 241.576 154.286 241.534 153.938 241.489C153.589 241.436 153.241 241.409 152.892 241.409C152.089 241.409 151.373 241.58 150.745 241.92C150.123 242.254 149.631 242.72 149.267 243.318C148.904 243.909 148.722 244.583 148.722 245.341V256H145.324ZM163.223 256.352C161.503 256.352 160.022 255.985 158.78 255.25C157.545 254.508 156.59 253.466 155.916 252.125C155.25 250.777 154.916 249.197 154.916 247.386C154.916 245.598 155.25 244.023 155.916 242.659C156.59 241.295 157.53 240.231 158.734 239.466C159.947 238.701 161.363 238.318 162.984 238.318C163.969 238.318 164.924 238.481 165.848 238.807C166.772 239.133 167.602 239.644 168.337 240.341C169.072 241.038 169.651 241.943 170.075 243.057C170.5 244.163 170.712 245.508 170.712 247.091V248.295H156.837V245.75H167.382C167.382 244.856 167.2 244.064 166.837 243.375C166.473 242.678 165.962 242.129 165.303 241.727C164.651 241.326 163.886 241.125 163.007 241.125C162.053 241.125 161.219 241.36 160.507 241.83C159.803 242.292 159.257 242.898 158.871 243.648C158.492 244.39 158.303 245.197 158.303 246.068V248.057C158.303 249.223 158.507 250.216 158.916 251.034C159.333 251.852 159.912 252.477 160.655 252.909C161.397 253.333 162.265 253.545 163.257 253.545C163.901 253.545 164.488 253.455 165.019 253.273C165.549 253.083 166.007 252.803 166.394 252.432C166.78 252.061 167.075 251.602 167.28 251.057L170.496 251.636C170.238 252.583 169.776 253.413 169.109 254.125C168.45 254.83 167.621 255.379 166.621 255.773C165.628 256.159 164.496 256.352 163.223 256.352Z" fill="white"/>
<path d="M34.976 13.784C34.976 19.256 34.976 24.792 34.976 30.392C34.976 35.992 34.976 41.528 34.976 47C33.6 47 32.208 47 30.8 47C29.392 47 27.984 47 26.576 47C26.576 43.096 26.576 39.16 26.576 35.192C26.576 31.192 26.576 27.256 26.576 23.384C25.648 23.576 24.704 23.784 23.744 24.008C22.816 24.2 21.888 24.392 20.96 24.584C20.96 23.304 20.96 22.008 20.96 20.696C20.96 19.384 20.96 18.088 20.96 16.808C23.264 16.296 25.6 15.8 27.968 15.32C30.336 14.808 32.672 14.296 34.976 13.784Z" fill="white"/>
<circle cx="468" cy="21" r="9" fill="white"/>
<circle cx="467.5" cy="244.5" r="20.5" fill="white"/>
<path d="M478.207 245.707C478.598 245.317 478.598 244.683 478.207 244.293L471.843 237.929C471.453 237.538 470.819 237.538 470.429 237.929C470.038 238.319 470.038 238.953 470.429 239.343L476.086 245L470.429 250.657C470.038 251.047 470.038 251.681 470.429 252.071C470.819 252.462 471.453 252.462 471.843 252.071L478.207 245.707ZM456 245V246H477.5V245V244H456V245Z" fill="#1661AB"/>
<path d="M20 55H477" stroke="white"/>
<path d="M323.593 105C323.593 99.624 323.593 94.184 323.593 88.68C323.593 83.176 323.593 77.736 323.593 72.36C325.577 72.36 327.561 72.36 329.545 72.36C331.561 72.36 333.545 72.36 335.497 72.36C337.705 72.36 339.641 72.76 341.305 73.56C342.969 74.328 344.265 75.416 345.193 76.824C346.121 78.2 346.585 79.832 346.585 81.72C346.585 83.064 346.329 84.28 345.817 85.368C345.305 86.456 344.537 87.368 343.513 88.104C344.857 88.904 345.881 89.944 346.585 91.224C347.289 92.472 347.641 93.864 347.641 95.4C347.641 97.32 347.145 99 346.153 100.44C345.193 101.88 343.833 103 342.073 103.8C340.345 104.6 338.313 105 335.977 105C333.929 105 331.865 105 329.785 105C327.705 105 325.641 105 323.593 105ZM338.185 82.536C338.185 81.704 337.929 81.032 337.417 80.52C336.905 79.976 336.233 79.704 335.401 79.704C334.825 79.704 334.233 79.704 333.625 79.704C333.049 79.704 332.473 79.704 331.897 79.704C331.897 80.6 331.897 81.528 331.897 82.488C331.897 83.416 331.897 84.344 331.897 85.272C332.473 85.272 333.049 85.272 333.625 85.272C334.233 85.272 334.825 85.272 335.401 85.272C336.233 85.272 336.905 85.032 337.417 84.552C337.929 84.04 338.185 83.368 338.185 82.536ZM339.241 94.632C339.241 93.736 338.937 93.032 338.329 92.52C337.753 91.976 336.953 91.704 335.929 91.704C335.257 91.704 334.585 91.704 333.913 91.704C333.241 91.704 332.569 91.704 331.897 91.704C331.897 92.696 331.897 93.688 331.897 94.68C331.897 95.672 331.897 96.664 331.897 97.656C332.569 97.656 333.241 97.656 333.913 97.656C334.585 97.656 335.257 97.656 335.929 97.656C336.953 97.656 337.753 97.384 338.329 96.84C338.937 96.296 339.241 95.56 339.241 94.632ZM371.147 103.848C368.939 104.776 366.747 105.352 364.571 105.576C362.395 105.8 360.331 105.672 358.379 105.192C356.459 104.744 354.747 103.96 353.243 102.84C351.739 101.72 350.555 100.296 349.691 98.568C348.859 96.84 348.443 94.84 348.443 92.568C348.443 90.68 348.747 88.952 349.355 87.384C349.995 85.784 350.891 84.392 352.043 83.208C353.195 81.992 354.555 81.064 356.123 80.424C357.691 79.752 359.403 79.416 361.259 79.416C362.923 79.416 364.427 79.688 365.771 80.232C367.115 80.776 368.283 81.544 369.275 82.536C370.267 83.496 371.067 84.648 371.675 85.992C372.283 87.336 372.667 88.808 372.827 90.408C372.987 92.008 372.891 93.704 372.539 95.496C369.915 95.496 367.275 95.496 364.619 95.496C361.963 95.496 359.323 95.496 356.699 95.496C357.307 96.712 358.315 97.576 359.723 98.088C361.163 98.6 362.859 98.76 364.811 98.568C366.795 98.376 368.907 97.864 371.147 97.032C371.147 98.152 371.147 99.288 371.147 100.44C371.147 101.592 371.147 102.728 371.147 103.848ZM361.067 86.52C360.139 86.52 359.275 86.776 358.475 87.288C357.707 87.8 357.115 88.584 356.699 89.64C358.139 89.64 359.579 89.64 361.019 89.64C362.491 89.64 363.947 89.64 365.387 89.64C365.003 88.552 364.427 87.768 363.659 87.288C362.923 86.776 362.059 86.52 361.067 86.52ZM376.937 112.68C377.577 110.984 378.233 109.272 378.905 107.544C379.609 105.848 380.281 104.168 380.921 102.504C379.417 98.824 377.881 95.112 376.313 91.368C374.777 87.592 373.257 83.864 371.753 80.184C373.161 80.184 374.569 80.184 375.977 80.184C377.385 80.184 378.777 80.184 380.153 80.184C380.985 82.232 381.817 84.312 382.649 86.424C383.513 88.536 384.361 90.632 385.193 92.712C385.961 90.632 386.745 88.536 387.545 86.424C388.345 84.312 389.129 82.232 389.897 80.184C391.273 80.184 392.649 80.184 394.025 80.184C395.401 80.184 396.777 80.184 398.153 80.184C396.009 85.528 393.849 90.952 391.673 96.456C389.529 101.928 387.385 107.336 385.241 112.68C383.865 112.68 382.473 112.68 381.065 112.68C379.689 112.68 378.313 112.68 376.937 112.68ZM409.926 105.768C408.07 105.768 406.342 105.448 404.742 104.808C403.142 104.136 401.75 103.208 400.566 102.024C399.382 100.808 398.454 99.4 397.782 97.8C397.142 96.2 396.822 94.456 396.822 92.568C396.822 90.68 397.142 88.936 397.782 87.336C398.454 85.736 399.382 84.344 400.566 83.16C401.75 81.976 403.142 81.064 404.742 80.424C406.342 79.752 408.07 79.416 409.926 79.416C411.814 79.416 413.542 79.752 415.11 80.424C416.71 81.064 418.102 81.976 419.286 83.16C420.47 84.344 421.382 85.736 422.022 87.336C422.694 88.936 423.03 90.68 423.03 92.568C423.03 94.456 422.694 96.2 422.022 97.8C421.382 99.4 420.47 100.808 419.286 102.024C418.102 103.208 416.71 104.136 415.11 104.808C413.542 105.448 411.814 105.768 409.926 105.768ZM409.926 98.616C411.494 98.616 412.742 98.056 413.67 96.936C414.63 95.784 415.11 94.328 415.11 92.568C415.11 90.776 414.63 89.336 413.67 88.248C412.742 87.128 411.494 86.568 409.926 86.568C408.358 86.568 407.094 87.128 406.134 88.248C405.206 89.336 404.742 90.776 404.742 92.568C404.742 94.328 405.206 95.784 406.134 96.936C407.094 98.056 408.358 98.616 409.926 98.616ZM425.027 105C425.027 100.904 425.027 96.776 425.027 92.616C425.027 88.424 425.027 84.28 425.027 80.184C426.339 80.184 427.667 80.184 429.011 80.184C430.355 80.184 431.667 80.184 432.947 80.184C432.947 80.408 432.947 80.616 432.947 80.808C432.947 81 432.947 81.208 432.947 81.432C433.811 80.824 434.771 80.36 435.827 80.04C436.915 79.688 438.083 79.512 439.331 79.512C441.155 79.512 442.755 79.928 444.131 80.76C445.539 81.592 446.627 82.792 447.395 84.36C448.195 85.896 448.595 87.752 448.595 89.928C448.595 92.424 448.595 94.936 448.595 97.464C448.595 99.992 448.595 102.504 448.595 105C447.315 105 446.003 105 444.659 105C443.315 105 441.987 105 440.675 105C440.675 102.696 440.675 100.36 440.675 97.992C440.675 95.624 440.675 93.288 440.675 90.984C440.675 89.704 440.371 88.68 439.763 87.912C439.187 87.112 438.259 86.712 436.979 86.712C435.699 86.712 434.707 87.08 434.003 87.816C433.299 88.552 432.947 89.608 432.947 90.984C432.947 93.288 432.947 95.624 432.947 97.992C432.947 100.36 432.947 102.696 432.947 105C431.667 105 430.355 105 429.011 105C427.667 105 426.339 105 425.027 105ZM468.12 105C468.12 104.744 468.12 104.504 468.12 104.28C468.12 104.024 468.12 103.784 468.12 103.56C467.32 104.232 466.408 104.744 465.384 105.096C464.392 105.48 463.32 105.672 462.168 105.672C460.536 105.672 459 105.352 457.56 104.712C456.12 104.072 454.84 103.176 453.72 102.024C452.632 100.84 451.768 99.448 451.128 97.848C450.52 96.248 450.216 94.488 450.216 92.568C450.216 90.616 450.52 88.84 451.128 87.24C451.768 85.64 452.632 84.264 453.72 83.112C454.84 81.96 456.12 81.08 457.56 80.472C459 79.832 460.52 79.512 462.12 79.512C463.272 79.512 464.36 79.704 465.384 80.088C466.408 80.44 467.32 80.936 468.12 81.576C468.12 79.656 468.12 77.72 468.12 75.768C468.12 73.816 468.12 71.88 468.12 69.96C469.432 69.96 470.76 69.96 472.104 69.96C473.448 69.96 474.76 69.96 476.04 69.96C476.04 75.752 476.04 81.592 476.04 87.48C476.04 93.368 476.04 99.208 476.04 105C474.76 105 473.448 105 472.104 105C470.76 105 469.432 105 468.12 105ZM463.224 98.664C464.76 98.664 465.992 98.104 466.92 96.984C467.848 95.864 468.312 94.392 468.312 92.568C468.312 90.744 467.848 89.288 466.92 88.2C465.992 87.08 464.76 86.52 463.224 86.52C461.656 86.52 460.408 87.064 459.48 88.152C458.584 89.24 458.136 90.712 458.136 92.568C458.136 94.424 458.584 95.912 459.48 97.032C460.408 98.12 461.656 98.664 463.224 98.664ZM305.761 120.36C306.945 124.008 308.113 127.688 309.265 131.4C310.449 135.112 311.633 138.792 312.817 142.44C314.001 138.792 315.185 135.112 316.369 131.4C317.553 127.688 318.737 124.008 319.921 120.36C321.298 120.36 322.689 120.36 324.097 120.36C325.505 120.36 326.898 120.36 328.273 120.36C326.546 125.736 324.786 131.176 322.993 136.68C321.233 142.184 319.49 147.624 317.762 153C316.097 153 314.417 153 312.721 153C311.057 153 309.393 153 307.729 153C306.001 147.624 304.241 142.184 302.449 136.68C300.689 131.176 298.945 125.736 297.217 120.36C298.625 120.36 300.049 120.36 301.489 120.36C302.929 120.36 304.353 120.36 305.761 120.36ZM333.24 125.352C332.312 125.352 331.464 125.128 330.696 124.68C329.96 124.232 329.368 123.64 328.92 122.904C328.472 122.168 328.248 121.352 328.248 120.456C328.248 119.56 328.472 118.76 328.92 118.056C329.368 117.32 329.96 116.728 330.696 116.28C331.464 115.832 332.312 115.608 333.24 115.608C334.136 115.608 334.952 115.832 335.688 116.28C336.456 116.728 337.064 117.32 337.512 118.056C337.96 118.76 338.184 119.56 338.184 120.456C338.184 121.352 337.96 122.168 337.512 122.904C337.064 123.64 336.456 124.232 335.688 124.68C334.952 125.128 334.136 125.352 333.24 125.352ZM329.256 153C329.256 148.904 329.256 144.776 329.256 140.616C329.256 136.424 329.256 132.28 329.256 128.184C330.568 128.184 331.896 128.184 333.24 128.184C334.584 128.184 335.896 128.184 337.176 128.184C337.176 132.28 337.176 136.424 337.176 140.616C337.176 144.776 337.176 148.904 337.176 153C335.896 153 334.584 153 333.24 153C331.896 153 330.568 153 329.256 153ZM359.743 145.32C359.743 147.304 359.183 148.936 358.063 150.216C356.975 151.464 355.503 152.376 353.647 152.952C351.791 153.528 349.711 153.768 347.407 153.672C345.135 153.608 342.815 153.24 340.447 152.568C340.447 151.352 340.447 150.104 340.447 148.824C340.447 147.544 340.447 146.296 340.447 145.08C341.791 145.688 343.135 146.168 344.479 146.52C345.823 146.84 347.039 147.032 348.127 147.096C349.215 147.16 350.095 147.08 350.767 146.856C351.439 146.6 351.775 146.184 351.775 145.608C351.775 145.16 351.487 144.808 350.911 144.552C350.367 144.296 349.647 144.072 348.751 143.88C347.855 143.656 346.895 143.4 345.871 143.112C344.879 142.792 343.935 142.36 343.039 141.816C342.143 141.24 341.407 140.488 340.831 139.56C340.287 138.6 340.015 137.368 340.015 135.864C340.015 134.072 340.527 132.552 341.551 131.304C342.607 130.024 344.015 129.064 345.775 128.424C347.535 127.752 349.503 127.416 351.679 127.416C353.855 127.416 356.079 127.784 358.351 128.52C358.351 129.736 358.351 130.984 358.351 132.264C358.351 133.544 358.351 134.792 358.351 136.008C356.559 135.144 354.879 134.568 353.311 134.28C351.743 133.992 350.479 133.96 349.519 134.184C348.559 134.376 348.079 134.808 348.079 135.48C348.079 135.928 348.351 136.28 348.895 136.536C349.471 136.76 350.191 136.968 351.055 137.16C351.951 137.352 352.895 137.608 353.887 137.928C354.911 138.248 355.855 138.696 356.719 139.272C357.615 139.816 358.335 140.584 358.879 141.576C359.455 142.536 359.743 143.784 359.743 145.32ZM365.868 125.352C364.94 125.352 364.092 125.128 363.324 124.68C362.588 124.232 361.996 123.64 361.548 122.904C361.1 122.168 360.876 121.352 360.876 120.456C360.876 119.56 361.1 118.76 361.548 118.056C361.996 117.32 362.588 116.728 363.324 116.28C364.092 115.832 364.94 115.608 365.868 115.608C366.764 115.608 367.58 115.832 368.316 116.28C369.084 116.728 369.692 117.32 370.14 118.056C370.588 118.76 370.812 119.56 370.812 120.456C370.812 121.352 370.588 122.168 370.14 122.904C369.692 123.64 369.084 124.232 368.316 124.68C367.58 125.128 366.764 125.352 365.868 125.352ZM361.884 153C361.884 148.904 361.884 144.776 361.884 140.616C361.884 136.424 361.884 132.28 361.884 128.184C363.196 128.184 364.524 128.184 365.868 128.184C367.212 128.184 368.524 128.184 369.804 128.184C369.804 132.28 369.804 136.424 369.804 140.616C369.804 144.776 369.804 148.904 369.804 153C368.524 153 367.212 153 365.868 153C364.524 153 363.196 153 361.884 153ZM381.572 153C380.292 153 378.98 153 377.636 153C376.292 153 374.964 153 373.652 153C373.652 147.208 373.652 141.368 373.652 135.48C373.652 129.592 373.652 123.752 373.652 117.96C374.964 117.96 376.292 117.96 377.636 117.96C378.98 117.96 380.292 117.96 381.572 117.96C381.572 119.88 381.572 121.816 381.572 123.768C381.572 125.72 381.572 127.656 381.572 129.576C382.372 128.936 383.284 128.44 384.308 128.088C385.332 127.704 386.42 127.512 387.572 127.512C389.172 127.512 390.692 127.832 392.132 128.472C393.572 129.08 394.836 129.96 395.924 131.112C397.044 132.264 397.908 133.64 398.516 135.24C399.156 136.84 399.476 138.616 399.476 140.568C399.476 142.488 399.156 144.248 398.516 145.848C397.908 147.448 397.044 148.84 395.924 150.024C394.836 151.176 393.572 152.072 392.132 152.712C390.692 153.352 389.156 153.672 387.524 153.672C386.372 153.672 385.284 153.48 384.26 153.096C383.268 152.744 382.372 152.232 381.572 151.56C381.572 151.784 381.572 152.024 381.572 152.28C381.572 152.504 381.572 152.744 381.572 153ZM386.468 146.664C388.036 146.664 389.268 146.12 390.164 145.032C391.092 143.912 391.556 142.424 391.556 140.568C391.556 138.712 391.092 137.24 390.164 136.152C389.268 135.064 388.036 134.52 386.468 134.52C384.932 134.52 383.7 135.08 382.772 136.2C381.844 137.288 381.38 138.744 381.38 140.568C381.38 142.392 381.844 143.864 382.772 144.984C383.7 146.104 384.932 146.664 386.468 146.664ZM405.716 125.352C404.788 125.352 403.94 125.128 403.172 124.68C402.436 124.232 401.844 123.64 401.396 122.904C400.948 122.168 400.724 121.352 400.724 120.456C400.724 119.56 400.948 118.76 401.396 118.056C401.844 117.32 402.436 116.728 403.172 116.28C403.94 115.832 404.788 115.608 405.716 115.608C406.612 115.608 407.428 115.832 408.164 116.28C408.932 116.728 409.54 117.32 409.988 118.056C410.436 118.76 410.66 119.56 410.66 120.456C410.66 121.352 410.436 122.168 409.988 122.904C409.54 123.64 408.932 124.232 408.164 124.68C407.428 125.128 406.612 125.352 405.716 125.352ZM401.732 153C401.732 148.904 401.732 144.776 401.732 140.616C401.732 136.424 401.732 132.28 401.732 128.184C403.044 128.184 404.372 128.184 405.716 128.184C407.06 128.184 408.372 128.184 409.652 128.184C409.652 132.28 409.652 136.424 409.652 140.616C409.652 144.776 409.652 148.904 409.652 153C408.372 153 407.06 153 405.716 153C404.372 153 403.044 153 401.732 153ZM413.499 153C413.499 147.208 413.499 141.368 413.499 135.48C413.499 129.592 413.499 123.752 413.499 117.96C414.811 117.96 416.139 117.96 417.483 117.96C418.827 117.96 420.139 117.96 421.419 117.96C421.419 123.752 421.419 129.592 421.419 135.48C421.419 141.368 421.419 147.208 421.419 153C420.139 153 418.827 153 417.483 153C416.139 153 414.811 153 413.499 153ZM429.251 125.352C428.323 125.352 427.475 125.128 426.707 124.68C425.971 124.232 425.379 123.64 424.931 122.904C424.483 122.168 424.259 121.352 424.259 120.456C424.259 119.56 424.483 118.76 424.931 118.056C425.379 117.32 425.971 116.728 426.707 116.28C427.475 115.832 428.323 115.608 429.251 115.608C430.147 115.608 430.963 115.832 431.699 116.28C432.467 116.728 433.075 117.32 433.523 118.056C433.971 118.76 434.195 119.56 434.195 120.456C434.195 121.352 433.971 122.168 433.523 122.904C433.075 123.64 432.467 124.232 431.699 124.68C430.963 125.128 430.147 125.352 429.251 125.352ZM425.267 153C425.267 148.904 425.267 144.776 425.267 140.616C425.267 136.424 425.267 132.28 425.267 128.184C426.579 128.184 427.907 128.184 429.251 128.184C430.595 128.184 431.907 128.184 433.187 128.184C433.187 132.28 433.187 136.424 433.187 140.616C433.187 144.776 433.187 148.904 433.187 153C431.907 153 430.595 153 429.251 153C427.907 153 426.579 153 425.267 153ZM439.386 153C439.386 150.056 439.386 147.096 439.386 144.12C439.386 141.144 439.386 138.2 439.386 135.288C438.746 135.288 438.09 135.288 437.418 135.288C436.778 135.288 436.138 135.288 435.498 135.288C435.498 134.104 435.498 132.92 435.498 131.736C435.498 130.552 435.498 129.368 435.498 128.184C436.138 128.184 436.778 128.184 437.418 128.184C438.09 128.184 438.746 128.184 439.386 128.184C439.386 127.064 439.386 125.96 439.386 124.872C439.386 123.752 439.386 122.648 439.386 121.56C440.698 121.56 442.026 121.56 443.37 121.56C444.714 121.56 446.026 121.56 447.306 121.56C447.306 122.648 447.306 123.752 447.306 124.872C447.306 125.96 447.306 127.064 447.306 128.184C448.042 128.184 448.794 128.184 449.562 128.184C450.33 128.184 451.082 128.184 451.818 128.184C451.818 129.368 451.818 130.552 451.818 131.736C451.818 132.92 451.818 134.104 451.818 135.288C451.082 135.288 450.33 135.288 449.562 135.288C448.794 135.288 448.042 135.288 447.306 135.288C447.306 138.2 447.306 141.144 447.306 144.12C447.306 147.096 447.306 150.056 447.306 153C446.026 153 444.714 153 443.37 153C442.026 153 440.698 153 439.386 153ZM456.022 160.68C456.662 158.984 457.318 157.272 457.99 155.544C458.694 153.848 459.366 152.168 460.006 150.504C458.502 146.824 456.966 143.112 455.398 139.368C453.862 135.592 452.342 131.864 450.838 128.184C452.246 128.184 453.654 128.184 455.062 128.184C456.47 128.184 457.862 128.184 459.238 128.184C460.07 130.232 460.902 132.312 461.734 134.424C462.598 136.536 463.446 138.632 464.278 140.712C465.046 138.632 465.83 136.536 466.63 134.424C467.43 132.312 468.214 130.232 468.982 128.184C470.358 128.184 471.734 128.184 473.11 128.184C474.486 128.184 475.862 128.184 477.238 128.184C475.094 133.528 472.934 138.952 470.758 144.456C468.614 149.928 466.47 155.336 464.326 160.68C462.95 160.68 461.558 160.68 460.15 160.68C458.774 160.68 457.398 160.68 456.022 160.68Z" fill="white"/>
<g clip-path="url(#clip0_204_125)">
<path d="M71.6217 112.069L107.203 91.7822" stroke="white" stroke-linecap="round" stroke-linejoin="round"/>
<path d="M129.072 125.025L93.4908 145.309" stroke="white" stroke-linecap="round" stroke-linejoin="round"/>
<path d="M107.203 91.7822L129.072 125.026" stroke="white" stroke-linecap="round" stroke-linejoin="round"/>
<path d="M129.072 125.025L164.656 104.742" stroke="white" stroke-linecap="round" stroke-linejoin="round"/>
<path d="M163.138 105.955L164.656 104.742" stroke="white" stroke-linecap="round" stroke-linejoin="round"/>
<path d="M142.787 71.499L107.203 91.7822" stroke="white" stroke-linecap="round" stroke-linejoin="round"/>
<path d="M164.656 104.743L142.787 71.499" stroke="white" stroke-linecap="round" stroke-linejoin="round"/>
<path d="M142.238 75.6201L160.462 103.323L129.624 120.903L111.397 93.2009L142.238 75.6201Z" fill="white" stroke="white" stroke-width="0.5" stroke-linecap="round" stroke-linejoin="round"/>
<path d="M187.495 123.889V173.932" stroke="white" stroke-linecap="round" stroke-linejoin="round"/>
<path d="M187.495 123.888L182.115 116.771L163.138 105.955" stroke="white" stroke-linecap="round" stroke-linejoin="round"/>
<path d="M116.333 214.501L110.95 211.43L63.505 184.385V130.294L70.1034 126.534" stroke="white" stroke-linecap="round" stroke-linejoin="round"/>
<path d="M187.495 173.932L116.333 214.501" stroke="white" stroke-linecap="round" stroke-linejoin="round"/>
<path d="M110.95 157.341L182.115 116.771" stroke="white" stroke-linecap="round" stroke-linejoin="round"/>
<path d="M110.95 157.342L116.333 164.458V214.501L63.505 184.313V130.294L110.95 157.342Z" stroke="white" stroke-linecap="round" stroke-linejoin="round"/>
<path d="M116.333 164.458L187.495 123.889" stroke="white" stroke-width="0.5" stroke-linecap="round" stroke-linejoin="round"/>
<path d="M75.8164 113.485L94.0395 141.187L124.877 123.61L106.654 95.9072L75.8164 113.485Z" fill="white" stroke="white" stroke-width="0.5" stroke-linecap="round" stroke-linejoin="round"/>
<path d="M142.787 71.499L164.656 104.743L163.138 105.956L182.115 116.772L187.495 123.889V173.932L116.333 214.502L63.505 184.386V130.294L70.1034 126.535V113.279L71.6218 112.069L142.787 71.499Z" stroke="white" stroke-width="2" stroke-linecap="round" stroke-linejoin="round"/>
<path d="M175.618 117.629C175.618 117.629 123.267 147.692 111.939 154.032C106.778 151.166 102.949 149.503 97.7877 146.637L163.236 110.483L175.618 117.629Z" fill="white" stroke="white" stroke-width="0.5" stroke-linecap="round" stroke-linejoin="round"/>
</g>
<defs>
<clipPath id="clip0_204_125">
<rect width="125" height="144" fill="white" transform="translate(63 71)"/>
</clipPath>
</defs>
</svg>
