<svg width="498" height="274" viewBox="0 0 498 274" fill="none" xmlns="http://www.w3.org/2000/svg">
<rect width="498" height="274" rx="25" fill="#6EC13E"/>
<path d="M24.5909 232.727L31.0682 251.682H31.3295L37.8068 232.727H41.6023L33.2273 256H29.1705L20.7955 232.727H24.5909ZM43.4103 256V238.545H46.8081V256H43.4103ZM45.1262 235.852C44.5353 235.852 44.0278 235.655 43.6035 235.261C43.1869 234.86 42.9785 234.383 42.9785 233.83C42.9785 233.269 43.1869 232.792 43.6035 232.398C44.0278 231.996 44.5353 231.795 45.1262 231.795C45.7172 231.795 46.2209 231.996 46.6376 232.398C47.0619 232.792 47.274 233.269 47.274 233.83C47.274 234.383 47.0619 234.86 46.6376 235.261C46.2209 235.655 45.7172 235.852 45.1262 235.852ZM57.6218 256.352C55.9021 256.352 54.4211 255.985 53.1786 255.25C51.9438 254.508 50.9892 253.466 50.315 252.125C49.6483 250.777 49.315 249.197 49.315 247.386C49.315 245.598 49.6483 244.023 50.315 242.659C50.9892 241.295 51.9286 240.231 53.1332 239.466C54.3453 238.701 55.762 238.318 57.3832 238.318C58.368 238.318 59.3226 238.481 60.2468 238.807C61.1711 239.133 62.0006 239.644 62.7355 240.341C63.4703 241.038 64.0498 241.943 64.4741 243.057C64.8983 244.163 65.1105 245.508 65.1105 247.091V248.295H51.2355V245.75H61.7809C61.7809 244.856 61.5991 244.064 61.2355 243.375C60.8718 242.678 60.3605 242.129 59.7014 241.727C59.0498 241.326 58.2847 241.125 57.4059 241.125C56.4514 241.125 55.618 241.36 54.9059 241.83C54.2014 242.292 53.6559 242.898 53.2695 243.648C52.8908 244.39 52.7014 245.197 52.7014 246.068V248.057C52.7014 249.223 52.9059 250.216 53.315 251.034C53.7317 251.852 54.3112 252.477 55.0536 252.909C55.7961 253.333 56.6635 253.545 57.6559 253.545C58.2998 253.545 58.887 253.455 59.4173 253.273C59.9476 253.083 60.4059 252.803 60.7923 252.432C61.1786 252.061 61.4741 251.602 61.6786 251.057L64.8945 251.636C64.637 252.583 64.1748 253.413 63.5082 254.125C62.8491 254.83 62.0195 255.379 61.0195 255.773C60.0271 256.159 58.8945 256.352 57.6218 256.352ZM71.3532 256L66.2168 238.545H69.7282L73.1486 251.364H73.3191L76.7509 238.545H80.2623L83.6714 251.307H83.8418L87.2395 238.545H90.7509L85.6259 256H82.16L78.6145 243.398H78.3532L74.8077 256H71.3532ZM100.157 232.727H104.418L111.827 250.818H112.1L119.509 232.727H123.77V256H120.43V239.159H120.214L113.35 255.966H110.577L103.714 239.148H103.498V256H100.157V232.727ZM134.675 256.352C133.039 256.352 131.611 255.977 130.391 255.227C129.171 254.477 128.224 253.428 127.55 252.08C126.876 250.731 126.539 249.155 126.539 247.352C126.539 245.542 126.876 243.958 127.55 242.602C128.224 241.246 129.171 240.193 130.391 239.443C131.611 238.693 133.039 238.318 134.675 238.318C136.311 238.318 137.74 238.693 138.959 239.443C140.179 240.193 141.126 241.246 141.8 242.602C142.474 243.958 142.811 245.542 142.811 247.352C142.811 249.155 142.474 250.731 141.8 252.08C141.126 253.428 140.179 254.477 138.959 255.227C137.74 255.977 136.311 256.352 134.675 256.352ZM134.686 253.5C135.747 253.5 136.626 253.22 137.323 252.659C138.02 252.098 138.535 251.352 138.868 250.42C139.209 249.489 139.38 248.462 139.38 247.341C139.38 246.227 139.209 245.205 138.868 244.273C138.535 243.333 138.02 242.58 137.323 242.011C136.626 241.443 135.747 241.159 134.686 241.159C133.618 241.159 132.732 241.443 132.027 242.011C131.33 242.58 130.811 243.333 130.471 244.273C130.137 245.205 129.971 246.227 129.971 247.341C129.971 248.462 130.137 249.489 130.471 250.42C130.811 251.352 131.33 252.098 132.027 252.659C132.732 253.22 133.618 253.5 134.686 253.5ZM145.324 256V238.545H148.608V241.318H148.79C149.108 240.379 149.669 239.64 150.472 239.102C151.282 238.557 152.199 238.284 153.222 238.284C153.434 238.284 153.684 238.292 153.972 238.307C154.267 238.322 154.498 238.341 154.665 238.364V241.614C154.529 241.576 154.286 241.534 153.938 241.489C153.589 241.436 153.241 241.409 152.892 241.409C152.089 241.409 151.373 241.58 150.745 241.92C150.123 242.254 149.631 242.72 149.267 243.318C148.904 243.909 148.722 244.583 148.722 245.341V256H145.324ZM163.223 256.352C161.503 256.352 160.022 255.985 158.78 255.25C157.545 254.508 156.59 253.466 155.916 252.125C155.25 250.777 154.916 249.197 154.916 247.386C154.916 245.598 155.25 244.023 155.916 242.659C156.59 241.295 157.53 240.231 158.734 239.466C159.947 238.701 161.363 238.318 162.984 238.318C163.969 238.318 164.924 238.481 165.848 238.807C166.772 239.133 167.602 239.644 168.337 240.341C169.072 241.038 169.651 241.943 170.075 243.057C170.5 244.163 170.712 245.508 170.712 247.091V248.295H156.837V245.75H167.382C167.382 244.856 167.2 244.064 166.837 243.375C166.473 242.678 165.962 242.129 165.303 241.727C164.651 241.326 163.886 241.125 163.007 241.125C162.053 241.125 161.219 241.36 160.507 241.83C159.803 242.292 159.257 242.898 158.871 243.648C158.492 244.39 158.303 245.197 158.303 246.068V248.057C158.303 249.223 158.507 250.216 158.916 251.034C159.333 251.852 159.912 252.477 160.655 252.909C161.397 253.333 162.265 253.545 163.257 253.545C163.901 253.545 164.488 253.455 165.019 253.273C165.549 253.083 166.007 252.803 166.394 252.432C166.78 252.061 167.075 251.602 167.28 251.057L170.496 251.636C170.238 252.583 169.776 253.413 169.109 254.125C168.45 254.83 167.621 255.379 166.621 255.773C165.628 256.159 164.496 256.352 163.223 256.352Z" fill="white"/>
<path d="M24.32 28.424C25.664 27.368 27.008 26.296 28.352 25.208C29.728 24.12 31.088 23.048 32.432 21.992C30.8 21.992 29.136 21.992 27.44 21.992C25.776 21.992 24.128 21.992 22.496 21.992C22.496 20.744 22.496 19.48 22.496 18.2C22.496 16.888 22.496 15.608 22.496 14.36C25.856 14.36 29.232 14.36 32.624 14.36C36.048 14.36 39.44 14.36 42.8 14.36C42.8 15.608 42.8 16.888 42.8 18.2C42.8 19.48 42.8 20.744 42.8 21.992C41.648 22.92 40.496 23.864 39.344 24.824C38.192 25.784 37.04 26.728 35.888 27.656C38.512 28.168 40.528 29.256 41.936 30.92C43.376 32.552 44.096 34.616 44.096 37.112C44.096 39.48 43.52 41.432 42.368 42.968C41.216 44.504 39.632 45.64 37.616 46.376C35.6 47.112 33.28 47.448 30.656 47.384C28.064 47.32 25.312 46.856 22.4 45.992C22.4 44.68 22.4 43.352 22.4 42.008C22.4 40.632 22.4 39.288 22.4 37.976C24.736 38.808 26.928 39.336 28.976 39.56C31.024 39.784 32.672 39.704 33.92 39.32C35.2 38.904 35.84 38.184 35.84 37.16C35.84 36.168 35.344 35.416 34.352 34.904C33.36 34.392 31.984 34.072 30.224 33.944C28.496 33.784 26.528 33.8 24.32 33.992C24.32 33.064 24.32 32.136 24.32 31.208C24.32 30.248 24.32 29.32 24.32 28.424Z" fill="white"/>
<circle cx="468" cy="21" r="9" fill="white"/>
<circle cx="467.5" cy="244.5" r="20.5" fill="white"/>
<path d="M478.207 245.707C478.598 245.317 478.598 244.683 478.207 244.293L471.843 237.929C471.453 237.538 470.819 237.538 470.429 237.929C470.038 238.319 470.038 238.953 470.429 239.343L476.086 245L470.429 250.657C470.038 251.047 470.038 251.681 470.429 252.071C470.819 252.462 471.453 252.462 471.843 252.071L478.207 245.707ZM456 245V246H477.5V245V244H456V245Z" fill="#6EC13E"/>
<path d="M20 55H477" stroke="white"/>
<path d="M201.287 105C201.287 99.624 201.287 94.184 201.287 88.68C201.287 83.176 201.287 77.736 201.287 72.36C202.695 72.36 204.103 72.36 205.511 72.36C206.919 72.36 208.311 72.36 209.687 72.36C209.687 76.488 209.687 80.664 209.687 84.888C209.687 89.08 209.687 93.24 209.687 97.368C211.383 97.368 213.095 97.368 214.823 97.368C216.551 97.368 218.247 97.368 219.911 97.368C219.911 98.616 219.911 99.896 219.911 101.208C219.911 102.488 219.911 103.752 219.911 105C216.839 105 213.735 105 210.599 105C207.463 105 204.359 105 201.287 105ZM238.181 105C238.181 104.744 238.181 104.504 238.181 104.28C238.181 104.024 238.181 103.784 238.181 103.56C237.381 104.232 236.469 104.744 235.445 105.096C234.453 105.48 233.381 105.672 232.229 105.672C230.597 105.672 229.061 105.368 227.621 104.76C226.181 104.12 224.901 103.224 223.781 102.072C222.693 100.888 221.829 99.496 221.189 97.896C220.581 96.296 220.277 94.52 220.277 92.568C220.277 90.584 220.581 88.792 221.189 87.192C221.829 85.592 222.693 84.232 223.781 83.112C224.901 81.96 226.181 81.08 227.621 80.472C229.061 79.832 230.581 79.512 232.181 79.512C233.333 79.512 234.421 79.704 235.445 80.088C236.469 80.44 237.381 80.936 238.181 81.576C238.181 81.32 238.181 81.08 238.181 80.856C238.181 80.632 238.181 80.408 238.181 80.184C239.493 80.184 240.821 80.184 242.165 80.184C243.509 80.184 244.821 80.184 246.101 80.184C246.101 84.28 246.101 88.424 246.101 92.616C246.101 96.776 246.101 100.904 246.101 105C244.821 105 243.509 105 242.165 105C240.821 105 239.493 105 238.181 105ZM233.285 98.664C234.821 98.664 236.053 98.104 236.981 96.984C237.909 95.864 238.373 94.392 238.373 92.568C238.373 90.744 237.909 89.288 236.981 88.2C236.053 87.08 234.821 86.52 233.285 86.52C231.717 86.52 230.469 87.064 229.541 88.152C228.645 89.24 228.197 90.712 228.197 92.568C228.197 94.424 228.645 95.912 229.541 97.032C230.469 98.12 231.717 98.664 233.285 98.664ZM249.467 105C249.467 100.904 249.467 96.776 249.467 92.616C249.467 88.424 249.467 84.28 249.467 80.184C250.779 80.184 252.107 80.184 253.451 80.184C254.795 80.184 256.107 80.184 257.387 80.184C257.387 80.408 257.387 80.616 257.387 80.808C257.387 81 257.387 81.208 257.387 81.432C258.251 80.824 259.211 80.36 260.267 80.04C261.355 79.688 262.523 79.512 263.771 79.512C265.595 79.512 267.195 79.928 268.571 80.76C269.979 81.592 271.067 82.792 271.835 84.36C272.635 85.896 273.035 87.752 273.035 89.928C273.035 92.424 273.035 94.936 273.035 97.464C273.035 99.992 273.035 102.504 273.035 105C271.755 105 270.443 105 269.099 105C267.755 105 266.427 105 265.115 105C265.115 102.696 265.115 100.36 265.115 97.992C265.115 95.624 265.115 93.288 265.115 90.984C265.115 89.704 264.811 88.68 264.203 87.912C263.627 87.112 262.699 86.712 261.419 86.712C260.139 86.712 259.147 87.08 258.443 87.816C257.739 88.552 257.387 89.608 257.387 90.984C257.387 93.288 257.387 95.624 257.387 97.992C257.387 100.36 257.387 102.696 257.387 105C256.107 105 254.795 105 253.451 105C252.107 105 250.779 105 249.467 105ZM292.56 105C292.56 104.744 292.56 104.504 292.56 104.28C292.56 104.024 292.56 103.784 292.56 103.56C291.76 104.232 290.848 104.744 289.824 105.096C288.832 105.48 287.76 105.672 286.608 105.672C284.976 105.672 283.44 105.352 282 104.712C280.56 104.072 279.28 103.176 278.16 102.024C277.072 100.84 276.208 99.448 275.568 97.848C274.96 96.248 274.656 94.488 274.656 92.568C274.656 90.616 274.96 88.84 275.568 87.24C276.208 85.64 277.072 84.264 278.16 83.112C279.28 81.96 280.56 81.08 282 80.472C283.44 79.832 284.96 79.512 286.56 79.512C287.712 79.512 288.8 79.704 289.824 80.088C290.848 80.44 291.76 80.936 292.56 81.576C292.56 79.656 292.56 77.72 292.56 75.768C292.56 73.816 292.56 71.88 292.56 69.96C293.872 69.96 295.2 69.96 296.544 69.96C297.888 69.96 299.2 69.96 300.48 69.96C300.48 75.752 300.48 81.592 300.48 87.48C300.48 93.368 300.48 99.208 300.48 105C299.2 105 297.888 105 296.544 105C295.2 105 293.872 105 292.56 105ZM287.664 98.664C289.2 98.664 290.432 98.104 291.36 96.984C292.288 95.864 292.752 94.392 292.752 92.568C292.752 90.744 292.288 89.288 291.36 88.2C290.432 87.08 289.2 86.52 287.664 86.52C286.096 86.52 284.848 87.064 283.92 88.152C283.024 89.24 282.576 90.712 282.576 92.568C282.576 94.424 283.024 95.912 283.92 97.032C284.848 98.12 286.096 98.664 287.664 98.664ZM323.998 105.768C322.142 105.768 320.414 105.448 318.814 104.808C317.214 104.136 315.822 103.208 314.638 102.024C313.454 100.808 312.526 99.4 311.854 97.8C311.214 96.2 310.894 94.456 310.894 92.568C310.894 90.68 311.214 88.936 311.854 87.336C312.526 85.736 313.454 84.344 314.638 83.16C315.822 81.976 317.214 81.064 318.814 80.424C320.414 79.752 322.142 79.416 323.998 79.416C325.886 79.416 327.614 79.752 329.182 80.424C330.782 81.064 332.174 81.976 333.358 83.16C334.542 84.344 335.454 85.736 336.094 87.336C336.766 88.936 337.102 90.68 337.102 92.568C337.102 94.456 336.766 96.2 336.094 97.8C335.454 99.4 334.542 100.808 333.358 102.024C332.174 103.208 330.782 104.136 329.182 104.808C327.614 105.448 325.886 105.768 323.998 105.768ZM323.998 98.616C325.566 98.616 326.814 98.056 327.742 96.936C328.702 95.784 329.182 94.328 329.182 92.568C329.182 90.776 328.702 89.336 327.742 88.248C326.814 87.128 325.566 86.568 323.998 86.568C322.43 86.568 321.166 87.128 320.206 88.248C319.278 89.336 318.814 90.776 318.814 92.568C318.814 94.328 319.278 95.784 320.206 96.936C321.166 98.056 322.43 98.616 323.998 98.616ZM337.569 87.288C337.569 86.104 337.569 84.92 337.569 83.736C337.569 82.552 337.569 81.368 337.569 80.184C338.209 80.184 338.849 80.184 339.489 80.184C340.161 80.184 340.817 80.184 341.457 80.184C341.457 80.024 341.457 79.88 341.457 79.752C341.457 79.624 341.457 79.496 341.457 79.368C341.457 77.224 341.889 75.432 342.753 73.992C343.649 72.52 344.817 71.4 346.257 70.632C347.729 69.832 349.329 69.384 351.057 69.288C352.817 69.16 354.561 69.384 356.289 69.96C356.289 71.144 356.289 72.36 356.289 73.608C356.289 74.856 356.289 76.088 356.289 77.304C354.369 76.664 352.737 76.536 351.393 76.92C350.049 77.304 349.377 78.136 349.377 79.416C349.377 79.544 349.377 79.672 349.377 79.8C349.377 79.928 349.377 80.056 349.377 80.184C350.369 80.184 351.361 80.184 352.353 80.184C353.345 80.184 354.337 80.184 355.329 80.184C355.329 81.368 355.329 82.552 355.329 83.736C355.329 84.92 355.329 86.104 355.329 87.288C354.337 87.288 353.345 87.288 352.353 87.288C351.361 87.288 350.369 87.288 349.377 87.288C349.377 90.2 349.377 93.144 349.377 96.12C349.377 99.096 349.377 102.056 349.377 105C348.097 105 346.785 105 345.441 105C344.097 105 342.769 105 341.457 105C341.457 102.056 341.457 99.096 341.457 96.12C341.457 93.144 341.457 90.2 341.457 87.288C340.817 87.288 340.161 87.288 339.489 87.288C338.849 87.288 338.209 87.288 337.569 87.288ZM387.57 95.16C387.57 97.592 386.93 99.576 385.65 101.112C384.402 102.616 382.706 103.704 380.562 104.376C378.45 105.048 376.082 105.336 373.458 105.24C370.834 105.176 368.162 104.776 365.442 104.04C365.442 102.664 365.442 101.288 365.442 99.912C365.442 98.536 365.442 97.16 365.442 95.784C367.938 96.68 370.21 97.24 372.258 97.464C374.306 97.688 375.938 97.608 377.154 97.224C378.37 96.808 378.978 96.12 378.978 95.16C378.978 94.488 378.642 93.944 377.97 93.528C377.298 93.08 376.418 92.68 375.33 92.328C374.274 91.976 373.154 91.576 371.97 91.128C370.786 90.648 369.65 90.056 368.562 89.352C367.506 88.616 366.642 87.672 365.97 86.52C365.298 85.336 364.962 83.864 364.962 82.104C364.962 79.928 365.538 78.088 366.69 76.584C367.842 75.08 369.394 73.944 371.346 73.176C373.33 72.408 375.57 72.024 378.066 72.024C380.594 72.024 383.202 72.408 385.89 73.176C385.89 74.552 385.89 75.928 385.89 77.304C385.89 78.68 385.89 80.056 385.89 81.432C383.65 80.472 381.586 79.896 379.698 79.704C377.842 79.48 376.354 79.576 375.234 79.992C374.114 80.376 373.554 81.016 373.554 81.912C373.554 82.552 373.89 83.08 374.562 83.496C375.234 83.912 376.098 84.296 377.154 84.648C378.242 84.968 379.378 85.368 380.562 85.848C381.746 86.296 382.866 86.904 383.922 87.672C385.01 88.408 385.89 89.384 386.562 90.6C387.234 91.784 387.57 93.304 387.57 95.16ZM389.542 105C389.542 100.904 389.542 96.776 389.542 92.616C389.542 88.424 389.542 84.28 389.542 80.184C390.854 80.184 392.182 80.184 393.526 80.184C394.87 80.184 396.182 80.184 397.462 80.184C397.462 80.408 397.462 80.616 397.462 80.808C397.462 81 397.462 81.208 397.462 81.432C398.326 80.824 399.286 80.36 400.342 80.04C401.43 79.688 402.598 79.512 403.846 79.512C405.67 79.512 407.27 79.928 408.646 80.76C410.054 81.592 411.142 82.792 411.91 84.36C412.71 85.896 413.11 87.752 413.11 89.928C413.11 92.424 413.11 94.936 413.11 97.464C413.11 99.992 413.11 102.504 413.11 105C411.83 105 410.518 105 409.174 105C407.83 105 406.502 105 405.19 105C405.19 102.696 405.19 100.36 405.19 97.992C405.19 95.624 405.19 93.288 405.19 90.984C405.19 89.704 404.886 88.68 404.278 87.912C403.702 87.112 402.774 86.712 401.494 86.712C400.214 86.712 399.222 87.08 398.518 87.816C397.814 88.552 397.462 89.608 397.462 90.984C397.462 93.288 397.462 95.624 397.462 97.992C397.462 100.36 397.462 102.696 397.462 105C396.182 105 394.87 105 393.526 105C392.182 105 390.854 105 389.542 105ZM427.836 105.768C425.98 105.768 424.252 105.448 422.652 104.808C421.052 104.136 419.66 103.208 418.476 102.024C417.292 100.808 416.364 99.4 415.692 97.8C415.052 96.2 414.732 94.456 414.732 92.568C414.732 90.68 415.052 88.936 415.692 87.336C416.364 85.736 417.292 84.344 418.476 83.16C419.66 81.976 421.052 81.064 422.652 80.424C424.252 79.752 425.98 79.416 427.836 79.416C429.724 79.416 431.452 79.752 433.02 80.424C434.62 81.064 436.012 81.976 437.196 83.16C438.38 84.344 439.292 85.736 439.932 87.336C440.604 88.936 440.94 90.68 440.94 92.568C440.94 94.456 440.604 96.2 439.932 97.8C439.292 99.4 438.38 100.808 437.196 102.024C436.012 103.208 434.62 104.136 433.02 104.808C431.452 105.448 429.724 105.768 427.836 105.768ZM427.836 98.616C429.404 98.616 430.652 98.056 431.58 96.936C432.54 95.784 433.02 94.328 433.02 92.568C433.02 90.776 432.54 89.336 431.58 88.248C430.652 87.128 429.404 86.568 427.836 86.568C426.268 86.568 425.004 87.128 424.044 88.248C423.116 89.336 422.652 90.776 422.652 92.568C422.652 94.328 423.116 95.784 424.044 96.936C425.004 98.056 426.268 98.616 427.836 98.616ZM447.508 105C446.26 100.904 444.996 96.776 443.716 92.616C442.468 88.424 441.22 84.28 439.972 80.184C441.284 80.184 442.612 80.184 443.956 80.184C445.332 80.184 446.676 80.184 447.988 80.184C448.628 82.424 449.268 84.696 449.908 87C450.58 89.272 451.22 91.528 451.828 93.768C452.372 91.528 452.916 89.272 453.46 87C454.036 84.696 454.58 82.424 455.092 80.184C456.212 80.184 457.332 80.184 458.452 80.184C459.604 80.184 460.74 80.184 461.86 80.184C462.404 82.424 462.948 84.712 463.492 87.048C464.068 89.352 464.612 91.64 465.124 93.912C465.764 91.64 466.404 89.352 467.044 87.048C467.716 84.712 468.356 82.424 468.964 80.184C470.276 80.184 471.588 80.184 472.9 80.184C474.244 80.184 475.556 80.184 476.836 80.184C475.588 84.28 474.324 88.424 473.044 92.616C471.796 96.776 470.548 100.904 469.3 105C468.02 105 466.724 105 465.412 105C464.1 105 462.804 105 461.524 105C461.012 103.016 460.484 101.016 459.94 99C459.428 96.984 458.916 95 458.404 93.048C457.892 95 457.364 96.984 456.82 99C456.308 101.016 455.796 103.016 455.284 105C454.004 105 452.708 105 451.396 105C450.084 105 448.788 105 447.508 105Z" fill="white"/>
<path d="M99.462 172.14L108.278 177.221L111.535 179.098V162.015L106.762 159.265L99.462 155.061V172.14Z" fill="white"/>
<path d="M63.8477 174.693L75.1476 181.2C75.4156 181.119 75.7091 181.15 75.9572 181.293C76.2078 181.437 76.3815 181.678 76.4426 181.953L78.6776 183.24L97.9278 172.14V155.061L63.8477 174.693Z" fill="white"/>
<path d="M80.2073 184.121L98.0632 194.404C98.331 194.324 98.6247 194.355 98.8727 194.498C99.1199 194.64 99.2919 194.877 99.3552 195.147L110.325 201.465L111.535 202.161V180.861L108.434 179.074L98.6949 173.461L80.2073 184.121Z" fill="white"/>
<path d="M112.698 179.768L131.802 190.78L146.637 182.234L112.698 162.684V179.768Z" fill="white"/>
<path d="M112.698 201.785L130.272 191.661L112.698 181.531V201.785Z" fill="white"/>
<path d="M133.841 191.955L147.696 199.941V183.974L133.841 191.955Z" fill="white"/>
<path d="M112.558 204.217V221.068L146.934 201.264L132.312 192.837L112.558 204.217Z" fill="white"/>
<path d="M63.552 193.724L111.024 221.068V209.736V204.217L110.534 203.935L97.8469 196.628C97.7934 196.597 97.7438 196.561 97.6976 196.522C97.6371 196.501 97.5779 196.475 97.5213 196.442L78.1682 185.296L63.552 193.724Z" fill="white"/>
<path d="M62.7899 192.4L76.6384 184.415L74.9314 183.432C74.8702 183.397 74.8136 183.356 74.7621 183.31C74.7087 183.29 74.656 183.266 74.6058 183.237L62.7899 176.434V192.4Z" fill="white"/>
<path d="M63.0456 84.194V84.5687L102.359 107.126L98.7551 64.4531L98.0342 64.038L63.0456 84.194Z" fill="white"/>
<path d="M111.915 112.609C111.93 112.618 111.944 112.627 111.957 112.639L112.315 112.435L121.463 107.164L147.188 92.3416L100.23 65.3023L98.7551 64.4531L102.359 107.126L111.915 112.609Z" fill="white"/>
<path fill-rule="evenodd" clip-rule="evenodd" d="M149.015 201.793L149.009 201.799L149.005 201.802L149.004 201.804L149 201.807L148.992 201.816C148.988 201.82 148.983 201.824 148.979 201.828L148.972 201.835L148.965 201.84L148.96 201.844L148.955 201.848C148.953 201.85 148.951 201.851 148.949 201.853L148.944 201.857L148.94 201.86L148.935 201.865C148.929 201.869 148.923 201.874 148.917 201.878C148.914 201.881 148.911 201.883 148.908 201.885L148.901 201.889C148.895 201.893 148.889 201.898 148.883 201.901L148.879 201.904L148.878 201.905C148.873 201.908 148.868 201.911 148.863 201.915C148.86 201.916 148.858 201.917 148.856 201.919L148.853 201.92L148.852 201.922C148.85 201.923 148.849 201.924 148.847 201.925L112.175 223.05L149.015 201.793ZM149.38 182.807L149.23 190.598V183.029C149.29 182.962 149.34 182.887 149.38 182.807ZM149.38 182.807L149.484 177.409L149.484 177.412L149.484 177.415C149.485 177.424 149.485 177.432 149.485 177.44L149.486 177.448L149.486 177.455V182.358C149.486 182.516 149.448 182.67 149.38 182.807ZM149.486 162.411L149.486 162.399L149.485 162.387L149.485 162.376L149.485 162.368L149.484 162.357L149.483 162.346L149.484 162.332L149.485 162.312C149.485 162.305 149.486 162.297 149.486 162.291V162.411ZM149.486 156.063L149.485 156.053L149.485 156.037L149.483 156.013L149.485 155.985C149.485 155.981 149.485 155.977 149.485 155.973C149.486 155.969 149.486 155.966 149.486 155.963V156.063ZM149.486 151.046C149.485 151.035 149.485 151.023 149.484 151.011L149.483 150.998L149.484 150.986C149.484 150.978 149.485 150.97 149.485 150.962L149.486 150.95L149.486 151.046ZM149.486 146.026L149.485 146.009L149.485 146.005C149.484 145.995 149.484 145.984 149.483 145.974L149.484 145.961C149.485 145.95 149.485 145.939 149.486 145.928V146.026ZM149.486 141.004L149.486 141.01L149.486 141.016V145.919L149.486 145.928L149.486 141.004ZM149.486 140.915L149.485 140.928L149.485 140.984L149.486 141.004C149.485 140.998 149.485 140.991 149.485 140.984C149.484 140.98 149.484 140.976 149.484 140.972L149.483 140.96L149.484 140.947C149.484 140.94 149.485 140.934 149.485 140.928C149.485 140.923 149.485 140.919 149.486 140.915ZM149.486 140.915L149.486 134.67L149.486 134.676L149.486 134.683V140.904L149.486 140.915ZM108.278 177.221L106.762 159.265L111.535 162.015V179.098L108.278 177.221ZM110.325 201.465L108.434 179.074L111.535 180.861V202.161L110.325 201.465ZM111.024 209.736L110.534 203.935L111.024 204.217V209.736ZM112.558 204.217V221.068L146.934 201.264L132.312 192.837L112.558 204.217ZM112.046 202.161L112.187 202.08V181.236L112.046 181.156V202.161ZM112.698 201.785L130.272 191.661L112.698 181.531V201.785ZM133.841 191.955L147.696 199.941V183.974L133.841 191.955ZM112.698 179.768L131.802 190.78L146.637 182.234L112.698 162.684V179.768ZM112.046 179.393L112.187 179.473V162.389L112.046 162.309V179.393ZM111.54 112.98L111.535 160.252L112.187 160.627L112.187 112.98H111.54Z" fill="white"/>
<path d="M114.36 115.707C121.823 111.4 129.293 107.085 136.756 102.778C137.71 102.225 141.308 100.159 142.261 99.6067C142.738 99.3342 143.215 99.0541 143.692 98.7816C143.926 98.6454 144.169 98.5091 144.403 98.3653C144.471 98.3274 145.039 97.9944 145.115 97.9565C145.289 97.8657 145.539 97.7824 145.743 97.8732C145.834 97.9111 145.887 97.9641 145.925 98.0549C145.962 98.1458 145.97 98.2366 145.97 98.335V98.6529C145.97 98.7816 145.97 98.8498 145.932 98.9784C145.856 99.2585 145.675 99.531 145.478 99.743C145.243 99.9928 145.077 100.069 144.789 100.235C144.555 100.371 144.312 100.508 144.078 100.651C143.601 100.924 143.124 101.204 142.647 101.477C138.833 103.679 132.381 107.395 128.566 109.598C124.752 111.801 120.945 113.996 117.13 116.199C116.653 116.472 116.176 116.752 115.699 117.024C115.578 117.093 115.465 117.161 115.344 117.229C115.207 117.312 115.124 117.357 115.003 117.456C114.776 117.653 114.572 117.91 114.45 118.19C114.337 118.455 114.352 118.584 114.352 118.856C114.352 118.932 114.352 119.091 114.352 119.159C114.367 119.25 114.397 119.326 114.466 119.394C114.617 119.553 114.859 119.515 115.041 119.454C115.162 119.409 115.268 119.348 115.381 119.28C115.503 119.212 115.616 119.144 115.737 119.076C117.645 117.978 119.552 116.873 121.452 115.775C125.266 113.573 129.081 111.37 132.896 109.167C134.803 108.069 139.355 105.443 141.262 104.345C142.216 103.793 143.17 103.248 144.123 102.695C144.358 102.559 144.6 102.423 144.835 102.279C145.039 102.158 145.251 102.014 145.516 102.006C145.713 102.006 145.872 102.09 145.932 102.286C145.962 102.385 145.955 102.483 145.955 102.582V102.9C145.955 103.157 145.834 103.407 145.698 103.611C145.539 103.853 145.319 104.073 145.069 104.224C144.956 104.293 144.842 104.361 144.721 104.421C144.608 104.489 144.487 104.557 144.373 104.626C144.138 104.762 143.904 104.898 143.677 105.027C142.746 105.564 139.171 107.623 138.232 108.16C136.37 109.235 134.501 110.31 132.639 111.392C128.907 113.542 125.176 115.7 121.452 117.85C119.544 118.947 117.637 120.052 115.737 121.15C115.616 121.218 115.503 121.286 115.381 121.354C115.26 121.422 115.147 121.491 115.041 121.574C114.806 121.763 114.594 122.021 114.466 122.293C114.413 122.407 114.375 122.528 114.352 122.656C114.337 122.762 114.352 122.868 114.352 122.974C114.352 123.035 114.352 123.224 114.352 123.285C114.36 123.376 114.382 123.459 114.45 123.527C114.594 123.693 114.829 123.678 115.003 123.618C115.124 123.58 115.23 123.519 115.344 123.459C115.465 123.391 115.578 123.323 115.699 123.254C116.176 122.982 116.653 122.702 117.13 122.429C117.955 121.952 126.652 116.926 128.566 115.828C131.435 114.178 140.498 108.978 146.099 105.882" stroke="white" stroke-linecap="round" stroke-linejoin="round"/>
<path d="M108.403 115.483C100.692 111.054 79.0188 99.0078 71.3079 94.5791C70.3225 94.0109 69.3371 93.4505 68.3518 92.8823C67.8591 92.6021 67.3664 92.3141 66.8737 92.0339C66.6313 91.8938 66.381 91.7537 66.1386 91.6059C66.0682 91.5669 65.4817 91.2245 65.4035 91.1855C65.2236 91.0921 64.9655 91.0065 64.7544 91.0999C64.6605 91.1388 64.6058 91.1933 64.5667 91.2867C64.5276 91.3801 64.5198 91.4735 64.5198 91.5747V91.9016C64.5198 92.0339 64.5198 92.104 64.5589 92.2363C64.6371 92.5243 64.8248 92.8045 65.0281 93.0224C65.2705 93.2793 65.4426 93.3571 65.7397 93.5283C65.9822 93.6684 66.2324 93.8085 66.4749 93.9564C66.9676 94.2366 67.4602 94.5246 67.9529 94.8048C71.8944 97.0698 75.8281 99.3269 79.7696 101.592C83.7111 103.857 101.6 113.724 105.541 115.988C106.034 116.269 106.526 116.557 107.019 116.837C107.144 116.907 107.262 116.977 107.387 117.047C107.527 117.133 107.613 117.179 107.739 117.281C107.973 117.483 108.184 117.748 108.309 118.036C108.427 118.308 108.411 118.44 108.411 118.72C108.411 118.798 108.411 118.962 108.411 119.032C108.395 119.125 108.364 119.203 108.294 119.273C108.137 119.437 107.887 119.398 107.699 119.335C107.574 119.289 107.465 119.226 107.348 119.156C107.222 119.086 107.105 119.016 106.98 118.946C105.009 117.818 89.0837 109.072 87.1208 107.943C83.1793 105.678 79.2378 103.413 75.2963 101.148C73.3256 100.02 71.3548 98.8833 69.3841 97.7547C68.3987 97.1865 67.4133 96.6261 66.4279 96.0579C66.1855 95.9178 65.9353 95.7777 65.6928 95.6299C65.4817 95.5053 65.2627 95.3574 64.989 95.3497C64.7857 95.3497 64.6214 95.4353 64.5589 95.6376C64.5276 95.7388 64.5354 95.84 64.5354 95.9412V96.2681C64.5354 96.5327 64.6605 96.7896 64.8013 96.9997C64.9655 97.2488 65.1923 97.4745 65.4504 97.6302C65.5677 97.7002 65.685 97.7703 65.8101 97.8326C65.9274 97.9026 66.0526 97.9726 66.1699 98.0427C66.4123 98.1828 66.6547 98.3229 66.8893 98.4552C67.8513 99.0078 68.8132 99.5605 69.7829 100.113C71.7067 101.218 73.6384 102.324 75.5622 103.437C79.4177 105.647 83.2732 107.865 87.1208 110.076C89.0916 111.204 105.017 119.95 106.98 121.079C107.105 121.149 107.222 121.219 107.348 121.289C107.473 121.359 107.59 121.429 107.699 121.515C107.942 121.709 108.161 121.974 108.294 122.254C108.349 122.371 108.388 122.495 108.411 122.628C108.427 122.737 108.411 122.846 108.411 122.955C108.411 123.017 108.411 123.211 108.411 123.274C108.403 123.367 108.38 123.453 108.309 123.523C108.161 123.694 107.918 123.678 107.739 123.616C107.613 123.577 107.504 123.515 107.387 123.453C107.262 123.383 107.144 123.313 107.019 123.243C106.526 122.962 106.034 122.674 105.541 122.394C104.689 121.904 81.7482 109.126 79.7696 107.998C76.8056 106.301 70.174 102.518 64.3869 99.3347" stroke="white" stroke-linecap="round" stroke-linejoin="round"/>
<path d="M61 191.827V85.7025C61 83.5492 62.1538 81.5611 64.0235 80.4928L95.1372 62.7158C96.996 61.6539 99.2797 61.6626 101.13 62.7388L146.079 88.88C147.926 89.9542 149.062 91.9298 149.062 94.0666V198.847C149.062 200.992 147.918 202.973 146.06 204.045L114.431 222.284C112.587 223.347 110.318 223.354 108.468 222.302L64.0348 197.043C62.1588 195.976 61 193.985 61 191.827Z" stroke="white" stroke-width="2"/>
</svg>
