<svg width="498" height="274" viewBox="0 0 498 274" fill="none" xmlns="http://www.w3.org/2000/svg">
<rect width="498" height="274" rx="25" fill="black"/>
<path d="M24.5909 232.727L31.0682 251.682H31.3295L37.8068 232.727H41.6023L33.2273 256H29.1705L20.7955 232.727H24.5909ZM43.4103 256V238.545H46.8081V256H43.4103ZM45.1262 235.852C44.5353 235.852 44.0278 235.655 43.6035 235.261C43.1869 234.86 42.9785 234.383 42.9785 233.83C42.9785 233.269 43.1869 232.792 43.6035 232.398C44.0278 231.996 44.5353 231.795 45.1262 231.795C45.7172 231.795 46.2209 231.996 46.6376 232.398C47.0619 232.792 47.274 233.269 47.274 233.83C47.274 234.383 47.0619 234.86 46.6376 235.261C46.2209 235.655 45.7172 235.852 45.1262 235.852ZM57.6218 256.352C55.9021 256.352 54.4211 255.985 53.1786 255.25C51.9438 254.508 50.9892 253.466 50.315 252.125C49.6483 250.777 49.315 249.197 49.315 247.386C49.315 245.598 49.6483 244.023 50.315 242.659C50.9892 241.295 51.9286 240.231 53.1332 239.466C54.3453 238.701 55.762 238.318 57.3832 238.318C58.368 238.318 59.3226 238.481 60.2468 238.807C61.1711 239.133 62.0006 239.644 62.7355 240.341C63.4703 241.038 64.0498 241.943 64.4741 243.057C64.8983 244.163 65.1105 245.508 65.1105 247.091V248.295H51.2355V245.75H61.7809C61.7809 244.856 61.5991 244.064 61.2355 243.375C60.8718 242.678 60.3605 242.129 59.7014 241.727C59.0498 241.326 58.2847 241.125 57.4059 241.125C56.4514 241.125 55.618 241.36 54.9059 241.83C54.2014 242.292 53.6559 242.898 53.2695 243.648C52.8908 244.39 52.7014 245.197 52.7014 246.068V248.057C52.7014 249.223 52.9059 250.216 53.315 251.034C53.7317 251.852 54.3112 252.477 55.0536 252.909C55.7961 253.333 56.6635 253.545 57.6559 253.545C58.2998 253.545 58.887 253.455 59.4173 253.273C59.9476 253.083 60.4059 252.803 60.7923 252.432C61.1786 252.061 61.4741 251.602 61.6786 251.057L64.8945 251.636C64.637 252.583 64.1748 253.413 63.5082 254.125C62.8491 254.83 62.0195 255.379 61.0195 255.773C60.0271 256.159 58.8945 256.352 57.6218 256.352ZM71.3532 256L66.2168 238.545H69.7282L73.1486 251.364H73.3191L76.7509 238.545H80.2623L83.6714 251.307H83.8418L87.2395 238.545H90.7509L85.6259 256H82.16L78.6145 243.398H78.3532L74.8077 256H71.3532ZM100.157 232.727H104.418L111.827 250.818H112.1L119.509 232.727H123.77V256H120.43V239.159H120.214L113.35 255.966H110.577L103.714 239.148H103.498V256H100.157V232.727ZM134.675 256.352C133.039 256.352 131.611 255.977 130.391 255.227C129.171 254.477 128.224 253.428 127.55 252.08C126.876 250.731 126.539 249.155 126.539 247.352C126.539 245.542 126.876 243.958 127.55 242.602C128.224 241.246 129.171 240.193 130.391 239.443C131.611 238.693 133.039 238.318 134.675 238.318C136.311 238.318 137.74 238.693 138.959 239.443C140.179 240.193 141.126 241.246 141.8 242.602C142.474 243.958 142.811 245.542 142.811 247.352C142.811 249.155 142.474 250.731 141.8 252.08C141.126 253.428 140.179 254.477 138.959 255.227C137.74 255.977 136.311 256.352 134.675 256.352ZM134.686 253.5C135.747 253.5 136.626 253.22 137.323 252.659C138.02 252.098 138.535 251.352 138.868 250.42C139.209 249.489 139.38 248.462 139.38 247.341C139.38 246.227 139.209 245.205 138.868 244.273C138.535 243.333 138.02 242.58 137.323 242.011C136.626 241.443 135.747 241.159 134.686 241.159C133.618 241.159 132.732 241.443 132.027 242.011C131.33 242.58 130.811 243.333 130.471 244.273C130.137 245.205 129.971 246.227 129.971 247.341C129.971 248.462 130.137 249.489 130.471 250.42C130.811 251.352 131.33 252.098 132.027 252.659C132.732 253.22 133.618 253.5 134.686 253.5ZM145.324 256V238.545H148.608V241.318H148.79C149.108 240.379 149.669 239.64 150.472 239.102C151.282 238.557 152.199 238.284 153.222 238.284C153.434 238.284 153.684 238.292 153.972 238.307C154.267 238.322 154.498 238.341 154.665 238.364V241.614C154.529 241.576 154.286 241.534 153.938 241.489C153.589 241.436 153.241 241.409 152.892 241.409C152.089 241.409 151.373 241.58 150.745 241.92C150.123 242.254 149.631 242.72 149.267 243.318C148.904 243.909 148.722 244.583 148.722 245.341V256H145.324ZM163.223 256.352C161.503 256.352 160.022 255.985 158.78 255.25C157.545 254.508 156.59 253.466 155.916 252.125C155.25 250.777 154.916 249.197 154.916 247.386C154.916 245.598 155.25 244.023 155.916 242.659C156.59 241.295 157.53 240.231 158.734 239.466C159.947 238.701 161.363 238.318 162.984 238.318C163.969 238.318 164.924 238.481 165.848 238.807C166.772 239.133 167.602 239.644 168.337 240.341C169.072 241.038 169.651 241.943 170.075 243.057C170.5 244.163 170.712 245.508 170.712 247.091V248.295H156.837V245.75H167.382C167.382 244.856 167.2 244.064 166.837 243.375C166.473 242.678 165.962 242.129 165.303 241.727C164.651 241.326 163.886 241.125 163.007 241.125C162.053 241.125 161.219 241.36 160.507 241.83C159.803 242.292 159.257 242.898 158.871 243.648C158.492 244.39 158.303 245.197 158.303 246.068V248.057C158.303 249.223 158.507 250.216 158.916 251.034C159.333 251.852 159.912 252.477 160.655 252.909C161.397 253.333 162.265 253.545 163.257 253.545C163.901 253.545 164.488 253.455 165.019 253.273C165.549 253.083 166.007 252.803 166.394 252.432C166.78 252.061 167.075 251.602 167.28 251.057L170.496 251.636C170.238 252.583 169.776 253.413 169.109 254.125C168.45 254.83 167.621 255.379 166.621 255.773C165.628 256.159 164.496 256.352 163.223 256.352Z" fill="white"/>
<path d="M21.2 40.808C21.2 39.56 21.2 38.296 21.2 37.016C21.2 35.704 21.2 34.424 21.2 33.176C22.8 30.072 24.416 26.936 26.048 23.768C27.68 20.6 29.28 17.464 30.848 14.36C32.896 14.36 34.944 14.36 36.992 14.36C39.072 14.36 41.136 14.36 43.184 14.36C43.184 17.464 43.184 20.6 43.184 23.768C43.184 26.936 43.184 30.072 43.184 33.176C43.92 33.176 44.672 33.176 45.44 33.176C46.24 33.176 47.008 33.176 47.744 33.176C47.744 34.424 47.744 35.704 47.744 37.016C47.744 38.296 47.744 39.56 47.744 40.808C47.008 40.808 46.24 40.808 45.44 40.808C44.672 40.808 43.92 40.808 43.184 40.808C43.184 41.832 43.184 42.872 43.184 43.928C43.184 44.952 43.184 45.976 43.184 47C41.84 47 40.464 47 39.056 47C37.68 47 36.32 47 34.976 47C34.976 45.976 34.976 44.952 34.976 43.928C34.976 42.872 34.976 41.832 34.976 40.808C32.704 40.808 30.4 40.808 28.064 40.808C25.76 40.808 23.472 40.808 21.2 40.808ZM29.84 33.176C30.672 33.176 31.52 33.176 32.384 33.176C33.28 33.176 34.144 33.176 34.976 33.176C34.976 31.384 34.976 29.56 34.976 27.704C34.976 25.848 34.976 24.024 34.976 22.232C34.144 24.024 33.28 25.848 32.384 27.704C31.52 29.56 30.672 31.384 29.84 33.176Z" fill="white"/>
<circle cx="468" cy="21" r="9" fill="white"/>
<circle cx="467.5" cy="244.5" r="20.5" fill="white"/>
<path d="M478.207 245.707C478.598 245.317 478.598 244.683 478.207 244.293L471.843 237.929C471.453 237.538 470.819 237.538 470.429 237.929C470.038 238.319 470.038 238.953 470.429 239.343L476.086 245L470.429 250.657C470.038 251.047 470.038 251.681 470.429 252.071C470.819 252.462 471.453 252.462 471.843 252.071L478.207 245.707ZM456 245V246H477.5V245V244H456V245Z" fill="black"/>
<path d="M20 55H477" stroke="white"/>
<path d="M316.579 105C318.243 99.624 319.907 94.184 321.571 88.68C323.267 83.176 324.947 77.736 326.611 72.36C328.499 72.36 330.403 72.36 332.323 72.36C334.275 72.36 336.195 72.36 338.083 72.36C339.747 77.736 341.411 83.176 343.075 88.68C344.771 94.184 346.451 99.624 348.115 105C346.739 105 345.331 105 343.891 105C342.483 105 341.075 105 339.667 105C339.347 103.976 339.043 102.952 338.755 101.928C338.467 100.872 338.163 99.832 337.843 98.808C336.019 98.808 334.179 98.808 332.323 98.808C330.499 98.808 328.675 98.808 326.851 98.808C326.531 99.832 326.227 100.872 325.939 101.928C325.651 102.952 325.347 103.976 325.027 105C323.651 105 322.243 105 320.803 105C319.395 105 317.987 105 316.579 105ZM328.963 91.656C330.083 91.656 331.203 91.656 332.323 91.656C333.475 91.656 334.611 91.656 335.731 91.656C335.187 89.768 334.627 87.864 334.051 85.944C333.475 84.024 332.915 82.12 332.371 80.232C331.827 82.12 331.251 84.024 330.643 85.944C330.067 87.864 329.507 89.768 328.963 91.656ZM351.438 105C351.438 102.056 351.438 99.096 351.438 96.12C351.438 93.144 351.438 90.2 351.438 87.288C350.798 87.288 350.142 87.288 349.47 87.288C348.83 87.288 348.19 87.288 347.55 87.288C347.55 86.104 347.55 84.92 347.55 83.736C347.55 82.552 347.55 81.368 347.55 80.184C348.19 80.184 348.83 80.184 349.47 80.184C350.142 80.184 350.798 80.184 351.438 80.184C351.438 79.064 351.438 77.96 351.438 76.872C351.438 75.752 351.438 74.648 351.438 73.56C352.75 73.56 354.078 73.56 355.422 73.56C356.766 73.56 358.078 73.56 359.358 73.56C359.358 74.648 359.358 75.752 359.358 76.872C359.358 77.96 359.358 79.064 359.358 80.184C360.094 80.184 360.846 80.184 361.614 80.184C362.382 80.184 363.134 80.184 363.87 80.184C363.87 81.368 363.87 82.552 363.87 83.736C363.87 84.92 363.87 86.104 363.87 87.288C363.134 87.288 362.382 87.288 361.614 87.288C360.846 87.288 360.094 87.288 359.358 87.288C359.358 90.2 359.358 93.144 359.358 96.12C359.358 99.096 359.358 102.056 359.358 105C358.078 105 356.766 105 355.422 105C354.078 105 352.75 105 351.438 105ZM366.009 105C366.009 99.208 366.009 93.368 366.009 87.48C366.009 81.592 366.009 75.752 366.009 69.96C367.321 69.96 368.649 69.96 369.993 69.96C371.337 69.96 372.649 69.96 373.929 69.96C373.929 75.752 373.929 81.592 373.929 87.48C373.929 93.368 373.929 99.208 373.929 105C372.649 105 371.337 105 369.993 105C368.649 105 367.321 105 366.009 105ZM394.097 105C394.097 104.744 394.097 104.504 394.097 104.28C394.097 104.024 394.097 103.784 394.097 103.56C393.297 104.232 392.385 104.744 391.361 105.096C390.369 105.48 389.297 105.672 388.145 105.672C386.513 105.672 384.977 105.368 383.537 104.76C382.097 104.12 380.817 103.224 379.697 102.072C378.609 100.888 377.745 99.496 377.105 97.896C376.497 96.296 376.193 94.52 376.193 92.568C376.193 90.584 376.497 88.792 377.105 87.192C377.745 85.592 378.609 84.232 379.697 83.112C380.817 81.96 382.097 81.08 383.537 80.472C384.977 79.832 386.497 79.512 388.097 79.512C389.249 79.512 390.337 79.704 391.361 80.088C392.385 80.44 393.297 80.936 394.097 81.576C394.097 81.32 394.097 81.08 394.097 80.856C394.097 80.632 394.097 80.408 394.097 80.184C395.409 80.184 396.737 80.184 398.081 80.184C399.425 80.184 400.737 80.184 402.017 80.184C402.017 84.28 402.017 88.424 402.017 92.616C402.017 96.776 402.017 100.904 402.017 105C400.737 105 399.425 105 398.081 105C396.737 105 395.409 105 394.097 105ZM389.201 98.664C390.737 98.664 391.969 98.104 392.897 96.984C393.825 95.864 394.289 94.392 394.289 92.568C394.289 90.744 393.825 89.288 392.897 88.2C391.969 87.08 390.737 86.52 389.201 86.52C387.633 86.52 386.385 87.064 385.457 88.152C384.561 89.24 384.113 90.712 384.113 92.568C384.113 94.424 384.561 95.912 385.457 97.032C386.385 98.12 387.633 98.664 389.201 98.664ZM424.342 97.32C424.342 99.304 423.782 100.936 422.662 102.216C421.574 103.464 420.102 104.376 418.246 104.952C416.39 105.528 414.31 105.768 412.006 105.672C409.734 105.608 407.414 105.24 405.046 104.568C405.046 103.352 405.046 102.104 405.046 100.824C405.046 99.544 405.046 98.296 405.046 97.08C406.39 97.688 407.734 98.168 409.078 98.52C410.422 98.84 411.638 99.032 412.726 99.096C413.814 99.16 414.694 99.08 415.366 98.856C416.038 98.6 416.374 98.184 416.374 97.608C416.374 97.16 416.086 96.808 415.51 96.552C414.966 96.296 414.246 96.072 413.35 95.88C412.454 95.656 411.494 95.4 410.47 95.112C409.478 94.792 408.534 94.36 407.638 93.816C406.742 93.24 406.006 92.488 405.43 91.56C404.886 90.6 404.614 89.368 404.614 87.864C404.614 86.072 405.126 84.552 406.15 83.304C407.206 82.024 408.614 81.064 410.374 80.424C412.134 79.752 414.102 79.416 416.278 79.416C418.454 79.416 420.678 79.784 422.95 80.52C422.95 81.736 422.95 82.984 422.95 84.264C422.95 85.544 422.95 86.792 422.95 88.008C421.158 87.144 419.478 86.568 417.91 86.28C416.342 85.992 415.078 85.96 414.118 86.184C413.158 86.376 412.678 86.808 412.678 87.48C412.678 87.928 412.95 88.28 413.494 88.536C414.07 88.76 414.79 88.968 415.654 89.16C416.55 89.352 417.494 89.608 418.486 89.928C419.51 90.248 420.454 90.696 421.318 91.272C422.214 91.816 422.934 92.584 423.478 93.576C424.054 94.536 424.342 95.784 424.342 97.32ZM446.162 105.768C444.306 105.768 442.578 105.448 440.978 104.808C439.378 104.136 437.986 103.208 436.802 102.024C435.618 100.808 434.69 99.4 434.018 97.8C433.378 96.2 433.058 94.456 433.058 92.568C433.058 90.68 433.378 88.936 434.018 87.336C434.69 85.736 435.618 84.344 436.802 83.16C437.986 81.976 439.378 81.064 440.978 80.424C442.578 79.752 444.306 79.416 446.162 79.416C448.05 79.416 449.778 79.752 451.346 80.424C452.946 81.064 454.338 81.976 455.522 83.16C456.706 84.344 457.618 85.736 458.258 87.336C458.93 88.936 459.266 90.68 459.266 92.568C459.266 94.456 458.93 96.2 458.258 97.8C457.618 99.4 456.706 100.808 455.522 102.024C454.338 103.208 452.946 104.136 451.346 104.808C449.778 105.448 448.05 105.768 446.162 105.768ZM446.162 98.616C447.73 98.616 448.978 98.056 449.906 96.936C450.866 95.784 451.346 94.328 451.346 92.568C451.346 90.776 450.866 89.336 449.906 88.248C448.978 87.128 447.73 86.568 446.162 86.568C444.594 86.568 443.33 87.128 442.37 88.248C441.442 89.336 440.978 90.776 440.978 92.568C440.978 94.328 441.442 95.784 442.37 96.936C443.33 98.056 444.594 98.616 446.162 98.616ZM459.733 87.288C459.733 86.104 459.733 84.92 459.733 83.736C459.733 82.552 459.733 81.368 459.733 80.184C460.373 80.184 461.013 80.184 461.653 80.184C462.325 80.184 462.981 80.184 463.621 80.184C463.621 80.024 463.621 79.88 463.621 79.752C463.621 79.624 463.621 79.496 463.621 79.368C463.621 77.224 464.053 75.432 464.917 73.992C465.813 72.52 466.981 71.4 468.421 70.632C469.893 69.832 471.493 69.384 473.221 69.288C474.981 69.16 476.725 69.384 478.453 69.96C478.453 71.144 478.453 72.36 478.453 73.608C478.453 74.856 478.453 76.088 478.453 77.304C476.533 76.664 474.901 76.536 473.557 76.92C472.213 77.304 471.541 78.136 471.541 79.416C471.541 79.544 471.541 79.672 471.541 79.8C471.541 79.928 471.541 80.056 471.541 80.184C472.533 80.184 473.525 80.184 474.517 80.184C475.509 80.184 476.501 80.184 477.493 80.184C477.493 81.368 477.493 82.552 477.493 83.736C477.493 84.92 477.493 86.104 477.493 87.288C476.501 87.288 475.509 87.288 474.517 87.288C473.525 87.288 472.533 87.288 471.541 87.288C471.541 90.2 471.541 93.144 471.541 96.12C471.541 99.096 471.541 102.056 471.541 105C470.261 105 468.949 105 467.605 105C466.261 105 464.933 105 463.621 105C463.621 102.056 463.621 99.096 463.621 96.12C463.621 93.144 463.621 90.2 463.621 87.288C462.981 87.288 462.325 87.288 461.653 87.288C461.013 87.288 460.373 87.288 459.733 87.288ZM349.811 140.616C349.811 142.632 349.459 144.456 348.755 146.088C348.083 147.688 347.123 149.064 345.875 150.216C344.659 151.368 343.219 152.248 341.555 152.856C339.923 153.464 338.147 153.768 336.227 153.768C334.275 153.768 332.483 153.464 330.851 152.856C329.219 152.248 327.795 151.384 326.579 150.264C325.395 149.112 324.467 147.736 323.795 146.136C323.123 144.536 322.787 142.728 322.787 140.712C322.787 137.352 322.787 133.96 322.787 130.536C322.787 127.112 322.787 123.72 322.787 120.36C324.195 120.36 325.603 120.36 327.011 120.36C328.419 120.36 329.811 120.36 331.187 120.36C331.187 123.656 331.187 126.968 331.187 130.296C331.187 133.624 331.187 136.936 331.187 140.232C331.187 141.96 331.667 143.352 332.627 144.408C333.587 145.464 334.819 145.992 336.323 145.992C337.827 145.992 339.043 145.464 339.971 144.408C340.931 143.352 341.411 141.96 341.411 140.232C341.411 136.936 341.411 133.624 341.411 130.296C341.411 126.968 341.411 123.656 341.411 120.36C342.819 120.36 344.227 120.36 345.635 120.36C347.043 120.36 348.435 120.36 349.811 120.36C349.811 123.688 349.811 127.064 349.811 130.488C349.811 133.912 349.811 137.288 349.811 140.616ZM353.164 153C353.164 148.904 353.164 144.776 353.164 140.616C353.164 136.424 353.164 132.28 353.164 128.184C354.476 128.184 355.804 128.184 357.148 128.184C358.492 128.184 359.804 128.184 361.084 128.184C361.084 128.408 361.084 128.616 361.084 128.808C361.084 129 361.084 129.208 361.084 129.432C361.948 128.824 362.908 128.36 363.964 128.04C365.052 127.688 366.22 127.512 367.468 127.512C369.292 127.512 370.892 127.928 372.268 128.76C373.676 129.592 374.764 130.792 375.532 132.36C376.332 133.896 376.732 135.752 376.732 137.928C376.732 140.424 376.732 142.936 376.732 145.464C376.732 147.992 376.732 150.504 376.732 153C375.452 153 374.14 153 372.796 153C371.452 153 370.124 153 368.812 153C368.812 150.696 368.812 148.36 368.812 145.992C368.812 143.624 368.812 141.288 368.812 138.984C368.812 137.704 368.508 136.68 367.9 135.912C367.324 135.112 366.396 134.712 365.116 134.712C363.836 134.712 362.844 135.08 362.14 135.816C361.436 136.552 361.084 137.608 361.084 138.984C361.084 141.288 361.084 143.624 361.084 145.992C361.084 148.36 361.084 150.696 361.084 153C359.804 153 358.492 153 357.148 153C355.804 153 354.476 153 353.164 153ZM398.657 145.32C398.657 147.304 398.097 148.936 396.977 150.216C395.889 151.464 394.417 152.376 392.561 152.952C390.705 153.528 388.625 153.768 386.321 153.672C384.049 153.608 381.729 153.24 379.361 152.568C379.361 151.352 379.361 150.104 379.361 148.824C379.361 147.544 379.361 146.296 379.361 145.08C380.705 145.688 382.049 146.168 383.393 146.52C384.737 146.84 385.953 147.032 387.041 147.096C388.129 147.16 389.009 147.08 389.681 146.856C390.353 146.6 390.689 146.184 390.689 145.608C390.689 145.16 390.401 144.808 389.825 144.552C389.281 144.296 388.561 144.072 387.665 143.88C386.769 143.656 385.809 143.4 384.785 143.112C383.793 142.792 382.849 142.36 381.953 141.816C381.057 141.24 380.321 140.488 379.745 139.56C379.201 138.6 378.929 137.368 378.929 135.864C378.929 134.072 379.441 132.552 380.465 131.304C381.521 130.024 382.929 129.064 384.689 128.424C386.449 127.752 388.417 127.416 390.593 127.416C392.769 127.416 394.993 127.784 397.265 128.52C397.265 129.736 397.265 130.984 397.265 132.264C397.265 133.544 397.265 134.792 397.265 136.008C395.473 135.144 393.793 134.568 392.225 134.28C390.657 133.992 389.393 133.96 388.433 134.184C387.473 134.376 386.993 134.808 386.993 135.48C386.993 135.928 387.265 136.28 387.809 136.536C388.385 136.76 389.105 136.968 389.969 137.16C390.865 137.352 391.809 137.608 392.801 137.928C393.825 138.248 394.769 138.696 395.633 139.272C396.529 139.816 397.249 140.584 397.793 141.576C398.369 142.536 398.657 143.784 398.657 145.32ZM421.918 151.848C419.71 152.776 417.518 153.352 415.342 153.576C413.166 153.8 411.102 153.672 409.15 153.192C407.23 152.744 405.518 151.96 404.014 150.84C402.51 149.72 401.326 148.296 400.462 146.568C399.63 144.84 399.214 142.84 399.214 140.568C399.214 138.68 399.518 136.952 400.126 135.384C400.766 133.784 401.662 132.392 402.814 131.208C403.966 129.992 405.326 129.064 406.894 128.424C408.462 127.752 410.174 127.416 412.03 127.416C413.694 127.416 415.198 127.688 416.542 128.232C417.886 128.776 419.054 129.544 420.046 130.536C421.038 131.496 421.838 132.648 422.446 133.992C423.054 135.336 423.438 136.808 423.598 138.408C423.758 140.008 423.662 141.704 423.31 143.496C420.686 143.496 418.046 143.496 415.39 143.496C412.734 143.496 410.094 143.496 407.47 143.496C408.078 144.712 409.086 145.576 410.494 146.088C411.934 146.6 413.63 146.76 415.582 146.568C417.566 146.376 419.678 145.864 421.918 145.032C421.918 146.152 421.918 147.288 421.918 148.44C421.918 149.592 421.918 150.728 421.918 151.848ZM411.838 134.52C410.91 134.52 410.046 134.776 409.246 135.288C408.478 135.8 407.886 136.584 407.47 137.64C408.91 137.64 410.35 137.64 411.79 137.64C413.262 137.64 414.718 137.64 416.158 137.64C415.774 136.552 415.198 135.768 414.43 135.288C413.694 134.776 412.83 134.52 411.838 134.52ZM447.233 151.848C445.025 152.776 442.833 153.352 440.657 153.576C438.481 153.8 436.417 153.672 434.465 153.192C432.545 152.744 430.833 151.96 429.329 150.84C427.825 149.72 426.641 148.296 425.777 146.568C424.945 144.84 424.529 142.84 424.529 140.568C424.529 138.68 424.833 136.952 425.441 135.384C426.081 133.784 426.977 132.392 428.129 131.208C429.281 129.992 430.641 129.064 432.209 128.424C433.777 127.752 435.489 127.416 437.345 127.416C439.009 127.416 440.513 127.688 441.857 128.232C443.201 128.776 444.369 129.544 445.361 130.536C446.353 131.496 447.153 132.648 447.761 133.992C448.369 135.336 448.753 136.808 448.913 138.408C449.073 140.008 448.977 141.704 448.625 143.496C446.001 143.496 443.361 143.496 440.705 143.496C438.049 143.496 435.409 143.496 432.785 143.496C433.393 144.712 434.401 145.576 435.809 146.088C437.249 146.6 438.945 146.76 440.897 146.568C442.881 146.376 444.993 145.864 447.233 145.032C447.233 146.152 447.233 147.288 447.233 148.44C447.233 149.592 447.233 150.728 447.233 151.848ZM437.153 134.52C436.225 134.52 435.361 134.776 434.561 135.288C433.793 135.8 433.201 136.584 432.785 137.64C434.225 137.64 435.665 137.64 437.105 137.64C438.577 137.64 440.033 137.64 441.473 137.64C441.089 136.552 440.513 135.768 439.745 135.288C439.009 134.776 438.145 134.52 437.153 134.52ZM451.187 153C451.187 148.904 451.187 144.776 451.187 140.616C451.187 136.424 451.187 132.28 451.187 128.184C452.499 128.184 453.827 128.184 455.171 128.184C456.515 128.184 457.827 128.184 459.107 128.184C459.107 128.408 459.107 128.616 459.107 128.808C459.107 129 459.107 129.208 459.107 129.432C459.971 128.824 460.931 128.36 461.987 128.04C463.075 127.688 464.243 127.512 465.491 127.512C467.315 127.512 468.915 127.928 470.291 128.76C471.699 129.592 472.787 130.792 473.555 132.36C474.355 133.896 474.755 135.752 474.755 137.928C474.755 140.424 474.755 142.936 474.755 145.464C474.755 147.992 474.755 150.504 474.755 153C473.475 153 472.163 153 470.819 153C469.475 153 468.147 153 466.835 153C466.835 150.696 466.835 148.36 466.835 145.992C466.835 143.624 466.835 141.288 466.835 138.984C466.835 137.704 466.531 136.68 465.923 135.912C465.347 135.112 464.419 134.712 463.139 134.712C461.859 134.712 460.867 135.08 460.163 135.816C459.459 136.552 459.107 137.608 459.107 138.984C459.107 141.288 459.107 143.624 459.107 145.992C459.107 148.36 459.107 150.696 459.107 153C457.827 153 456.515 153 455.171 153C453.827 153 452.499 153 451.187 153Z" fill="white"/>
<path fill-rule="evenodd" clip-rule="evenodd" d="M60.877 171.348C60.8842 171.349 60.8913 171.35 60.8984 171.351C60.9044 171.352 60.9103 171.353 60.9161 171.355C60.9233 171.356 60.9304 171.359 60.9375 171.361C60.9431 171.364 60.9483 171.366 60.9536 171.369C60.9581 171.371 60.963 171.372 60.9674 171.375L66.3027 174.469C66.3394 174.411 66.4036 174.373 66.4765 174.373C66.5905 174.373 66.683 174.467 66.6831 174.582V174.69L83.7902 184.613C83.7927 184.614 83.7947 184.616 83.7971 184.618C83.803 184.622 83.8086 184.626 83.814 184.63C83.8145 184.631 83.815 184.631 83.8155 184.631C83.8195 184.634 83.8236 184.638 83.8273 184.641C83.8338 184.647 83.8394 184.654 83.8451 184.661C83.8455 184.661 83.8459 184.662 83.8464 184.662C83.8488 184.665 83.8513 184.668 83.8536 184.671C83.8582 184.678 83.8617 184.685 83.8657 184.692C83.8685 184.697 83.8717 184.702 83.8741 184.707C83.8768 184.713 83.8788 184.719 83.881 184.726C83.8811 184.726 83.8812 184.726 83.8814 184.727C83.8836 184.733 83.8859 184.74 83.8874 184.746C83.8888 184.752 83.8896 184.758 83.8904 184.764C83.8905 184.765 83.8906 184.766 83.8907 184.766C83.8907 184.767 83.8908 184.767 83.8909 184.768C83.8916 184.774 83.8924 184.779 83.8927 184.785C83.8928 184.788 83.8939 184.791 83.8939 184.794V204.08L85.7258 205.122V186.307C85.7258 186.303 85.7265 186.3 85.7267 186.296C85.727 186.289 85.7276 186.282 85.7287 186.275C85.7297 186.268 85.7311 186.262 85.7327 186.255C85.7345 186.249 85.7367 186.242 85.7392 186.235C85.7402 186.232 85.7408 186.229 85.742 186.226L85.7521 186.206C85.7532 186.204 85.7545 186.202 85.7557 186.2C85.7603 186.192 85.7651 186.185 85.7706 186.178C85.7735 186.174 85.7764 186.17 85.7795 186.167C85.7853 186.16 85.7915 186.155 85.798 186.149C85.7994 186.148 85.8008 186.147 85.8021 186.145C85.8046 186.143 85.8071 186.141 85.8097 186.139C85.8159 186.135 85.8224 186.13 85.8291 186.127C85.8341 186.124 85.8392 186.121 85.8444 186.118C85.8521 186.115 85.8601 186.112 85.8682 186.109C85.8699 186.109 85.8716 186.108 85.8733 186.108C85.8755 186.107 85.8777 186.106 85.8799 186.106C85.888 186.104 85.8961 186.102 85.9045 186.101C85.9106 186.1 85.9166 186.1 85.9227 186.099C85.9258 186.099 85.9292 186.098 85.9324 186.098C85.9362 186.098 85.9399 186.099 85.9436 186.099C85.9499 186.1 85.956 186.1 85.9622 186.101C85.9707 186.103 85.979 186.104 85.9872 186.107C85.9914 186.108 85.9955 186.109 85.9997 186.111C86.0086 186.114 86.0172 186.117 86.0255 186.122C86.0278 186.123 86.0305 186.124 86.0328 186.125L91.3379 189.114V188.955C91.3379 188.839 91.4303 188.746 91.5444 188.746C91.6584 188.746 91.7509 188.839 91.7509 188.955V189.346L108.856 198.985C108.858 198.986 108.859 198.987 108.861 198.988C108.868 198.993 108.875 198.997 108.881 199.003L108.882 199.003C108.887 199.007 108.891 199.01 108.895 199.014C108.9 199.019 108.905 199.024 108.91 199.03C108.914 199.035 108.918 199.039 108.921 199.044C108.925 199.049 108.928 199.055 108.931 199.06C108.932 199.061 108.932 199.061 108.932 199.062C108.936 199.068 108.939 199.074 108.942 199.08C108.944 199.085 108.946 199.091 108.948 199.096C108.951 199.103 108.953 199.11 108.955 199.117C108.957 199.124 108.958 199.131 108.959 199.139C108.959 199.144 108.96 199.149 108.96 199.155C108.96 199.159 108.962 199.163 108.962 199.167V218.457C108.962 218.461 108.96 218.465 108.96 218.47C108.96 218.476 108.959 218.482 108.958 218.488C108.957 218.496 108.955 218.502 108.954 218.509C108.952 218.516 108.95 218.522 108.948 218.529C108.945 218.535 108.943 218.541 108.94 218.547C108.938 218.551 108.937 218.555 108.935 218.559C108.934 218.562 108.931 218.564 108.929 218.566C108.926 218.572 108.922 218.577 108.919 218.582C108.914 218.588 108.91 218.594 108.904 218.6C108.901 218.604 108.897 218.607 108.893 218.611C108.887 218.616 108.881 218.621 108.875 218.625C108.869 218.63 108.863 218.633 108.857 218.637C108.852 218.639 108.848 218.642 108.844 218.644C108.836 218.648 108.829 218.651 108.822 218.653C108.815 218.655 108.809 218.657 108.802 218.659C108.797 218.66 108.791 218.661 108.785 218.662C108.778 218.663 108.771 218.664 108.764 218.664C108.761 218.664 108.758 218.665 108.755 218.665C108.751 218.665 108.746 218.664 108.742 218.664C108.736 218.663 108.73 218.663 108.724 218.662C108.716 218.66 108.708 218.659 108.7 218.657L108.699 218.657C108.695 218.655 108.691 218.654 108.687 218.653C108.678 218.65 108.669 218.646 108.661 218.641C108.659 218.64 108.656 218.64 108.654 218.638L86.3776 205.971L86.0296 206.159C86.0266 206.161 86.0229 206.161 86.0199 206.163C86.0146 206.165 86.0093 206.168 86.0037 206.17C85.9949 206.173 85.9861 206.176 85.9771 206.178C85.9744 206.179 85.9718 206.179 85.9691 206.18C85.9584 206.182 85.9479 206.183 85.9372 206.183C85.9356 206.183 85.934 206.184 85.9324 206.184C85.9303 206.184 85.928 206.183 85.9259 206.183C85.9159 206.183 85.9062 206.181 85.8965 206.18C85.8959 206.179 85.8953 206.179 85.8947 206.179C85.8911 206.179 85.8875 206.178 85.884 206.177C85.876 206.175 85.8683 206.173 85.8606 206.17C85.8553 206.168 85.8499 206.166 85.8448 206.164C85.8371 206.16 85.8299 206.156 85.8226 206.151C85.8188 206.149 85.815 206.146 85.8114 206.143C85.8051 206.139 85.799 206.134 85.7932 206.129C85.7891 206.125 85.7849 206.121 85.7811 206.117C85.7756 206.111 85.7706 206.104 85.7658 206.098C85.7623 206.093 85.7592 206.088 85.7561 206.083C85.7542 206.079 85.7518 206.076 85.75 206.073C85.7485 206.07 85.7474 206.067 85.746 206.064C85.7433 206.058 85.741 206.052 85.7388 206.046C85.736 206.039 85.7333 206.031 85.7315 206.023C85.7304 206.018 85.7298 206.014 85.7291 206.009C85.7275 205.999 85.7265 205.99 85.7262 205.98C85.7262 205.978 85.7258 205.977 85.7258 205.975V205.601L83.8745 204.548C83.8421 204.62 83.7709 204.67 83.6874 204.671C83.5733 204.671 83.4809 204.577 83.4809 204.462V204.324L60.7633 191.406C60.7607 191.404 60.7585 191.402 60.756 191.401C60.7516 191.398 60.7473 191.395 60.7431 191.392C60.7386 191.389 60.734 191.386 60.7298 191.382L60.729 191.381L60.7221 191.375C60.7198 191.372 60.7175 191.37 60.7153 191.368C60.7107 191.363 60.7061 191.358 60.702 191.353C60.7002 191.35 60.6988 191.348 60.6971 191.346C60.6939 191.341 60.691 191.336 60.6881 191.331L60.6878 191.331C60.6861 191.328 60.6838 191.325 60.6822 191.322C60.6819 191.322 60.6816 191.321 60.6813 191.321C60.6809 191.32 60.6805 191.319 60.6802 191.319C60.6793 191.317 60.679 191.315 60.6782 191.313C60.6754 191.308 60.6731 191.302 60.6709 191.295C60.6683 191.288 60.6658 191.281 60.664 191.273C60.6628 191.268 60.662 191.263 60.6612 191.257C60.6611 191.256 60.6609 191.256 60.6608 191.255C60.6597 191.247 60.6591 191.239 60.6588 191.232C60.6587 191.229 60.658 191.226 60.658 191.224V171.556C60.658 171.553 60.6587 171.55 60.6588 171.547C60.6592 171.538 60.6598 171.529 60.6612 171.521C60.6622 171.515 60.6634 171.509 60.6649 171.503C60.6667 171.496 60.6691 171.489 60.6717 171.482C60.6743 171.475 60.6773 171.469 60.6806 171.462C60.6822 171.459 60.6836 171.455 60.6854 171.452C60.6865 171.45 60.6879 171.449 60.6891 171.447C60.693 171.44 60.6973 171.434 60.702 171.428C60.706 171.423 60.71 171.418 60.7145 171.413C60.7194 171.408 60.7251 171.403 60.7306 171.398C60.7348 171.395 60.7386 171.39 60.7431 171.387C60.7495 171.382 60.7567 171.379 60.7637 171.375C60.7685 171.372 60.7732 171.369 60.7782 171.367C60.7838 171.364 60.7896 171.362 60.7955 171.36C60.8027 171.357 60.8099 171.355 60.8173 171.353C60.8234 171.352 60.8296 171.351 60.8359 171.35C60.8424 171.349 60.849 171.348 60.8556 171.348C60.8585 171.348 60.8616 171.347 60.8645 171.347C60.8687 171.347 60.8729 171.348 60.877 171.348ZM86.81 205.738L108.549 218.099V212.905L91.5412 203.187L86.81 205.738ZM91.7509 202.827L108.549 212.425V199.289L91.7509 189.824V202.827ZM86.1389 205.356L86.3825 205.495L91.3379 202.823V189.592L86.1389 186.662V205.356ZM61.2941 191.229L83.4809 203.845V198.154L66.4733 188.436L61.2941 191.229ZM66.6831 188.076L83.4809 197.674V184.915L66.6831 175.171V188.076ZM61.071 190.876L66.27 188.073V174.932L61.071 171.916V190.876Z" fill="white"/>
<path fill-rule="evenodd" clip-rule="evenodd" d="M85.9449 161.515C85.952 161.515 85.9591 161.516 85.9662 161.517C85.9722 161.518 85.9782 161.519 85.984 161.521C85.9912 161.523 85.9983 161.525 86.0054 161.528C86.0109 161.53 86.0162 161.532 86.0215 161.535C86.0259 161.537 86.0309 161.539 86.0352 161.541L91.3706 164.635C91.4073 164.578 91.4714 164.539 91.5444 164.539C91.6584 164.539 91.7508 164.633 91.7509 164.748V164.856L108.858 174.779C108.86 174.78 108.862 174.783 108.865 174.784C108.871 174.788 108.876 174.792 108.882 174.796C108.886 174.8 108.891 174.803 108.895 174.807C108.902 174.813 108.907 174.82 108.913 174.827C108.914 174.828 108.915 174.829 108.916 174.831C108.918 174.833 108.92 174.835 108.921 174.837C108.926 174.844 108.93 174.851 108.934 174.858C108.936 174.863 108.94 174.868 108.942 174.873C108.945 174.879 108.947 174.885 108.949 174.892C108.949 174.892 108.949 174.892 108.949 174.893C108.951 174.899 108.954 174.906 108.955 174.912C108.957 174.918 108.957 174.924 108.958 174.931C108.958 174.931 108.958 174.932 108.959 174.932C108.959 174.939 108.96 174.945 108.961 174.951C108.961 174.954 108.962 174.957 108.962 174.96V196.141C108.962 196.145 108.96 196.15 108.96 196.154C108.96 196.161 108.959 196.167 108.958 196.174C108.957 196.181 108.955 196.188 108.954 196.194C108.952 196.201 108.95 196.208 108.948 196.214C108.945 196.22 108.943 196.226 108.94 196.232C108.938 196.236 108.937 196.24 108.935 196.244C108.933 196.247 108.931 196.249 108.929 196.251C108.926 196.257 108.921 196.263 108.917 196.269C108.913 196.273 108.91 196.278 108.906 196.283C108.901 196.288 108.895 196.293 108.89 196.298C108.885 196.302 108.881 196.306 108.875 196.31C108.87 196.314 108.863 196.318 108.857 196.321C108.856 196.322 108.855 196.323 108.854 196.323C108.849 196.326 108.845 196.328 108.841 196.33C108.835 196.333 108.828 196.335 108.821 196.338C108.82 196.338 108.819 196.338 108.818 196.339C108.813 196.34 108.809 196.342 108.804 196.343C108.797 196.345 108.791 196.346 108.784 196.347C108.777 196.348 108.769 196.349 108.761 196.349C108.759 196.349 108.757 196.35 108.755 196.35C108.752 196.35 108.749 196.349 108.746 196.349C108.738 196.348 108.73 196.348 108.722 196.347C108.715 196.345 108.708 196.344 108.701 196.342C108.695 196.34 108.69 196.338 108.684 196.336C108.676 196.333 108.668 196.329 108.66 196.325C108.658 196.324 108.655 196.324 108.653 196.322L85.8303 183.186C85.7658 183.149 85.7258 183.08 85.7258 183.004V161.722C85.7258 161.719 85.7265 161.716 85.7267 161.713C85.727 161.704 85.7276 161.696 85.7291 161.687C85.7301 161.681 85.7312 161.675 85.7327 161.669C85.7346 161.662 85.7369 161.655 85.7396 161.648C85.7421 161.641 85.7452 161.635 85.7484 161.628C85.7501 161.625 85.7514 161.621 85.7533 161.618C85.7543 161.616 85.7558 161.615 85.7569 161.613C85.7612 161.606 85.766 161.599 85.771 161.593C85.7743 161.589 85.7771 161.584 85.7807 161.58C85.7867 161.574 85.7933 161.568 85.8001 161.562C85.8007 161.562 85.8013 161.561 85.8019 161.561C85.8047 161.558 85.8076 161.556 85.8105 161.554C85.8171 161.549 85.8244 161.545 85.8315 161.541C85.8364 161.538 85.841 161.535 85.846 161.533C85.8519 161.53 85.858 161.528 85.8642 161.526C85.8647 161.526 85.8651 161.526 85.8656 161.525C85.8719 161.523 85.8782 161.521 85.8848 161.519C85.8911 161.518 85.8976 161.517 85.9041 161.516C85.9106 161.515 85.917 161.514 85.9235 161.514C85.9264 161.514 85.9294 161.513 85.9324 161.513C85.9366 161.513 85.9407 161.514 85.9449 161.515ZM86.2687 182.958L108.549 195.782V190.208L91.5392 180.116L86.2687 182.958ZM91.7509 179.757L108.549 189.724V175.081L91.7509 165.338V179.757ZM86.1389 182.555L91.3379 179.752V165.098L86.1389 162.083V182.555Z" fill="white"/>
<path d="M59.742 94.9449C59.856 94.945 59.9484 95.0385 59.9485 95.1537V190.846C59.9485 190.961 59.856 191.054 59.742 191.054C59.628 191.054 59.5356 190.961 59.5355 190.846V95.1537C59.5356 95.0385 59.628 94.9449 59.742 94.9449Z" fill="white"/>
<path fill-rule="evenodd" clip-rule="evenodd" d="M60.8758 147.52C60.8821 147.52 60.8884 147.521 60.8948 147.522C60.9015 147.523 60.908 147.524 60.9145 147.526C60.9208 147.527 60.9269 147.529 60.9331 147.532C60.9404 147.534 60.9475 147.537 60.9544 147.54C60.9572 147.542 60.9602 147.543 60.9629 147.544L66.27 150.446V150.375C66.2701 150.26 66.3625 150.166 66.4765 150.166C66.5905 150.166 66.683 150.26 66.6831 150.375V150.672L83.7858 160.025C83.7891 160.027 83.7919 160.03 83.7951 160.032C83.7999 160.035 83.8044 160.038 83.8089 160.041C83.8093 160.042 83.8096 160.042 83.81 160.042C83.8162 160.047 83.8222 160.052 83.8277 160.057C83.8313 160.06 83.8345 160.064 83.8378 160.067C83.8443 160.075 83.8502 160.082 83.8556 160.09C83.8574 160.092 83.8591 160.095 83.8608 160.097C83.8662 160.106 83.8709 160.115 83.8749 160.124C83.8766 160.128 83.8779 160.132 83.8794 160.136C83.8822 160.143 83.8847 160.151 83.8866 160.159C83.8882 160.165 83.8893 160.171 83.8903 160.178C83.8912 160.185 83.8923 160.191 83.8927 160.198C83.8929 160.201 83.8939 160.205 83.8939 160.209V181.39C83.8939 181.394 83.8928 181.397 83.8927 181.4C83.8923 181.408 83.8915 181.416 83.8903 181.424C83.8893 181.429 83.888 181.435 83.8866 181.441C83.8848 181.448 83.8825 181.456 83.8798 181.463C83.8775 181.469 83.8749 181.475 83.8721 181.48C83.8704 181.484 83.8696 181.488 83.8677 181.492C83.8662 181.494 83.864 181.497 83.8624 181.499C83.8583 181.506 83.8535 181.512 83.8487 181.518C83.8456 181.522 83.8428 181.526 83.8394 181.53C83.8339 181.536 83.8279 181.542 83.8217 181.547C83.8173 181.551 83.813 181.555 83.8084 181.558C83.8021 181.563 83.7954 181.567 83.7886 181.57C83.7844 181.573 83.7805 181.576 83.7761 181.578C83.7687 181.581 83.761 181.584 83.7531 181.587C83.7475 181.589 83.7419 181.591 83.7362 181.592C83.7301 181.594 83.7239 181.594 83.7176 181.595C83.7102 181.596 83.7029 181.597 83.6954 181.598C83.6928 181.598 83.6901 181.599 83.6874 181.599C83.6839 181.599 83.6803 181.598 83.6769 181.598C83.6692 181.597 83.6616 181.597 83.6539 181.595C83.6473 181.594 83.6409 181.593 83.6345 181.591C83.6291 181.59 83.6238 181.588 83.6184 181.586C83.6098 181.583 83.6014 181.58 83.5934 181.575C83.5913 181.574 83.589 181.574 83.5869 181.572L60.7641 168.725C60.6986 168.688 60.658 168.618 60.658 168.542V147.728C60.658 147.725 60.6587 147.722 60.6588 147.719C60.6591 147.711 60.6597 147.704 60.6608 147.696C60.6619 147.689 60.6635 147.682 60.6653 147.675C60.6666 147.67 60.6683 147.664 60.6701 147.659C60.6729 147.651 60.676 147.643 60.6798 147.636C60.6809 147.633 60.6818 147.63 60.683 147.628C60.6844 147.626 60.686 147.623 60.6874 147.621C60.6913 147.614 60.6954 147.608 60.6999 147.602C60.7042 147.596 60.7085 147.591 60.7133 147.586C60.7173 147.581 60.7217 147.577 60.7262 147.573C60.7315 147.568 60.7369 147.564 60.7427 147.559C60.7434 147.559 60.7441 147.558 60.7448 147.558C60.7461 147.557 60.7474 147.556 60.7487 147.555L60.7689 147.543C60.7709 147.541 60.773 147.541 60.775 147.54C60.7822 147.536 60.7898 147.533 60.7976 147.531C60.8026 147.529 60.8077 147.528 60.8129 147.526C60.8198 147.524 60.8267 147.523 60.8339 147.522C60.8403 147.521 60.8467 147.52 60.8532 147.52C60.8569 147.52 60.8607 147.519 60.8645 147.519C60.8683 147.519 60.872 147.52 60.8758 147.52ZM61.3062 168.552L83.4809 181.035V175.838L66.4673 166.117L61.3062 168.552ZM66.6831 165.76L83.4809 175.359V160.334L66.6831 151.147V165.76ZM61.071 168.202L66.27 165.75V150.921L61.071 148.077V168.202Z" fill="white"/>
<path fill-rule="evenodd" clip-rule="evenodd" d="M85.9449 137.686C85.9511 137.687 85.9572 137.687 85.9634 137.688C85.972 137.689 85.9802 137.691 85.9884 137.694C85.993 137.695 85.9976 137.696 86.0021 137.698C86.0103 137.701 86.0183 137.704 86.0259 137.708C86.0289 137.71 86.0323 137.711 86.0352 137.713L91.3706 140.807C91.4073 140.749 91.4713 140.711 91.5444 140.711C91.6584 140.711 91.7509 140.804 91.7509 140.92V141.028L108.858 150.951C108.86 150.952 108.861 150.953 108.863 150.955C108.869 150.959 108.876 150.963 108.881 150.968C108.887 150.972 108.892 150.976 108.896 150.98C108.901 150.985 108.906 150.99 108.91 150.995C108.915 151 108.919 151.005 108.923 151.011C108.926 151.016 108.929 151.021 108.932 151.026C108.932 151.027 108.933 151.028 108.934 151.029C108.937 151.035 108.94 151.04 108.943 151.046C108.945 151.051 108.946 151.056 108.948 151.061C108.948 151.062 108.949 151.063 108.949 151.064C108.952 151.071 108.954 151.078 108.956 151.085C108.957 151.091 108.958 151.097 108.959 151.103C108.959 151.11 108.96 151.116 108.961 151.123C108.961 151.126 108.962 151.129 108.962 151.132V171.556C108.962 171.561 108.96 171.566 108.96 171.571C108.96 171.576 108.959 171.581 108.959 171.587C108.957 171.594 108.956 171.601 108.954 171.608C108.952 171.615 108.95 171.622 108.948 171.629C108.945 171.635 108.943 171.641 108.94 171.646C108.938 171.65 108.937 171.654 108.936 171.658C108.934 171.661 108.932 171.663 108.93 171.665C108.926 171.672 108.922 171.677 108.918 171.683C108.914 171.688 108.91 171.693 108.906 171.697C108.901 171.703 108.895 171.708 108.889 171.713C108.888 171.714 108.887 171.715 108.887 171.716C108.883 171.718 108.88 171.721 108.877 171.724C108.87 171.729 108.863 171.733 108.856 171.737C108.852 171.739 108.848 171.742 108.844 171.744C108.836 171.748 108.828 171.751 108.82 171.753C108.819 171.754 108.817 171.754 108.816 171.755C108.812 171.756 108.808 171.757 108.804 171.758C108.799 171.759 108.794 171.76 108.789 171.761C108.788 171.761 108.787 171.761 108.785 171.761C108.778 171.763 108.771 171.764 108.763 171.764C108.761 171.764 108.758 171.765 108.755 171.765C108.752 171.765 108.748 171.764 108.745 171.764C108.737 171.764 108.729 171.763 108.722 171.761C108.715 171.76 108.709 171.759 108.702 171.757C108.697 171.756 108.692 171.754 108.686 171.752C108.678 171.749 108.669 171.746 108.661 171.741C108.659 171.74 108.657 171.74 108.655 171.739L86.249 159.126L86.0384 159.254C85.9407 159.313 85.8139 159.281 85.7553 159.182C85.6966 159.083 85.7285 158.955 85.8263 158.896L85.8331 158.891L85.8319 158.891C85.7665 158.854 85.7259 158.784 85.7258 158.708V137.894C85.7258 137.891 85.7265 137.888 85.7267 137.884C85.727 137.876 85.7276 137.867 85.7291 137.859C85.7301 137.853 85.7312 137.847 85.7327 137.841C85.7346 137.834 85.7369 137.827 85.7396 137.82C85.7421 137.813 85.7452 137.807 85.7484 137.8C85.7501 137.797 85.7514 137.793 85.7533 137.79C85.7543 137.788 85.7558 137.786 85.7569 137.785C85.7612 137.778 85.766 137.771 85.771 137.765C85.7744 137.76 85.7775 137.756 85.7811 137.752C85.7868 137.746 85.7929 137.74 85.7993 137.735C85.8032 137.731 85.8068 137.728 85.8109 137.725C85.8171 137.72 85.824 137.717 85.8307 137.713C85.8357 137.71 85.8404 137.707 85.8456 137.704C85.8529 137.701 85.8605 137.698 85.8682 137.696C85.8729 137.694 85.8776 137.693 85.8823 137.692C85.8895 137.69 85.8967 137.688 85.9041 137.687C85.9112 137.686 85.9183 137.686 85.9255 137.685C85.9277 137.685 85.9301 137.685 85.9324 137.685C85.9366 137.685 85.9407 137.686 85.9449 137.686ZM86.6576 158.878L108.549 171.201V166.002L91.5452 155.913L86.6576 158.878ZM91.7509 155.551L108.549 165.518V151.253L91.7509 141.509V155.551ZM86.1389 158.586L86.2413 158.643L91.3379 155.552V141.27L86.1389 138.254V158.586Z" fill="white"/>
<path fill-rule="evenodd" clip-rule="evenodd" d="M60.8778 123.313C60.8833 123.314 60.8888 123.314 60.8944 123.315C60.9016 123.316 60.9087 123.318 60.9157 123.32C60.9227 123.321 60.9295 123.323 60.9363 123.326C60.9423 123.328 60.9479 123.331 60.9536 123.334C60.9573 123.336 60.9613 123.337 60.9649 123.339L66.27 126.328V126.169C66.27 126.054 66.3625 125.96 66.4765 125.96C66.5906 125.96 66.6831 126.054 66.6831 126.169V126.56L83.7878 136.198C83.7904 136.2 83.7926 136.202 83.7951 136.203C83.8017 136.207 83.8079 136.212 83.814 136.217C83.818 136.22 83.822 136.223 83.8257 136.227C83.8318 136.232 83.8373 136.238 83.8427 136.244C83.8464 136.249 83.8502 136.253 83.8536 136.258C83.8577 136.264 83.8613 136.27 83.8648 136.276C83.868 136.281 83.8711 136.287 83.8737 136.293C83.8758 136.297 83.8774 136.302 83.8791 136.307C83.8796 136.308 83.8801 136.309 83.8806 136.311C83.883 136.318 83.8853 136.325 83.887 136.332C83.8884 136.338 83.8893 136.344 83.8903 136.35C83.8914 136.357 83.8924 136.365 83.8927 136.372C83.8928 136.375 83.8939 136.378 83.8939 136.381V157.562C83.8939 157.566 83.8925 157.571 83.8923 157.575C83.8919 157.581 83.8912 157.587 83.8903 157.593C83.8891 157.601 83.8874 157.608 83.8854 157.616C83.8839 157.621 83.8822 157.627 83.8802 157.632C83.8775 157.64 83.8747 157.647 83.8713 157.654C83.8698 157.657 83.869 157.661 83.8673 157.664C83.8661 157.666 83.8641 157.668 83.8628 157.67C83.8586 157.677 83.8537 157.684 83.8487 157.69C83.8453 157.694 83.8419 157.699 83.8382 157.703C83.833 157.708 83.8275 157.713 83.8217 157.718C83.8173 157.722 83.813 157.726 83.8084 157.73C83.8023 157.734 83.796 157.738 83.7894 157.742C83.7842 157.745 83.7791 157.748 83.7737 157.75C83.7672 157.753 83.7604 157.756 83.7535 157.758C83.7479 157.76 83.7424 157.762 83.7366 157.763C83.7302 157.765 83.7238 157.766 83.7172 157.767C83.7093 157.768 83.7015 157.769 83.6934 157.769C83.6914 157.77 83.6894 157.77 83.6874 157.77C83.684 157.77 83.6806 157.769 83.6773 157.769C83.6699 157.769 83.6625 157.768 83.6551 157.767C83.6477 157.766 83.6405 157.764 83.6333 157.762C83.6279 157.761 83.6225 157.759 83.6172 157.757C83.6085 157.754 83.6003 157.75 83.5922 157.746C83.5903 157.745 83.588 157.744 83.5861 157.743L60.7633 144.752C60.6983 144.715 60.658 144.645 60.658 144.57V123.521C60.658 123.517 60.6586 123.513 60.6588 123.509C60.6592 123.503 60.6599 123.497 60.6608 123.49C60.6621 123.482 60.6638 123.473 60.6661 123.465C60.6672 123.461 60.6686 123.457 60.6701 123.452C60.6732 123.443 60.6767 123.435 60.681 123.426C60.6821 123.424 60.683 123.422 60.6842 123.419C60.6853 123.417 60.6867 123.416 60.6878 123.414C60.6922 123.406 60.6968 123.4 60.702 123.393C60.7055 123.388 60.709 123.384 60.7129 123.379C60.7181 123.374 60.7239 123.369 60.7298 123.364C60.7305 123.363 60.7313 123.362 60.732 123.362C60.7352 123.359 60.7384 123.356 60.7419 123.353C60.7481 123.349 60.7546 123.345 60.7613 123.341C60.7664 123.338 60.7716 123.335 60.777 123.332C60.7831 123.329 60.7895 123.327 60.7959 123.325C60.8026 123.322 60.8093 123.32 60.8161 123.319C60.8217 123.317 60.8273 123.316 60.833 123.315C60.8404 123.314 60.8478 123.313 60.8552 123.313C60.8583 123.313 60.8614 123.312 60.8645 123.312C60.869 123.312 60.8734 123.313 60.8778 123.313ZM61.0726 144.448L83.4809 157.204V151.254L66.4733 141.536L61.0726 144.448ZM66.6831 141.176L83.4809 150.774V136.503L66.6831 127.038V141.176ZM61.071 143.976L66.27 141.172V126.805L61.071 123.876V143.976Z" fill="white"/>
<path fill-rule="evenodd" clip-rule="evenodd" d="M85.9436 111.966C85.9499 111.967 85.956 111.968 85.9622 111.968C85.9707 111.97 85.979 111.971 85.9872 111.974C85.9914 111.975 85.9955 111.976 85.9997 111.978C86.0086 111.981 86.0172 111.985 86.0255 111.989C86.0278 111.99 86.0305 111.991 86.0328 111.992L91.4246 115.03C91.4584 115.006 91.4997 114.991 91.5444 114.991C91.6584 114.991 91.7509 115.085 91.7509 115.2V115.214L108.856 124.852C108.858 124.853 108.859 124.854 108.861 124.855C108.868 124.86 108.875 124.865 108.881 124.87C108.882 124.87 108.882 124.87 108.882 124.871C108.887 124.874 108.891 124.877 108.895 124.881C108.899 124.885 108.903 124.89 108.907 124.894C108.908 124.895 108.909 124.896 108.91 124.897C108.91 124.897 108.91 124.898 108.911 124.898C108.914 124.902 108.918 124.907 108.921 124.911C108.925 124.917 108.928 124.922 108.931 124.928C108.935 124.934 108.939 124.94 108.942 124.947C108.944 124.952 108.946 124.958 108.948 124.964C108.951 124.97 108.953 124.977 108.955 124.984C108.957 124.991 108.957 124.998 108.958 125.005L108.959 125.006C108.959 125.011 108.96 125.016 108.96 125.022C108.96 125.026 108.962 125.03 108.962 125.034V148.106C108.962 148.11 108.96 148.114 108.96 148.119C108.96 148.126 108.959 148.133 108.958 148.14C108.957 148.146 108.956 148.152 108.954 148.158C108.952 148.166 108.95 148.173 108.947 148.18C108.945 148.185 108.943 148.19 108.94 148.195L108.94 148.196C108.938 148.201 108.937 148.206 108.934 148.21C108.933 148.213 108.931 148.215 108.929 148.217C108.925 148.223 108.921 148.229 108.917 148.234C108.913 148.239 108.91 148.243 108.906 148.248C108.901 148.253 108.895 148.258 108.89 148.262L108.889 148.263C108.884 148.267 108.88 148.272 108.874 148.276C108.868 148.28 108.862 148.283 108.856 148.287L108.855 148.287C108.851 148.29 108.847 148.292 108.843 148.294C108.835 148.298 108.827 148.3 108.819 148.303C108.814 148.305 108.808 148.307 108.802 148.308C108.797 148.31 108.791 148.31 108.785 148.311C108.784 148.311 108.783 148.311 108.782 148.312C108.776 148.312 108.77 148.313 108.764 148.314C108.761 148.314 108.758 148.315 108.755 148.315C108.751 148.315 108.747 148.313 108.742 148.313C108.735 148.313 108.728 148.312 108.721 148.311C108.714 148.31 108.708 148.308 108.702 148.307C108.701 148.306 108.7 148.306 108.699 148.306C108.694 148.305 108.689 148.303 108.684 148.301C108.676 148.298 108.669 148.295 108.662 148.291L108.661 148.291C108.658 148.289 108.655 148.289 108.652 148.287L85.8295 135.049C85.8271 135.048 85.8249 135.046 85.8226 135.044C85.8185 135.041 85.8145 135.039 85.8105 135.036C85.8063 135.033 85.8021 135.03 85.798 135.026C85.7956 135.024 85.7935 135.022 85.7912 135.02C85.7873 135.016 85.7835 135.012 85.7799 135.008C85.7766 135.005 85.7733 135.001 85.7702 134.997C85.7697 134.996 85.7692 134.995 85.7687 134.995C85.7671 134.993 85.7656 134.991 85.7642 134.989C85.761 134.984 85.7585 134.979 85.7557 134.975C85.754 134.972 85.7517 134.969 85.75 134.966C85.7494 134.965 85.7491 134.963 85.7484 134.962C85.747 134.959 85.7457 134.956 85.7444 134.954C85.7423 134.949 85.7405 134.944 85.7388 134.939C85.7369 134.934 85.7345 134.929 85.7331 134.924C85.7323 134.921 85.7318 134.918 85.7311 134.915C85.7301 134.91 85.7298 134.906 85.7291 134.901C85.7276 134.892 85.7265 134.883 85.7262 134.873C85.7262 134.871 85.7258 134.87 85.7258 134.868V112.174C85.7258 112.17 85.7264 112.166 85.7267 112.163C85.727 112.156 85.7276 112.149 85.7287 112.142C85.7298 112.135 85.7313 112.128 85.7331 112.121C85.7347 112.115 85.7362 112.109 85.7383 112.103C85.7414 112.095 85.7452 112.086 85.7492 112.079C85.7502 112.077 85.751 112.075 85.7521 112.073C85.7528 112.071 85.7537 112.07 85.7545 112.069C85.7597 112.06 85.7654 112.051 85.7718 112.043C85.7742 112.04 85.7765 112.037 85.7791 112.035C85.785 112.028 85.7914 112.022 85.798 112.016C85.7987 112.016 85.7994 112.015 85.8001 112.014C85.8033 112.012 85.8064 112.009 85.8097 112.006C85.8159 112.002 85.8224 111.998 85.8291 111.994C85.8343 111.991 85.8394 111.988 85.8448 111.985C85.8511 111.982 85.8576 111.98 85.8642 111.978C85.8702 111.976 85.8762 111.974 85.8823 111.972C85.8892 111.97 85.8962 111.969 85.9033 111.968C85.9097 111.967 85.9162 111.967 85.9227 111.966C85.9258 111.966 85.9292 111.966 85.9324 111.966C85.9362 111.966 85.9399 111.966 85.9436 111.966ZM86.3587 134.874L108.549 147.745V142.173L91.5392 132.081L86.3587 134.874ZM91.7509 131.722L108.549 141.689V125.156L91.7509 115.692V131.722ZM86.1389 134.52L91.3379 131.717V115.459L86.1389 112.53V134.52Z" fill="white"/>
<path fill-rule="evenodd" clip-rule="evenodd" d="M60.8758 97.5936C60.8821 97.5939 60.8884 97.5947 60.8948 97.5956C60.9029 97.5968 60.9108 97.5984 60.9186 97.6005C60.9235 97.6019 60.9282 97.6037 60.9331 97.6054C60.9414 97.6084 60.9494 97.612 60.9573 97.616C60.9597 97.6173 60.9625 97.6179 60.9649 97.6193L66.27 100.608V100.449C66.2701 100.334 66.3625 100.24 66.4765 100.24C66.5906 100.24 66.683 100.334 66.6831 100.449V100.841L83.7878 110.479C83.7904 110.48 83.7926 110.482 83.7951 110.484C83.8008 110.487 83.8063 110.491 83.8116 110.495C83.8171 110.499 83.8224 110.504 83.8273 110.508C83.8317 110.512 83.8355 110.517 83.8394 110.521C83.8402 110.522 83.841 110.523 83.8419 110.524C83.8459 110.529 83.85 110.534 83.8536 110.539C83.8573 110.544 83.8604 110.549 83.8636 110.555C83.8674 110.561 83.8711 110.567 83.8741 110.574C83.8766 110.579 83.8785 110.585 83.8806 110.591C83.8831 110.598 83.8853 110.605 83.887 110.612C83.8884 110.618 83.8894 110.624 83.8903 110.629C83.8914 110.637 83.8924 110.645 83.8927 110.653C83.8928 110.656 83.8939 110.658 83.8939 110.661V133.355C83.8939 133.359 83.8925 133.364 83.8923 133.368C83.8919 133.374 83.8913 133.381 83.8903 133.387C83.8893 133.394 83.8881 133.399 83.8866 133.405C83.8847 133.413 83.8823 133.421 83.8794 133.429C83.8774 133.434 83.8752 133.439 83.8729 133.444C83.8708 133.448 83.8697 133.453 83.8673 133.458C83.8655 133.461 83.8627 133.463 83.8608 133.466C83.8581 133.47 83.8554 133.475 83.8523 133.479C83.8474 133.486 83.8422 133.492 83.8366 133.498C83.833 133.502 83.8292 133.505 83.8253 133.509C83.8194 133.514 83.8132 133.519 83.8068 133.524C83.8017 133.528 83.7964 133.531 83.791 133.534C83.7905 133.535 83.7901 133.535 83.7896 133.535C83.7842 133.538 83.7789 133.541 83.7733 133.544C83.768 133.546 83.7626 133.549 83.7572 133.551C83.7496 133.553 83.742 133.556 83.7342 133.557C83.7292 133.559 83.7243 133.56 83.7192 133.56C83.7107 133.562 83.7021 133.562 83.6934 133.563C83.6914 133.563 83.6894 133.564 83.6874 133.564C83.684 133.564 83.6806 133.563 83.6773 133.562C83.6699 133.562 83.6625 133.562 83.6551 133.56C83.6477 133.559 83.6405 133.557 83.6333 133.555C83.6278 133.554 83.6223 133.552 83.6168 133.55C83.6095 133.547 83.6023 133.545 83.5954 133.541C83.5924 133.54 83.5891 133.539 83.5861 133.537L60.7633 120.542C60.6983 120.505 60.658 120.435 60.658 120.36V97.8015C60.658 97.7977 60.6586 97.7939 60.6588 97.7901C60.6592 97.7834 60.6598 97.7768 60.6608 97.7701C60.662 97.7621 60.6636 97.7542 60.6657 97.7465C60.667 97.7415 60.6688 97.7367 60.6705 97.7318C60.6735 97.7234 60.677 97.7153 60.681 97.7074C60.6822 97.705 60.6829 97.7024 60.6842 97.7C60.6853 97.698 60.6867 97.6962 60.6878 97.6943C60.6922 97.6871 60.6968 97.6802 60.702 97.6735C60.704 97.6708 60.7058 97.6679 60.708 97.6654L60.7185 97.6539C60.7217 97.6507 60.7252 97.648 60.7286 97.645C60.7331 97.641 60.7375 97.6371 60.7423 97.6336C60.7484 97.629 60.7547 97.6248 60.7613 97.6209C60.7663 97.618 60.7714 97.6152 60.7766 97.6128C60.779 97.6116 60.7813 97.6102 60.7838 97.6091L60.808 97.6009C60.8095 97.6005 60.811 97.6001 60.8125 97.5997C60.8202 97.5977 60.8282 97.5963 60.8363 97.5952C60.8426 97.5943 60.8489 97.5939 60.8552 97.5936C60.8583 97.5935 60.8614 97.5928 60.8645 97.5928C60.8683 97.5928 60.872 97.5934 60.8758 97.5936ZM61.0823 120.244L83.4809 132.998V127.425L66.4673 117.704L61.0823 120.244ZM66.6831 117.347L83.4809 126.945V110.784L66.6831 101.319V117.347ZM61.071 119.789L66.27 117.336V101.086L61.071 98.1567V119.789Z" fill="white"/>
<path fill-rule="evenodd" clip-rule="evenodd" d="M157.777 99.1063C157.783 99.1066 157.79 99.1075 157.796 99.1083C157.802 99.1092 157.809 99.1101 157.815 99.1116C157.823 99.1135 157.83 99.1161 157.838 99.119C157.843 99.1206 157.847 99.1219 157.852 99.1238C157.86 99.1276 157.868 99.1324 157.876 99.1373C157.879 99.1394 157.883 99.1411 157.886 99.1434C157.893 99.1482 157.899 99.1537 157.905 99.1593C157.909 99.163 157.913 99.1667 157.917 99.1707C157.922 99.1756 157.926 99.1808 157.93 99.1862C157.935 99.1918 157.939 99.1973 157.943 99.2034C157.944 99.2056 157.946 99.2076 157.947 99.2099C157.949 99.2139 157.951 99.2184 157.953 99.2225C157.955 99.228 157.958 99.2335 157.96 99.2392C157.963 99.247 157.965 99.2549 157.967 99.2629C157.969 99.268 157.97 99.2731 157.971 99.2784C157.972 99.2872 157.973 99.296 157.973 99.3049C157.973 99.308 157.975 99.3111 157.975 99.3143V122.008C157.975 122.009 157.974 122.011 157.974 122.013C157.974 122.021 157.972 122.029 157.971 122.037C157.971 122.043 157.97 122.048 157.969 122.054C157.967 122.063 157.964 122.071 157.961 122.08C157.959 122.084 157.958 122.088 157.957 122.091C157.953 122.1 157.949 122.108 157.944 122.116C157.942 122.12 157.94 122.124 157.937 122.127C157.931 122.136 157.924 122.144 157.917 122.152C157.916 122.153 157.914 122.154 157.913 122.156C157.905 122.164 157.897 122.171 157.888 122.177C157.885 122.179 157.883 122.18 157.881 122.182C157.878 122.184 157.875 122.187 157.872 122.188L138.519 133.645V136.013L157.662 124.476C157.667 124.474 157.671 124.472 157.675 124.47C157.681 124.467 157.687 124.464 157.694 124.461C157.701 124.458 157.709 124.456 157.716 124.454C157.721 124.453 157.726 124.452 157.732 124.451C157.739 124.449 157.747 124.449 157.755 124.448C157.759 124.448 157.764 124.447 157.768 124.447C157.77 124.447 157.772 124.447 157.774 124.447C157.782 124.448 157.789 124.449 157.797 124.45C157.803 124.451 157.808 124.451 157.813 124.452C157.82 124.454 157.826 124.456 157.833 124.458C157.839 124.461 157.846 124.463 157.853 124.466C157.859 124.469 157.866 124.473 157.872 124.476C157.876 124.479 157.881 124.481 157.885 124.484C157.891 124.488 157.897 124.494 157.903 124.499C157.908 124.503 157.913 124.507 157.917 124.512C157.921 124.516 157.924 124.52 157.927 124.524C157.933 124.531 157.938 124.538 157.942 124.545C157.943 124.546 157.945 124.547 157.945 124.549C157.948 124.552 157.949 124.557 157.951 124.56C157.954 124.567 157.958 124.574 157.96 124.581C157.963 124.588 157.965 124.594 157.966 124.601C157.968 124.607 157.97 124.613 157.971 124.619C157.973 124.629 157.973 124.638 157.973 124.647C157.973 124.65 157.975 124.653 157.975 124.656V145.837C157.975 145.838 157.974 145.839 157.974 145.84C157.974 145.845 157.973 145.85 157.973 145.856C157.973 145.86 157.972 145.865 157.971 145.87C157.971 145.874 157.97 145.879 157.969 145.883C157.968 145.888 157.966 145.892 157.965 145.897C157.964 145.901 157.963 145.905 157.961 145.908C157.96 145.912 157.958 145.916 157.957 145.92C157.955 145.925 157.952 145.93 157.949 145.935C157.948 145.937 157.948 145.94 157.947 145.942C157.946 145.944 157.944 145.945 157.942 145.947C157.941 145.95 157.939 145.952 157.937 145.955C157.934 145.96 157.93 145.964 157.926 145.969C157.923 145.973 157.921 145.976 157.918 145.979C157.916 145.981 157.914 145.984 157.912 145.986C157.907 145.99 157.902 145.994 157.897 145.998C157.894 146.001 157.892 146.003 157.889 146.005C157.886 146.007 157.882 146.01 157.879 146.012C157.877 146.013 157.876 146.014 157.875 146.015L136.175 159.253C136.174 159.254 136.173 159.254 136.172 159.254C136.171 159.255 136.17 159.256 136.169 159.256L116.34 170.603C116.336 170.605 116.332 170.606 116.329 170.608C116.323 170.611 116.317 170.614 116.31 170.616C116.303 170.619 116.296 170.621 116.289 170.623C116.283 170.624 116.277 170.626 116.271 170.627C116.263 170.628 116.255 170.628 116.247 170.629C116.244 170.629 116.241 170.63 116.238 170.63C116.236 170.63 116.234 170.629 116.231 170.629C116.223 170.629 116.215 170.628 116.207 170.627C116.201 170.626 116.196 170.625 116.19 170.624C116.182 170.622 116.175 170.619 116.167 170.617C116.162 170.615 116.158 170.613 116.154 170.611C116.146 170.608 116.138 170.603 116.131 170.599C116.127 170.596 116.123 170.594 116.119 170.591C116.111 170.586 116.105 170.58 116.098 170.574C116.095 170.571 116.092 170.569 116.089 170.566C116.084 170.56 116.079 170.554 116.074 170.547C116.07 170.542 116.066 170.536 116.062 170.53C116.061 170.528 116.059 170.527 116.058 170.524C116.056 170.521 116.055 170.517 116.053 170.513C116.05 170.507 116.047 170.501 116.045 170.495C116.042 170.488 116.04 170.481 116.038 170.473C116.037 170.467 116.036 170.461 116.035 170.455C116.033 170.447 116.033 170.439 116.032 170.431C116.032 170.428 116.031 170.424 116.031 170.421V149.619C116.031 149.617 116.032 149.614 116.032 149.612C116.032 149.605 116.033 149.599 116.034 149.592C116.035 149.584 116.036 149.577 116.037 149.569C116.039 149.564 116.041 149.558 116.043 149.553C116.045 149.546 116.047 149.54 116.05 149.534C116.053 149.526 116.057 149.519 116.061 149.512C116.064 149.507 116.066 149.503 116.069 149.499C116.074 149.492 116.08 149.485 116.086 149.478C116.088 149.476 116.09 149.473 116.092 149.471L116.1 149.463C116.104 149.459 116.11 149.456 116.115 149.452C116.119 149.449 116.122 149.446 116.126 149.444C116.128 149.442 116.131 149.44 116.133 149.439L130.249 141.092V140.92C130.249 140.804 130.342 140.711 130.456 140.711C130.547 140.711 130.623 140.771 130.65 140.855L135.861 137.774V135.218L116.342 146.773C116.339 146.775 116.334 146.776 116.33 146.778C116.324 146.782 116.318 146.785 116.311 146.787C116.305 146.79 116.298 146.792 116.292 146.794C116.285 146.795 116.279 146.797 116.272 146.798C116.265 146.799 116.257 146.8 116.25 146.8C116.246 146.801 116.242 146.802 116.238 146.802C116.236 146.802 116.234 146.801 116.231 146.801C116.225 146.801 116.219 146.8 116.212 146.799C116.204 146.798 116.196 146.797 116.189 146.795C116.184 146.794 116.18 146.792 116.175 146.791C116.168 146.788 116.161 146.786 116.154 146.783C116.146 146.78 116.139 146.775 116.132 146.771C116.128 146.769 116.124 146.766 116.12 146.764C116.112 146.759 116.106 146.752 116.099 146.746C116.096 146.743 116.092 146.741 116.09 146.738C116.085 146.733 116.081 146.727 116.076 146.722C116.071 146.716 116.067 146.709 116.062 146.703C116.062 146.701 116.061 146.7 116.06 146.699C116.058 146.696 116.057 146.692 116.055 146.689C116.051 146.682 116.048 146.674 116.045 146.666C116.043 146.66 116.041 146.655 116.04 146.649C116.038 146.642 116.036 146.635 116.035 146.627C116.033 146.62 116.033 146.612 116.032 146.605C116.032 146.601 116.031 146.597 116.031 146.593V123.521C116.031 123.519 116.032 123.517 116.032 123.514C116.032 123.507 116.033 123.499 116.034 123.492C116.035 123.484 116.036 123.477 116.038 123.47C116.039 123.465 116.041 123.461 116.042 123.457C116.045 123.449 116.048 123.44 116.052 123.432C116.054 123.428 116.056 123.423 116.058 123.419C116.062 123.412 116.066 123.405 116.071 123.399C116.074 123.394 116.078 123.389 116.082 123.385C116.087 123.379 116.092 123.374 116.098 123.368C116.102 123.364 116.107 123.361 116.111 123.357C116.117 123.352 116.123 123.348 116.13 123.344C116.132 123.343 116.134 123.341 116.136 123.34L130.249 115.264V115.2C130.249 115.085 130.342 114.991 130.456 114.991C130.516 114.992 130.569 115.017 130.607 115.059L135.966 111.993C135.97 111.99 135.974 111.989 135.978 111.987C135.983 111.984 135.989 111.981 135.995 111.979C136.002 111.976 136.009 111.974 136.016 111.973C136.022 111.971 136.028 111.969 136.034 111.968C136.042 111.967 136.05 111.967 136.058 111.966C136.061 111.966 136.064 111.966 136.068 111.966C136.07 111.966 136.072 111.966 136.074 111.966C136.082 111.966 136.09 111.967 136.098 111.968C136.104 111.969 136.109 111.97 136.115 111.971C136.123 111.973 136.131 111.976 136.138 111.979C136.143 111.98 136.147 111.982 136.152 111.984C136.159 111.987 136.167 111.992 136.174 111.996C136.178 111.999 136.183 112.001 136.187 112.004C136.193 112.009 136.199 112.014 136.206 112.02C136.21 112.024 136.214 112.027 136.217 112.031C136.222 112.036 136.225 112.041 136.229 112.046C136.235 112.053 136.24 112.059 136.244 112.066C136.245 112.068 136.247 112.07 136.248 112.072C136.249 112.074 136.25 112.077 136.251 112.08C136.255 112.087 136.258 112.095 136.261 112.102C136.263 112.108 136.265 112.115 136.266 112.121C136.268 112.128 136.27 112.134 136.271 112.141C136.272 112.149 136.273 112.157 136.273 112.165C136.273 112.168 136.274 112.171 136.274 112.174V134.49L138.106 133.405V110.661C138.106 110.659 138.106 110.657 138.107 110.654C138.107 110.648 138.108 110.641 138.109 110.634C138.11 110.626 138.111 110.618 138.113 110.61C138.114 110.606 138.115 110.603 138.116 110.599C138.119 110.59 138.121 110.582 138.125 110.574C138.127 110.569 138.131 110.564 138.134 110.559C138.137 110.552 138.141 110.545 138.146 110.539C138.149 110.534 138.153 110.53 138.157 110.526C138.161 110.52 138.166 110.515 138.171 110.51C138.176 110.504 138.183 110.5 138.189 110.495C138.193 110.492 138.197 110.489 138.201 110.486C138.204 110.484 138.207 110.482 138.209 110.48L157.665 99.1336L157.688 99.1222C157.691 99.1208 157.695 99.1202 157.698 99.119C157.702 99.1173 157.707 99.1158 157.712 99.1145C157.72 99.112 157.729 99.1101 157.737 99.1088C157.742 99.108 157.747 99.1075 157.751 99.1071C157.757 99.1067 157.762 99.1055 157.768 99.1055C157.771 99.1055 157.774 99.1062 157.777 99.1063ZM116.444 164.487V170.063L135.657 159.069L130.456 155.914L116.444 164.487ZM116.444 149.739V163.999L130.249 155.553V141.576L116.444 149.739ZM130.662 141.332V155.552L135.861 158.706V138.257L130.662 141.332ZM136.274 138.005V158.704L138.108 157.585C138.107 157.577 138.106 157.569 138.106 157.562V136.77L136.274 138.005ZM138.519 151.633V157.334L157.363 145.839L153.276 143.429L138.519 151.633ZM138.519 136.499V151.157L153.179 143.006L153.192 143C153.121 142.966 153.072 142.895 153.072 142.811V127.729L138.519 136.499ZM116.444 140.662V146.229L135.611 134.883L130.465 132.455L116.444 140.662ZM153.412 127.524C153.456 127.562 153.485 127.618 153.485 127.682V142.811C153.485 142.895 153.435 142.967 153.364 143C153.37 143.002 153.375 143.005 153.38 143.008C153.381 143.008 153.382 143.008 153.383 143.009L157.562 145.473V125.023L153.412 127.524ZM116.444 123.642V140.179L130.249 132.099V115.744L116.444 123.642ZM136.274 134.973V137.503L138.106 136.269V133.889L136.274 134.973ZM130.662 115.507V132.087L135.861 134.54V112.532L130.662 115.507ZM138.519 127.424V133.161L157.395 121.986L153.263 118.854L138.519 127.424ZM138.519 110.782V126.942L153.072 118.483V102.294L138.519 110.782ZM153.485 102.053V118.499L157.562 121.59V99.6755L153.485 102.053Z" fill="white"/>
<path fill-rule="evenodd" clip-rule="evenodd" d="M111.093 68.4924C111.155 68.4605 111.229 68.4616 111.289 68.4965L153.381 92.7032C153.384 92.7052 153.387 92.7079 153.39 92.7101C153.396 92.7142 153.403 92.7184 153.408 92.7231C153.414 92.7278 153.419 92.7331 153.424 92.7382C153.428 92.7423 153.432 92.7461 153.436 92.7505C153.441 92.7571 153.446 92.7641 153.451 92.7713C153.453 92.7744 153.455 92.7773 153.457 92.7806C153.458 92.7818 153.458 92.7831 153.459 92.7843C153.463 92.7924 153.466 92.801 153.47 92.8096C153.471 92.8141 153.473 92.8184 153.475 92.823C153.477 92.8301 153.478 92.8374 153.48 92.8447C153.481 92.8509 153.483 92.8571 153.483 92.8634C153.484 92.8703 153.484 92.8772 153.484 92.8842C153.484 92.8908 153.484 92.8973 153.483 92.9038C153.483 92.9098 153.481 92.9157 153.48 92.9217C153.479 92.9295 153.478 92.9373 153.475 92.945C153.474 92.9504 153.471 92.9555 153.469 92.9609C153.467 92.9672 153.465 92.9736 153.462 92.9796C153.46 92.9822 153.459 92.9852 153.458 92.9878C153.456 92.991 153.453 92.9936 153.451 92.9967C153.446 93.0041 153.442 93.0115 153.436 93.0183C153.434 93.0212 153.431 93.0238 153.429 93.0265C153.422 93.0332 153.416 93.0394 153.409 93.0453C153.404 93.0492 153.399 93.0528 153.394 93.0563C153.39 93.0592 153.386 93.063 153.381 93.0656L150.489 94.7476C150.495 94.792 150.488 94.8387 150.464 94.8805C150.406 94.9802 150.28 95.0142 150.181 94.9563L150.155 94.9412L111.103 117.65C111.101 117.651 111.1 117.651 111.098 117.652C111.09 117.657 111.081 117.66 111.072 117.664C111.068 117.665 111.064 117.667 111.06 117.668C111.052 117.671 111.043 117.672 111.034 117.674C111.03 117.675 111.025 117.676 111.02 117.676C111.013 117.677 111.006 117.677 110.999 117.677C110.992 117.677 110.985 117.677 110.978 117.676C110.973 117.676 110.969 117.675 110.964 117.674C110.955 117.672 110.947 117.671 110.939 117.668C110.934 117.667 110.929 117.665 110.924 117.663C110.917 117.659 110.909 117.656 110.901 117.652C110.9 117.651 110.898 117.651 110.897 117.65L72.0168 94.8397L71.8184 94.9563C71.7198 95.0142 71.5933 94.9801 71.536 94.8805C71.4799 94.7827 71.5114 94.6581 71.6058 94.5987L68.9922 93.0652C68.9879 93.0627 68.9841 93.0591 68.9801 93.0563C68.9751 93.0529 68.9702 93.0495 68.9655 93.0457C68.9583 93.0397 68.9517 93.0333 68.9454 93.0265C68.9429 93.0238 68.9405 93.0212 68.9381 93.0183C68.9316 93.0105 68.9256 93.0025 68.9204 92.9939C68.9191 92.9918 68.9175 92.9899 68.9163 92.9878C68.9156 92.9865 68.915 92.985 68.9143 92.9837C68.91 92.9757 68.9066 92.9673 68.9034 92.9588C68.9015 92.9537 68.8997 92.9485 68.8982 92.9433C68.8964 92.9371 68.895 92.9309 68.8938 92.9246C68.8923 92.9172 68.8908 92.9099 68.8901 92.9025C68.89 92.9012 68.8898 92.8998 68.8897 92.8985V92.8687C68.8899 92.8669 68.8903 92.8652 68.8905 92.8634C68.8913 92.8556 68.8929 92.8479 68.8946 92.8402C68.8957 92.8348 68.8966 92.8295 68.8982 92.8243C68.9003 92.8172 68.9033 92.8104 68.9063 92.8035C68.9089 92.7971 68.9115 92.7908 68.9147 92.7847C68.9156 92.7831 68.9162 92.7814 68.9171 92.7798C68.9189 92.7768 68.921 92.7741 68.9228 92.7713C68.9272 92.7644 68.9317 92.7576 68.9369 92.7513C68.9414 92.7457 68.9464 92.7407 68.9514 92.7358C68.9556 92.7317 68.9598 92.7277 68.9643 92.724C68.9712 92.7182 68.9786 92.7132 68.9861 92.7085C68.9887 92.7068 68.9911 92.7047 68.9938 92.7032L110.795 68.6632C110.802 68.5548 110.891 68.4692 111 68.4692C111.033 68.4692 111.065 68.4779 111.093 68.4924ZM72.4278 94.5979L111 117.228L149.743 94.6991L111 71.9451L72.4278 94.5979ZM111.206 71.5835L150.157 94.4585L152.862 92.8854L111.206 68.9291V71.5835ZM69.5101 92.8862L72.0164 94.3565L110.793 71.5835V69.1444L69.5101 92.8862Z" fill="white"/>
<path fill-rule="evenodd" clip-rule="evenodd" d="M110.764 62.0473C110.94 61.974 111.142 61.9858 111.31 62.0835L163.69 92.6241C163.882 92.7359 164 92.9426 164 93.1664V192.833C164 193.057 163.882 193.264 163.69 193.376L158.525 196.387C158.333 196.499 158.097 196.499 157.906 196.387L155.634 195.062L116.785 217.711L116.784 220.362C116.784 220.586 116.666 220.793 116.475 220.905L111.31 223.916C111.118 224.028 110.882 224.028 110.69 223.916L58.3102 193.376C58.1184 193.264 58.0001 193.057 58 192.833V93.1664C58 92.9426 58.1184 92.7359 58.3102 92.6241L110.69 62.0835L110.764 62.0473ZM59.2391 93.528V192.471L110.793 222.53V123.641L59.2733 93.5076L59.2391 93.528ZM111.206 123.641V222.53L115.545 220L115.546 217.35C115.546 217.126 115.664 216.919 115.856 216.807L116.031 216.705V173.447C116.031 173.445 116.032 173.443 116.032 173.441C116.032 173.434 116.033 173.426 116.034 173.418C116.035 173.411 116.036 173.405 116.037 173.399C116.039 173.392 116.041 173.387 116.043 173.381C116.045 173.373 116.048 173.366 116.051 173.359C116.053 173.354 116.056 173.35 116.058 173.345C116.062 173.339 116.065 173.332 116.069 173.326C116.074 173.319 116.08 173.313 116.086 173.306C116.088 173.304 116.09 173.302 116.092 173.3L116.101 173.291C116.105 173.287 116.109 173.284 116.114 173.281C116.118 173.278 116.123 173.274 116.128 173.271C116.13 173.269 116.132 173.268 116.135 173.266L157.665 149.06C157.669 149.057 157.673 149.056 157.677 149.054C157.683 149.051 157.688 149.048 157.694 149.046C157.702 149.043 157.709 149.041 157.717 149.039C157.722 149.038 157.727 149.036 157.733 149.035C157.742 149.034 157.752 149.033 157.761 149.032C157.763 149.032 157.766 149.032 157.768 149.032H157.783C157.789 149.032 157.794 149.034 157.8 149.035C157.805 149.036 157.81 149.036 157.814 149.037C157.823 149.039 157.83 149.042 157.838 149.045C157.843 149.047 157.847 149.048 157.852 149.05C157.859 149.053 157.867 149.058 157.874 149.062C157.878 149.065 157.883 149.067 157.887 149.07C157.894 149.075 157.9 149.081 157.906 149.087C157.91 149.09 157.913 149.093 157.916 149.096C157.921 149.101 157.926 149.107 157.93 149.113C157.935 149.119 157.939 149.125 157.943 149.131C157.944 149.133 157.946 149.135 157.947 149.136C157.949 149.14 157.95 149.144 157.952 149.147C157.955 149.153 157.958 149.159 157.96 149.166C157.963 149.173 157.965 149.181 157.967 149.189C157.969 149.194 157.97 149.199 157.971 149.204C157.972 149.213 157.973 149.222 157.973 149.231C157.973 149.234 157.975 149.238 157.975 149.241V194.981L158.215 195.122L162.761 192.471V93.5284L162.726 93.508L111.206 123.641ZM116.444 173.568V216.464L155.317 193.801V150.91L116.444 173.568ZM155.715 150.678C155.724 150.702 155.73 150.727 155.73 150.753V193.721C155.804 193.733 155.876 193.758 155.943 193.797L157.562 194.74V149.602L155.715 150.678ZM59.686 93.2671L111 123.28L162.313 93.2671L111 63.3492L59.686 93.2671Z" fill="white"/>
<path fill-rule="evenodd" clip-rule="evenodd" d="M59.2391 93.528V192.471L110.793 222.53V123.641L59.2733 93.5076L59.2391 93.528ZM60.8984 171.351C60.8913 171.35 60.8842 171.349 60.877 171.348C60.8729 171.348 60.8687 171.347 60.8645 171.347C60.8616 171.347 60.8585 171.348 60.8556 171.348C60.849 171.348 60.8424 171.349 60.8359 171.35C60.8296 171.351 60.8234 171.352 60.8173 171.353C60.8099 171.355 60.8027 171.357 60.7955 171.36C60.7896 171.362 60.7838 171.364 60.7782 171.367C60.7732 171.369 60.7685 171.372 60.7637 171.375C60.7567 171.379 60.7495 171.382 60.7431 171.387C60.7386 171.39 60.7348 171.395 60.7306 171.398C60.7251 171.403 60.7194 171.408 60.7145 171.413C60.71 171.418 60.706 171.423 60.702 171.428C60.6973 171.434 60.693 171.44 60.6891 171.447C60.6879 171.449 60.6865 171.45 60.6854 171.452C60.6836 171.455 60.6822 171.459 60.6806 171.462C60.6773 171.469 60.6743 171.475 60.6717 171.482C60.6691 171.489 60.6667 171.496 60.6649 171.503C60.6634 171.509 60.6622 171.515 60.6612 171.521C60.6598 171.529 60.6592 171.538 60.6588 171.547C60.6587 171.55 60.658 171.553 60.658 171.556V191.224C60.658 191.226 60.6587 191.229 60.6588 191.232C60.6591 191.239 60.6597 191.247 60.6608 191.255L60.6612 191.257C60.662 191.263 60.6628 191.268 60.664 191.273C60.6658 191.281 60.6683 191.288 60.6709 191.295C60.6731 191.302 60.6754 191.308 60.6782 191.313C60.679 191.315 60.6793 191.317 60.6802 191.319C60.6805 191.319 60.6809 191.32 60.6813 191.321L60.6822 191.322C60.6838 191.325 60.6861 191.328 60.6878 191.331L60.6881 191.331C60.691 191.336 60.6939 191.341 60.6971 191.346C60.6988 191.348 60.7002 191.35 60.702 191.353C60.7061 191.358 60.7107 191.363 60.7153 191.368C60.7175 191.37 60.7198 191.372 60.7221 191.375L60.729 191.381L60.7298 191.382C60.734 191.386 60.7386 191.389 60.7431 191.392C60.7473 191.395 60.7516 191.398 60.756 191.401C60.7585 191.402 60.7607 191.404 60.7633 191.406L83.4809 204.324V204.462C83.4809 204.577 83.5733 204.671 83.6874 204.671C83.7709 204.67 83.8421 204.62 83.8745 204.548L85.7258 205.601V205.975C85.7258 205.977 85.7262 205.978 85.7262 205.98C85.7265 205.99 85.7275 205.999 85.7291 206.009C85.7298 206.014 85.7304 206.018 85.7315 206.023C85.7333 206.031 85.736 206.039 85.7388 206.046C85.741 206.052 85.7433 206.058 85.746 206.064C85.7474 206.067 85.7485 206.07 85.75 206.073C85.7518 206.076 85.7542 206.079 85.7561 206.083C85.7592 206.088 85.7623 206.093 85.7658 206.098C85.7706 206.104 85.7756 206.111 85.7811 206.117C85.7849 206.121 85.7891 206.125 85.7932 206.129C85.799 206.134 85.8051 206.139 85.8114 206.143C85.815 206.146 85.8188 206.149 85.8226 206.151C85.8299 206.156 85.8371 206.16 85.8448 206.164C85.8499 206.166 85.8553 206.168 85.8606 206.17C85.8683 206.173 85.876 206.175 85.884 206.177C85.8875 206.178 85.8911 206.179 85.8947 206.179L85.8965 206.18C85.9062 206.181 85.9159 206.183 85.9259 206.183C85.928 206.183 85.9303 206.184 85.9324 206.184C85.934 206.184 85.9356 206.183 85.9372 206.183C85.9479 206.183 85.9584 206.182 85.9691 206.18C85.9718 206.179 85.9744 206.179 85.9771 206.178C85.9861 206.176 85.9949 206.173 86.0037 206.17C86.0093 206.168 86.0146 206.165 86.0199 206.163C86.0229 206.161 86.0266 206.161 86.0296 206.159L86.3776 205.971L108.654 218.638C108.656 218.64 108.659 218.64 108.661 218.641C108.669 218.646 108.678 218.65 108.687 218.653C108.691 218.654 108.695 218.655 108.699 218.657L108.7 218.657C108.708 218.659 108.716 218.66 108.724 218.662C108.73 218.663 108.736 218.663 108.742 218.664C108.746 218.664 108.751 218.665 108.755 218.665C108.758 218.665 108.761 218.664 108.764 218.664C108.771 218.664 108.778 218.663 108.785 218.662C108.791 218.661 108.797 218.66 108.802 218.659C108.809 218.657 108.815 218.655 108.822 218.653C108.829 218.651 108.836 218.648 108.844 218.644C108.848 218.642 108.852 218.639 108.857 218.637C108.863 218.633 108.869 218.63 108.875 218.625C108.881 218.621 108.887 218.616 108.893 218.611C108.897 218.607 108.901 218.604 108.904 218.6C108.91 218.594 108.914 218.588 108.919 218.582C108.922 218.577 108.926 218.572 108.929 218.566C108.931 218.564 108.934 218.562 108.935 218.559C108.937 218.555 108.938 218.551 108.94 218.547C108.943 218.541 108.945 218.535 108.948 218.529C108.95 218.522 108.952 218.516 108.954 218.509C108.955 218.502 108.957 218.496 108.958 218.488C108.959 218.482 108.96 218.476 108.96 218.47C108.96 218.465 108.962 218.461 108.962 218.457V199.167C108.962 199.163 108.96 199.159 108.96 199.155C108.96 199.149 108.959 199.144 108.959 199.139C108.958 199.131 108.957 199.124 108.955 199.117C108.953 199.11 108.951 199.103 108.948 199.096C108.946 199.091 108.944 199.085 108.942 199.08C108.939 199.074 108.936 199.068 108.932 199.062L108.931 199.06C108.928 199.055 108.925 199.049 108.921 199.044C108.918 199.039 108.914 199.035 108.91 199.03C108.905 199.024 108.9 199.019 108.895 199.014C108.891 199.01 108.887 199.007 108.882 199.003L108.881 199.003C108.875 198.997 108.868 198.993 108.861 198.988C108.859 198.987 108.858 198.986 108.856 198.985L91.7509 189.346V188.955C91.7509 188.839 91.6584 188.746 91.5444 188.746C91.4303 188.746 91.3379 188.839 91.3379 188.955V189.114L86.0328 186.125C86.0305 186.124 86.0278 186.123 86.0255 186.122C86.0172 186.117 86.0086 186.114 85.9997 186.111C85.9955 186.109 85.9914 186.108 85.9872 186.107C85.979 186.104 85.9707 186.103 85.9622 186.101C85.956 186.1 85.9499 186.1 85.9436 186.099C85.9399 186.099 85.9362 186.098 85.9324 186.098C85.9292 186.098 85.9258 186.099 85.9227 186.099C85.9166 186.1 85.9106 186.1 85.9045 186.101C85.8961 186.102 85.888 186.104 85.8799 186.106C85.8777 186.106 85.8755 186.107 85.8733 186.108L85.8682 186.109C85.8601 186.112 85.8521 186.115 85.8444 186.118C85.8392 186.121 85.8341 186.124 85.8291 186.127C85.8224 186.13 85.8159 186.135 85.8097 186.139C85.8071 186.141 85.8046 186.143 85.8021 186.145L85.798 186.149C85.7915 186.155 85.7853 186.16 85.7795 186.167C85.7764 186.17 85.7735 186.174 85.7706 186.178C85.7651 186.185 85.7603 186.192 85.7557 186.2C85.7545 186.202 85.7532 186.204 85.7521 186.206L85.742 186.226C85.7408 186.229 85.7402 186.232 85.7392 186.235C85.7367 186.242 85.7345 186.249 85.7327 186.255C85.7311 186.262 85.7297 186.268 85.7287 186.275C85.7276 186.282 85.727 186.289 85.7267 186.296C85.7265 186.3 85.7258 186.303 85.7258 186.307V205.122L83.8939 204.08V184.794C83.8939 184.791 83.8928 184.788 83.8927 184.785C83.8924 184.779 83.8916 184.774 83.8909 184.768L83.8907 184.766L83.8904 184.764C83.8896 184.758 83.8888 184.752 83.8874 184.746C83.8859 184.74 83.8836 184.733 83.8814 184.727L83.881 184.726C83.8788 184.719 83.8768 184.713 83.8741 184.707C83.8717 184.702 83.8685 184.697 83.8657 184.692C83.8617 184.685 83.8582 184.678 83.8536 184.671C83.8513 184.668 83.8488 184.665 83.8464 184.662L83.8451 184.661C83.8394 184.654 83.8338 184.647 83.8273 184.641C83.8236 184.638 83.8195 184.634 83.8155 184.631L83.814 184.63C83.8086 184.626 83.803 184.622 83.7971 184.618C83.7947 184.616 83.7927 184.614 83.7902 184.613L66.6831 174.69V174.582C66.683 174.467 66.5905 174.373 66.4765 174.373C66.4036 174.373 66.3394 174.411 66.3027 174.469L60.9674 171.375C60.963 171.372 60.9581 171.371 60.9536 171.369C60.9483 171.366 60.9431 171.364 60.9375 171.361C60.9304 171.359 60.9233 171.356 60.9161 171.355C60.9103 171.353 60.9044 171.352 60.8984 171.351ZM85.9662 161.517C85.9591 161.516 85.952 161.515 85.9449 161.515C85.9407 161.514 85.9366 161.513 85.9324 161.513C85.9294 161.513 85.9264 161.514 85.9235 161.514C85.917 161.514 85.9106 161.515 85.9041 161.516C85.8976 161.517 85.8911 161.518 85.8848 161.519C85.8782 161.521 85.8719 161.523 85.8656 161.525L85.8642 161.526C85.858 161.528 85.8519 161.53 85.846 161.533C85.841 161.535 85.8364 161.538 85.8315 161.541C85.8244 161.545 85.8171 161.549 85.8105 161.554C85.8076 161.556 85.8047 161.558 85.8019 161.561L85.8001 161.562C85.7933 161.568 85.7867 161.574 85.7807 161.58C85.7771 161.584 85.7743 161.589 85.771 161.593C85.766 161.599 85.7612 161.606 85.7569 161.613C85.7558 161.615 85.7543 161.616 85.7533 161.618C85.7514 161.621 85.7501 161.625 85.7484 161.628C85.7452 161.635 85.7421 161.641 85.7396 161.648C85.7369 161.655 85.7346 161.662 85.7327 161.669C85.7312 161.675 85.7301 161.681 85.7291 161.687C85.7276 161.696 85.727 161.704 85.7267 161.713C85.7265 161.716 85.7258 161.719 85.7258 161.722V183.004C85.7258 183.08 85.7658 183.149 85.8303 183.186L108.653 196.322C108.655 196.324 108.658 196.324 108.66 196.325C108.668 196.329 108.676 196.333 108.684 196.336C108.69 196.338 108.695 196.34 108.701 196.342C108.708 196.344 108.715 196.345 108.722 196.347C108.73 196.348 108.738 196.348 108.746 196.349C108.749 196.349 108.752 196.35 108.755 196.35C108.757 196.35 108.759 196.349 108.761 196.349C108.769 196.349 108.777 196.348 108.784 196.347C108.791 196.346 108.797 196.345 108.804 196.343C108.809 196.342 108.813 196.34 108.818 196.339L108.821 196.338C108.828 196.335 108.835 196.333 108.841 196.33C108.845 196.328 108.849 196.326 108.854 196.323L108.857 196.321C108.863 196.318 108.87 196.314 108.875 196.31C108.881 196.306 108.885 196.302 108.89 196.298C108.895 196.293 108.901 196.288 108.906 196.283C108.91 196.278 108.913 196.273 108.917 196.269C108.921 196.263 108.926 196.257 108.929 196.251C108.931 196.249 108.933 196.247 108.935 196.244C108.937 196.24 108.938 196.236 108.94 196.232C108.943 196.226 108.945 196.22 108.948 196.214C108.95 196.208 108.952 196.201 108.954 196.194C108.955 196.188 108.957 196.181 108.958 196.174C108.959 196.167 108.96 196.161 108.96 196.154C108.96 196.15 108.962 196.145 108.962 196.141V174.96C108.962 174.957 108.961 174.954 108.961 174.951C108.96 174.945 108.959 174.939 108.959 174.932L108.958 174.931C108.957 174.924 108.957 174.918 108.955 174.912C108.954 174.906 108.951 174.899 108.949 174.893L108.949 174.892C108.947 174.885 108.945 174.879 108.942 174.873C108.94 174.868 108.936 174.863 108.934 174.858C108.93 174.851 108.926 174.844 108.921 174.837C108.92 174.835 108.918 174.833 108.916 174.831L108.913 174.827C108.907 174.82 108.902 174.813 108.895 174.807C108.891 174.803 108.886 174.8 108.882 174.796C108.876 174.792 108.871 174.788 108.865 174.784C108.862 174.783 108.86 174.78 108.858 174.779L91.7509 164.856V164.748C91.7508 164.633 91.6584 164.539 91.5444 164.539C91.4714 164.539 91.4073 164.578 91.3706 164.635L86.0352 161.541C86.0309 161.539 86.0259 161.537 86.0215 161.535C86.0162 161.532 86.0109 161.53 86.0054 161.528C85.9983 161.525 85.9912 161.523 85.984 161.521C85.9782 161.519 85.9722 161.518 85.9662 161.517ZM59.9485 95.1537C59.9484 95.0385 59.856 94.945 59.742 94.9449C59.628 94.9449 59.5356 95.0385 59.5355 95.1537V190.846C59.5356 190.961 59.628 191.054 59.742 191.054C59.856 191.054 59.9485 190.961 59.9485 190.846V95.1537ZM60.8948 147.522C60.8884 147.521 60.8821 147.52 60.8758 147.52C60.872 147.52 60.8683 147.519 60.8645 147.519C60.8607 147.519 60.8569 147.52 60.8532 147.52C60.8467 147.52 60.8403 147.521 60.8339 147.522C60.8267 147.523 60.8198 147.524 60.8129 147.526C60.8077 147.528 60.8026 147.529 60.7976 147.531C60.7898 147.533 60.7822 147.536 60.775 147.54C60.773 147.541 60.7709 147.541 60.7689 147.543L60.7487 147.555C60.7474 147.556 60.7461 147.557 60.7448 147.558L60.7427 147.559C60.7369 147.564 60.7315 147.568 60.7262 147.573C60.7217 147.577 60.7173 147.581 60.7133 147.586C60.7085 147.591 60.7042 147.596 60.6999 147.602C60.6954 147.608 60.6913 147.614 60.6874 147.621C60.686 147.623 60.6844 147.626 60.683 147.628C60.6818 147.63 60.6809 147.633 60.6798 147.636C60.676 147.643 60.6729 147.651 60.6701 147.659C60.6683 147.664 60.6666 147.67 60.6653 147.675C60.6635 147.682 60.6619 147.689 60.6608 147.696C60.6597 147.704 60.6591 147.711 60.6588 147.719C60.6587 147.722 60.658 147.725 60.658 147.728V168.542C60.658 168.618 60.6986 168.688 60.7641 168.725L83.5869 181.572C83.589 181.574 83.5913 181.574 83.5934 181.575C83.6014 181.58 83.6098 181.583 83.6184 181.586C83.6238 181.588 83.6291 181.59 83.6345 181.591C83.6409 181.593 83.6473 181.594 83.6539 181.595C83.6616 181.597 83.6692 181.597 83.6769 181.598C83.6803 181.598 83.6839 181.599 83.6874 181.599C83.6901 181.599 83.6928 181.598 83.6954 181.598C83.7029 181.597 83.7102 181.596 83.7176 181.595C83.7239 181.594 83.7301 181.594 83.7362 181.592C83.7419 181.591 83.7475 181.589 83.7531 181.587C83.761 181.584 83.7687 181.581 83.7761 181.578C83.7805 181.576 83.7844 181.573 83.7886 181.57C83.7954 181.567 83.8021 181.563 83.8084 181.558C83.813 181.555 83.8173 181.551 83.8217 181.547C83.8279 181.542 83.8339 181.536 83.8394 181.53C83.8428 181.526 83.8456 181.522 83.8487 181.518C83.8535 181.512 83.8583 181.506 83.8624 181.499C83.864 181.497 83.8662 181.494 83.8677 181.492C83.8696 181.488 83.8704 181.484 83.8721 181.48C83.8749 181.475 83.8775 181.469 83.8798 181.463C83.8825 181.456 83.8848 181.448 83.8866 181.441C83.888 181.435 83.8893 181.429 83.8903 181.424C83.8915 181.416 83.8923 181.408 83.8927 181.4C83.8928 181.397 83.8939 181.394 83.8939 181.39V160.209C83.8939 160.205 83.8929 160.201 83.8927 160.198C83.8923 160.191 83.8912 160.185 83.8903 160.178C83.8893 160.171 83.8882 160.165 83.8866 160.159C83.8847 160.151 83.8822 160.143 83.8794 160.136C83.8779 160.132 83.8766 160.128 83.8749 160.124C83.8709 160.115 83.8662 160.106 83.8608 160.097C83.8591 160.095 83.8574 160.092 83.8556 160.09C83.8502 160.082 83.8443 160.075 83.8378 160.067C83.8345 160.064 83.8313 160.06 83.8277 160.057C83.8222 160.052 83.8162 160.047 83.81 160.042L83.8089 160.041C83.8044 160.038 83.7999 160.035 83.7951 160.032C83.7919 160.03 83.7891 160.027 83.7858 160.025L66.6831 150.672V150.375C66.683 150.26 66.5905 150.166 66.4765 150.166C66.3625 150.166 66.2701 150.26 66.27 150.375V150.446L60.9629 147.544C60.9602 147.543 60.9572 147.542 60.9544 147.54C60.9475 147.537 60.9404 147.534 60.9331 147.532C60.9269 147.529 60.9208 147.527 60.9145 147.526C60.908 147.524 60.9015 147.523 60.8948 147.522ZM85.9634 137.688C85.9572 137.687 85.9511 137.687 85.9449 137.686C85.9407 137.686 85.9366 137.685 85.9324 137.685C85.9301 137.685 85.9277 137.685 85.9255 137.685C85.9183 137.686 85.9112 137.686 85.9041 137.687C85.8967 137.688 85.8895 137.69 85.8823 137.692C85.8776 137.693 85.8729 137.694 85.8682 137.696C85.8605 137.698 85.8529 137.701 85.8456 137.704C85.8404 137.707 85.8357 137.71 85.8307 137.713C85.824 137.717 85.8171 137.72 85.8109 137.725C85.8068 137.728 85.8032 137.731 85.7993 137.735C85.7929 137.74 85.7868 137.746 85.7811 137.752C85.7775 137.756 85.7744 137.76 85.771 137.765C85.766 137.771 85.7612 137.778 85.7569 137.785C85.7558 137.786 85.7543 137.788 85.7533 137.79C85.7514 137.793 85.7501 137.797 85.7484 137.8C85.7452 137.807 85.7421 137.813 85.7396 137.82C85.7369 137.827 85.7346 137.834 85.7327 137.841C85.7312 137.847 85.7301 137.853 85.7291 137.859C85.7276 137.867 85.727 137.876 85.7267 137.884C85.7265 137.888 85.7258 137.891 85.7258 137.894V158.708C85.7259 158.784 85.7665 158.854 85.8319 158.891L85.8331 158.891L85.8263 158.896C85.7285 158.955 85.6966 159.083 85.7553 159.182C85.8139 159.281 85.9407 159.313 86.0384 159.254L86.249 159.126L108.655 171.739C108.657 171.74 108.659 171.74 108.661 171.741C108.669 171.746 108.678 171.749 108.686 171.752C108.692 171.754 108.697 171.756 108.702 171.757C108.709 171.759 108.715 171.76 108.722 171.761C108.729 171.763 108.737 171.764 108.745 171.764C108.748 171.764 108.752 171.765 108.755 171.765C108.758 171.765 108.761 171.764 108.763 171.764C108.771 171.764 108.778 171.763 108.785 171.761L108.789 171.761C108.794 171.76 108.799 171.759 108.804 171.758C108.808 171.757 108.812 171.756 108.816 171.755L108.82 171.753C108.828 171.751 108.836 171.748 108.844 171.744C108.848 171.742 108.852 171.739 108.856 171.737C108.863 171.733 108.87 171.729 108.877 171.724C108.88 171.721 108.883 171.718 108.887 171.716L108.889 171.713C108.895 171.708 108.901 171.703 108.906 171.697C108.91 171.693 108.914 171.688 108.918 171.683C108.922 171.677 108.926 171.672 108.93 171.665C108.932 171.663 108.934 171.661 108.936 171.658C108.937 171.654 108.938 171.65 108.94 171.646C108.943 171.641 108.945 171.635 108.948 171.629C108.95 171.622 108.952 171.615 108.954 171.608C108.956 171.601 108.957 171.594 108.959 171.587C108.959 171.581 108.96 171.576 108.96 171.571C108.96 171.566 108.962 171.561 108.962 171.556V151.132C108.962 151.129 108.961 151.126 108.961 151.123C108.96 151.116 108.959 151.11 108.959 151.103C108.958 151.097 108.957 151.091 108.956 151.085C108.954 151.078 108.952 151.071 108.949 151.064L108.948 151.061C108.946 151.056 108.945 151.051 108.943 151.046C108.94 151.04 108.937 151.035 108.934 151.029L108.932 151.026C108.929 151.021 108.926 151.016 108.923 151.011C108.919 151.005 108.915 151 108.91 150.995C108.906 150.99 108.901 150.985 108.896 150.98C108.892 150.976 108.887 150.972 108.881 150.968C108.876 150.963 108.869 150.959 108.863 150.955C108.861 150.953 108.86 150.952 108.858 150.951L91.7509 141.028V140.92C91.7509 140.804 91.6584 140.711 91.5444 140.711C91.4713 140.711 91.4073 140.749 91.3706 140.807L86.0352 137.713C86.0323 137.711 86.0289 137.71 86.0259 137.708C86.0183 137.704 86.0103 137.701 86.0021 137.698C85.9976 137.696 85.993 137.695 85.9884 137.694C85.9802 137.691 85.972 137.689 85.9634 137.688ZM60.8944 123.315C60.8888 123.314 60.8833 123.314 60.8778 123.313C60.8734 123.313 60.869 123.312 60.8645 123.312C60.8614 123.312 60.8583 123.313 60.8552 123.313C60.8478 123.313 60.8404 123.314 60.833 123.315C60.8273 123.316 60.8217 123.317 60.8161 123.319C60.8093 123.32 60.8026 123.322 60.7959 123.325C60.7895 123.327 60.7831 123.329 60.777 123.332C60.7716 123.335 60.7664 123.338 60.7613 123.341C60.7546 123.345 60.7481 123.349 60.7419 123.353C60.7384 123.356 60.7352 123.359 60.732 123.362L60.7298 123.364C60.7239 123.369 60.7181 123.374 60.7129 123.379C60.709 123.384 60.7055 123.388 60.702 123.393C60.6968 123.4 60.6922 123.406 60.6878 123.414C60.6867 123.416 60.6853 123.417 60.6842 123.419C60.683 123.422 60.6821 123.424 60.681 123.426C60.6767 123.435 60.6732 123.443 60.6701 123.452C60.6686 123.457 60.6672 123.461 60.6661 123.465C60.6638 123.473 60.6621 123.482 60.6608 123.49C60.6599 123.497 60.6592 123.503 60.6588 123.509C60.6586 123.513 60.658 123.517 60.658 123.521V144.57C60.658 144.645 60.6983 144.715 60.7633 144.752L83.5861 157.743C83.588 157.744 83.5903 157.745 83.5922 157.746C83.6003 157.75 83.6085 157.754 83.6172 157.757C83.6225 157.759 83.6279 157.761 83.6333 157.762C83.6405 157.764 83.6477 157.766 83.6551 157.767C83.6625 157.768 83.6699 157.769 83.6773 157.769C83.6806 157.769 83.684 157.77 83.6874 157.77C83.6894 157.77 83.6914 157.77 83.6934 157.769C83.7015 157.769 83.7093 157.768 83.7172 157.767C83.7238 157.766 83.7302 157.765 83.7366 157.763C83.7424 157.762 83.7479 157.76 83.7535 157.758C83.7604 157.756 83.7672 157.753 83.7737 157.75C83.7791 157.748 83.7842 157.745 83.7894 157.742C83.796 157.738 83.8023 157.734 83.8084 157.73C83.813 157.726 83.8173 157.722 83.8217 157.718C83.8275 157.713 83.833 157.708 83.8382 157.703C83.8419 157.699 83.8453 157.694 83.8487 157.69C83.8537 157.684 83.8586 157.677 83.8628 157.67C83.8641 157.668 83.8661 157.666 83.8673 157.664C83.869 157.661 83.8698 157.657 83.8713 157.654C83.8747 157.647 83.8775 157.64 83.8802 157.632C83.8822 157.627 83.8839 157.621 83.8854 157.616C83.8874 157.608 83.8891 157.601 83.8903 157.593C83.8912 157.587 83.8919 157.581 83.8923 157.575C83.8925 157.571 83.8939 157.566 83.8939 157.562V136.381C83.8939 136.378 83.8928 136.375 83.8927 136.372C83.8924 136.365 83.8914 136.357 83.8903 136.35C83.8893 136.344 83.8884 136.338 83.887 136.332C83.8853 136.325 83.883 136.318 83.8806 136.311L83.8791 136.307C83.8774 136.302 83.8758 136.297 83.8737 136.293C83.8711 136.287 83.868 136.281 83.8648 136.276C83.8613 136.27 83.8577 136.264 83.8536 136.258C83.8502 136.253 83.8464 136.249 83.8427 136.244C83.8373 136.238 83.8318 136.232 83.8257 136.227C83.822 136.223 83.818 136.22 83.814 136.217C83.8079 136.212 83.8017 136.207 83.7951 136.203C83.7926 136.202 83.7904 136.2 83.7878 136.198L66.6831 126.56V126.169C66.6831 126.054 66.5906 125.96 66.4765 125.96C66.3625 125.96 66.27 126.054 66.27 126.169V126.328L60.9649 123.339C60.9613 123.337 60.9573 123.336 60.9536 123.334C60.9479 123.331 60.9423 123.328 60.9363 123.326C60.9295 123.323 60.9227 123.321 60.9157 123.32C60.9087 123.318 60.9016 123.316 60.8944 123.315ZM85.9622 111.968C85.956 111.968 85.9499 111.967 85.9436 111.966C85.9399 111.966 85.9362 111.966 85.9324 111.966C85.9292 111.966 85.9258 111.966 85.9227 111.966C85.9162 111.967 85.9097 111.967 85.9033 111.968C85.8962 111.969 85.8892 111.97 85.8823 111.972C85.8762 111.974 85.8702 111.976 85.8642 111.978C85.8576 111.98 85.8511 111.982 85.8448 111.985C85.8394 111.988 85.8343 111.991 85.8291 111.994C85.8224 111.998 85.8159 112.002 85.8097 112.006C85.8064 112.009 85.8033 112.012 85.8001 112.014L85.798 112.016C85.7914 112.022 85.785 112.028 85.7791 112.035C85.7765 112.037 85.7742 112.04 85.7718 112.043C85.7654 112.051 85.7597 112.06 85.7545 112.069C85.7537 112.07 85.7528 112.071 85.7521 112.073C85.751 112.075 85.7502 112.077 85.7492 112.079C85.7452 112.086 85.7414 112.095 85.7383 112.103C85.7362 112.109 85.7347 112.115 85.7331 112.121C85.7313 112.128 85.7298 112.135 85.7287 112.142C85.7276 112.149 85.727 112.156 85.7267 112.163C85.7264 112.166 85.7258 112.17 85.7258 112.174V134.868C85.7258 134.87 85.7262 134.871 85.7262 134.873C85.7265 134.883 85.7276 134.892 85.7291 134.901C85.7298 134.906 85.7301 134.91 85.7311 134.915C85.7318 134.918 85.7323 134.921 85.7331 134.924C85.7345 134.929 85.7369 134.934 85.7388 134.939C85.7405 134.944 85.7423 134.949 85.7444 134.954C85.7457 134.956 85.747 134.959 85.7484 134.962C85.7491 134.963 85.7494 134.965 85.75 134.966C85.7517 134.969 85.754 134.972 85.7557 134.975C85.7585 134.979 85.761 134.984 85.7642 134.989C85.7656 134.991 85.7671 134.993 85.7687 134.995L85.7702 134.997C85.7733 135.001 85.7766 135.005 85.7799 135.008C85.7835 135.012 85.7873 135.016 85.7912 135.02C85.7935 135.022 85.7956 135.024 85.798 135.026C85.8021 135.03 85.8063 135.033 85.8105 135.036C85.8145 135.039 85.8185 135.041 85.8226 135.044C85.8249 135.046 85.8271 135.048 85.8295 135.049L108.652 148.287C108.655 148.289 108.658 148.289 108.661 148.291L108.662 148.291C108.669 148.295 108.676 148.298 108.684 148.301C108.689 148.303 108.694 148.305 108.699 148.306L108.702 148.307C108.708 148.308 108.714 148.31 108.721 148.311C108.728 148.312 108.735 148.313 108.742 148.313C108.747 148.313 108.751 148.315 108.755 148.315C108.758 148.315 108.761 148.314 108.764 148.314C108.77 148.313 108.776 148.312 108.782 148.312L108.785 148.311C108.791 148.31 108.797 148.31 108.802 148.308C108.808 148.307 108.814 148.305 108.819 148.303C108.827 148.3 108.835 148.298 108.843 148.294C108.847 148.292 108.851 148.29 108.855 148.287L108.856 148.287C108.862 148.283 108.868 148.28 108.874 148.276C108.88 148.272 108.884 148.267 108.889 148.263L108.89 148.262C108.895 148.258 108.901 148.253 108.906 148.248C108.91 148.243 108.913 148.239 108.917 148.234C108.921 148.229 108.925 148.223 108.929 148.217C108.931 148.215 108.933 148.213 108.934 148.21C108.937 148.206 108.938 148.201 108.94 148.196L108.94 148.195C108.943 148.19 108.945 148.185 108.947 148.18C108.95 148.173 108.952 148.166 108.954 148.158C108.956 148.152 108.957 148.146 108.958 148.14C108.959 148.133 108.96 148.126 108.96 148.119C108.96 148.114 108.962 148.11 108.962 148.106V125.034C108.962 125.03 108.96 125.026 108.96 125.022C108.96 125.016 108.959 125.011 108.959 125.006L108.958 125.005C108.957 124.998 108.957 124.991 108.955 124.984C108.953 124.977 108.951 124.97 108.948 124.964C108.946 124.958 108.944 124.952 108.942 124.947C108.939 124.94 108.935 124.934 108.931 124.928C108.928 124.922 108.925 124.917 108.921 124.911C108.918 124.907 108.914 124.902 108.911 124.898L108.91 124.897L108.907 124.894C108.903 124.89 108.899 124.885 108.895 124.881C108.891 124.877 108.887 124.874 108.882 124.871L108.881 124.87C108.875 124.865 108.868 124.86 108.861 124.855C108.859 124.854 108.858 124.853 108.856 124.852L91.7509 115.214V115.2C91.7509 115.085 91.6584 114.991 91.5444 114.991C91.4997 114.991 91.4584 115.006 91.4246 115.03L86.0328 111.992C86.0305 111.991 86.0278 111.99 86.0255 111.989C86.0172 111.985 86.0086 111.981 85.9997 111.978C85.9955 111.976 85.9914 111.975 85.9872 111.974C85.979 111.971 85.9707 111.97 85.9622 111.968ZM60.8948 97.5956C60.8884 97.5947 60.8821 97.5939 60.8758 97.5936C60.872 97.5934 60.8683 97.5928 60.8645 97.5928C60.8614 97.5928 60.8583 97.5935 60.8552 97.5936C60.8489 97.5939 60.8426 97.5943 60.8363 97.5952C60.8282 97.5963 60.8202 97.5977 60.8125 97.5997L60.808 97.6009L60.7838 97.6091C60.7813 97.6102 60.779 97.6116 60.7766 97.6128C60.7714 97.6152 60.7663 97.618 60.7613 97.6209C60.7547 97.6248 60.7484 97.629 60.7423 97.6336C60.7375 97.6371 60.7331 97.641 60.7286 97.645C60.7252 97.648 60.7217 97.6507 60.7185 97.6539L60.708 97.6654C60.7058 97.6679 60.704 97.6708 60.702 97.6735C60.6968 97.6802 60.6922 97.6871 60.6878 97.6943C60.6867 97.6962 60.6853 97.698 60.6842 97.7C60.6829 97.7024 60.6822 97.705 60.681 97.7074C60.677 97.7153 60.6735 97.7234 60.6705 97.7318C60.6688 97.7367 60.667 97.7415 60.6657 97.7465C60.6636 97.7542 60.662 97.7621 60.6608 97.7701C60.6598 97.7768 60.6592 97.7834 60.6588 97.7901C60.6586 97.7939 60.658 97.7977 60.658 97.8015V120.36C60.658 120.435 60.6983 120.505 60.7633 120.542L83.5861 133.537C83.5891 133.539 83.5924 133.54 83.5954 133.541C83.6023 133.545 83.6095 133.547 83.6168 133.55C83.6223 133.552 83.6278 133.554 83.6333 133.555C83.6405 133.557 83.6477 133.559 83.6551 133.56C83.6625 133.562 83.6699 133.562 83.6773 133.562C83.6806 133.563 83.684 133.564 83.6874 133.564C83.6894 133.564 83.6914 133.563 83.6934 133.563C83.7021 133.562 83.7107 133.562 83.7192 133.56C83.7243 133.56 83.7292 133.559 83.7342 133.557C83.742 133.556 83.7496 133.553 83.7572 133.551C83.7626 133.549 83.768 133.546 83.7733 133.544C83.7789 133.541 83.7842 133.538 83.7896 133.535L83.791 133.534C83.7964 133.531 83.8017 133.528 83.8068 133.524C83.8132 133.519 83.8194 133.514 83.8253 133.509C83.8292 133.505 83.833 133.502 83.8366 133.498C83.8422 133.492 83.8474 133.486 83.8523 133.479C83.8554 133.475 83.8581 133.47 83.8608 133.466C83.8627 133.463 83.8655 133.461 83.8673 133.458C83.8697 133.453 83.8708 133.448 83.8729 133.444C83.8752 133.439 83.8774 133.434 83.8794 133.429C83.8823 133.421 83.8847 133.413 83.8866 133.405C83.8881 133.399 83.8893 133.394 83.8903 133.387C83.8913 133.381 83.8919 133.374 83.8923 133.368C83.8925 133.364 83.8939 133.359 83.8939 133.355V110.661C83.8939 110.658 83.8928 110.656 83.8927 110.653C83.8924 110.645 83.8914 110.637 83.8903 110.629C83.8894 110.624 83.8884 110.618 83.887 110.612C83.8853 110.605 83.8831 110.598 83.8806 110.591C83.8785 110.585 83.8766 110.579 83.8741 110.574C83.8711 110.567 83.8674 110.561 83.8636 110.555C83.8604 110.549 83.8573 110.544 83.8536 110.539C83.85 110.534 83.8459 110.529 83.8419 110.524L83.8394 110.521C83.8355 110.517 83.8317 110.512 83.8273 110.508C83.8224 110.504 83.8171 110.499 83.8116 110.495C83.8063 110.491 83.8008 110.487 83.7951 110.484C83.7926 110.482 83.7904 110.48 83.7878 110.479L66.6831 100.841V100.449C66.683 100.334 66.5906 100.24 66.4765 100.24C66.3625 100.24 66.2701 100.334 66.27 100.449V100.608L60.9649 97.6193C60.9625 97.6179 60.9597 97.6173 60.9573 97.616C60.9494 97.612 60.9414 97.6084 60.9331 97.6054C60.9282 97.6037 60.9235 97.6019 60.9186 97.6005C60.9108 97.5984 60.9029 97.5968 60.8948 97.5956Z" fill="white"/>
<path d="M130.662 141.332V155.552L135.861 158.706V138.257L130.662 141.332Z" fill="white"/>
<path d="M130.662 115.507V132.087L135.861 134.54V112.532L130.662 115.507Z" fill="white"/>
<path d="M153.485 102.053V118.499L157.562 121.59V99.6755L153.485 102.053Z" fill="white"/>
<path d="M153.412 127.524C153.456 127.562 153.485 127.618 153.485 127.682V142.811C153.485 142.895 153.435 142.967 153.364 143C153.37 143.002 153.375 143.005 153.38 143.008C153.381 143.008 153.382 143.008 153.383 143.009L157.562 145.473V125.023L153.412 127.524Z" fill="white"/>
<path d="M155.715 150.678C155.724 150.702 155.73 150.727 155.73 150.753V193.721C155.804 193.733 155.876 193.758 155.943 193.797L157.562 194.74V149.602L155.715 150.678Z" fill="white"/>
<path d="M111.206 71.5835L150.157 94.4585L152.862 92.8854L111.206 68.9291V71.5835Z" fill="white"/>
<path d="M69.5101 92.8862L72.0164 94.3565L110.793 71.5835V69.1444L69.5101 92.8862Z" fill="white"/>
<path d="M66.6831 117.347L83.4809 126.945V110.784L66.6831 101.319V117.347Z" fill="white"/>
<path d="M91.7509 131.722L108.549 141.689V125.156L91.7509 115.692V131.722Z" fill="white"/>
<path d="M91.7509 155.551L108.549 165.518V151.253L91.7509 141.509V155.551Z" fill="white"/>
<path d="M66.6831 141.176L83.4809 150.774V136.503L66.6831 127.038V141.176Z" fill="white"/>
<path d="M66.6831 165.76L83.4809 175.359V160.334L66.6831 151.147V165.76Z" fill="white"/>
<path d="M91.7509 179.757L108.549 189.724V175.081L91.7509 165.338V179.757Z" fill="white"/>
<path d="M66.6831 188.076L83.4809 197.674V184.915L66.6831 175.171V188.076Z" fill="white"/>
<path d="M91.7509 202.827L108.549 212.425V199.289L91.7509 189.824V202.827Z" fill="white"/>
<path d="M116.444 173.568V216.464L155.317 193.801V150.91L116.444 173.568Z" fill="white"/>
</svg>
